<?xml version="1.0" encoding="UTF-8" standalone="no"?>
<!DOCTYPE svg PUBLIC "-//W3C//DTD SVG 1.1//EN"
"http://www.w3.org/Graphics/SVG/1.1/DTD/svg11.dtd">
<svg viewBox="0 0 935 1210" version="1.1" xmlns="http://www.w3.org/2000/svg" xmlns:xlink="http://www.w3.org/1999/xlink">
<defs>
<style type="text/css"><![CDATA[
.g0_13{
fill: #F4F4F4;
}
.g1_13{
fill: #FDFDFD;
}
]]></style>
</defs>
<path fill-rule="evenodd" d="M110,110H825v17.7H110V110Z" class="g0_13"/>
<path fill-rule="evenodd" d="M110,110h18.3v17.7H110V110Z" class="g0_13"/>
<path fill-rule="evenodd" d="M110,127.7H825v17.7H110V127.7Z" class="g0_13"/>
<path fill-rule="evenodd" d="M110,127.7h9.2v17.7H110V127.7Z" class="g0_13"/>
<path fill-rule="evenodd" d="M119.2,127.7h9.1v17.7h-9.1V127.7Z" class="g0_13"/>
<path fill-rule="evenodd" d="M128.3,127.7h9.3v17.7h-9.3V127.7Z" class="g0_13"/>
<path fill-rule="evenodd" d="M137.6,127.7H156v17.7H137.6V127.7Z" class="g0_13"/>
<path fill-rule="evenodd" d="M156,127.7h9.2v17.7H156V127.7Z" class="g0_13"/>
<path fill-rule="evenodd" d="M165.2,127.7h64.3v17.7H165.2V127.7Z" class="g0_13"/>
<path fill-rule="evenodd" d="M229.5,127.7h9.2v17.7h-9.2V127.7Z" class="g0_13"/>
<path fill-rule="evenodd" d="M238.7,127.7h18.4v17.7H238.7V127.7Z" class="g0_13"/>
<path fill-rule="evenodd" d="M257.1,127.7h9.2v17.7h-9.2V127.7Z" class="g0_13"/>
<path fill-rule="evenodd" d="M266.3,127.7h36.8v17.7H266.3V127.7Z" class="g0_13"/>
<path fill-rule="evenodd" d="M303.1,127.7h9.3v17.7h-9.3V127.7Z" class="g0_13"/>
<path fill-rule="evenodd" d="M312.4,127.7h27.5v17.7H312.4V127.7Z" class="g0_13"/>
<path fill-rule="evenodd" d="M339.9,127.7h9.2v17.7h-9.2V127.7Z" class="g0_13"/>
<path fill-rule="evenodd" d="M349.1,127.7h82.8v17.7H349.1V127.7Z" class="g0_13"/>
<path fill-rule="evenodd" d="M431.9,127.7h9.2v17.7h-9.2V127.7Z" class="g0_13"/>
<path fill-rule="evenodd" d="M441.1,127.7h18.4v17.7H441.1V127.7Z" class="g0_13"/>
<path fill-rule="evenodd" d="M459.5,127.7h9.1v17.7h-9.1V127.7Z" class="g0_13"/>
<path fill-rule="evenodd" d="M468.6,127.7h27.7v17.7H468.6V127.7Z" class="g0_13"/>
<path fill-rule="evenodd" d="M496.3,127.7h9.2v17.7h-9.2V127.7Z" class="g0_13"/>
<path fill-rule="evenodd" d="M505.5,127.7h36.8v17.7H505.5V127.7Z" class="g0_13"/>
<path fill-rule="evenodd" d="M542.3,127.7h9.2v17.7h-9.2V127.7Z" class="g0_13"/>
<path fill-rule="evenodd" d="M551.5,127.7h6.3v17.7h-6.3V127.7Z" class="g0_13"/>
<path fill-rule="evenodd" d="M557.8,127.7h27.6v17.7H557.8V127.7Z" class="g0_13"/>
<path fill-rule="evenodd" d="M585.4,127.7h6.3v17.7h-6.3V127.7Z" class="g0_13"/>
<path fill-rule="evenodd" d="M591.7,127.7h9.2v17.7h-9.2V127.7Z" class="g0_13"/>
<path fill-rule="evenodd" d="M600.9,127.7h18.4v17.7H600.9V127.7Z" class="g0_13"/>
<path fill-rule="evenodd" d="M619.3,127.7h9.2v17.7h-9.2V127.7Z" class="g0_13"/>
<path fill-rule="evenodd" d="M628.5,127.7h9.2v17.7h-9.2V127.7Z" class="g0_13"/>
<path fill-rule="evenodd" d="M637.7,127.7h9.2v17.7h-9.2V127.7Z" class="g0_13"/>
<path fill-rule="evenodd" d="M646.9,127.7h45.9v17.7H646.9V127.7Z" class="g0_13"/>
<path fill-rule="evenodd" d="M692.8,127.7h9.3v17.7h-9.3V127.7Z" class="g0_13"/>
<path fill-rule="evenodd" d="M702.1,127.7h73.6v17.7H702.1V127.7Z" class="g0_13"/>
<path fill-rule="evenodd" d="M110,145.5H825v17.7H110V145.5Z" class="g0_13"/>
<path fill-rule="evenodd" d="M110,145.5h9.2v17.7H110V145.5Z" class="g0_13"/>
<path fill-rule="evenodd" d="M119.2,145.5h18.4v17.7H119.2V145.5Z" class="g0_13"/>
<path fill-rule="evenodd" d="M110,163.3H825V181H110V163.3Z" class="g0_13"/>
<path fill-rule="evenodd" d="M110,163.3h46V181H110V163.3Z" class="g0_13"/>
<path fill-rule="evenodd" d="M165.2,163.3h55.1V181H165.2V163.3Z" class="g0_13"/>
<path fill-rule="evenodd" d="M220.3,163.3h9.2V181h-9.2V163.3Z" class="g0_13"/>
<path fill-rule="evenodd" d="M110,181.1H825v17.7H110V181.1Z" class="g0_13"/>
<path fill-rule="evenodd" d="M110,181.1h46v17.7H110V181.1Z" class="g0_13"/>
<path fill-rule="evenodd" d="M110,198.9H825v17.7H110V198.9Z" class="g0_13"/>
<path fill-rule="evenodd" d="M110,198.9h9.2v17.7H110V198.9Z" class="g0_13"/>
<path fill-rule="evenodd" d="M110,216.6H825v17.8H110V216.6Z" class="g0_13"/>
<path fill-rule="evenodd" d="M146.7,216.6H202v17.8H146.7V216.6Z" class="g0_13"/>
<path fill-rule="evenodd" d="M211.1,216.6h55.2v17.8H211.1V216.6Z" class="g0_13"/>
<path fill-rule="evenodd" d="M275.5,216.6h36.9v17.8H275.5V216.6Z" class="g0_13"/>
<path fill-rule="evenodd" d="M358.3,216.6h18.4v17.8H358.3V216.6Z" class="g0_13"/>
<path fill-rule="evenodd" d="M110,234.4H825v17.8H110V234.4Z" class="g0_13"/>
<path fill-rule="evenodd" d="M146.7,234.4H156v17.8h-9.3V234.4Z" class="g0_13"/>
<path fill-rule="evenodd" d="M110,252.2H825V270H110V252.2Z" class="g0_13"/>
<path fill-rule="evenodd" d="M183.6,252.2h55.1V270H183.6V252.2Z" class="g0_13"/>
<path fill-rule="evenodd" d="M266.3,252.2h9.2V270h-9.2V252.2Z" class="g0_13"/>
<path fill-rule="evenodd" d="M110,270H825v17.8H110V270Z" class="g0_13"/>
<path fill-rule="evenodd" d="M248,270h9.1v17.8H248V270Z" class="g0_13"/>
<path fill-rule="evenodd" d="M257.1,270h82.8v17.8H257.1V270Z" class="g0_13"/>
<path fill-rule="evenodd" d="M339.9,270h9.2v17.8h-9.2V270Z" class="g0_13"/>
<path fill-rule="evenodd" d="M349.1,270h55.2v17.8H349.1V270Z" class="g0_13"/>
<path fill-rule="evenodd" d="M404.3,270h9.2v17.8h-9.2V270Z" class="g0_13"/>
<path fill-rule="evenodd" d="M413.5,270h27.6v17.8H413.5V270Z" class="g0_13"/>
<path fill-rule="evenodd" d="M441.1,270h9.2v17.8h-9.2V270Z" class="g0_13"/>
<path fill-rule="evenodd" d="M450.3,270h55.2v17.8H450.3V270Z" class="g0_13"/>
<path fill-rule="evenodd" d="M505.5,270h9.2v17.8h-9.2V270Z" class="g0_13"/>
<path fill-rule="evenodd" d="M514.7,270h9.2v17.8h-9.2V270Z" class="g0_13"/>
<path fill-rule="evenodd" d="M523.9,270H533v17.8h-9.1V270Z" class="g0_13"/>
<path fill-rule="evenodd" d="M533,270h9.3v17.8H533V270Z" class="g0_13"/>
<path fill-rule="evenodd" d="M542.3,270h9.2v17.8h-9.2V270Z" class="g0_13"/>
<path fill-rule="evenodd" d="M551.5,270h9.2v17.8h-9.2V270Z" class="g0_13"/>
<path fill-rule="evenodd" d="M110,287.8H825v17.8H110V287.8Z" class="g0_13"/>
<path fill-rule="evenodd" d="M211.1,287.8h9.2v17.8h-9.2V287.8Z" class="g0_13"/>
<path fill-rule="evenodd" d="M293.9,287.8h9.2v17.8h-9.2V287.8Z" class="g0_13"/>
<path fill-rule="evenodd" d="M303.1,287.8h73.6v17.8H303.1V287.8Z" class="g0_13"/>
<path fill-rule="evenodd" d="M376.7,287.8h18.4v17.8H376.7V287.8Z" class="g0_13"/>
<path fill-rule="evenodd" d="M395.1,287.8h9.2v17.8h-9.2V287.8Z" class="g0_13"/>
<path fill-rule="evenodd" d="M110,305.6H825v17.7H110V305.6Z" class="g0_13"/>
<path fill-rule="evenodd" d="M248,305.6h9.1v17.7H248V305.6Z" class="g0_13"/>
<path fill-rule="evenodd" d="M257.1,305.6h82.8v17.7H257.1V305.6Z" class="g0_13"/>
<path fill-rule="evenodd" d="M339.9,305.6h9.2v17.7h-9.2V305.6Z" class="g0_13"/>
<path fill-rule="evenodd" d="M422.7,305.6h9.2v17.7h-9.2V305.6Z" class="g0_13"/>
<path fill-rule="evenodd" d="M431.9,305.6H634.3v17.7H431.9V305.6Z" class="g0_13"/>
<path fill-rule="evenodd" d="M634.3,305.6h9.1v17.7h-9.1V305.6Z" class="g0_13"/>
<path fill-rule="evenodd" d="M680.2,305.6h46v17.7h-46V305.6Z" class="g0_13"/>
<path fill-rule="evenodd" d="M726.2,305.6h18.4v17.7H726.2V305.6Z" class="g0_13"/>
<path fill-rule="evenodd" d="M744.6,305.6h9.2v17.7h-9.2V305.6Z" class="g0_13"/>
<path fill-rule="evenodd" d="M110,323.4H825v17.7H110V323.4Z" class="g0_13"/>
<path fill-rule="evenodd" d="M248,323.4h9.1v17.7H248V323.4Z" class="g0_13"/>
<path fill-rule="evenodd" d="M257.1,323.4h73.6v17.7H257.1V323.4Z" class="g0_13"/>
<path fill-rule="evenodd" d="M330.7,323.4h18.4v17.7H330.7V323.4Z" class="g0_13"/>
<path fill-rule="evenodd" d="M349.1,323.4h9.2v17.7h-9.2V323.4Z" class="g0_13"/>
<path fill-rule="evenodd" d="M110,341.2H825v17.7H110V341.2Z" class="g0_13"/>
<path fill-rule="evenodd" d="M146.7,341.2H156v17.7h-9.3V341.2Z" class="g0_13"/>
<path fill-rule="evenodd" d="M110,359H825v17.7H110V359Z" class="g0_13"/>
<path fill-rule="evenodd" d="M110,359h9.2v17.7H110V359Z" class="g0_13"/>
<path fill-rule="evenodd" d="M110,376.7H825v17.8H110V376.7Z" class="g0_13"/>
<path fill-rule="evenodd" d="M110,376.7h55.2v17.8H110V376.7Z" class="g0_13"/>
<path fill-rule="evenodd" d="M174.3,376.7h55.2v17.8H174.3V376.7Z" class="g0_13"/>
<path fill-rule="evenodd" d="M238.7,376.7h46v17.8h-46V376.7Z" class="g0_13"/>
<path fill-rule="evenodd" d="M110,394.5H825v17.8H110V394.5Z" class="g0_13"/>
<path fill-rule="evenodd" d="M110,394.5h9.2v17.8H110V394.5Z" class="g0_13"/>
<path fill-rule="evenodd" d="M110,412.3H825V430H110V412.3Z" class="g0_13"/>
<path fill-rule="evenodd" d="M146.7,412.3H202V430H146.7V412.3Z" class="g0_13"/>
<path fill-rule="evenodd" d="M211.1,412.3h55.2V430H211.1V412.3Z" class="g0_13"/>
<path fill-rule="evenodd" d="M275.5,412.3h27.6V430H275.5V412.3Z" class="g0_13"/>
<path fill-rule="evenodd" d="M514.7,412.3h9.2V430h-9.2V412.3Z" class="g0_13"/>
<path fill-rule="evenodd" d="M523.9,412.3H579V430H523.9V412.3Z" class="g0_13"/>
<path fill-rule="evenodd" d="M643.4,412.3h55.3V430H643.4V412.3Z" class="g0_13"/>
<path fill-rule="evenodd" d="M772.2,412.3h9.2V430h-9.2V412.3Z" class="g0_13"/>
<path fill-rule="evenodd" d="M110,430.1H825v17.7H110V430.1Z" class="g0_13"/>
<path fill-rule="evenodd" d="M146.7,430.1H156v17.7h-9.3V430.1Z" class="g0_13"/>
<path fill-rule="evenodd" d="M110,447.9H825v17.7H110V447.9Z" class="g0_13"/>
<path fill-rule="evenodd" d="M183.6,447.9h27.5v17.7H183.6V447.9Z" class="g0_13"/>
<path fill-rule="evenodd" d="M275.5,447.9h9.2v17.7h-9.2V447.9Z" class="g0_13"/>
<path fill-rule="evenodd" d="M293.9,447.9h9.2v17.7h-9.2V447.9Z" class="g0_13"/>
<path fill-rule="evenodd" d="M303.1,447.9h9.3v17.7h-9.3V447.9Z" class="g0_13"/>
<path fill-rule="evenodd" d="M110,465.7H825v17.7H110V465.7Z" class="g0_13"/>
<path fill-rule="evenodd" d="M183.6,465.7h27.5v17.7H183.6V465.7Z" class="g0_13"/>
<path fill-rule="evenodd" d="M238.7,465.7H248v17.7h-9.3V465.7Z" class="g0_13"/>
<path fill-rule="evenodd" d="M257.1,465.7h9.2v17.7h-9.2V465.7Z" class="g0_13"/>
<path fill-rule="evenodd" d="M266.3,465.7h9.2v17.7h-9.2V465.7Z" class="g0_13"/>
<path fill-rule="evenodd" d="M110,483.5H825v17.7H110V483.5Z" class="g0_13"/>
<path fill-rule="evenodd" d="M183.6,483.5h45.9v17.7H183.6V483.5Z" class="g0_13"/>
<path fill-rule="evenodd" d="M238.7,483.5h18.4v17.7H238.7V483.5Z" class="g0_13"/>
<path fill-rule="evenodd" d="M275.5,483.5h9.2v17.7h-9.2V483.5Z" class="g0_13"/>
<path fill-rule="evenodd" d="M330.7,483.5h9.2v17.7h-9.2V483.5Z" class="g0_13"/>
<path fill-rule="evenodd" d="M339.9,483.5h64.4v17.7H339.9V483.5Z" class="g0_13"/>
<path fill-rule="evenodd" d="M404.3,483.5h9.2v17.7h-9.2V483.5Z" class="g0_13"/>
<path fill-rule="evenodd" d="M505.5,483.5h18.4v17.7H505.5V483.5Z" class="g0_13"/>
<path fill-rule="evenodd" d="M533,483.5h18.5v17.7H533V483.5Z" class="g0_13"/>
<path fill-rule="evenodd" d="M560.7,483.5h9.2v17.7h-9.2V483.5Z" class="g0_13"/>
<path fill-rule="evenodd" d="M569.9,483.5H579v17.7h-9.1V483.5Z" class="g0_13"/>
<path fill-rule="evenodd" d="M579,483.5h9.3v17.7H579V483.5Z" class="g0_13"/>
<path fill-rule="evenodd" d="M110,501.2H825v17.7H110V501.2Z" class="g0_13"/>
<path fill-rule="evenodd" d="M183.6,501.2h9.1v17.7h-9.1V501.2Z" class="g0_13"/>
<path fill-rule="evenodd" d="M110,519H825v17.7H110V519Z" class="g0_13"/>
<path fill-rule="evenodd" d="M238.7,519h18.4v17.7H238.7V519Z" class="g0_13"/>
<path fill-rule="evenodd" d="M330.7,519h9.2v17.7h-9.2V519Z" class="g0_13"/>
<path fill-rule="evenodd" d="M339.9,519h55.2v17.7H339.9V519Z" class="g0_13"/>
<path fill-rule="evenodd" d="M395.1,519h9.2v17.7h-9.2V519Z" class="g0_13"/>
<path fill-rule="evenodd" d="M110,536.8H825v17.7H110V536.8Z" class="g0_13"/>
<path fill-rule="evenodd" d="M266.3,536.8h27.6v17.7H266.3V536.8Z" class="g0_13"/>
<path fill-rule="evenodd" d="M110,554.6H825v17.7H110V554.6Z" class="g0_13"/>
<path fill-rule="evenodd" d="M183.6,554.6h9.1v17.7h-9.1V554.6Z" class="g0_13"/>
<path fill-rule="evenodd" d="M110,572.4H825v17.7H110V572.4Z" class="g0_13"/>
<path fill-rule="evenodd" d="M183.6,572.4h55.1v17.7H183.6V572.4Z" class="g0_13"/>
<path fill-rule="evenodd" d="M293.9,572.4h9.2v17.7h-9.2V572.4Z" class="g0_13"/>
<path fill-rule="evenodd" d="M110,590.1H825v17.7H110V590.1Z" class="g0_13"/>
<path fill-rule="evenodd" d="M146.7,590.1H156v17.7h-9.3V590.1Z" class="g0_13"/>
<path fill-rule="evenodd" d="M110,607.9H825v17.7H110V607.9Z" class="g0_13"/>
<path fill-rule="evenodd" d="M110,607.9h9.2v17.7H110V607.9Z" class="g0_13"/>
<path fill-rule="evenodd" d="M110,625.7H825v43.7H110V625.7Z" class="g1_13"/>
<path fill-rule="evenodd" d="M110,669.5H825v17.7H110V669.5Z" class="g0_13"/>
<path fill-rule="evenodd" d="M110,687.2H825v17.7H110V687.2Z" class="g0_13"/>
<path fill-rule="evenodd" d="M110,705H825v17.7H110V705Z" class="g0_13"/>
<path fill-rule="evenodd" d="M110,722.8H825V752H110V722.8Z" class="g0_13"/>
</svg>