<?xml version="1.0" encoding="UTF-8" standalone="no"?>
<!DOCTYPE svg PUBLIC "-//W3C//DTD SVG 1.1//EN"
"http://www.w3.org/Graphics/SVG/1.1/DTD/svg11.dtd">
<svg viewBox="0 0 935 1210" version="1.1" xmlns="http://www.w3.org/2000/svg" xmlns:xlink="http://www.w3.org/1999/xlink">
<defs>
<style type="text/css"><![CDATA[
.g0_18{
fill: #F4F4F4;
}
.g1_18{
fill: #FDFDFD;
}
]]></style>
</defs>
<path fill-rule="evenodd" d="M110,110H825v17.7H110V110Z" class="g0_18"/>
<path fill-rule="evenodd" d="M110,110h18.3v17.7H110V110Z" class="g0_18"/>
<path fill-rule="evenodd" d="M110,127.7H825v17.7H110V127.7Z" class="g0_18"/>
<path fill-rule="evenodd" d="M110,127.7h9.2v17.7H110V127.7Z" class="g0_18"/>
<path fill-rule="evenodd" d="M119.2,127.7h9.1v17.7h-9.1V127.7Z" class="g0_18"/>
<path fill-rule="evenodd" d="M128.3,127.7h9.3v17.7h-9.3V127.7Z" class="g0_18"/>
<path fill-rule="evenodd" d="M137.6,127.7H156v17.7H137.6V127.7Z" class="g0_18"/>
<path fill-rule="evenodd" d="M156,127.7h9.2v17.7H156V127.7Z" class="g0_18"/>
<path fill-rule="evenodd" d="M165.2,127.7h64.3v17.7H165.2V127.7Z" class="g0_18"/>
<path fill-rule="evenodd" d="M229.5,127.7h9.2v17.7h-9.2V127.7Z" class="g0_18"/>
<path fill-rule="evenodd" d="M238.7,127.7h18.4v17.7H238.7V127.7Z" class="g0_18"/>
<path fill-rule="evenodd" d="M257.1,127.7h9.2v17.7h-9.2V127.7Z" class="g0_18"/>
<path fill-rule="evenodd" d="M266.3,127.7h46.1v17.7H266.3V127.7Z" class="g0_18"/>
<path fill-rule="evenodd" d="M312.4,127.7h9.1v17.7h-9.1V127.7Z" class="g0_18"/>
<path fill-rule="evenodd" d="M321.5,127.7h64.4v17.7H321.5V127.7Z" class="g0_18"/>
<path fill-rule="evenodd" d="M385.9,127.7h9.2v17.7h-9.2V127.7Z" class="g0_18"/>
<path fill-rule="evenodd" d="M395.1,127.7h27.6v17.7H395.1V127.7Z" class="g0_18"/>
<path fill-rule="evenodd" d="M422.7,127.7h9.2v17.7h-9.2V127.7Z" class="g0_18"/>
<path fill-rule="evenodd" d="M431.9,127.7h46v17.7h-46V127.7Z" class="g0_18"/>
<path fill-rule="evenodd" d="M477.9,127.7h9.2v17.7h-9.2V127.7Z" class="g0_18"/>
<path fill-rule="evenodd" d="M487.1,127.7h64.4v17.7H487.1V127.7Z" class="g0_18"/>
<path fill-rule="evenodd" d="M551.5,127.7h9.2v17.7h-9.2V127.7Z" class="g0_18"/>
<path fill-rule="evenodd" d="M560.7,127.7h27.6v17.7H560.7V127.7Z" class="g0_18"/>
<path fill-rule="evenodd" d="M588.3,127.7h9.1v17.7h-9.1V127.7Z" class="g0_18"/>
<path fill-rule="evenodd" d="M597.4,127.7h18.4v17.7H597.4V127.7Z" class="g0_18"/>
<path fill-rule="evenodd" d="M615.8,127.7H625v17.7h-9.2V127.7Z" class="g0_18"/>
<path fill-rule="evenodd" d="M110,145.5H825v17.7H110V145.5Z" class="g0_18"/>
<path fill-rule="evenodd" d="M110,145.5h9.2v17.7H110V145.5Z" class="g0_18"/>
<path fill-rule="evenodd" d="M119.2,145.5h9.1v17.7h-9.1V145.5Z" class="g0_18"/>
<path fill-rule="evenodd" d="M128.3,145.5h9.3v17.7h-9.3V145.5Z" class="g0_18"/>
<path fill-rule="evenodd" d="M137.6,145.5h82.7v17.7H137.6V145.5Z" class="g0_18"/>
<path fill-rule="evenodd" d="M220.3,145.5h9.2v17.7h-9.2V145.5Z" class="g0_18"/>
<path fill-rule="evenodd" d="M229.5,145.5h64.4v17.7H229.5V145.5Z" class="g0_18"/>
<path fill-rule="evenodd" d="M110,163.3H825V181H110V163.3Z" class="g0_18"/>
<path fill-rule="evenodd" d="M110,163.3h9.2V181H110V163.3Z" class="g0_18"/>
<path fill-rule="evenodd" d="M119.2,163.3h18.4V181H119.2V163.3Z" class="g0_18"/>
<path fill-rule="evenodd" d="M110,181.1H825v17.7H110V181.1Z" class="g0_18"/>
<path fill-rule="evenodd" d="M110,181.1h46v17.7H110V181.1Z" class="g0_18"/>
<path fill-rule="evenodd" d="M165.2,181.1h55.1v17.7H165.2V181.1Z" class="g0_18"/>
<path fill-rule="evenodd" d="M220.3,181.1h9.2v17.7h-9.2V181.1Z" class="g0_18"/>
<path fill-rule="evenodd" d="M110,198.9H825v17.7H110V198.9Z" class="g0_18"/>
<path fill-rule="evenodd" d="M110,198.9h46v17.7H110V198.9Z" class="g0_18"/>
<path fill-rule="evenodd" d="M165.2,198.9H404.3v17.7H165.2V198.9Z" class="g0_18"/>
<path fill-rule="evenodd" d="M404.3,198.9h9.2v17.7h-9.2V198.9Z" class="g0_18"/>
<path fill-rule="evenodd" d="M110,216.6H825v17.8H110V216.6Z" class="g0_18"/>
<path fill-rule="evenodd" d="M110,216.6h46v17.8H110V216.6Z" class="g0_18"/>
<path fill-rule="evenodd" d="M165.2,216.6H266.3v17.8H165.2V216.6Z" class="g0_18"/>
<path fill-rule="evenodd" d="M266.3,216.6h9.2v17.8h-9.2V216.6Z" class="g0_18"/>
<path fill-rule="evenodd" d="M110,234.4H825v17.8H110V234.4Z" class="g0_18"/>
<path fill-rule="evenodd" d="M110,234.4h46v17.8H110V234.4Z" class="g0_18"/>
<path fill-rule="evenodd" d="M165.2,234.4H266.3v17.8H165.2V234.4Z" class="g0_18"/>
<path fill-rule="evenodd" d="M266.3,234.4h9.2v17.8h-9.2V234.4Z" class="g0_18"/>
<path fill-rule="evenodd" d="M110,252.2H825V270H110V252.2Z" class="g0_18"/>
<path fill-rule="evenodd" d="M110,252.2h46V270H110V252.2Z" class="g0_18"/>
<path fill-rule="evenodd" d="M110,270H825v17.8H110V270Z" class="g0_18"/>
<path fill-rule="evenodd" d="M110,270h9.2v17.8H110V270Z" class="g0_18"/>
<path fill-rule="evenodd" d="M110,287.8H825v17.8H110V287.8Z" class="g0_18"/>
<path fill-rule="evenodd" d="M146.7,287.8H202v17.8H146.7V287.8Z" class="g0_18"/>
<path fill-rule="evenodd" d="M211.1,287.8h55.2v17.8H211.1V287.8Z" class="g0_18"/>
<path fill-rule="evenodd" d="M275.5,287.8h36.9v17.8H275.5V287.8Z" class="g0_18"/>
<path fill-rule="evenodd" d="M358.3,287.8h18.4v17.8H358.3V287.8Z" class="g0_18"/>
<path fill-rule="evenodd" d="M110,305.6H825v17.7H110V305.6Z" class="g0_18"/>
<path fill-rule="evenodd" d="M146.7,305.6H156v17.7h-9.3V305.6Z" class="g0_18"/>
<path fill-rule="evenodd" d="M110,323.4H825v17.7H110V323.4Z" class="g0_18"/>
<path fill-rule="evenodd" d="M183.6,323.4h27.5v17.7H183.6V323.4Z" class="g0_18"/>
<path fill-rule="evenodd" d="M376.7,323.4h9.2v17.7h-9.2V323.4Z" class="g0_18"/>
<path fill-rule="evenodd" d="M395.1,323.4h9.2v17.7h-9.2V323.4Z" class="g0_18"/>
<path fill-rule="evenodd" d="M404.3,323.4h9.2v17.7h-9.2V323.4Z" class="g0_18"/>
<path fill-rule="evenodd" d="M110,341.2H825v17.7H110V341.2Z" class="g0_18"/>
<path fill-rule="evenodd" d="M248,341.2h9.1v17.7H248V341.2Z" class="g0_18"/>
<path fill-rule="evenodd" d="M257.1,341.2h82.8v17.7H257.1V341.2Z" class="g0_18"/>
<path fill-rule="evenodd" d="M339.9,341.2h9.2v17.7h-9.2V341.2Z" class="g0_18"/>
<path fill-rule="evenodd" d="M349.1,341.2h55.2v17.7H349.1V341.2Z" class="g0_18"/>
<path fill-rule="evenodd" d="M404.3,341.2h9.2v17.7h-9.2V341.2Z" class="g0_18"/>
<path fill-rule="evenodd" d="M413.5,341.2h27.6v17.7H413.5V341.2Z" class="g0_18"/>
<path fill-rule="evenodd" d="M441.1,341.2h9.2v17.7h-9.2V341.2Z" class="g0_18"/>
<path fill-rule="evenodd" d="M450.3,341.2h73.6v17.7H450.3V341.2Z" class="g0_18"/>
<path fill-rule="evenodd" d="M523.9,341.2H533v17.7h-9.1V341.2Z" class="g0_18"/>
<path fill-rule="evenodd" d="M533,341.2h9.3v17.7H533V341.2Z" class="g0_18"/>
<path fill-rule="evenodd" d="M110,359H825v17.7H110V359Z" class="g0_18"/>
<path fill-rule="evenodd" d="M220.3,359h9.2v17.7h-9.2V359Z" class="g0_18"/>
<path fill-rule="evenodd" d="M238.7,359h27.6v17.7H238.7V359Z" class="g0_18"/>
<path fill-rule="evenodd" d="M266.3,359h9.2v17.7h-9.2V359Z" class="g0_18"/>
<path fill-rule="evenodd" d="M275.5,359h46v17.7h-46V359Z" class="g0_18"/>
<path fill-rule="evenodd" d="M321.5,359h9.2v17.7h-9.2V359Z" class="g0_18"/>
<path fill-rule="evenodd" d="M395.1,359h9.2v17.7h-9.2V359Z" class="g0_18"/>
<path fill-rule="evenodd" d="M404.3,359h73.6v17.7H404.3V359Z" class="g0_18"/>
<path fill-rule="evenodd" d="M477.9,359h27.6v17.7H477.9V359Z" class="g0_18"/>
<path fill-rule="evenodd" d="M505.5,359h9.2v17.7h-9.2V359Z" class="g0_18"/>
<path fill-rule="evenodd" d="M110,376.7H825v17.8H110V376.7Z" class="g0_18"/>
<path fill-rule="evenodd" d="M202,376.7h9.1v17.8H202V376.7Z" class="g0_18"/>
<path fill-rule="evenodd" d="M257.1,376.7h18.4v17.8H257.1V376.7Z" class="g0_18"/>
<path fill-rule="evenodd" d="M284.7,376.7h9.2v17.8h-9.2V376.7Z" class="g0_18"/>
<path fill-rule="evenodd" d="M293.9,376.7h9.2v17.8h-9.2V376.7Z" class="g0_18"/>
<path fill-rule="evenodd" d="M110,394.5H825v17.8H110V394.5Z" class="g0_18"/>
<path fill-rule="evenodd" d="M202,394.5h9.1v17.8H202V394.5Z" class="g0_18"/>
<path fill-rule="evenodd" d="M238.7,394.5H248v17.8h-9.3V394.5Z" class="g0_18"/>
<path fill-rule="evenodd" d="M284.7,394.5h9.2v17.8h-9.2V394.5Z" class="g0_18"/>
<path fill-rule="evenodd" d="M110,412.3H825V430H110V412.3Z" class="g0_18"/>
<path fill-rule="evenodd" d="M202,412.3h9.1V430H202V412.3Z" class="g0_18"/>
<path fill-rule="evenodd" d="M238.7,412.3H248V430h-9.3V412.3Z" class="g0_18"/>
<path fill-rule="evenodd" d="M257.1,412.3h9.2V430h-9.2V412.3Z" class="g0_18"/>
<path fill-rule="evenodd" d="M266.3,412.3h9.2V430h-9.2V412.3Z" class="g0_18"/>
<path fill-rule="evenodd" d="M110,430.1H825v17.7H110V430.1Z" class="g0_18"/>
<path fill-rule="evenodd" d="M183.6,430.1h45.9v17.7H183.6V430.1Z" class="g0_18"/>
<path fill-rule="evenodd" d="M238.7,430.1h18.4v17.7H238.7V430.1Z" class="g0_18"/>
<path fill-rule="evenodd" d="M275.5,430.1h9.2v17.7h-9.2V430.1Z" class="g0_18"/>
<path fill-rule="evenodd" d="M293.9,430.1h9.2v17.7h-9.2V430.1Z" class="g0_18"/>
<path fill-rule="evenodd" d="M303.1,430.1h9.3v17.7h-9.3V430.1Z" class="g0_18"/>
<path fill-rule="evenodd" d="M321.5,430.1h18.4v17.7H321.5V430.1Z" class="g0_18"/>
<path fill-rule="evenodd" d="M349.1,430.1h9.2v17.7h-9.2V430.1Z" class="g0_18"/>
<path fill-rule="evenodd" d="M358.3,430.1h9.2v17.7h-9.2V430.1Z" class="g0_18"/>
<path fill-rule="evenodd" d="M110,447.9H825v17.7H110V447.9Z" class="g0_18"/>
<path fill-rule="evenodd" d="M183.6,447.9h9.1v17.7h-9.1V447.9Z" class="g0_18"/>
<path fill-rule="evenodd" d="M110,465.7H825v17.7H110V465.7Z" class="g0_18"/>
<path fill-rule="evenodd" d="M220.3,465.7h18.4v17.7H220.3V465.7Z" class="g0_18"/>
<path fill-rule="evenodd" d="M248,465.7h9.1v17.7H248V465.7Z" class="g0_18"/>
<path fill-rule="evenodd" d="M275.5,465.7h9.2v17.7h-9.2V465.7Z" class="g0_18"/>
<path fill-rule="evenodd" d="M293.9,465.7h9.2v17.7h-9.2V465.7Z" class="g0_18"/>
<path fill-rule="evenodd" d="M312.4,465.7h18.3v17.7H312.4V465.7Z" class="g0_18"/>
<path fill-rule="evenodd" d="M339.9,465.7h9.2v17.7h-9.2V465.7Z" class="g0_18"/>
<path fill-rule="evenodd" d="M349.1,465.7h9.2v17.7h-9.2V465.7Z" class="g0_18"/>
<path fill-rule="evenodd" d="M110,483.5H825v17.7H110V483.5Z" class="g0_18"/>
<path fill-rule="evenodd" d="M220.3,483.5h9.2v17.7h-9.2V483.5Z" class="g0_18"/>
<path fill-rule="evenodd" d="M110,501.2H825v17.7H110V501.2Z" class="g0_18"/>
<path fill-rule="evenodd" d="M303.1,501.2h27.6v17.7H303.1V501.2Z" class="g0_18"/>
<path fill-rule="evenodd" d="M110,519H825v17.7H110V519Z" class="g0_18"/>
<path fill-rule="evenodd" d="M257.1,519h46v17.7h-46V519Z" class="g0_18"/>
<path fill-rule="evenodd" d="M303.1,519h9.3v17.7h-9.3V519Z" class="g0_18"/>
<path fill-rule="evenodd" d="M110,536.8H825v17.7H110V536.8Z" class="g0_18"/>
<path fill-rule="evenodd" d="M220.3,536.8h9.2v17.7h-9.2V536.8Z" class="g0_18"/>
<path fill-rule="evenodd" d="M110,554.6H825v17.7H110V554.6Z" class="g0_18"/>
<path fill-rule="evenodd" d="M220.3,554.6h36.8v17.7H220.3V554.6Z" class="g0_18"/>
<path fill-rule="evenodd" d="M110,572.4H825v17.7H110V572.4Z" class="g0_18"/>
<path fill-rule="evenodd" d="M220.3,572.4h9.2v17.7h-9.2V572.4Z" class="g0_18"/>
<path fill-rule="evenodd" d="M110,590.1H825v17.7H110V590.1Z" class="g0_18"/>
<path fill-rule="evenodd" d="M275.5,590.1h9.2v17.7h-9.2V590.1Z" class="g0_18"/>
<path fill-rule="evenodd" d="M312.4,590.1h9.1v17.7h-9.1V590.1Z" class="g0_18"/>
<path fill-rule="evenodd" d="M330.7,590.1h9.2v17.7h-9.2V590.1Z" class="g0_18"/>
<path fill-rule="evenodd" d="M339.9,590.1h9.2v17.7h-9.2V590.1Z" class="g0_18"/>
<path fill-rule="evenodd" d="M110,607.9H825v17.7H110V607.9Z" class="g0_18"/>
<path fill-rule="evenodd" d="M220.3,607.9h9.2v17.7h-9.2V607.9Z" class="g0_18"/>
<path fill-rule="evenodd" d="M110,625.7H825v17.7H110V625.7Z" class="g0_18"/>
<path fill-rule="evenodd" d="M183.6,625.7h9.1v17.7h-9.1V625.7Z" class="g0_18"/>
<path fill-rule="evenodd" d="M110,643.5H825v17.7H110V643.5Z" class="g0_18"/>
<path fill-rule="evenodd" d="M183.6,643.5H202v17.7H183.6V643.5Z" class="g0_18"/>
<path fill-rule="evenodd" d="M211.1,643.5h9.2v17.7h-9.2V643.5Z" class="g0_18"/>
<path fill-rule="evenodd" d="M275.5,643.5h18.4v17.7H275.5V643.5Z" class="g0_18"/>
<path fill-rule="evenodd" d="M303.1,643.5h9.3v17.7h-9.3V643.5Z" class="g0_18"/>
<path fill-rule="evenodd" d="M312.4,643.5h9.1v17.7h-9.1V643.5Z" class="g0_18"/>
<path fill-rule="evenodd" d="M110,661.3H825V679H110V661.3Z" class="g0_18"/>
<path fill-rule="evenodd" d="M183.6,661.3h9.1V679h-9.1V661.3Z" class="g0_18"/>
<path fill-rule="evenodd" d="M110,679.1H825v17.7H110V679.1Z" class="g0_18"/>
<path fill-rule="evenodd" d="M284.7,679.1h9.2v17.7h-9.2V679.1Z" class="g0_18"/>
<path fill-rule="evenodd" d="M293.9,679.1h82.8v17.7H293.9V679.1Z" class="g0_18"/>
<path fill-rule="evenodd" d="M376.7,679.1h9.2v17.7h-9.2V679.1Z" class="g0_18"/>
<path fill-rule="evenodd" d="M385.9,679.1h64.4v17.7H385.9V679.1Z" class="g0_18"/>
<path fill-rule="evenodd" d="M450.3,679.1h9.2v17.7h-9.2V679.1Z" class="g0_18"/>
<path fill-rule="evenodd" d="M459.5,679.1h9.1v17.7h-9.1V679.1Z" class="g0_18"/>
<path fill-rule="evenodd" d="M110,696.8H825v17.7H110V696.8Z" class="g0_18"/>
<path fill-rule="evenodd" d="M183.6,696.8h9.1v17.7h-9.1V696.8Z" class="g0_18"/>
<path fill-rule="evenodd" d="M110,714.6H825v17.7H110V714.6Z" class="g0_18"/>
<path fill-rule="evenodd" d="M183.6,714.6h36.7v17.7H183.6V714.6Z" class="g0_18"/>
<path fill-rule="evenodd" d="M110,732.4H825v17.7H110V732.4Z" class="g0_18"/>
<path fill-rule="evenodd" d="M183.6,732.4h9.1v17.7h-9.1V732.4Z" class="g0_18"/>
<path fill-rule="evenodd" d="M110,750.2H825v17.7H110V750.2Z" class="g0_18"/>
<path fill-rule="evenodd" d="M284.7,750.2h9.2v17.7h-9.2V750.2Z" class="g0_18"/>
<path fill-rule="evenodd" d="M293.9,750.2h82.8v17.7H293.9V750.2Z" class="g0_18"/>
<path fill-rule="evenodd" d="M376.7,750.2h9.2v17.7h-9.2V750.2Z" class="g0_18"/>
<path fill-rule="evenodd" d="M385.9,750.2h55.2v17.7H385.9V750.2Z" class="g0_18"/>
<path fill-rule="evenodd" d="M441.1,750.2h9.2v17.7h-9.2V750.2Z" class="g0_18"/>
<path fill-rule="evenodd" d="M450.3,750.2h9.2v17.7h-9.2V750.2Z" class="g0_18"/>
<path fill-rule="evenodd" d="M110,768H825v17.7H110V768Z" class="g0_18"/>
<path fill-rule="evenodd" d="M183.6,768h9.1v17.7h-9.1V768Z" class="g0_18"/>
<path fill-rule="evenodd" d="M110,785.7H825v17.8H110V785.7Z" class="g0_18"/>
<path fill-rule="evenodd" d="M248,785.7h9.1v17.8H248V785.7Z" class="g0_18"/>
<path fill-rule="evenodd" d="M257.1,785.7h36.8v17.8H257.1V785.7Z" class="g0_18"/>
<path fill-rule="evenodd" d="M293.9,785.7h18.5v17.8H293.9V785.7Z" class="g0_18"/>
<path fill-rule="evenodd" d="M312.4,785.7h9.1v17.8h-9.1V785.7Z" class="g0_18"/>
<path fill-rule="evenodd" d="M110,803.5H825v17.8H110V803.5Z" class="g0_18"/>
<path fill-rule="evenodd" d="M146.7,803.5H156v17.8h-9.3V803.5Z" class="g0_18"/>
<path fill-rule="evenodd" d="M110,821.3H825v17.8H110V821.3Z" class="g0_18"/>
<path fill-rule="evenodd" d="M110,821.3h9.2v17.8H110V821.3Z" class="g0_18"/>
<path fill-rule="evenodd" d="M110,839.1H825v43.7H110V839.1Z" class="g1_18"/>
<path fill-rule="evenodd" d="M110,882.8H825v17.7H110V882.8Z" class="g0_18"/>
<path fill-rule="evenodd" d="M110,900.6H825v17.7H110V900.6Z" class="g0_18"/>
<path fill-rule="evenodd" d="M110,918.4H825v29.2H110V918.4Z" class="g0_18"/>
</svg>