<?xml version="1.0" encoding="UTF-8" standalone="no"?>
<!DOCTYPE svg PUBLIC "-//W3C//DTD SVG 1.1//EN"
"http://www.w3.org/Graphics/SVG/1.1/DTD/svg11.dtd">
<svg viewBox="0 0 935 1210" version="1.1" xmlns="http://www.w3.org/2000/svg" xmlns:xlink="http://www.w3.org/1999/xlink">
<defs>
<style type="text/css"><![CDATA[
.g0_31{
fill: #F4F4F4;
}
.g1_31{
fill: #FDFDFD;
}
]]></style>
</defs>
<path fill-rule="evenodd" d="M110,110H825v17.7H110V110Z" class="g0_31"/>
<path fill-rule="evenodd" d="M110,110h18.3v17.7H110V110Z" class="g0_31"/>
<path fill-rule="evenodd" d="M110,127.7H825v17.7H110V127.7Z" class="g0_31"/>
<path fill-rule="evenodd" d="M110,127.7h9.2v17.7H110V127.7Z" class="g0_31"/>
<path fill-rule="evenodd" d="M119.2,127.7h9.1v17.7h-9.1V127.7Z" class="g0_31"/>
<path fill-rule="evenodd" d="M128.3,127.7h9.3v17.7h-9.3V127.7Z" class="g0_31"/>
<path fill-rule="evenodd" d="M137.6,127.7h9.1v17.7h-9.1V127.7Z" class="g0_31"/>
<path fill-rule="evenodd" d="M146.7,127.7h18.5v17.7H146.7V127.7Z" class="g0_31"/>
<path fill-rule="evenodd" d="M165.2,127.7h9.1v17.7h-9.1V127.7Z" class="g0_31"/>
<path fill-rule="evenodd" d="M174.3,127.7h64.4v17.7H174.3V127.7Z" class="g0_31"/>
<path fill-rule="evenodd" d="M238.7,127.7H248v17.7h-9.3V127.7Z" class="g0_31"/>
<path fill-rule="evenodd" d="M248,127.7h18.3v17.7H248V127.7Z" class="g0_31"/>
<path fill-rule="evenodd" d="M266.3,127.7h9.2v17.7h-9.2V127.7Z" class="g0_31"/>
<path fill-rule="evenodd" d="M275.5,127.7h82.8v17.7H275.5V127.7Z" class="g0_31"/>
<path fill-rule="evenodd" d="M358.3,127.7h9.2v17.7h-9.2V127.7Z" class="g0_31"/>
<path fill-rule="evenodd" d="M367.5,127.7H477.9v17.7H367.5V127.7Z" class="g0_31"/>
<path fill-rule="evenodd" d="M110,145.5H825v17.7H110V145.5Z" class="g0_31"/>
<path fill-rule="evenodd" d="M110,145.5h46v17.7H110V145.5Z" class="g0_31"/>
<path fill-rule="evenodd" d="M156,145.5h9.2v17.7H156V145.5Z" class="g0_31"/>
<path fill-rule="evenodd" d="M165.2,145.5h64.3v17.7H165.2V145.5Z" class="g0_31"/>
<path fill-rule="evenodd" d="M110,163.3H825V181H110V163.3Z" class="g0_31"/>
<path fill-rule="evenodd" d="M110,163.3h46V181H110V163.3Z" class="g0_31"/>
<path fill-rule="evenodd" d="M156,163.3h9.2V181H156V163.3Z" class="g0_31"/>
<path fill-rule="evenodd" d="M165.2,163.3h64.3V181H165.2V163.3Z" class="g0_31"/>
<path fill-rule="evenodd" d="M110,181.1H825v17.7H110V181.1Z" class="g0_31"/>
<path fill-rule="evenodd" d="M110,181.1h9.2v17.7H110V181.1Z" class="g0_31"/>
<path fill-rule="evenodd" d="M110,198.9H825v17.7H110V198.9Z" class="g0_31"/>
<path fill-rule="evenodd" d="M110,198.9h9.2v17.7H110V198.9Z" class="g0_31"/>
<path fill-rule="evenodd" d="M119.2,198.9h9.1v17.7h-9.1V198.9Z" class="g0_31"/>
<path fill-rule="evenodd" d="M128.3,198.9h9.3v17.7h-9.3V198.9Z" class="g0_31"/>
<path fill-rule="evenodd" d="M137.6,198.9h9.1v17.7h-9.1V198.9Z" class="g0_31"/>
<path fill-rule="evenodd" d="M146.7,198.9H202v17.7H146.7V198.9Z" class="g0_31"/>
<path fill-rule="evenodd" d="M202,198.9h9.1v17.7H202V198.9Z" class="g0_31"/>
<path fill-rule="evenodd" d="M211.1,198.9H248v17.7H211.1V198.9Z" class="g0_31"/>
<path fill-rule="evenodd" d="M248,198.9h9.1v17.7H248V198.9Z" class="g0_31"/>
<path fill-rule="evenodd" d="M257.1,198.9H376.7v17.7H257.1V198.9Z" class="g0_31"/>
<path fill-rule="evenodd" d="M376.7,198.9h9.2v17.7h-9.2V198.9Z" class="g0_31"/>
<path fill-rule="evenodd" d="M385.9,198.9h46v17.7h-46V198.9Z" class="g0_31"/>
<path fill-rule="evenodd" d="M110,216.6H825v17.8H110V216.6Z" class="g0_31"/>
<path fill-rule="evenodd" d="M110,216.6h9.2v17.8H110V216.6Z" class="g0_31"/>
<path fill-rule="evenodd" d="M119.2,216.6h9.1v17.8h-9.1V216.6Z" class="g0_31"/>
<path fill-rule="evenodd" d="M128.3,216.6h9.3v17.8h-9.3V216.6Z" class="g0_31"/>
<path fill-rule="evenodd" d="M137.6,216.6h9.1v17.8h-9.1V216.6Z" class="g0_31"/>
<path fill-rule="evenodd" d="M146.7,216.6H156v17.8h-9.3V216.6Z" class="g0_31"/>
<path fill-rule="evenodd" d="M110,234.4H825v17.8H110V234.4Z" class="g0_31"/>
<path fill-rule="evenodd" d="M110,234.4h9.2v17.8H110V234.4Z" class="g0_31"/>
<path fill-rule="evenodd" d="M119.2,234.4h9.1v17.8h-9.1V234.4Z" class="g0_31"/>
<path fill-rule="evenodd" d="M128.3,234.4h9.3v17.8h-9.3V234.4Z" class="g0_31"/>
<path fill-rule="evenodd" d="M137.6,234.4h9.1v17.8h-9.1V234.4Z" class="g0_31"/>
<path fill-rule="evenodd" d="M146.7,234.4H156v17.8h-9.3V234.4Z" class="g0_31"/>
<path fill-rule="evenodd" d="M156,234.4h9.2v17.8H156V234.4Z" class="g0_31"/>
<path fill-rule="evenodd" d="M165.2,234.4h9.1v17.8h-9.1V234.4Z" class="g0_31"/>
<path fill-rule="evenodd" d="M174.3,234.4h9.3v17.8h-9.3V234.4Z" class="g0_31"/>
<path fill-rule="evenodd" d="M183.6,234.4h27.5v17.8H183.6V234.4Z" class="g0_31"/>
<path fill-rule="evenodd" d="M211.1,234.4h9.2v17.8h-9.2V234.4Z" class="g0_31"/>
<path fill-rule="evenodd" d="M220.3,234.4h18.4v17.8H220.3V234.4Z" class="g0_31"/>
<path fill-rule="evenodd" d="M238.7,234.4H248v17.8h-9.3V234.4Z" class="g0_31"/>
<path fill-rule="evenodd" d="M248,234.4h18.3v17.8H248V234.4Z" class="g0_31"/>
<path fill-rule="evenodd" d="M266.3,234.4h9.2v17.8h-9.2V234.4Z" class="g0_31"/>
<path fill-rule="evenodd" d="M275.5,234.4h36.9v17.8H275.5V234.4Z" class="g0_31"/>
<path fill-rule="evenodd" d="M110,252.2H825V270H110V252.2Z" class="g0_31"/>
<path fill-rule="evenodd" d="M110,252.2h9.2V270H110V252.2Z" class="g0_31"/>
<path fill-rule="evenodd" d="M119.2,252.2h9.1V270h-9.1V252.2Z" class="g0_31"/>
<path fill-rule="evenodd" d="M128.3,252.2h9.3V270h-9.3V252.2Z" class="g0_31"/>
<path fill-rule="evenodd" d="M137.6,252.2h9.1V270h-9.1V252.2Z" class="g0_31"/>
<path fill-rule="evenodd" d="M146.7,252.2H156V270h-9.3V252.2Z" class="g0_31"/>
<path fill-rule="evenodd" d="M156,252.2h9.2V270H156V252.2Z" class="g0_31"/>
<path fill-rule="evenodd" d="M165.2,252.2h9.1V270h-9.1V252.2Z" class="g0_31"/>
<path fill-rule="evenodd" d="M174.3,252.2h9.3V270h-9.3V252.2Z" class="g0_31"/>
<path fill-rule="evenodd" d="M183.6,252.2H404.3V270H183.6V252.2Z" class="g0_31"/>
<path fill-rule="evenodd" d="M404.3,252.2h9.2V270h-9.2V252.2Z" class="g0_31"/>
<path fill-rule="evenodd" d="M413.5,252.2h27.6V270H413.5V252.2Z" class="g0_31"/>
<path fill-rule="evenodd" d="M441.1,252.2h9.2V270h-9.2V252.2Z" class="g0_31"/>
<path fill-rule="evenodd" d="M450.3,252.2h73.6V270H450.3V252.2Z" class="g0_31"/>
<path fill-rule="evenodd" d="M523.9,252.2H533V270h-9.1V252.2Z" class="g0_31"/>
<path fill-rule="evenodd" d="M533,252.2h9.3V270H533V252.2Z" class="g0_31"/>
<path fill-rule="evenodd" d="M542.3,252.2h9.2V270h-9.2V252.2Z" class="g0_31"/>
<path fill-rule="evenodd" d="M551.5,252.2H579V270H551.5V252.2Z" class="g0_31"/>
<path fill-rule="evenodd" d="M110,270H825v17.8H110V270Z" class="g0_31"/>
<path fill-rule="evenodd" d="M110,270h9.2v17.8H110V270Z" class="g0_31"/>
<path fill-rule="evenodd" d="M119.2,270h9.1v17.8h-9.1V270Z" class="g0_31"/>
<path fill-rule="evenodd" d="M128.3,270h9.3v17.8h-9.3V270Z" class="g0_31"/>
<path fill-rule="evenodd" d="M137.6,270h9.1v17.8h-9.1V270Z" class="g0_31"/>
<path fill-rule="evenodd" d="M146.7,270H156v17.8h-9.3V270Z" class="g0_31"/>
<path fill-rule="evenodd" d="M156,270h9.2v17.8H156V270Z" class="g0_31"/>
<path fill-rule="evenodd" d="M165.2,270h9.1v17.8h-9.1V270Z" class="g0_31"/>
<path fill-rule="evenodd" d="M174.3,270h9.3v17.8h-9.3V270Z" class="g0_31"/>
<path fill-rule="evenodd" d="M183.6,270h9.1v17.8h-9.1V270Z" class="g0_31"/>
<path fill-rule="evenodd" d="M192.7,270H202v17.8h-9.3V270Z" class="g0_31"/>
<path fill-rule="evenodd" d="M202,270h9.1v17.8H202V270Z" class="g0_31"/>
<path fill-rule="evenodd" d="M211.1,270h9.2v17.8h-9.2V270Z" class="g0_31"/>
<path fill-rule="evenodd" d="M220.3,270h276v17.8h-276V270Z" class="g0_31"/>
<path fill-rule="evenodd" d="M110,287.8H825v17.8H110V287.8Z" class="g0_31"/>
<path fill-rule="evenodd" d="M110,287.8h9.2v17.8H110V287.8Z" class="g0_31"/>
<path fill-rule="evenodd" d="M119.2,287.8h9.1v17.8h-9.1V287.8Z" class="g0_31"/>
<path fill-rule="evenodd" d="M128.3,287.8h9.3v17.8h-9.3V287.8Z" class="g0_31"/>
<path fill-rule="evenodd" d="M137.6,287.8h9.1v17.8h-9.1V287.8Z" class="g0_31"/>
<path fill-rule="evenodd" d="M146.7,287.8H156v17.8h-9.3V287.8Z" class="g0_31"/>
<path fill-rule="evenodd" d="M156,287.8h9.2v17.8H156V287.8Z" class="g0_31"/>
<path fill-rule="evenodd" d="M165.2,287.8h9.1v17.8h-9.1V287.8Z" class="g0_31"/>
<path fill-rule="evenodd" d="M174.3,287.8h9.3v17.8h-9.3V287.8Z" class="g0_31"/>
<path fill-rule="evenodd" d="M183.6,287.8H404.3v17.8H183.6V287.8Z" class="g0_31"/>
<path fill-rule="evenodd" d="M404.3,287.8h9.2v17.8h-9.2V287.8Z" class="g0_31"/>
<path fill-rule="evenodd" d="M413.5,287.8h27.6v17.8H413.5V287.8Z" class="g0_31"/>
<path fill-rule="evenodd" d="M441.1,287.8h9.2v17.8h-9.2V287.8Z" class="g0_31"/>
<path fill-rule="evenodd" d="M450.3,287.8h36.8v17.8H450.3V287.8Z" class="g0_31"/>
<path fill-rule="evenodd" d="M487.1,287.8h9.2v17.8h-9.2V287.8Z" class="g0_31"/>
<path fill-rule="evenodd" d="M496.3,287.8h9.2v17.8h-9.2V287.8Z" class="g0_31"/>
<path fill-rule="evenodd" d="M505.5,287.8h9.2v17.8h-9.2V287.8Z" class="g0_31"/>
<path fill-rule="evenodd" d="M514.7,287.8h27.6v17.8H514.7V287.8Z" class="g0_31"/>
<path fill-rule="evenodd" d="M110,305.6H825v17.7H110V305.6Z" class="g0_31"/>
<path fill-rule="evenodd" d="M110,305.6h9.2v17.7H110V305.6Z" class="g0_31"/>
<path fill-rule="evenodd" d="M119.2,305.6h9.1v17.7h-9.1V305.6Z" class="g0_31"/>
<path fill-rule="evenodd" d="M128.3,305.6h9.3v17.7h-9.3V305.6Z" class="g0_31"/>
<path fill-rule="evenodd" d="M137.6,305.6h9.1v17.7h-9.1V305.6Z" class="g0_31"/>
<path fill-rule="evenodd" d="M146.7,305.6H156v17.7h-9.3V305.6Z" class="g0_31"/>
<path fill-rule="evenodd" d="M156,305.6h9.2v17.7H156V305.6Z" class="g0_31"/>
<path fill-rule="evenodd" d="M165.2,305.6h9.1v17.7h-9.1V305.6Z" class="g0_31"/>
<path fill-rule="evenodd" d="M174.3,305.6h9.3v17.7h-9.3V305.6Z" class="g0_31"/>
<path fill-rule="evenodd" d="M183.6,305.6h9.1v17.7h-9.1V305.6Z" class="g0_31"/>
<path fill-rule="evenodd" d="M192.7,305.6H202v17.7h-9.3V305.6Z" class="g0_31"/>
<path fill-rule="evenodd" d="M202,305.6h9.1v17.7H202V305.6Z" class="g0_31"/>
<path fill-rule="evenodd" d="M211.1,305.6h9.2v17.7h-9.2V305.6Z" class="g0_31"/>
<path fill-rule="evenodd" d="M220.3,305.6h276v17.7h-276V305.6Z" class="g0_31"/>
<path fill-rule="evenodd" d="M110,323.4H825v17.7H110V323.4Z" class="g0_31"/>
<path fill-rule="evenodd" d="M110,323.4h9.2v17.7H110V323.4Z" class="g0_31"/>
<path fill-rule="evenodd" d="M119.2,323.4h9.1v17.7h-9.1V323.4Z" class="g0_31"/>
<path fill-rule="evenodd" d="M128.3,323.4h9.3v17.7h-9.3V323.4Z" class="g0_31"/>
<path fill-rule="evenodd" d="M137.6,323.4h9.1v17.7h-9.1V323.4Z" class="g0_31"/>
<path fill-rule="evenodd" d="M146.7,323.4H156v17.7h-9.3V323.4Z" class="g0_31"/>
<path fill-rule="evenodd" d="M156,323.4h9.2v17.7H156V323.4Z" class="g0_31"/>
<path fill-rule="evenodd" d="M165.2,323.4h9.1v17.7h-9.1V323.4Z" class="g0_31"/>
<path fill-rule="evenodd" d="M174.3,323.4h9.3v17.7h-9.3V323.4Z" class="g0_31"/>
<path fill-rule="evenodd" d="M183.6,323.4h27.5v17.7H183.6V323.4Z" class="g0_31"/>
<path fill-rule="evenodd" d="M211.1,323.4h9.2v17.7h-9.2V323.4Z" class="g0_31"/>
<path fill-rule="evenodd" d="M220.3,323.4h9.2v17.7h-9.2V323.4Z" class="g0_31"/>
<path fill-rule="evenodd" d="M229.5,323.4h9.2v17.7h-9.2V323.4Z" class="g0_31"/>
<path fill-rule="evenodd" d="M238.7,323.4H248v17.7h-9.3V323.4Z" class="g0_31"/>
<path fill-rule="evenodd" d="M248,323.4h9.1v17.7H248V323.4Z" class="g0_31"/>
<path fill-rule="evenodd" d="M257.1,323.4h9.2v17.7h-9.2V323.4Z" class="g0_31"/>
<path fill-rule="evenodd" d="M266.3,323.4h9.2v17.7h-9.2V323.4Z" class="g0_31"/>
<path fill-rule="evenodd" d="M275.5,323.4h18.4v17.7H275.5V323.4Z" class="g0_31"/>
<path fill-rule="evenodd" d="M110,341.2H825v17.7H110V341.2Z" class="g0_31"/>
<path fill-rule="evenodd" d="M110,341.2h9.2v17.7H110V341.2Z" class="g0_31"/>
<path fill-rule="evenodd" d="M119.2,341.2h9.1v17.7h-9.1V341.2Z" class="g0_31"/>
<path fill-rule="evenodd" d="M128.3,341.2h9.3v17.7h-9.3V341.2Z" class="g0_31"/>
<path fill-rule="evenodd" d="M137.6,341.2h9.1v17.7h-9.1V341.2Z" class="g0_31"/>
<path fill-rule="evenodd" d="M146.7,341.2H156v17.7h-9.3V341.2Z" class="g0_31"/>
<path fill-rule="evenodd" d="M156,341.2h9.2v17.7H156V341.2Z" class="g0_31"/>
<path fill-rule="evenodd" d="M165.2,341.2h9.1v17.7h-9.1V341.2Z" class="g0_31"/>
<path fill-rule="evenodd" d="M174.3,341.2h9.3v17.7h-9.3V341.2Z" class="g0_31"/>
<path fill-rule="evenodd" d="M183.6,341.2h285v17.7h-285V341.2Z" class="g0_31"/>
<path fill-rule="evenodd" d="M468.6,341.2h9.3v17.7h-9.3V341.2Z" class="g0_31"/>
<path fill-rule="evenodd" d="M477.9,341.2h9.2v17.7h-9.2V341.2Z" class="g0_31"/>
<path fill-rule="evenodd" d="M487.1,341.2h9.2v17.7h-9.2V341.2Z" class="g0_31"/>
<path fill-rule="evenodd" d="M496.3,341.2h46v17.7h-46V341.2Z" class="g0_31"/>
<path fill-rule="evenodd" d="M542.3,341.2h9.2v17.7h-9.2V341.2Z" class="g0_31"/>
<path fill-rule="evenodd" d="M551.5,341.2h45.9v17.7H551.5V341.2Z" class="g0_31"/>
<path fill-rule="evenodd" d="M110,359H825v17.7H110V359Z" class="g0_31"/>
<path fill-rule="evenodd" d="M110,359h9.2v17.7H110V359Z" class="g0_31"/>
<path fill-rule="evenodd" d="M119.2,359h9.1v17.7h-9.1V359Z" class="g0_31"/>
<path fill-rule="evenodd" d="M128.3,359h9.3v17.7h-9.3V359Z" class="g0_31"/>
<path fill-rule="evenodd" d="M137.6,359h9.1v17.7h-9.1V359Z" class="g0_31"/>
<path fill-rule="evenodd" d="M146.7,359H156v17.7h-9.3V359Z" class="g0_31"/>
<path fill-rule="evenodd" d="M110,376.7H825v29.2H110V376.7Z" class="g0_31"/>
<path fill-rule="evenodd" d="M110,376.7h9.2v17.8H110V376.7Z" class="g0_31"/>
<path fill-rule="evenodd" d="M110,406H825v43.7H110V406Z" class="g1_31"/>
<path fill-rule="evenodd" d="M110,449.7H825v27.5H110V449.7Z" class="g1_31"/>
<path fill-rule="evenodd" d="M110,477.2H825v27.5H110V477.2Z" class="g1_31"/>
<path fill-rule="evenodd" d="M110,504.7H825v39H110v-39Z" class="g1_31"/>
<path fill-rule="evenodd" d="M110,543.7H825v43.7H110V543.7Z" class="g1_31"/>
<path fill-rule="evenodd" d="M110,587.4H825v17.8H110V587.4Z" class="g0_31"/>
<path fill-rule="evenodd" d="M110,605.2H825v17.7H110V605.2Z" class="g0_31"/>
<path fill-rule="evenodd" d="M110,623H825v17.7H110V623Z" class="g0_31"/>
<path fill-rule="evenodd" d="M110,640.7H825v17.8H110V640.7Z" class="g0_31"/>
<path fill-rule="evenodd" d="M110,658.5H825v17.8H110V658.5Z" class="g0_31"/>
<path fill-rule="evenodd" d="M110,676.3H825v29.2H110V676.3Z" class="g0_31"/>
</svg>