<?xml version="1.0" encoding="UTF-8" standalone="no"?>
<!DOCTYPE svg PUBLIC "-//W3C//DTD SVG 1.1//EN"
"http://www.w3.org/Graphics/SVG/1.1/DTD/svg11.dtd">
<svg viewBox="0 0 935 1210" version="1.1" xmlns="http://www.w3.org/2000/svg" xmlns:xlink="http://www.w3.org/1999/xlink">
<defs>
<style type="text/css"><![CDATA[
.g0_14{
fill: #F4F4F4;
}
.g1_14{
fill: #FDFDFD;
}
]]></style>
</defs>
<path fill-rule="evenodd" d="M110,110H825v17.7H110V110Z" class="g0_14"/>
<path fill-rule="evenodd" d="M110,110h18.3v17.7H110V110Z" class="g0_14"/>
<path fill-rule="evenodd" d="M110,127.7H825v17.7H110V127.7Z" class="g0_14"/>
<path fill-rule="evenodd" d="M110,127.7h9.2v17.7H110V127.7Z" class="g0_14"/>
<path fill-rule="evenodd" d="M119.2,127.7h9.1v17.7h-9.1V127.7Z" class="g0_14"/>
<path fill-rule="evenodd" d="M128.3,127.7h9.3v17.7h-9.3V127.7Z" class="g0_14"/>
<path fill-rule="evenodd" d="M137.6,127.7H156v17.7H137.6V127.7Z" class="g0_14"/>
<path fill-rule="evenodd" d="M156,127.7h9.2v17.7H156V127.7Z" class="g0_14"/>
<path fill-rule="evenodd" d="M165.2,127.7h64.3v17.7H165.2V127.7Z" class="g0_14"/>
<path fill-rule="evenodd" d="M229.5,127.7h9.2v17.7h-9.2V127.7Z" class="g0_14"/>
<path fill-rule="evenodd" d="M238.7,127.7h18.4v17.7H238.7V127.7Z" class="g0_14"/>
<path fill-rule="evenodd" d="M257.1,127.7h9.2v17.7h-9.2V127.7Z" class="g0_14"/>
<path fill-rule="evenodd" d="M266.3,127.7h36.8v17.7H266.3V127.7Z" class="g0_14"/>
<path fill-rule="evenodd" d="M303.1,127.7h9.3v17.7h-9.3V127.7Z" class="g0_14"/>
<path fill-rule="evenodd" d="M312.4,127.7h27.5v17.7H312.4V127.7Z" class="g0_14"/>
<path fill-rule="evenodd" d="M339.9,127.7h9.2v17.7h-9.2V127.7Z" class="g0_14"/>
<path fill-rule="evenodd" d="M349.1,127.7h73.6v17.7H349.1V127.7Z" class="g0_14"/>
<path fill-rule="evenodd" d="M422.7,127.7h9.2v17.7h-9.2V127.7Z" class="g0_14"/>
<path fill-rule="evenodd" d="M431.9,127.7h18.4v17.7H431.9V127.7Z" class="g0_14"/>
<path fill-rule="evenodd" d="M450.3,127.7h9.2v17.7h-9.2V127.7Z" class="g0_14"/>
<path fill-rule="evenodd" d="M459.5,127.7h27.6v17.7H459.5V127.7Z" class="g0_14"/>
<path fill-rule="evenodd" d="M487.1,127.7h9.2v17.7h-9.2V127.7Z" class="g0_14"/>
<path fill-rule="evenodd" d="M496.3,127.7h64.4v17.7H496.3V127.7Z" class="g0_14"/>
<path fill-rule="evenodd" d="M560.7,127.7h9.2v17.7h-9.2V127.7Z" class="g0_14"/>
<path fill-rule="evenodd" d="M569.9,127.7h45.9v17.7H569.9V127.7Z" class="g0_14"/>
<path fill-rule="evenodd" d="M615.8,127.7H625v17.7h-9.2V127.7Z" class="g0_14"/>
<path fill-rule="evenodd" d="M625,127.7h64.4v17.7H625V127.7Z" class="g0_14"/>
<path fill-rule="evenodd" d="M689.4,127.7h9.3v17.7h-9.3V127.7Z" class="g0_14"/>
<path fill-rule="evenodd" d="M698.7,127.7h27.5v17.7H698.7V127.7Z" class="g0_14"/>
<path fill-rule="evenodd" d="M726.2,127.7h9.2v17.7h-9.2V127.7Z" class="g0_14"/>
<path fill-rule="evenodd" d="M735.4,127.7h82.8v17.7H735.4V127.7Z" class="g0_14"/>
<path fill-rule="evenodd" d="M110,145.5H825v17.7H110V145.5Z" class="g0_14"/>
<path fill-rule="evenodd" d="M110,145.5h9.2v17.7H110V145.5Z" class="g0_14"/>
<path fill-rule="evenodd" d="M119.2,145.5h18.4v17.7H119.2V145.5Z" class="g0_14"/>
<path fill-rule="evenodd" d="M110,163.3H825V181H110V163.3Z" class="g0_14"/>
<path fill-rule="evenodd" d="M110,163.3h46V181H110V163.3Z" class="g0_14"/>
<path fill-rule="evenodd" d="M165.2,163.3h55.1V181H165.2V163.3Z" class="g0_14"/>
<path fill-rule="evenodd" d="M220.3,163.3h9.2V181h-9.2V163.3Z" class="g0_14"/>
<path fill-rule="evenodd" d="M110,181.1H825v17.7H110V181.1Z" class="g0_14"/>
<path fill-rule="evenodd" d="M110,181.1h46v17.7H110V181.1Z" class="g0_14"/>
<path fill-rule="evenodd" d="M110,198.9H825v17.7H110V198.9Z" class="g0_14"/>
<path fill-rule="evenodd" d="M110,198.9h9.2v17.7H110V198.9Z" class="g0_14"/>
<path fill-rule="evenodd" d="M110,216.6H825v17.8H110V216.6Z" class="g0_14"/>
<path fill-rule="evenodd" d="M146.7,216.6H202v17.8H146.7V216.6Z" class="g0_14"/>
<path fill-rule="evenodd" d="M211.1,216.6h55.2v17.8H211.1V216.6Z" class="g0_14"/>
<path fill-rule="evenodd" d="M275.5,216.6h36.9v17.8H275.5V216.6Z" class="g0_14"/>
<path fill-rule="evenodd" d="M358.3,216.6h18.4v17.8H358.3V216.6Z" class="g0_14"/>
<path fill-rule="evenodd" d="M110,234.4H825v17.8H110V234.4Z" class="g0_14"/>
<path fill-rule="evenodd" d="M146.7,234.4H156v17.8h-9.3V234.4Z" class="g0_14"/>
<path fill-rule="evenodd" d="M110,252.2H825V270H110V252.2Z" class="g0_14"/>
<path fill-rule="evenodd" d="M183.6,252.2h27.5V270H183.6V252.2Z" class="g0_14"/>
<path fill-rule="evenodd" d="M257.1,252.2h9.2V270h-9.2V252.2Z" class="g0_14"/>
<path fill-rule="evenodd" d="M110,270H825v17.8H110V270Z" class="g0_14"/>
<path fill-rule="evenodd" d="M248,270h9.1v17.8H248V270Z" class="g0_14"/>
<path fill-rule="evenodd" d="M257.1,270h82.8v17.8H257.1V270Z" class="g0_14"/>
<path fill-rule="evenodd" d="M339.9,270h9.2v17.8h-9.2V270Z" class="g0_14"/>
<path fill-rule="evenodd" d="M349.1,270h55.2v17.8H349.1V270Z" class="g0_14"/>
<path fill-rule="evenodd" d="M404.3,270h9.2v17.8h-9.2V270Z" class="g0_14"/>
<path fill-rule="evenodd" d="M413.5,270h27.6v17.8H413.5V270Z" class="g0_14"/>
<path fill-rule="evenodd" d="M441.1,270h9.2v17.8h-9.2V270Z" class="g0_14"/>
<path fill-rule="evenodd" d="M450.3,270h73.6v17.8H450.3V270Z" class="g0_14"/>
<path fill-rule="evenodd" d="M523.9,270H533v17.8h-9.1V270Z" class="g0_14"/>
<path fill-rule="evenodd" d="M533,270h18.5v17.8H533V270Z" class="g0_14"/>
<path fill-rule="evenodd" d="M551.5,270h9.2v17.8h-9.2V270Z" class="g0_14"/>
<path fill-rule="evenodd" d="M560.7,270H579v17.8H560.7V270Z" class="g0_14"/>
<path fill-rule="evenodd" d="M110,287.8H825v17.8H110V287.8Z" class="g0_14"/>
<path fill-rule="evenodd" d="M202,287.8h9.1v17.8H202V287.8Z" class="g0_14"/>
<path fill-rule="evenodd" d="M220.3,287.8H248v17.8H220.3V287.8Z" class="g0_14"/>
<path fill-rule="evenodd" d="M248,287.8h9.1v17.8H248V287.8Z" class="g0_14"/>
<path fill-rule="evenodd" d="M257.1,287.8h46v17.8h-46V287.8Z" class="g0_14"/>
<path fill-rule="evenodd" d="M303.1,287.8h9.3v17.8h-9.3V287.8Z" class="g0_14"/>
<path fill-rule="evenodd" d="M376.7,287.8h9.2v17.8h-9.2V287.8Z" class="g0_14"/>
<path fill-rule="evenodd" d="M385.9,287.8h73.6v17.8H385.9V287.8Z" class="g0_14"/>
<path fill-rule="evenodd" d="M459.5,287.8h36.8v17.8H459.5V287.8Z" class="g0_14"/>
<path fill-rule="evenodd" d="M110,305.6H825v17.7H110V305.6Z" class="g0_14"/>
<path fill-rule="evenodd" d="M202,305.6h9.1v17.7H202V305.6Z" class="g0_14"/>
<path fill-rule="evenodd" d="M220.3,305.6H248v17.7H220.3V305.6Z" class="g0_14"/>
<path fill-rule="evenodd" d="M248,305.6h9.1v17.7H248V305.6Z" class="g0_14"/>
<path fill-rule="evenodd" d="M257.1,305.6h46v17.7h-46V305.6Z" class="g0_14"/>
<path fill-rule="evenodd" d="M303.1,305.6h9.3v17.7h-9.3V305.6Z" class="g0_14"/>
<path fill-rule="evenodd" d="M376.7,305.6h9.2v17.7h-9.2V305.6Z" class="g0_14"/>
<path fill-rule="evenodd" d="M385.9,305.6h73.6v17.7H385.9V305.6Z" class="g0_14"/>
<path fill-rule="evenodd" d="M459.5,305.6h36.8v17.7H459.5V305.6Z" class="g0_14"/>
<path fill-rule="evenodd" d="M110,323.4H825v17.7H110V323.4Z" class="g0_14"/>
<path fill-rule="evenodd" d="M248,323.4h9.1v17.7H248V323.4Z" class="g0_14"/>
<path fill-rule="evenodd" d="M257.1,323.4h82.8v17.7H257.1V323.4Z" class="g0_14"/>
<path fill-rule="evenodd" d="M339.9,323.4h9.2v17.7h-9.2V323.4Z" class="g0_14"/>
<path fill-rule="evenodd" d="M349.1,323.4h9.2v17.7h-9.2V323.4Z" class="g0_14"/>
<path fill-rule="evenodd" d="M358.3,323.4h18.4v17.7H358.3V323.4Z" class="g0_14"/>
<path fill-rule="evenodd" d="M376.7,323.4h9.2v17.7h-9.2V323.4Z" class="g0_14"/>
<path fill-rule="evenodd" d="M385.9,323.4h55.2v17.7H385.9V323.4Z" class="g0_14"/>
<path fill-rule="evenodd" d="M441.1,323.4h9.2v17.7h-9.2V323.4Z" class="g0_14"/>
<path fill-rule="evenodd" d="M450.3,323.4h73.6v17.7H450.3V323.4Z" class="g0_14"/>
<path fill-rule="evenodd" d="M523.9,323.4H533v17.7h-9.1V323.4Z" class="g0_14"/>
<path fill-rule="evenodd" d="M533,323.4h18.5v17.7H533V323.4Z" class="g0_14"/>
<path fill-rule="evenodd" d="M551.5,323.4h9.2v17.7h-9.2V323.4Z" class="g0_14"/>
<path fill-rule="evenodd" d="M560.7,323.4h27.6v17.7H560.7V323.4Z" class="g0_14"/>
<path fill-rule="evenodd" d="M588.3,323.4h9.1v17.7h-9.1V323.4Z" class="g0_14"/>
<path fill-rule="evenodd" d="M597.4,323.4H625v17.7H597.4V323.4Z" class="g0_14"/>
<path fill-rule="evenodd" d="M625,323.4h9.3v17.7H625V323.4Z" class="g0_14"/>
<path fill-rule="evenodd" d="M634.3,323.4h9.1v17.7h-9.1V323.4Z" class="g0_14"/>
<path fill-rule="evenodd" d="M643.4,323.4h9.3v17.7h-9.3V323.4Z" class="g0_14"/>
<path fill-rule="evenodd" d="M652.7,323.4h9.1v17.7h-9.1V323.4Z" class="g0_14"/>
<path fill-rule="evenodd" d="M661.8,323.4h9.3v17.7h-9.3V323.4Z" class="g0_14"/>
<path fill-rule="evenodd" d="M671.1,323.4h36.7v17.7H671.1V323.4Z" class="g0_14"/>
<path fill-rule="evenodd" d="M763,323.4h18.4v17.7H763V323.4Z" class="g0_14"/>
<path fill-rule="evenodd" d="M110,341.2H825v17.7H110V341.2Z" class="g0_14"/>
<path fill-rule="evenodd" d="M202,341.2h9.1v17.7H202V341.2Z" class="g0_14"/>
<path fill-rule="evenodd" d="M238.7,341.2H248v17.7h-9.3V341.2Z" class="g0_14"/>
<path fill-rule="evenodd" d="M266.3,341.2h9.2v17.7h-9.2V341.2Z" class="g0_14"/>
<path fill-rule="evenodd" d="M110,359H825v17.7H110V359Z" class="g0_14"/>
<path fill-rule="evenodd" d="M202,359h9.1v17.7H202V359Z" class="g0_14"/>
<path fill-rule="evenodd" d="M238.7,359H248v17.7h-9.3V359Z" class="g0_14"/>
<path fill-rule="evenodd" d="M266.3,359h9.2v17.7h-9.2V359Z" class="g0_14"/>
<path fill-rule="evenodd" d="M110,376.7H825v17.8H110V376.7Z" class="g0_14"/>
<path fill-rule="evenodd" d="M202,376.7h9.1v17.8H202V376.7Z" class="g0_14"/>
<path fill-rule="evenodd" d="M238.7,376.7H248v17.8h-9.3V376.7Z" class="g0_14"/>
<path fill-rule="evenodd" d="M266.3,376.7h9.2v17.8h-9.2V376.7Z" class="g0_14"/>
<path fill-rule="evenodd" d="M110,394.5H825v17.8H110V394.5Z" class="g0_14"/>
<path fill-rule="evenodd" d="M248,394.5h9.1v17.8H248V394.5Z" class="g0_14"/>
<path fill-rule="evenodd" d="M257.1,394.5h82.8v17.8H257.1V394.5Z" class="g0_14"/>
<path fill-rule="evenodd" d="M339.9,394.5h9.2v17.8h-9.2V394.5Z" class="g0_14"/>
<path fill-rule="evenodd" d="M349.1,394.5h9.2v17.8h-9.2V394.5Z" class="g0_14"/>
<path fill-rule="evenodd" d="M358.3,394.5h18.4v17.8H358.3V394.5Z" class="g0_14"/>
<path fill-rule="evenodd" d="M376.7,394.5h9.2v17.8h-9.2V394.5Z" class="g0_14"/>
<path fill-rule="evenodd" d="M385.9,394.5h46v17.8h-46V394.5Z" class="g0_14"/>
<path fill-rule="evenodd" d="M431.9,394.5h9.2v17.8h-9.2V394.5Z" class="g0_14"/>
<path fill-rule="evenodd" d="M441.1,394.5h73.6v17.8H441.1V394.5Z" class="g0_14"/>
<path fill-rule="evenodd" d="M514.7,394.5h9.2v17.8h-9.2V394.5Z" class="g0_14"/>
<path fill-rule="evenodd" d="M523.9,394.5h18.4v17.8H523.9V394.5Z" class="g0_14"/>
<path fill-rule="evenodd" d="M542.3,394.5h9.2v17.8h-9.2V394.5Z" class="g0_14"/>
<path fill-rule="evenodd" d="M551.5,394.5H579v17.8H551.5V394.5Z" class="g0_14"/>
<path fill-rule="evenodd" d="M579,394.5h9.3v17.8H579V394.5Z" class="g0_14"/>
<path fill-rule="evenodd" d="M588.3,394.5h27.5v17.8H588.3V394.5Z" class="g0_14"/>
<path fill-rule="evenodd" d="M615.8,394.5H625v17.8h-9.2V394.5Z" class="g0_14"/>
<path fill-rule="evenodd" d="M625,394.5h9.3v17.8H625V394.5Z" class="g0_14"/>
<path fill-rule="evenodd" d="M634.3,394.5h9.1v17.8h-9.1V394.5Z" class="g0_14"/>
<path fill-rule="evenodd" d="M643.4,394.5h9.3v17.8h-9.3V394.5Z" class="g0_14"/>
<path fill-rule="evenodd" d="M652.7,394.5h9.1v17.8h-9.1V394.5Z" class="g0_14"/>
<path fill-rule="evenodd" d="M661.8,394.5h36.9v17.8H661.8V394.5Z" class="g0_14"/>
<path fill-rule="evenodd" d="M753.8,394.5h18.4v17.8H753.8V394.5Z" class="g0_14"/>
<path fill-rule="evenodd" d="M110,412.3H825V430H110V412.3Z" class="g0_14"/>
<path fill-rule="evenodd" d="M248,412.3h9.1V430H248V412.3Z" class="g0_14"/>
<path fill-rule="evenodd" d="M257.1,412.3h73.6V430H257.1V412.3Z" class="g0_14"/>
<path fill-rule="evenodd" d="M330.7,412.3h27.6V430H330.7V412.3Z" class="g0_14"/>
<path fill-rule="evenodd" d="M110,430.1H825v17.7H110V430.1Z" class="g0_14"/>
<path fill-rule="evenodd" d="M146.7,430.1H156v17.7h-9.3V430.1Z" class="g0_14"/>
<path fill-rule="evenodd" d="M110,447.9H825V477H110V447.9Z" class="g0_14"/>
<path fill-rule="evenodd" d="M110,447.9h9.2v17.7H110V447.9Z" class="g0_14"/>
<path fill-rule="evenodd" d="M110,477.1H825v43.7H110V477.1Z" class="g1_14"/>
<path fill-rule="evenodd" d="M110,520.8H825v27.5H110V520.8Z" class="g1_14"/>
<path fill-rule="evenodd" d="M110,548.3H825v27.5H110V548.3Z" class="g1_14"/>
<path fill-rule="evenodd" d="M110,575.8H825v27.5H110V575.8Z" class="g1_14"/>
<path fill-rule="evenodd" d="M110,603.3H825v27.5H110V603.3Z" class="g1_14"/>
<path fill-rule="evenodd" d="M110,630.8H825v39H110v-39Z" class="g1_14"/>
<path fill-rule="evenodd" d="M110,669.8H825v43.7H110V669.8Z" class="g1_14"/>
<path fill-rule="evenodd" d="M110,713.5H825v17.8H110V713.5Z" class="g0_14"/>
<path fill-rule="evenodd" d="M110,731.3H825v17.8H110V731.3Z" class="g0_14"/>
<path fill-rule="evenodd" d="M110,749.1H825v17.7H110V749.1Z" class="g0_14"/>
<path fill-rule="evenodd" d="M110,766.9H825v17.7H110V766.9Z" class="g0_14"/>
<path fill-rule="evenodd" d="M110,784.7H825v17.7H110V784.7Z" class="g0_14"/>
<path fill-rule="evenodd" d="M110,802.5H825v29.1H110V802.5Z" class="g0_14"/>
</svg>