<?xml version="1.0" encoding="UTF-8" standalone="no"?>
<!DOCTYPE svg PUBLIC "-//W3C//DTD SVG 1.1//EN"
"http://www.w3.org/Graphics/SVG/1.1/DTD/svg11.dtd">
<svg viewBox="0 0 935 1210" version="1.1" xmlns="http://www.w3.org/2000/svg" xmlns:xlink="http://www.w3.org/1999/xlink">
<defs>
<style type="text/css"><![CDATA[
.g0_9{
fill: #F4F4F4;
}
.g1_9{
fill: #FDFDFD;
}
]]></style>
</defs>
<path fill-rule="evenodd" d="M110,110H825v17.7H110V110Z" class="g0_9"/>
<path fill-rule="evenodd" d="M110,110h18.3v17.7H110V110Z" class="g0_9"/>
<path fill-rule="evenodd" d="M110,127.7H825v17.7H110V127.7Z" class="g0_9"/>
<path fill-rule="evenodd" d="M110,127.7h9.2v17.7H110V127.7Z" class="g0_9"/>
<path fill-rule="evenodd" d="M119.2,127.7h9.1v17.7h-9.1V127.7Z" class="g0_9"/>
<path fill-rule="evenodd" d="M128.3,127.7h9.3v17.7h-9.3V127.7Z" class="g0_9"/>
<path fill-rule="evenodd" d="M137.6,127.7H156v17.7H137.6V127.7Z" class="g0_9"/>
<path fill-rule="evenodd" d="M156,127.7h9.2v17.7H156V127.7Z" class="g0_9"/>
<path fill-rule="evenodd" d="M165.2,127.7h64.3v17.7H165.2V127.7Z" class="g0_9"/>
<path fill-rule="evenodd" d="M229.5,127.7h9.2v17.7h-9.2V127.7Z" class="g0_9"/>
<path fill-rule="evenodd" d="M238.7,127.7h18.4v17.7H238.7V127.7Z" class="g0_9"/>
<path fill-rule="evenodd" d="M257.1,127.7h9.2v17.7h-9.2V127.7Z" class="g0_9"/>
<path fill-rule="evenodd" d="M266.3,127.7h64.4v17.7H266.3V127.7Z" class="g0_9"/>
<path fill-rule="evenodd" d="M330.7,127.7h9.2v17.7h-9.2V127.7Z" class="g0_9"/>
<path fill-rule="evenodd" d="M339.9,127.7h27.6v17.7H339.9V127.7Z" class="g0_9"/>
<path fill-rule="evenodd" d="M367.5,127.7h9.2v17.7h-9.2V127.7Z" class="g0_9"/>
<path fill-rule="evenodd" d="M376.7,127.7h46v17.7h-46V127.7Z" class="g0_9"/>
<path fill-rule="evenodd" d="M110,145.5H825v17.7H110V145.5Z" class="g0_9"/>
<path fill-rule="evenodd" d="M110,145.5h9.2v17.7H110V145.5Z" class="g0_9"/>
<path fill-rule="evenodd" d="M119.2,145.5h18.4v17.7H119.2V145.5Z" class="g0_9"/>
<path fill-rule="evenodd" d="M110,163.3H825V181H110V163.3Z" class="g0_9"/>
<path fill-rule="evenodd" d="M110,163.3h46V181H110V163.3Z" class="g0_9"/>
<path fill-rule="evenodd" d="M165.2,163.3h55.1V181H165.2V163.3Z" class="g0_9"/>
<path fill-rule="evenodd" d="M220.3,163.3h9.2V181h-9.2V163.3Z" class="g0_9"/>
<path fill-rule="evenodd" d="M110,181.1H825v17.7H110V181.1Z" class="g0_9"/>
<path fill-rule="evenodd" d="M110,181.1h82.7v17.7H110V181.1Z" class="g0_9"/>
<path fill-rule="evenodd" d="M110,198.9H825v17.7H110V198.9Z" class="g0_9"/>
<path fill-rule="evenodd" d="M110,198.9h9.2v17.7H110V198.9Z" class="g0_9"/>
<path fill-rule="evenodd" d="M110,216.6H825v17.8H110V216.6Z" class="g0_9"/>
<path fill-rule="evenodd" d="M146.7,216.6h46v17.8h-46V216.6Z" class="g0_9"/>
<path fill-rule="evenodd" d="M110,234.4H825v17.8H110V234.4Z" class="g0_9"/>
<path fill-rule="evenodd" d="M146.7,234.4H156v17.8h-9.3V234.4Z" class="g0_9"/>
<path fill-rule="evenodd" d="M110,252.2H825V270H110V252.2Z" class="g0_9"/>
<path fill-rule="evenodd" d="M183.6,252.2h55.1V270H183.6V252.2Z" class="g0_9"/>
<path fill-rule="evenodd" d="M248,252.2h27.5V270H248V252.2Z" class="g0_9"/>
<path fill-rule="evenodd" d="M321.5,252.2h18.4V270H321.5V252.2Z" class="g0_9"/>
<path fill-rule="evenodd" d="M110,270H825v17.8H110V270Z" class="g0_9"/>
<path fill-rule="evenodd" d="M183.6,270h9.1v17.8h-9.1V270Z" class="g0_9"/>
<path fill-rule="evenodd" d="M110,287.8H825v17.8H110V287.8Z" class="g0_9"/>
<path fill-rule="evenodd" d="M330.7,287.8h9.2v17.8h-9.2V287.8Z" class="g0_9"/>
<path fill-rule="evenodd" d="M349.1,287.8h27.6v17.8H349.1V287.8Z" class="g0_9"/>
<path fill-rule="evenodd" d="M459.5,287.8h9.1v17.8h-9.1V287.8Z" class="g0_9"/>
<path fill-rule="evenodd" d="M468.6,287.8h36.9v17.8H468.6V287.8Z" class="g0_9"/>
<path fill-rule="evenodd" d="M523.9,287.8h18.4v17.8H523.9V287.8Z" class="g0_9"/>
<path fill-rule="evenodd" d="M560.7,287.8H579v17.8H560.7V287.8Z" class="g0_9"/>
<path fill-rule="evenodd" d="M579,287.8h18.4v17.8H579V287.8Z" class="g0_9"/>
<path fill-rule="evenodd" d="M110,305.6H825v17.7H110V305.6Z" class="g0_9"/>
<path fill-rule="evenodd" d="M284.7,305.6h9.2v17.7h-9.2V305.6Z" class="g0_9"/>
<path fill-rule="evenodd" d="M293.9,305.6h82.8v17.7H293.9V305.6Z" class="g0_9"/>
<path fill-rule="evenodd" d="M376.7,305.6h9.2v17.7h-9.2V305.6Z" class="g0_9"/>
<path fill-rule="evenodd" d="M385.9,305.6h82.7v17.7H385.9V305.6Z" class="g0_9"/>
<path fill-rule="evenodd" d="M468.6,305.6h9.3v17.7h-9.3V305.6Z" class="g0_9"/>
<path fill-rule="evenodd" d="M477.9,305.6h36.8v17.7H477.9V305.6Z" class="g0_9"/>
<path fill-rule="evenodd" d="M514.7,305.6h9.2v17.7h-9.2V305.6Z" class="g0_9"/>
<path fill-rule="evenodd" d="M523.9,305.6H533v17.7h-9.1V305.6Z" class="g0_9"/>
<path fill-rule="evenodd" d="M533,305.6h9.3v17.7H533V305.6Z" class="g0_9"/>
<path fill-rule="evenodd" d="M542.3,305.6H579v17.7H542.3V305.6Z" class="g0_9"/>
<path fill-rule="evenodd" d="M615.8,305.6h18.5v17.7H615.8V305.6Z" class="g0_9"/>
<path fill-rule="evenodd" d="M110,323.4H825v17.7H110V323.4Z" class="g0_9"/>
<path fill-rule="evenodd" d="M330.7,323.4h9.2v17.7h-9.2V323.4Z" class="g0_9"/>
<path fill-rule="evenodd" d="M367.5,323.4h9.2v17.7h-9.2V323.4Z" class="g0_9"/>
<path fill-rule="evenodd" d="M376.7,323.4h64.4v17.7H376.7V323.4Z" class="g0_9"/>
<path fill-rule="evenodd" d="M441.1,323.4h9.2v17.7h-9.2V323.4Z" class="g0_9"/>
<path fill-rule="evenodd" d="M450.3,323.4h18.3v17.7H450.3V323.4Z" class="g0_9"/>
<path fill-rule="evenodd" d="M468.6,323.4h18.5v17.7H468.6V323.4Z" class="g0_9"/>
<path fill-rule="evenodd" d="M110,341.2H825v17.7H110V341.2Z" class="g0_9"/>
<path fill-rule="evenodd" d="M284.7,341.2h9.2v17.7h-9.2V341.2Z" class="g0_9"/>
<path fill-rule="evenodd" d="M293.9,341.2h82.8v17.7H293.9V341.2Z" class="g0_9"/>
<path fill-rule="evenodd" d="M376.7,341.2h9.2v17.7h-9.2V341.2Z" class="g0_9"/>
<path fill-rule="evenodd" d="M385.9,341.2h64.4v17.7H385.9V341.2Z" class="g0_9"/>
<path fill-rule="evenodd" d="M450.3,341.2h9.2v17.7h-9.2V341.2Z" class="g0_9"/>
<path fill-rule="evenodd" d="M459.5,341.2h36.8v17.7H459.5V341.2Z" class="g0_9"/>
<path fill-rule="evenodd" d="M496.3,341.2h9.2v17.7h-9.2V341.2Z" class="g0_9"/>
<path fill-rule="evenodd" d="M505.5,341.2h9.2v17.7h-9.2V341.2Z" class="g0_9"/>
<path fill-rule="evenodd" d="M514.7,341.2h9.2v17.7h-9.2V341.2Z" class="g0_9"/>
<path fill-rule="evenodd" d="M523.9,341.2H533v17.7h-9.1V341.2Z" class="g0_9"/>
<path fill-rule="evenodd" d="M533,341.2h9.3v17.7H533V341.2Z" class="g0_9"/>
<path fill-rule="evenodd" d="M542.3,341.2H579v17.7H542.3V341.2Z" class="g0_9"/>
<path fill-rule="evenodd" d="M615.8,341.2h18.5v17.7H615.8V341.2Z" class="g0_9"/>
<path fill-rule="evenodd" d="M110,359H825v17.7H110V359Z" class="g0_9"/>
<path fill-rule="evenodd" d="M220.3,359h18.4v17.7H220.3V359Z" class="g0_9"/>
<path fill-rule="evenodd" d="M248,359h9.1v17.7H248V359Z" class="g0_9"/>
<path fill-rule="evenodd" d="M284.7,359h9.2v17.7h-9.2V359Z" class="g0_9"/>
<path fill-rule="evenodd" d="M321.5,359h9.2v17.7h-9.2V359Z" class="g0_9"/>
<path fill-rule="evenodd" d="M110,376.7H825v17.8H110V376.7Z" class="g0_9"/>
<path fill-rule="evenodd" d="M321.5,376.7h9.2v17.8h-9.2V376.7Z" class="g0_9"/>
<path fill-rule="evenodd" d="M330.7,376.7h82.8v17.8H330.7V376.7Z" class="g0_9"/>
<path fill-rule="evenodd" d="M413.5,376.7h9.2v17.8h-9.2V376.7Z" class="g0_9"/>
<path fill-rule="evenodd" d="M422.7,376.7h36.8v17.8H422.7V376.7Z" class="g0_9"/>
<path fill-rule="evenodd" d="M459.5,376.7h9.1v17.8h-9.1V376.7Z" class="g0_9"/>
<path fill-rule="evenodd" d="M468.6,376.7h55.3v17.8H468.6V376.7Z" class="g0_9"/>
<path fill-rule="evenodd" d="M523.9,376.7H533v17.8h-9.1V376.7Z" class="g0_9"/>
<path fill-rule="evenodd" d="M533,376.7h55.3v17.8H533V376.7Z" class="g0_9"/>
<path fill-rule="evenodd" d="M588.3,376.7h9.1v17.8h-9.1V376.7Z" class="g0_9"/>
<path fill-rule="evenodd" d="M597.4,376.7h36.9v17.8H597.4V376.7Z" class="g0_9"/>
<path fill-rule="evenodd" d="M707.8,376.7h18.4v17.8H707.8V376.7Z" class="g0_9"/>
<path fill-rule="evenodd" d="M110,394.5H825v17.8H110V394.5Z" class="g0_9"/>
<path fill-rule="evenodd" d="M284.7,394.5h9.2v17.8h-9.2V394.5Z" class="g0_9"/>
<path fill-rule="evenodd" d="M293.9,394.5h36.8v17.8H293.9V394.5Z" class="g0_9"/>
<path fill-rule="evenodd" d="M330.7,394.5h27.6v17.8H330.7V394.5Z" class="g0_9"/>
<path fill-rule="evenodd" d="M110,412.3H825V430H110V412.3Z" class="g0_9"/>
<path fill-rule="evenodd" d="M220.3,412.3h55.2V430H220.3V412.3Z" class="g0_9"/>
<path fill-rule="evenodd" d="M284.7,412.3h9.2V430h-9.2V412.3Z" class="g0_9"/>
<path fill-rule="evenodd" d="M293.9,412.3h9.2V430h-9.2V412.3Z" class="g0_9"/>
<path fill-rule="evenodd" d="M110,430.1H825v17.7H110V430.1Z" class="g0_9"/>
<path fill-rule="evenodd" d="M110,447.9H825v17.7H110V447.9Z" class="g0_9"/>
<path fill-rule="evenodd" d="M183.6,447.9h9.1v17.7h-9.1V447.9Z" class="g0_9"/>
<path fill-rule="evenodd" d="M110,465.7H825v17.7H110V465.7Z" class="g0_9"/>
<path fill-rule="evenodd" d="M146.7,465.7H156v17.7h-9.3V465.7Z" class="g0_9"/>
<path fill-rule="evenodd" d="M110,483.5H825v29.1H110V483.5Z" class="g0_9"/>
<path fill-rule="evenodd" d="M110,483.5h9.2v17.7H110V483.5Z" class="g0_9"/>
<path fill-rule="evenodd" d="M110,512.6H825v43.7H110V512.6Z" class="g1_9"/>
<path fill-rule="evenodd" d="M110,556.4H825v27.5H110V556.4Z" class="g1_9"/>
<path fill-rule="evenodd" d="M110,583.9H825v27.5H110V583.9Z" class="g1_9"/>
<path fill-rule="evenodd" d="M110,611.4H825v39H110v-39Z" class="g1_9"/>
<path fill-rule="evenodd" d="M110,650.4H825v43.7H110V650.4Z" class="g1_9"/>
<path fill-rule="evenodd" d="M110,694.1H825v17.7H110V694.1Z" class="g0_9"/>
<path fill-rule="evenodd" d="M110,711.9H825v17.7H110V711.9Z" class="g0_9"/>
<path fill-rule="evenodd" d="M110,729.7H825v17.7H110V729.7Z" class="g0_9"/>
<path fill-rule="evenodd" d="M110,747.5H825v29.1H110V747.5Z" class="g0_9"/>
</svg>