<?xml version="1.0" encoding="UTF-8" standalone="no"?>
<!DOCTYPE svg PUBLIC "-//W3C//DTD SVG 1.1//EN"
"http://www.w3.org/Graphics/SVG/1.1/DTD/svg11.dtd">
<svg viewBox="0 0 935 1210" version="1.1" xmlns="http://www.w3.org/2000/svg" xmlns:xlink="http://www.w3.org/1999/xlink">
<defs>
<style type="text/css"><![CDATA[
.g0_35{
fill: #F4F4F4;
}
.g1_35{
fill: #FDFDFD;
}
]]></style>
</defs>
<path fill-rule="evenodd" d="M110,110H825v17.7H110V110Z" class="g0_35"/>
<path fill-rule="evenodd" d="M110,110h18.3v17.7H110V110Z" class="g0_35"/>
<path fill-rule="evenodd" d="M110,127.7H825v17.7H110V127.7Z" class="g0_35"/>
<path fill-rule="evenodd" d="M110,127.7h9.2v17.7H110V127.7Z" class="g0_35"/>
<path fill-rule="evenodd" d="M119.2,127.7h9.3v17.7h-9.3V127.7Z" class="g0_35"/>
<path fill-rule="evenodd" d="M128.5,127.7h9.3v17.7h-9.3V127.7Z" class="g0_35"/>
<path fill-rule="evenodd" d="M137.8,127.7h18.6v17.7H137.8V127.7Z" class="g0_35"/>
<path fill-rule="evenodd" d="M156.4,127.7h9.4v17.7h-9.4V127.7Z" class="g0_35"/>
<path fill-rule="evenodd" d="M165.8,127.7H231v17.7H165.8V127.7Z" class="g0_35"/>
<path fill-rule="evenodd" d="M231,127.7h9.3v17.7H231V127.7Z" class="g0_35"/>
<path fill-rule="evenodd" d="M240.3,127.7H259v17.7H240.3V127.7Z" class="g0_35"/>
<path fill-rule="evenodd" d="M259,127.7h9.3v17.7H259V127.7Z" class="g0_35"/>
<path fill-rule="evenodd" d="M268.3,127.7h46.6v17.7H268.3V127.7Z" class="g0_35"/>
<path fill-rule="evenodd" d="M314.9,127.7h9.3v17.7h-9.3V127.7Z" class="g0_35"/>
<path fill-rule="evenodd" d="M324.2,127.7h65.2v17.7H324.2V127.7Z" class="g0_35"/>
<path fill-rule="evenodd" d="M389.4,127.7h9.4v17.7h-9.4V127.7Z" class="g0_35"/>
<path fill-rule="evenodd" d="M398.8,127.7h27.9v17.7H398.8V127.7Z" class="g0_35"/>
<path fill-rule="evenodd" d="M426.7,127.7H436v17.7h-9.3V127.7Z" class="g0_35"/>
<path fill-rule="evenodd" d="M436,127.7h65.3v17.7H436V127.7Z" class="g0_35"/>
<path fill-rule="evenodd" d="M501.3,127.7h9.3v17.7h-9.3V127.7Z" class="g0_35"/>
<path fill-rule="evenodd" d="M510.6,127.7h55.9v17.7H510.6V127.7Z" class="g0_35"/>
<path fill-rule="evenodd" d="M566.5,127.7h9.3v17.7h-9.3V127.7Z" class="g0_35"/>
<path fill-rule="evenodd" d="M575.8,127.7h18.7v17.7H575.8V127.7Z" class="g0_35"/>
<path fill-rule="evenodd" d="M594.5,127.7h9.3v17.7h-9.3V127.7Z" class="g0_35"/>
<path fill-rule="evenodd" d="M603.8,127.7h18.6v17.7H603.8V127.7Z" class="g0_35"/>
<path fill-rule="evenodd" d="M622.4,127.7h9.3v17.7h-9.3V127.7Z" class="g0_35"/>
<path fill-rule="evenodd" d="M631.7,127.7h84v17.7h-84V127.7Z" class="g0_35"/>
<path fill-rule="evenodd" d="M715.7,127.7H725v17.7h-9.3V127.7Z" class="g0_35"/>
<path fill-rule="evenodd" d="M725,127.7h55.9v17.7H725V127.7Z" class="g0_35"/>
<path fill-rule="evenodd" d="M780.9,127.7h9.3v17.7h-9.3V127.7Z" class="g0_35"/>
<path fill-rule="evenodd" d="M790.2,127.7h18.7v17.7H790.2V127.7Z" class="g0_35"/>
<path fill-rule="evenodd" d="M808.9,127.7h9.3v17.7h-9.3V127.7Z" class="g0_35"/>
<path fill-rule="evenodd" d="M818.2,127.7h9.2v17.7h-9.2V127.7Z" class="g0_35"/>
<path fill-rule="evenodd" d="M110,145.5H825v17.7H110V145.5Z" class="g0_35"/>
<path fill-rule="evenodd" d="M110,145.5h18.3v17.7H110V145.5Z" class="g0_35"/>
<path fill-rule="evenodd" d="M110,163.3H825V181H110V163.3Z" class="g0_35"/>
<path fill-rule="evenodd" d="M110,163.3h9.2V181H110V163.3Z" class="g0_35"/>
<path fill-rule="evenodd" d="M119.2,163.3h18.4V181H119.2V163.3Z" class="g0_35"/>
<path fill-rule="evenodd" d="M110,181.1H825v17.7H110V181.1Z" class="g0_35"/>
<path fill-rule="evenodd" d="M110,181.1h46v17.7H110V181.1Z" class="g0_35"/>
<path fill-rule="evenodd" d="M165.2,181.1h55.1v17.7H165.2V181.1Z" class="g0_35"/>
<path fill-rule="evenodd" d="M220.3,181.1h9.2v17.7h-9.2V181.1Z" class="g0_35"/>
<path fill-rule="evenodd" d="M110,198.9H825v17.7H110V198.9Z" class="g0_35"/>
<path fill-rule="evenodd" d="M110,198.9h46v17.7H110V198.9Z" class="g0_35"/>
<path fill-rule="evenodd" d="M165.2,198.9H404.3v17.7H165.2V198.9Z" class="g0_35"/>
<path fill-rule="evenodd" d="M404.3,198.9h9.2v17.7h-9.2V198.9Z" class="g0_35"/>
<path fill-rule="evenodd" d="M110,216.6H825v17.8H110V216.6Z" class="g0_35"/>
<path fill-rule="evenodd" d="M110,216.6h46v17.8H110V216.6Z" class="g0_35"/>
<path fill-rule="evenodd" d="M165.2,216.6H266.3v17.8H165.2V216.6Z" class="g0_35"/>
<path fill-rule="evenodd" d="M266.3,216.6h9.2v17.8h-9.2V216.6Z" class="g0_35"/>
<path fill-rule="evenodd" d="M110,234.4H825v17.8H110V234.4Z" class="g0_35"/>
<path fill-rule="evenodd" d="M110,234.4h46v17.8H110V234.4Z" class="g0_35"/>
<path fill-rule="evenodd" d="M165.2,234.4H266.3v17.8H165.2V234.4Z" class="g0_35"/>
<path fill-rule="evenodd" d="M266.3,234.4h9.2v17.8h-9.2V234.4Z" class="g0_35"/>
<path fill-rule="evenodd" d="M110,252.2H825V270H110V252.2Z" class="g0_35"/>
<path fill-rule="evenodd" d="M110,270H825v17.8H110V270Z" class="g0_35"/>
<path fill-rule="evenodd" d="M110,270h82.7v17.8H110V270Z" class="g0_35"/>
<path fill-rule="evenodd" d="M110,287.8H825v17.8H110V287.8Z" class="g0_35"/>
<path fill-rule="evenodd" d="M110,287.8h9.2v17.8H110V287.8Z" class="g0_35"/>
<path fill-rule="evenodd" d="M110,305.6H825v17.7H110V305.6Z" class="g0_35"/>
<path fill-rule="evenodd" d="M146.7,305.6h46v17.7h-46V305.6Z" class="g0_35"/>
<path fill-rule="evenodd" d="M110,323.4H825v17.7H110V323.4Z" class="g0_35"/>
<path fill-rule="evenodd" d="M146.7,323.4H156v17.7h-9.3V323.4Z" class="g0_35"/>
<path fill-rule="evenodd" d="M110,341.2H825v17.7H110V341.2Z" class="g0_35"/>
<path fill-rule="evenodd" d="M183.6,341.2h55.1v17.7H183.6V341.2Z" class="g0_35"/>
<path fill-rule="evenodd" d="M248,341.2h36.7v17.7H248V341.2Z" class="g0_35"/>
<path fill-rule="evenodd" d="M330.7,341.2h9.2v17.7h-9.2V341.2Z" class="g0_35"/>
<path fill-rule="evenodd" d="M339.9,341.2h55.2v17.7H339.9V341.2Z" class="g0_35"/>
<path fill-rule="evenodd" d="M395.1,341.2h18.4v17.7H395.1V341.2Z" class="g0_35"/>
<path fill-rule="evenodd" d="M459.5,341.2h9.1v17.7h-9.1V341.2Z" class="g0_35"/>
<path fill-rule="evenodd" d="M110,359H825v17.7H110V359Z" class="g0_35"/>
<path fill-rule="evenodd" d="M183.6,359h9.1v17.7h-9.1V359Z" class="g0_35"/>
<path fill-rule="evenodd" d="M110,376.7H825v17.8H110V376.7Z" class="g0_35"/>
<path fill-rule="evenodd" d="M220.3,376.7H248v17.8H220.3V376.7Z" class="g0_35"/>
<path fill-rule="evenodd" d="M468.6,376.7h9.3v17.8h-9.3V376.7Z" class="g0_35"/>
<path fill-rule="evenodd" d="M487.1,376.7h9.2v17.8h-9.2V376.7Z" class="g0_35"/>
<path fill-rule="evenodd" d="M496.3,376.7h9.2v17.8h-9.2V376.7Z" class="g0_35"/>
<path fill-rule="evenodd" d="M110,394.5H825v17.8H110V394.5Z" class="g0_35"/>
<path fill-rule="evenodd" d="M284.7,394.5h9.2v17.8h-9.2V394.5Z" class="g0_35"/>
<path fill-rule="evenodd" d="M293.9,394.5h46v17.8h-46V394.5Z" class="g0_35"/>
<path fill-rule="evenodd" d="M339.9,394.5h9.2v17.8h-9.2V394.5Z" class="g0_35"/>
<path fill-rule="evenodd" d="M349.1,394.5h55.2v17.8H349.1V394.5Z" class="g0_35"/>
<path fill-rule="evenodd" d="M404.3,394.5h9.2v17.8h-9.2V394.5Z" class="g0_35"/>
<path fill-rule="evenodd" d="M413.5,394.5h27.6v17.8H413.5V394.5Z" class="g0_35"/>
<path fill-rule="evenodd" d="M441.1,394.5h9.2v17.8h-9.2V394.5Z" class="g0_35"/>
<path fill-rule="evenodd" d="M450.3,394.5h64.4v17.8H450.3V394.5Z" class="g0_35"/>
<path fill-rule="evenodd" d="M514.7,394.5H533v17.8H514.7V394.5Z" class="g0_35"/>
<path fill-rule="evenodd" d="M110,412.3H825V430H110V412.3Z" class="g0_35"/>
<path fill-rule="evenodd" d="M284.7,412.3h9.2V430h-9.2V412.3Z" class="g0_35"/>
<path fill-rule="evenodd" d="M303.1,412.3h27.6V430H303.1V412.3Z" class="g0_35"/>
<path fill-rule="evenodd" d="M330.7,412.3h9.2V430h-9.2V412.3Z" class="g0_35"/>
<path fill-rule="evenodd" d="M339.9,412.3h46V430h-46V412.3Z" class="g0_35"/>
<path fill-rule="evenodd" d="M385.9,412.3h9.2V430h-9.2V412.3Z" class="g0_35"/>
<path fill-rule="evenodd" d="M459.5,412.3h9.1V430h-9.1V412.3Z" class="g0_35"/>
<path fill-rule="evenodd" d="M468.6,412.3h73.7V430H468.6V412.3Z" class="g0_35"/>
<path fill-rule="evenodd" d="M542.3,412.3H579V430H542.3V412.3Z" class="g0_35"/>
<path fill-rule="evenodd" d="M110,430.1H825v17.7H110V430.1Z" class="g0_35"/>
<path fill-rule="evenodd" d="M220.3,430.1H248v17.7H220.3V430.1Z" class="g0_35"/>
<path fill-rule="evenodd" d="M257.1,430.1h9.2v17.7h-9.2V430.1Z" class="g0_35"/>
<path fill-rule="evenodd" d="M266.3,430.1h27.6v17.7H266.3V430.1Z" class="g0_35"/>
<path fill-rule="evenodd" d="M321.5,430.1h9.2v17.7h-9.2V430.1Z" class="g0_35"/>
<path fill-rule="evenodd" d="M395.1,430.1h9.2v17.7h-9.2V430.1Z" class="g0_35"/>
<path fill-rule="evenodd" d="M431.9,430.1h9.2v17.7h-9.2V430.1Z" class="g0_35"/>
<path fill-rule="evenodd" d="M450.3,430.1h9.2v17.7h-9.2V430.1Z" class="g0_35"/>
<path fill-rule="evenodd" d="M459.5,430.1h9.1v17.7h-9.1V430.1Z" class="g0_35"/>
<path fill-rule="evenodd" d="M496.3,430.1h9.2v17.7h-9.2V430.1Z" class="g0_35"/>
<path fill-rule="evenodd" d="M533,430.1h9.3v17.7H533V430.1Z" class="g0_35"/>
<path fill-rule="evenodd" d="M551.5,430.1h18.4v17.7H551.5V430.1Z" class="g0_35"/>
<path fill-rule="evenodd" d="M569.9,430.1H579v17.7h-9.1V430.1Z" class="g0_35"/>
<path fill-rule="evenodd" d="M110,447.9H825v17.7H110V447.9Z" class="g0_35"/>
<path fill-rule="evenodd" d="M220.3,447.9h9.2v17.7h-9.2V447.9Z" class="g0_35"/>
<path fill-rule="evenodd" d="M110,465.7H825v17.7H110V465.7Z" class="g0_35"/>
<path fill-rule="evenodd" d="M349.1,465.7h9.2v17.7h-9.2V465.7Z" class="g0_35"/>
<path fill-rule="evenodd" d="M385.9,465.7h9.2v17.7h-9.2V465.7Z" class="g0_35"/>
<path fill-rule="evenodd" d="M404.3,465.7h18.4v17.7H404.3V465.7Z" class="g0_35"/>
<path fill-rule="evenodd" d="M422.7,465.7h9.2v17.7h-9.2V465.7Z" class="g0_35"/>
<path fill-rule="evenodd" d="M110,483.5H825v17.7H110V483.5Z" class="g0_35"/>
<path fill-rule="evenodd" d="M293.9,483.5h9.2v17.7h-9.2V483.5Z" class="g0_35"/>
<path fill-rule="evenodd" d="M349.1,483.5h9.2v17.7h-9.2V483.5Z" class="g0_35"/>
<path fill-rule="evenodd" d="M450.3,483.5h9.2v17.7h-9.2V483.5Z" class="g0_35"/>
<path fill-rule="evenodd" d="M542.3,483.5h9.2v17.7h-9.2V483.5Z" class="g0_35"/>
<path fill-rule="evenodd" d="M634.3,483.5h9.1v17.7h-9.1V483.5Z" class="g0_35"/>
<path fill-rule="evenodd" d="M110,501.2H825v17.7H110V501.2Z" class="g0_35"/>
<path fill-rule="evenodd" d="M110,519H825v17.7H110V519Z" class="g0_35"/>
<path fill-rule="evenodd" d="M220.3,519h9.2v17.7h-9.2V519Z" class="g0_35"/>
<path fill-rule="evenodd" d="M110,536.8H825v17.7H110V536.8Z" class="g0_35"/>
<path fill-rule="evenodd" d="M220.3,536.8h18.4v17.7H220.3V536.8Z" class="g0_35"/>
<path fill-rule="evenodd" d="M248,536.8h9.1v17.7H248V536.8Z" class="g0_35"/>
<path fill-rule="evenodd" d="M293.9,536.8h18.5v17.7H293.9V536.8Z" class="g0_35"/>
<path fill-rule="evenodd" d="M376.7,536.8h9.2v17.7h-9.2V536.8Z" class="g0_35"/>
<path fill-rule="evenodd" d="M110,554.6H825v17.7H110V554.6Z" class="g0_35"/>
<path fill-rule="evenodd" d="M220.3,554.6h9.2v17.7h-9.2V554.6Z" class="g0_35"/>
<path fill-rule="evenodd" d="M110,572.4H825v17.7H110V572.4Z" class="g0_35"/>
<path fill-rule="evenodd" d="M321.5,572.4h9.2v17.7h-9.2V572.4Z" class="g0_35"/>
<path fill-rule="evenodd" d="M330.7,572.4h46v17.7h-46V572.4Z" class="g0_35"/>
<path fill-rule="evenodd" d="M376.7,572.4h9.2v17.7h-9.2V572.4Z" class="g0_35"/>
<path fill-rule="evenodd" d="M385.9,572.4h73.6v17.7H385.9V572.4Z" class="g0_35"/>
<path fill-rule="evenodd" d="M459.5,572.4h9.1v17.7h-9.1V572.4Z" class="g0_35"/>
<path fill-rule="evenodd" d="M468.6,572.4h55.3v17.7H468.6V572.4Z" class="g0_35"/>
<path fill-rule="evenodd" d="M523.9,572.4H533v17.7h-9.1V572.4Z" class="g0_35"/>
<path fill-rule="evenodd" d="M533,572.4h18.5v17.7H533V572.4Z" class="g0_35"/>
<path fill-rule="evenodd" d="M551.5,572.4h9.2v17.7h-9.2V572.4Z" class="g0_35"/>
<path fill-rule="evenodd" d="M560.7,572.4H579v17.7H560.7V572.4Z" class="g0_35"/>
<path fill-rule="evenodd" d="M579,572.4h9.3v17.7H579V572.4Z" class="g0_35"/>
<path fill-rule="evenodd" d="M588.3,572.4h82.8v17.7H588.3V572.4Z" class="g0_35"/>
<path fill-rule="evenodd" d="M671.1,572.4h9.1v17.7h-9.1V572.4Z" class="g0_35"/>
<path fill-rule="evenodd" d="M680.2,572.4h64.4v17.7H680.2V572.4Z" class="g0_35"/>
<path fill-rule="evenodd" d="M744.6,572.4H763v17.7H744.6V572.4Z" class="g0_35"/>
<path fill-rule="evenodd" d="M110,590.1H825v17.7H110V590.1Z" class="g0_35"/>
<path fill-rule="evenodd" d="M220.3,590.1h9.2v17.7h-9.2V590.1Z" class="g0_35"/>
<path fill-rule="evenodd" d="M110,607.9H825v17.7H110V607.9Z" class="g0_35"/>
<path fill-rule="evenodd" d="M220.3,607.9h36.8v17.7H220.3V607.9Z" class="g0_35"/>
<path fill-rule="evenodd" d="M110,625.7H825v17.7H110V625.7Z" class="g0_35"/>
<path fill-rule="evenodd" d="M321.5,625.7h9.2v17.7h-9.2V625.7Z" class="g0_35"/>
<path fill-rule="evenodd" d="M330.7,625.7h46v17.7h-46V625.7Z" class="g0_35"/>
<path fill-rule="evenodd" d="M376.7,625.7h9.2v17.7h-9.2V625.7Z" class="g0_35"/>
<path fill-rule="evenodd" d="M385.9,625.7h73.6v17.7H385.9V625.7Z" class="g0_35"/>
<path fill-rule="evenodd" d="M459.5,625.7h9.1v17.7h-9.1V625.7Z" class="g0_35"/>
<path fill-rule="evenodd" d="M468.6,625.7h55.3v17.7H468.6V625.7Z" class="g0_35"/>
<path fill-rule="evenodd" d="M523.9,625.7H533v17.7h-9.1V625.7Z" class="g0_35"/>
<path fill-rule="evenodd" d="M533,625.7h18.5v17.7H533V625.7Z" class="g0_35"/>
<path fill-rule="evenodd" d="M551.5,625.7h9.2v17.7h-9.2V625.7Z" class="g0_35"/>
<path fill-rule="evenodd" d="M560.7,625.7h27.6v17.7H560.7V625.7Z" class="g0_35"/>
<path fill-rule="evenodd" d="M588.3,625.7h9.1v17.7h-9.1V625.7Z" class="g0_35"/>
<path fill-rule="evenodd" d="M597.4,625.7h18.4v17.7H597.4V625.7Z" class="g0_35"/>
<path fill-rule="evenodd" d="M615.8,625.7H625v17.7h-9.2V625.7Z" class="g0_35"/>
<path fill-rule="evenodd" d="M625,625.7h82.8v17.7H625V625.7Z" class="g0_35"/>
<path fill-rule="evenodd" d="M707.8,625.7h9.3v17.7h-9.3V625.7Z" class="g0_35"/>
<path fill-rule="evenodd" d="M717.1,625.7h64.3v17.7H717.1V625.7Z" class="g0_35"/>
<path fill-rule="evenodd" d="M781.4,625.7h18.4v17.7H781.4V625.7Z" class="g0_35"/>
<path fill-rule="evenodd" d="M110,643.5H825v17.7H110V643.5Z" class="g0_35"/>
<path fill-rule="evenodd" d="M284.7,643.5h9.2v17.7h-9.2V643.5Z" class="g0_35"/>
<path fill-rule="evenodd" d="M293.9,643.5h73.6v17.7H293.9V643.5Z" class="g0_35"/>
<path fill-rule="evenodd" d="M367.5,643.5h27.6v17.7H367.5V643.5Z" class="g0_35"/>
<path fill-rule="evenodd" d="M110,661.3H825V679H110V661.3Z" class="g0_35"/>
<path fill-rule="evenodd" d="M183.6,661.3h9.1V679h-9.1V661.3Z" class="g0_35"/>
<path fill-rule="evenodd" d="M110,679.1H825v17.7H110V679.1Z" class="g0_35"/>
<path fill-rule="evenodd" d="M156,679.1h9.2v17.7H156V679.1Z" class="g0_35"/>
<path fill-rule="evenodd" d="M110,696.8H825V726H110V696.8Z" class="g0_35"/>
<path fill-rule="evenodd" d="M128.3,696.8h9.3v17.7h-9.3V696.8Z" class="g0_35"/>
<path fill-rule="evenodd" d="M110,726.1H825v43.7H110V726.1Z" class="g1_35"/>
<path fill-rule="evenodd" d="M110,769.8H825v27.5H110V769.8Z" class="g1_35"/>
<path fill-rule="evenodd" d="M110,797.3H825v27.5H110V797.3Z" class="g1_35"/>
<path fill-rule="evenodd" d="M110,824.8H825v27.5H110V824.8Z" class="g1_35"/>
<path fill-rule="evenodd" d="M110,852.3H825v39H110v-39Z" class="g1_35"/>
<path fill-rule="evenodd" d="M110,891.3H825v27.5H110V891.3Z" class="g1_35"/>
<path fill-rule="evenodd" d="M110,918.8H825v27.5H110V918.8Z" class="g1_35"/>
<path fill-rule="evenodd" d="M110,946.3H825v39H110v-39Z" class="g1_35"/>
<path fill-rule="evenodd" d="M110,985.3H825V1029H110V985.3Z" class="g1_35"/>
<path fill-rule="evenodd" d="M110,1029H825v17.7H110V1029Z" class="g0_35"/>
<path fill-rule="evenodd" d="M110,1046.8H825v17.7H110v-17.7Z" class="g0_35"/>
<path fill-rule="evenodd" d="M110,1064.6H825v29.1H110v-29.1Z" class="g0_35"/>
</svg>