<?xml version="1.0" encoding="UTF-8" standalone="no"?>
<!DOCTYPE svg PUBLIC "-//W3C//DTD SVG 1.1//EN"
"http://www.w3.org/Graphics/SVG/1.1/DTD/svg11.dtd">
<svg viewBox="0 0 935 1210" version="1.1" xmlns="http://www.w3.org/2000/svg" xmlns:xlink="http://www.w3.org/1999/xlink">
<defs>
<style type="text/css"><![CDATA[
.g0_2{
fill: #F4F4F4;
}
.g1_2{
fill: #FDFDFD;
}
]]></style>
</defs>
<path fill-rule="evenodd" d="M110,110H825v17.7H110V110Z" class="g0_2"/>
<path fill-rule="evenodd" d="M110,110h18.3v17.7H110V110Z" class="g0_2"/>
<path fill-rule="evenodd" d="M110,127.7H825v17.7H110V127.7Z" class="g0_2"/>
<path fill-rule="evenodd" d="M110,127.7h9.2v17.7H110V127.7Z" class="g0_2"/>
<path fill-rule="evenodd" d="M119.2,127.7h9.1v17.7h-9.1V127.7Z" class="g0_2"/>
<path fill-rule="evenodd" d="M128.3,127.7h9.3v17.7h-9.3V127.7Z" class="g0_2"/>
<path fill-rule="evenodd" d="M137.6,127.7H156v17.7H137.6V127.7Z" class="g0_2"/>
<path fill-rule="evenodd" d="M156,127.7h9.2v17.7H156V127.7Z" class="g0_2"/>
<path fill-rule="evenodd" d="M165.2,127.7h64.3v17.7H165.2V127.7Z" class="g0_2"/>
<path fill-rule="evenodd" d="M229.5,127.7h9.2v17.7h-9.2V127.7Z" class="g0_2"/>
<path fill-rule="evenodd" d="M238.7,127.7h18.4v17.7H238.7V127.7Z" class="g0_2"/>
<path fill-rule="evenodd" d="M257.1,127.7h9.2v17.7h-9.2V127.7Z" class="g0_2"/>
<path fill-rule="evenodd" d="M266.3,127.7h36.8v17.7H266.3V127.7Z" class="g0_2"/>
<path fill-rule="evenodd" d="M303.1,127.7h9.3v17.7h-9.3V127.7Z" class="g0_2"/>
<path fill-rule="evenodd" d="M312.4,127.7h27.5v17.7H312.4V127.7Z" class="g0_2"/>
<path fill-rule="evenodd" d="M339.9,127.7h9.2v17.7h-9.2V127.7Z" class="g0_2"/>
<path fill-rule="evenodd" d="M349.1,127.7h64.4v17.7H349.1V127.7Z" class="g0_2"/>
<path fill-rule="evenodd" d="M110,145.5H825v17.7H110V145.5Z" class="g0_2"/>
<path fill-rule="evenodd" d="M110,145.5h9.2v17.7H110V145.5Z" class="g0_2"/>
<path fill-rule="evenodd" d="M119.2,145.5h18.4v17.7H119.2V145.5Z" class="g0_2"/>
<path fill-rule="evenodd" d="M110,163.3H825V181H110V163.3Z" class="g0_2"/>
<path fill-rule="evenodd" d="M110,163.3h46V181H110V163.3Z" class="g0_2"/>
<path fill-rule="evenodd" d="M165.2,163.3h55.1V181H165.2V163.3Z" class="g0_2"/>
<path fill-rule="evenodd" d="M220.3,163.3h9.2V181h-9.2V163.3Z" class="g0_2"/>
<path fill-rule="evenodd" d="M110,181.1H825v17.7H110V181.1Z" class="g0_2"/>
<path fill-rule="evenodd" d="M110,181.1h46v17.7H110V181.1Z" class="g0_2"/>
<path fill-rule="evenodd" d="M165.2,181.1H404.3v17.7H165.2V181.1Z" class="g0_2"/>
<path fill-rule="evenodd" d="M404.3,181.1h9.2v17.7h-9.2V181.1Z" class="g0_2"/>
<path fill-rule="evenodd" d="M110,198.9H825v17.7H110V198.9Z" class="g0_2"/>
<path fill-rule="evenodd" d="M110,198.9h46v17.7H110V198.9Z" class="g0_2"/>
<path fill-rule="evenodd" d="M165.2,198.9H266.3v17.7H165.2V198.9Z" class="g0_2"/>
<path fill-rule="evenodd" d="M266.3,198.9h9.2v17.7h-9.2V198.9Z" class="g0_2"/>
<path fill-rule="evenodd" d="M110,216.6H825v17.8H110V216.6Z" class="g0_2"/>
<path fill-rule="evenodd" d="M110,216.6h46v17.8H110V216.6Z" class="g0_2"/>
<path fill-rule="evenodd" d="M165.2,216.6H266.3v17.8H165.2V216.6Z" class="g0_2"/>
<path fill-rule="evenodd" d="M266.3,216.6h9.2v17.8h-9.2V216.6Z" class="g0_2"/>
<path fill-rule="evenodd" d="M110,234.4H825v17.8H110V234.4Z" class="g0_2"/>
<path fill-rule="evenodd" d="M110,234.4h82.7v17.8H110V234.4Z" class="g0_2"/>
<path fill-rule="evenodd" d="M110,252.2H825V270H110V252.2Z" class="g0_2"/>
<path fill-rule="evenodd" d="M110,252.2h9.2V270H110V252.2Z" class="g0_2"/>
<path fill-rule="evenodd" d="M110,270H825v17.8H110V270Z" class="g0_2"/>
<path fill-rule="evenodd" d="M146.7,270h46v17.8h-46V270Z" class="g0_2"/>
<path fill-rule="evenodd" d="M110,287.8H825v17.8H110V287.8Z" class="g0_2"/>
<path fill-rule="evenodd" d="M146.7,287.8H156v17.8h-9.3V287.8Z" class="g0_2"/>
<path fill-rule="evenodd" d="M110,305.6H825v17.7H110V305.6Z" class="g0_2"/>
<path fill-rule="evenodd" d="M183.6,305.6h55.1v17.7H183.6V305.6Z" class="g0_2"/>
<path fill-rule="evenodd" d="M248,305.6h36.7v17.7H248V305.6Z" class="g0_2"/>
<path fill-rule="evenodd" d="M330.7,305.6h9.2v17.7h-9.2V305.6Z" class="g0_2"/>
<path fill-rule="evenodd" d="M339.9,305.6h55.2v17.7H339.9V305.6Z" class="g0_2"/>
<path fill-rule="evenodd" d="M395.1,305.6h18.4v17.7H395.1V305.6Z" class="g0_2"/>
<path fill-rule="evenodd" d="M459.5,305.6h9.1v17.7h-9.1V305.6Z" class="g0_2"/>
<path fill-rule="evenodd" d="M110,323.4H825v17.7H110V323.4Z" class="g0_2"/>
<path fill-rule="evenodd" d="M183.6,323.4h9.1v17.7h-9.1V323.4Z" class="g0_2"/>
<path fill-rule="evenodd" d="M110,341.2H825v17.7H110V341.2Z" class="g0_2"/>
<path fill-rule="evenodd" d="M220.3,341.2H248v17.7H220.3V341.2Z" class="g0_2"/>
<path fill-rule="evenodd" d="M404.3,341.2h9.2v17.7h-9.2V341.2Z" class="g0_2"/>
<path fill-rule="evenodd" d="M110,359H825v17.7H110V359Z" class="g0_2"/>
<path fill-rule="evenodd" d="M284.7,359h9.2v17.7h-9.2V359Z" class="g0_2"/>
<path fill-rule="evenodd" d="M293.9,359h46v17.7h-46V359Z" class="g0_2"/>
<path fill-rule="evenodd" d="M339.9,359h9.2v17.7h-9.2V359Z" class="g0_2"/>
<path fill-rule="evenodd" d="M349.1,359h9.2v17.7h-9.2V359Z" class="g0_2"/>
<path fill-rule="evenodd" d="M358.3,359h18.4v17.7H358.3V359Z" class="g0_2"/>
<path fill-rule="evenodd" d="M376.7,359h46v17.7h-46V359Z" class="g0_2"/>
<path fill-rule="evenodd" d="M422.7,359h9.2v17.7h-9.2V359Z" class="g0_2"/>
<path fill-rule="evenodd" d="M431.9,359h27.6v17.7H431.9V359Z" class="g0_2"/>
<path fill-rule="evenodd" d="M459.5,359h9.1v17.7h-9.1V359Z" class="g0_2"/>
<path fill-rule="evenodd" d="M468.6,359h46.1v17.7H468.6V359Z" class="g0_2"/>
<path fill-rule="evenodd" d="M514.7,359h9.2v17.7h-9.2V359Z" class="g0_2"/>
<path fill-rule="evenodd" d="M523.9,359H579v17.7H523.9V359Z" class="g0_2"/>
<path fill-rule="evenodd" d="M579,359h9.3v17.7H579V359Z" class="g0_2"/>
<path fill-rule="evenodd" d="M588.3,359h9.1v17.7h-9.1V359Z" class="g0_2"/>
<path fill-rule="evenodd" d="M597.4,359h9.3v17.7h-9.3V359Z" class="g0_2"/>
<path fill-rule="evenodd" d="M606.7,359h9.1v17.7h-9.1V359Z" class="g0_2"/>
<path fill-rule="evenodd" d="M615.8,359h18.5v17.7H615.8V359Z" class="g0_2"/>
<path fill-rule="evenodd" d="M110,376.7H825v17.8H110V376.7Z" class="g0_2"/>
<path fill-rule="evenodd" d="M266.3,376.7h9.2v17.8h-9.2V376.7Z" class="g0_2"/>
<path fill-rule="evenodd" d="M284.7,376.7h27.7v17.8H284.7V376.7Z" class="g0_2"/>
<path fill-rule="evenodd" d="M312.4,376.7h9.1v17.8h-9.1V376.7Z" class="g0_2"/>
<path fill-rule="evenodd" d="M321.5,376.7h46v17.8h-46V376.7Z" class="g0_2"/>
<path fill-rule="evenodd" d="M367.5,376.7h9.2v17.8h-9.2V376.7Z" class="g0_2"/>
<path fill-rule="evenodd" d="M441.1,376.7h9.2v17.8h-9.2V376.7Z" class="g0_2"/>
<path fill-rule="evenodd" d="M450.3,376.7h73.6v17.8H450.3V376.7Z" class="g0_2"/>
<path fill-rule="evenodd" d="M523.9,376.7h36.8v17.8H523.9V376.7Z" class="g0_2"/>
<path fill-rule="evenodd" d="M110,394.5H825v17.8H110V394.5Z" class="g0_2"/>
<path fill-rule="evenodd" d="M284.7,394.5h9.2v17.8h-9.2V394.5Z" class="g0_2"/>
<path fill-rule="evenodd" d="M293.9,394.5h46v17.8h-46V394.5Z" class="g0_2"/>
<path fill-rule="evenodd" d="M339.9,394.5h9.2v17.8h-9.2V394.5Z" class="g0_2"/>
<path fill-rule="evenodd" d="M349.1,394.5h9.2v17.8h-9.2V394.5Z" class="g0_2"/>
<path fill-rule="evenodd" d="M358.3,394.5h18.4v17.8H358.3V394.5Z" class="g0_2"/>
<path fill-rule="evenodd" d="M376.7,394.5h46v17.8h-46V394.5Z" class="g0_2"/>
<path fill-rule="evenodd" d="M422.7,394.5h9.2v17.8h-9.2V394.5Z" class="g0_2"/>
<path fill-rule="evenodd" d="M431.9,394.5h27.6v17.8H431.9V394.5Z" class="g0_2"/>
<path fill-rule="evenodd" d="M459.5,394.5h9.1v17.8h-9.1V394.5Z" class="g0_2"/>
<path fill-rule="evenodd" d="M468.6,394.5h55.3v17.8H468.6V394.5Z" class="g0_2"/>
<path fill-rule="evenodd" d="M523.9,394.5H533v17.8h-9.1V394.5Z" class="g0_2"/>
<path fill-rule="evenodd" d="M533,394.5h55.3v17.8H533V394.5Z" class="g0_2"/>
<path fill-rule="evenodd" d="M588.3,394.5h9.1v17.8h-9.1V394.5Z" class="g0_2"/>
<path fill-rule="evenodd" d="M597.4,394.5h9.3v17.8h-9.3V394.5Z" class="g0_2"/>
<path fill-rule="evenodd" d="M606.7,394.5h9.1v17.8h-9.1V394.5Z" class="g0_2"/>
<path fill-rule="evenodd" d="M615.8,394.5H625v17.8h-9.2V394.5Z" class="g0_2"/>
<path fill-rule="evenodd" d="M625,394.5h18.4v17.8H625V394.5Z" class="g0_2"/>
<path fill-rule="evenodd" d="M110,412.3H825V430H110V412.3Z" class="g0_2"/>
<path fill-rule="evenodd" d="M266.3,412.3h9.2V430h-9.2V412.3Z" class="g0_2"/>
<path fill-rule="evenodd" d="M284.7,412.3h27.7V430H284.7V412.3Z" class="g0_2"/>
<path fill-rule="evenodd" d="M312.4,412.3h9.1V430h-9.1V412.3Z" class="g0_2"/>
<path fill-rule="evenodd" d="M321.5,412.3h46V430h-46V412.3Z" class="g0_2"/>
<path fill-rule="evenodd" d="M367.5,412.3h9.2V430h-9.2V412.3Z" class="g0_2"/>
<path fill-rule="evenodd" d="M441.1,412.3h9.2V430h-9.2V412.3Z" class="g0_2"/>
<path fill-rule="evenodd" d="M450.3,412.3h73.6V430H450.3V412.3Z" class="g0_2"/>
<path fill-rule="evenodd" d="M523.9,412.3h36.8V430H523.9V412.3Z" class="g0_2"/>
<path fill-rule="evenodd" d="M110,430.1H825v17.7H110V430.1Z" class="g0_2"/>
<path fill-rule="evenodd" d="M266.3,430.1h9.2v17.7h-9.2V430.1Z" class="g0_2"/>
<path fill-rule="evenodd" d="M321.5,430.1h9.2v17.7h-9.2V430.1Z" class="g0_2"/>
<path fill-rule="evenodd" d="M110,447.9H825v17.7H110V447.9Z" class="g0_2"/>
<path fill-rule="evenodd" d="M266.3,447.9h9.2v17.7h-9.2V447.9Z" class="g0_2"/>
<path fill-rule="evenodd" d="M321.5,447.9h9.2v17.7h-9.2V447.9Z" class="g0_2"/>
<path fill-rule="evenodd" d="M110,465.7H825v17.7H110V465.7Z" class="g0_2"/>
<path fill-rule="evenodd" d="M266.3,465.7h9.2v17.7h-9.2V465.7Z" class="g0_2"/>
<path fill-rule="evenodd" d="M321.5,465.7h9.2v17.7h-9.2V465.7Z" class="g0_2"/>
<path fill-rule="evenodd" d="M110,483.5H825v17.7H110V483.5Z" class="g0_2"/>
<path fill-rule="evenodd" d="M284.7,483.5h9.2v17.7h-9.2V483.5Z" class="g0_2"/>
<path fill-rule="evenodd" d="M293.9,483.5h46v17.7h-46V483.5Z" class="g0_2"/>
<path fill-rule="evenodd" d="M339.9,483.5h9.2v17.7h-9.2V483.5Z" class="g0_2"/>
<path fill-rule="evenodd" d="M349.1,483.5h9.2v17.7h-9.2V483.5Z" class="g0_2"/>
<path fill-rule="evenodd" d="M358.3,483.5h18.4v17.7H358.3V483.5Z" class="g0_2"/>
<path fill-rule="evenodd" d="M376.7,483.5h46v17.7h-46V483.5Z" class="g0_2"/>
<path fill-rule="evenodd" d="M422.7,483.5h9.2v17.7h-9.2V483.5Z" class="g0_2"/>
<path fill-rule="evenodd" d="M431.9,483.5h73.6v17.7H431.9V483.5Z" class="g0_2"/>
<path fill-rule="evenodd" d="M505.5,483.5h9.2v17.7h-9.2V483.5Z" class="g0_2"/>
<path fill-rule="evenodd" d="M514.7,483.5h9.2v17.7h-9.2V483.5Z" class="g0_2"/>
<path fill-rule="evenodd" d="M523.9,483.5H533v17.7h-9.1V483.5Z" class="g0_2"/>
<path fill-rule="evenodd" d="M533,483.5h9.3v17.7H533V483.5Z" class="g0_2"/>
<path fill-rule="evenodd" d="M542.3,483.5h18.4v17.7H542.3V483.5Z" class="g0_2"/>
<path fill-rule="evenodd" d="M110,501.2H825v17.7H110V501.2Z" class="g0_2"/>
<path fill-rule="evenodd" d="M284.7,501.2h9.2v17.7h-9.2V501.2Z" class="g0_2"/>
<path fill-rule="evenodd" d="M293.9,501.2h46v17.7h-46V501.2Z" class="g0_2"/>
<path fill-rule="evenodd" d="M339.9,501.2h9.2v17.7h-9.2V501.2Z" class="g0_2"/>
<path fill-rule="evenodd" d="M349.1,501.2h9.2v17.7h-9.2V501.2Z" class="g0_2"/>
<path fill-rule="evenodd" d="M358.3,501.2h18.4v17.7H358.3V501.2Z" class="g0_2"/>
<path fill-rule="evenodd" d="M376.7,501.2h46v17.7h-46V501.2Z" class="g0_2"/>
<path fill-rule="evenodd" d="M422.7,501.2h9.2v17.7h-9.2V501.2Z" class="g0_2"/>
<path fill-rule="evenodd" d="M431.9,501.2h55.2v17.7H431.9V501.2Z" class="g0_2"/>
<path fill-rule="evenodd" d="M487.1,501.2h9.2v17.7h-9.2V501.2Z" class="g0_2"/>
<path fill-rule="evenodd" d="M496.3,501.2h9.2v17.7h-9.2V501.2Z" class="g0_2"/>
<path fill-rule="evenodd" d="M505.5,501.2h9.2v17.7h-9.2V501.2Z" class="g0_2"/>
<path fill-rule="evenodd" d="M514.7,501.2h9.2v17.7h-9.2V501.2Z" class="g0_2"/>
<path fill-rule="evenodd" d="M523.9,501.2H533v17.7h-9.1V501.2Z" class="g0_2"/>
<path fill-rule="evenodd" d="M569.9,501.2h18.4v17.7H569.9V501.2Z" class="g0_2"/>
<path fill-rule="evenodd" d="M110,519H825v17.7H110V519Z" class="g0_2"/>
<path fill-rule="evenodd" d="M284.7,519h9.2v17.7h-9.2V519Z" class="g0_2"/>
<path fill-rule="evenodd" d="M293.9,519h46v17.7h-46V519Z" class="g0_2"/>
<path fill-rule="evenodd" d="M339.9,519h9.2v17.7h-9.2V519Z" class="g0_2"/>
<path fill-rule="evenodd" d="M349.1,519h9.2v17.7h-9.2V519Z" class="g0_2"/>
<path fill-rule="evenodd" d="M358.3,519h18.4v17.7H358.3V519Z" class="g0_2"/>
<path fill-rule="evenodd" d="M376.7,519h55.2v17.7H376.7V519Z" class="g0_2"/>
<path fill-rule="evenodd" d="M431.9,519h9.2v17.7h-9.2V519Z" class="g0_2"/>
<path fill-rule="evenodd" d="M441.1,519h55.2v17.7H441.1V519Z" class="g0_2"/>
<path fill-rule="evenodd" d="M496.3,519h9.2v17.7h-9.2V519Z" class="g0_2"/>
<path fill-rule="evenodd" d="M505.5,519h9.2v17.7h-9.2V519Z" class="g0_2"/>
<path fill-rule="evenodd" d="M514.7,519h9.2v17.7h-9.2V519Z" class="g0_2"/>
<path fill-rule="evenodd" d="M523.9,519H533v17.7h-9.1V519Z" class="g0_2"/>
<path fill-rule="evenodd" d="M533,519h9.3v17.7H533V519Z" class="g0_2"/>
<path fill-rule="evenodd" d="M579,519h18.4v17.7H579V519Z" class="g0_2"/>
<path fill-rule="evenodd" d="M110,536.8H825v17.7H110V536.8Z" class="g0_2"/>
<path fill-rule="evenodd" d="M284.7,536.8h9.2v17.7h-9.2V536.8Z" class="g0_2"/>
<path fill-rule="evenodd" d="M293.9,536.8h36.8v17.7H293.9V536.8Z" class="g0_2"/>
<path fill-rule="evenodd" d="M330.7,536.8h27.6v17.7H330.7V536.8Z" class="g0_2"/>
<path fill-rule="evenodd" d="M110,554.6H825v17.7H110V554.6Z" class="g0_2"/>
<path fill-rule="evenodd" d="M183.6,554.6h9.1v17.7h-9.1V554.6Z" class="g0_2"/>
<path fill-rule="evenodd" d="M110,572.4H825v17.7H110V572.4Z" class="g0_2"/>
<path fill-rule="evenodd" d="M146.7,572.4H156v17.7h-9.3V572.4Z" class="g0_2"/>
<path fill-rule="evenodd" d="M110,590.1H825v29.2H110V590.1Z" class="g0_2"/>
<path fill-rule="evenodd" d="M110,590.1h9.2v17.7H110V590.1Z" class="g0_2"/>
<path fill-rule="evenodd" d="M110,619.4H825v43.7H110V619.4Z" class="g1_2"/>
<path fill-rule="evenodd" d="M110,663.1H825v27.5H110V663.1Z" class="g1_2"/>
<path fill-rule="evenodd" d="M110,690.6H825v27.5H110V690.6Z" class="g1_2"/>
<path fill-rule="evenodd" d="M110,718.1H825v39H110v-39Z" class="g1_2"/>
<path fill-rule="evenodd" d="M110,757.1H825v43.7H110V757.1Z" class="g1_2"/>
<path fill-rule="evenodd" d="M110,800.8H825v17.7H110V800.8Z" class="g0_2"/>
<path fill-rule="evenodd" d="M110,818.6H825v17.7H110V818.6Z" class="g0_2"/>
<path fill-rule="evenodd" d="M110,836.4H825v17.7H110V836.4Z" class="g0_2"/>
<path fill-rule="evenodd" d="M110,854.2H825v17.7H110V854.2Z" class="g0_2"/>
<path fill-rule="evenodd" d="M110,872H825v17.7H110V872Z" class="g0_2"/>
<path fill-rule="evenodd" d="M110,889.7H825v29.2H110V889.7Z" class="g0_2"/>
</svg>