<?xml version="1.0" encoding="UTF-8" standalone="no"?>
<!DOCTYPE svg PUBLIC "-//W3C//DTD SVG 1.1//EN"
"http://www.w3.org/Graphics/SVG/1.1/DTD/svg11.dtd">
<svg viewBox="0 0 935 1210" version="1.1" xmlns="http://www.w3.org/2000/svg" xmlns:xlink="http://www.w3.org/1999/xlink">
<defs>
<style type="text/css"><![CDATA[
.g0_23{
fill: #F4F4F4;
}
.g1_23{
fill: #FDFDFD;
}
]]></style>
</defs>
<path fill-rule="evenodd" d="M110,110H825v17.7H110V110Z" class="g0_23"/>
<path fill-rule="evenodd" d="M110,110h18.3v17.7H110V110Z" class="g0_23"/>
<path fill-rule="evenodd" d="M110,127.7H825v17.7H110V127.7Z" class="g0_23"/>
<path fill-rule="evenodd" d="M110,127.7h9.2v17.7H110V127.7Z" class="g0_23"/>
<path fill-rule="evenodd" d="M119.2,127.7h9.1v17.7h-9.1V127.7Z" class="g0_23"/>
<path fill-rule="evenodd" d="M128.3,127.7h9.3v17.7h-9.3V127.7Z" class="g0_23"/>
<path fill-rule="evenodd" d="M137.6,127.7H156v17.7H137.6V127.7Z" class="g0_23"/>
<path fill-rule="evenodd" d="M156,127.7h9.2v17.7H156V127.7Z" class="g0_23"/>
<path fill-rule="evenodd" d="M165.2,127.7h64.3v17.7H165.2V127.7Z" class="g0_23"/>
<path fill-rule="evenodd" d="M229.5,127.7h9.2v17.7h-9.2V127.7Z" class="g0_23"/>
<path fill-rule="evenodd" d="M238.7,127.7h18.4v17.7H238.7V127.7Z" class="g0_23"/>
<path fill-rule="evenodd" d="M257.1,127.7h9.2v17.7h-9.2V127.7Z" class="g0_23"/>
<path fill-rule="evenodd" d="M266.3,127.7h64.4v17.7H266.3V127.7Z" class="g0_23"/>
<path fill-rule="evenodd" d="M330.7,127.7h9.2v17.7h-9.2V127.7Z" class="g0_23"/>
<path fill-rule="evenodd" d="M339.9,127.7h73.6v17.7H339.9V127.7Z" class="g0_23"/>
<path fill-rule="evenodd" d="M413.5,127.7h9.2v17.7h-9.2V127.7Z" class="g0_23"/>
<path fill-rule="evenodd" d="M422.7,127.7h82.8v17.7H422.7V127.7Z" class="g0_23"/>
<path fill-rule="evenodd" d="M110,145.5H825v17.7H110V145.5Z" class="g0_23"/>
<path fill-rule="evenodd" d="M110,145.5h9.2v17.7H110V145.5Z" class="g0_23"/>
<path fill-rule="evenodd" d="M119.2,145.5h18.4v17.7H119.2V145.5Z" class="g0_23"/>
<path fill-rule="evenodd" d="M110,163.3H825V181H110V163.3Z" class="g0_23"/>
<path fill-rule="evenodd" d="M110,163.3h46V181H110V163.3Z" class="g0_23"/>
<path fill-rule="evenodd" d="M165.2,163.3h55.1V181H165.2V163.3Z" class="g0_23"/>
<path fill-rule="evenodd" d="M220.3,163.3h9.2V181h-9.2V163.3Z" class="g0_23"/>
<path fill-rule="evenodd" d="M110,181.1H825v17.7H110V181.1Z" class="g0_23"/>
<path fill-rule="evenodd" d="M110,181.1h46v17.7H110V181.1Z" class="g0_23"/>
<path fill-rule="evenodd" d="M110,198.9H825v17.7H110V198.9Z" class="g0_23"/>
<path fill-rule="evenodd" d="M110,198.9h9.2v17.7H110V198.9Z" class="g0_23"/>
<path fill-rule="evenodd" d="M110,216.6H825v17.8H110V216.6Z" class="g0_23"/>
<path fill-rule="evenodd" d="M146.7,216.6h27.6v17.8H146.7V216.6Z" class="g0_23"/>
<path fill-rule="evenodd" d="M220.3,216.6h9.2v17.8h-9.2V216.6Z" class="g0_23"/>
<path fill-rule="evenodd" d="M110,234.4H825v17.8H110V234.4Z" class="g0_23"/>
<path fill-rule="evenodd" d="M146.7,234.4h36.9v17.8H146.7V234.4Z" class="g0_23"/>
<path fill-rule="evenodd" d="M248,234.4h9.1v17.8H248V234.4Z" class="g0_23"/>
<path fill-rule="evenodd" d="M257.1,234.4h55.3v17.8H257.1V234.4Z" class="g0_23"/>
<path fill-rule="evenodd" d="M330.7,234.4h9.2v17.8h-9.2V234.4Z" class="g0_23"/>
<path fill-rule="evenodd" d="M110,252.2H825V270H110V252.2Z" class="g0_23"/>
<path fill-rule="evenodd" d="M146.7,252.2H156V270h-9.3V252.2Z" class="g0_23"/>
<path fill-rule="evenodd" d="M110,270H825v17.8H110V270Z" class="g0_23"/>
<path fill-rule="evenodd" d="M229.5,270h9.2v17.8h-9.2V270Z" class="g0_23"/>
<path fill-rule="evenodd" d="M248,270h9.1v17.8H248V270Z" class="g0_23"/>
<path fill-rule="evenodd" d="M257.1,270h27.6v17.8H257.1V270Z" class="g0_23"/>
<path fill-rule="evenodd" d="M284.7,270h9.2v17.8h-9.2V270Z" class="g0_23"/>
<path fill-rule="evenodd" d="M312.4,270h9.1v17.8h-9.1V270Z" class="g0_23"/>
<path fill-rule="evenodd" d="M330.7,270h9.2v17.8h-9.2V270Z" class="g0_23"/>
<path fill-rule="evenodd" d="M339.9,270h9.2v17.8h-9.2V270Z" class="g0_23"/>
<path fill-rule="evenodd" d="M110,287.8H825v17.8H110V287.8Z" class="g0_23"/>
<path fill-rule="evenodd" d="M146.7,287.8H156v17.8h-9.3V287.8Z" class="g0_23"/>
<path fill-rule="evenodd" d="M110,305.6H825v17.7H110V305.6Z" class="g0_23"/>
<path fill-rule="evenodd" d="M146.7,305.6H202v17.7H146.7V305.6Z" class="g0_23"/>
<path fill-rule="evenodd" d="M266.3,305.6h18.4v17.7H266.3V305.6Z" class="g0_23"/>
<path fill-rule="evenodd" d="M110,323.4H825v17.7H110V323.4Z" class="g0_23"/>
<path fill-rule="evenodd" d="M146.7,323.4H156v17.7h-9.3V323.4Z" class="g0_23"/>
<path fill-rule="evenodd" d="M110,341.2H825v17.7H110V341.2Z" class="g0_23"/>
<path fill-rule="evenodd" d="M220.3,341.2h9.2v17.7h-9.2V341.2Z" class="g0_23"/>
<path fill-rule="evenodd" d="M229.5,341.2h9.2v17.7h-9.2V341.2Z" class="g0_23"/>
<path fill-rule="evenodd" d="M238.7,341.2H248v17.7h-9.3V341.2Z" class="g0_23"/>
<path fill-rule="evenodd" d="M110,359H825v17.7H110V359Z" class="g0_23"/>
<path fill-rule="evenodd" d="M183.6,359h55.1v17.7H183.6V359Z" class="g0_23"/>
<path fill-rule="evenodd" d="M248,359h9.1v17.7H248V359Z" class="g0_23"/>
<path fill-rule="evenodd" d="M257.1,359h55.3v17.7H257.1V359Z" class="g0_23"/>
<path fill-rule="evenodd" d="M312.4,359h9.1v17.7h-9.1V359Z" class="g0_23"/>
<path fill-rule="evenodd" d="M358.3,359h9.2v17.7h-9.2V359Z" class="g0_23"/>
<path fill-rule="evenodd" d="M110,376.7H825v17.8H110V376.7Z" class="g0_23"/>
<path fill-rule="evenodd" d="M146.7,376.7H156v17.8h-9.3V376.7Z" class="g0_23"/>
<path fill-rule="evenodd" d="M110,394.5H825v17.8H110V394.5Z" class="g0_23"/>
<path fill-rule="evenodd" d="M146.7,394.5H202v17.8H146.7V394.5Z" class="g0_23"/>
<path fill-rule="evenodd" d="M211.1,394.5h55.2v17.8H211.1V394.5Z" class="g0_23"/>
<path fill-rule="evenodd" d="M275.5,394.5h36.9v17.8H275.5V394.5Z" class="g0_23"/>
<path fill-rule="evenodd" d="M358.3,394.5h18.4v17.8H358.3V394.5Z" class="g0_23"/>
<path fill-rule="evenodd" d="M110,412.3H825V430H110V412.3Z" class="g0_23"/>
<path fill-rule="evenodd" d="M146.7,412.3H156V430h-9.3V412.3Z" class="g0_23"/>
<path fill-rule="evenodd" d="M110,430.1H825v17.7H110V430.1Z" class="g0_23"/>
<path fill-rule="evenodd" d="M266.3,430.1h9.2v17.7h-9.2V430.1Z" class="g0_23"/>
<path fill-rule="evenodd" d="M284.7,430.1h27.7v17.7H284.7V430.1Z" class="g0_23"/>
<path fill-rule="evenodd" d="M376.7,430.1h27.6v17.7H376.7V430.1Z" class="g0_23"/>
<path fill-rule="evenodd" d="M110,447.9H825v17.7H110V447.9Z" class="g0_23"/>
<path fill-rule="evenodd" d="M192.7,447.9H202v17.7h-9.3V447.9Z" class="g0_23"/>
<path fill-rule="evenodd" d="M202,447.9h55.1v17.7H202V447.9Z" class="g0_23"/>
<path fill-rule="evenodd" d="M257.1,447.9h9.2v17.7h-9.2V447.9Z" class="g0_23"/>
<path fill-rule="evenodd" d="M266.3,447.9h18.4v17.7H266.3V447.9Z" class="g0_23"/>
<path fill-rule="evenodd" d="M284.7,447.9h18.4v17.7H284.7V447.9Z" class="g0_23"/>
<path fill-rule="evenodd" d="M110,465.7H825v17.7H110V465.7Z" class="g0_23"/>
<path fill-rule="evenodd" d="M248,465.7h9.1v17.7H248V465.7Z" class="g0_23"/>
<path fill-rule="evenodd" d="M257.1,465.7h82.8v17.7H257.1V465.7Z" class="g0_23"/>
<path fill-rule="evenodd" d="M339.9,465.7h9.2v17.7h-9.2V465.7Z" class="g0_23"/>
<path fill-rule="evenodd" d="M349.1,465.7h46v17.7h-46V465.7Z" class="g0_23"/>
<path fill-rule="evenodd" d="M395.1,465.7h9.2v17.7h-9.2V465.7Z" class="g0_23"/>
<path fill-rule="evenodd" d="M404.3,465.7h9.2v17.7h-9.2V465.7Z" class="g0_23"/>
<path fill-rule="evenodd" d="M413.5,465.7h9.2v17.7h-9.2V465.7Z" class="g0_23"/>
<path fill-rule="evenodd" d="M422.7,465.7h36.8v17.7H422.7V465.7Z" class="g0_23"/>
<path fill-rule="evenodd" d="M487.1,465.7h9.2v17.7h-9.2V465.7Z" class="g0_23"/>
<path fill-rule="evenodd" d="M496.3,465.7H533v17.7H496.3V465.7Z" class="g0_23"/>
<path fill-rule="evenodd" d="M533,465.7h18.5v17.7H533V465.7Z" class="g0_23"/>
<path fill-rule="evenodd" d="M110,483.5H825v17.7H110V483.5Z" class="g0_23"/>
<path fill-rule="evenodd" d="M248,483.5h9.1v17.7H248V483.5Z" class="g0_23"/>
<path fill-rule="evenodd" d="M257.1,483.5h82.8v17.7H257.1V483.5Z" class="g0_23"/>
<path fill-rule="evenodd" d="M339.9,483.5h9.2v17.7h-9.2V483.5Z" class="g0_23"/>
<path fill-rule="evenodd" d="M349.1,483.5h46v17.7h-46V483.5Z" class="g0_23"/>
<path fill-rule="evenodd" d="M395.1,483.5h9.2v17.7h-9.2V483.5Z" class="g0_23"/>
<path fill-rule="evenodd" d="M404.3,483.5h9.2v17.7h-9.2V483.5Z" class="g0_23"/>
<path fill-rule="evenodd" d="M413.5,483.5h9.2v17.7h-9.2V483.5Z" class="g0_23"/>
<path fill-rule="evenodd" d="M422.7,483.5h36.8v17.7H422.7V483.5Z" class="g0_23"/>
<path fill-rule="evenodd" d="M487.1,483.5h9.2v17.7h-9.2V483.5Z" class="g0_23"/>
<path fill-rule="evenodd" d="M496.3,483.5h55.2v17.7H496.3V483.5Z" class="g0_23"/>
<path fill-rule="evenodd" d="M551.5,483.5h36.8v17.7H551.5V483.5Z" class="g0_23"/>
<path fill-rule="evenodd" d="M110,501.2H825v17.7H110V501.2Z" class="g0_23"/>
<path fill-rule="evenodd" d="M248,501.2h9.1v17.7H248V501.2Z" class="g0_23"/>
<path fill-rule="evenodd" d="M257.1,501.2h73.6v17.7H257.1V501.2Z" class="g0_23"/>
<path fill-rule="evenodd" d="M330.7,501.2h27.6v17.7H330.7V501.2Z" class="g0_23"/>
<path fill-rule="evenodd" d="M110,519H825v17.7H110V519Z" class="g0_23"/>
<path fill-rule="evenodd" d="M146.7,519H156v17.7h-9.3V519Z" class="g0_23"/>
<path fill-rule="evenodd" d="M110,536.8H825V566H110V536.8Z" class="g0_23"/>
<path fill-rule="evenodd" d="M110,536.8h9.2v17.7H110V536.8Z" class="g0_23"/>
<path fill-rule="evenodd" d="M110,566H825v43.7H110V566Z" class="g1_23"/>
<path fill-rule="evenodd" d="M110,609.7H825v17.8H110V609.7Z" class="g0_23"/>
<path fill-rule="evenodd" d="M110,627.5H825v17.8H110V627.5Z" class="g0_23"/>
<path fill-rule="evenodd" d="M110,645.3H825v29.2H110V645.3Z" class="g0_23"/>
</svg>