<?xml version="1.0" encoding="UTF-8" standalone="no"?>
<!DOCTYPE svg PUBLIC "-//W3C//DTD SVG 1.1//EN"
"http://www.w3.org/Graphics/SVG/1.1/DTD/svg11.dtd">
<svg viewBox="0 0 935 1210" version="1.1" xmlns="http://www.w3.org/2000/svg" xmlns:xlink="http://www.w3.org/1999/xlink">
<defs>
<style type="text/css"><![CDATA[
.g0_6{
fill: #F4F4F4;
}
.g1_6{
fill: #FDFDFD;
}
]]></style>
</defs>
<path fill-rule="evenodd" d="M110,110H825v17.7H110V110Z" class="g0_6"/>
<path fill-rule="evenodd" d="M110,110h18.3v17.7H110V110Z" class="g0_6"/>
<path fill-rule="evenodd" d="M110,127.7H825v17.7H110V127.7Z" class="g0_6"/>
<path fill-rule="evenodd" d="M110,127.7h9.2v17.7H110V127.7Z" class="g0_6"/>
<path fill-rule="evenodd" d="M119.2,127.7h9.1v17.7h-9.1V127.7Z" class="g0_6"/>
<path fill-rule="evenodd" d="M128.3,127.7h9.3v17.7h-9.3V127.7Z" class="g0_6"/>
<path fill-rule="evenodd" d="M137.6,127.7H156v17.7H137.6V127.7Z" class="g0_6"/>
<path fill-rule="evenodd" d="M156,127.7h9.2v17.7H156V127.7Z" class="g0_6"/>
<path fill-rule="evenodd" d="M165.2,127.7h64.3v17.7H165.2V127.7Z" class="g0_6"/>
<path fill-rule="evenodd" d="M229.5,127.7h9.2v17.7h-9.2V127.7Z" class="g0_6"/>
<path fill-rule="evenodd" d="M238.7,127.7h18.4v17.7H238.7V127.7Z" class="g0_6"/>
<path fill-rule="evenodd" d="M257.1,127.7h9.2v17.7h-9.2V127.7Z" class="g0_6"/>
<path fill-rule="evenodd" d="M266.3,127.7h46.1v17.7H266.3V127.7Z" class="g0_6"/>
<path fill-rule="evenodd" d="M312.4,127.7h9.1v17.7h-9.1V127.7Z" class="g0_6"/>
<path fill-rule="evenodd" d="M321.5,127.7h27.6v17.7H321.5V127.7Z" class="g0_6"/>
<path fill-rule="evenodd" d="M349.1,127.7h9.2v17.7h-9.2V127.7Z" class="g0_6"/>
<path fill-rule="evenodd" d="M358.3,127.7h55.2v17.7H358.3V127.7Z" class="g0_6"/>
<path fill-rule="evenodd" d="M413.5,127.7h9.2v17.7h-9.2V127.7Z" class="g0_6"/>
<path fill-rule="evenodd" d="M422.7,127.7h18.4v17.7H422.7V127.7Z" class="g0_6"/>
<path fill-rule="evenodd" d="M441.1,127.7h9.2v17.7h-9.2V127.7Z" class="g0_6"/>
<path fill-rule="evenodd" d="M450.3,127.7h27.6v17.7H450.3V127.7Z" class="g0_6"/>
<path fill-rule="evenodd" d="M477.9,127.7h9.2v17.7h-9.2V127.7Z" class="g0_6"/>
<path fill-rule="evenodd" d="M487.1,127.7h18.4v17.7H487.1V127.7Z" class="g0_6"/>
<path fill-rule="evenodd" d="M505.5,127.7h9.2v17.7h-9.2V127.7Z" class="g0_6"/>
<path fill-rule="evenodd" d="M514.7,127.7h27.6v17.7H514.7V127.7Z" class="g0_6"/>
<path fill-rule="evenodd" d="M542.3,127.7h9.2v17.7h-9.2V127.7Z" class="g0_6"/>
<path fill-rule="evenodd" d="M551.5,127.7h64.3v17.7H551.5V127.7Z" class="g0_6"/>
<path fill-rule="evenodd" d="M615.8,127.7H625v17.7h-9.2V127.7Z" class="g0_6"/>
<path fill-rule="evenodd" d="M625,127.7h55.2v17.7H625V127.7Z" class="g0_6"/>
<path fill-rule="evenodd" d="M110,145.5H825v17.7H110V145.5Z" class="g0_6"/>
<path fill-rule="evenodd" d="M110,145.5h9.2v17.7H110V145.5Z" class="g0_6"/>
<path fill-rule="evenodd" d="M119.2,145.5h18.4v17.7H119.2V145.5Z" class="g0_6"/>
<path fill-rule="evenodd" d="M110,163.3H825V181H110V163.3Z" class="g0_6"/>
<path fill-rule="evenodd" d="M110,163.3h46V181H110V163.3Z" class="g0_6"/>
<path fill-rule="evenodd" d="M165.2,163.3h55.1V181H165.2V163.3Z" class="g0_6"/>
<path fill-rule="evenodd" d="M220.3,163.3h9.2V181h-9.2V163.3Z" class="g0_6"/>
<path fill-rule="evenodd" d="M110,181.1H825v17.7H110V181.1Z" class="g0_6"/>
<path fill-rule="evenodd" d="M110,181.1h46v17.7H110V181.1Z" class="g0_6"/>
<path fill-rule="evenodd" d="M165.2,181.1H404.3v17.7H165.2V181.1Z" class="g0_6"/>
<path fill-rule="evenodd" d="M404.3,181.1h9.2v17.7h-9.2V181.1Z" class="g0_6"/>
<path fill-rule="evenodd" d="M110,198.9H825v17.7H110V198.9Z" class="g0_6"/>
<path fill-rule="evenodd" d="M110,198.9h46v17.7H110V198.9Z" class="g0_6"/>
<path fill-rule="evenodd" d="M165.2,198.9H266.3v17.7H165.2V198.9Z" class="g0_6"/>
<path fill-rule="evenodd" d="M266.3,198.9h9.2v17.7h-9.2V198.9Z" class="g0_6"/>
<path fill-rule="evenodd" d="M110,216.6H825v17.8H110V216.6Z" class="g0_6"/>
<path fill-rule="evenodd" d="M110,216.6h46v17.8H110V216.6Z" class="g0_6"/>
<path fill-rule="evenodd" d="M165.2,216.6H266.3v17.8H165.2V216.6Z" class="g0_6"/>
<path fill-rule="evenodd" d="M266.3,216.6h9.2v17.8h-9.2V216.6Z" class="g0_6"/>
<path fill-rule="evenodd" d="M110,234.4H825v17.8H110V234.4Z" class="g0_6"/>
<path fill-rule="evenodd" d="M110,252.2H825V270H110V252.2Z" class="g0_6"/>
<path fill-rule="evenodd" d="M110,252.2h82.7V270H110V252.2Z" class="g0_6"/>
<path fill-rule="evenodd" d="M110,270H825v17.8H110V270Z" class="g0_6"/>
<path fill-rule="evenodd" d="M110,270h9.2v17.8H110V270Z" class="g0_6"/>
<path fill-rule="evenodd" d="M110,287.8H825v17.8H110V287.8Z" class="g0_6"/>
<path fill-rule="evenodd" d="M146.7,287.8h46v17.8h-46V287.8Z" class="g0_6"/>
<path fill-rule="evenodd" d="M110,305.6H825v17.7H110V305.6Z" class="g0_6"/>
<path fill-rule="evenodd" d="M146.7,305.6H156v17.7h-9.3V305.6Z" class="g0_6"/>
<path fill-rule="evenodd" d="M110,323.4H825v17.7H110V323.4Z" class="g0_6"/>
<path fill-rule="evenodd" d="M183.6,323.4h55.1v17.7H183.6V323.4Z" class="g0_6"/>
<path fill-rule="evenodd" d="M248,323.4h36.7v17.7H248V323.4Z" class="g0_6"/>
<path fill-rule="evenodd" d="M330.7,323.4h9.2v17.7h-9.2V323.4Z" class="g0_6"/>
<path fill-rule="evenodd" d="M339.9,323.4h55.2v17.7H339.9V323.4Z" class="g0_6"/>
<path fill-rule="evenodd" d="M395.1,323.4h18.4v17.7H395.1V323.4Z" class="g0_6"/>
<path fill-rule="evenodd" d="M459.5,323.4h9.1v17.7h-9.1V323.4Z" class="g0_6"/>
<path fill-rule="evenodd" d="M110,341.2H825v17.7H110V341.2Z" class="g0_6"/>
<path fill-rule="evenodd" d="M183.6,341.2h9.1v17.7h-9.1V341.2Z" class="g0_6"/>
<path fill-rule="evenodd" d="M110,359H825v17.7H110V359Z" class="g0_6"/>
<path fill-rule="evenodd" d="M220.3,359H248v17.7H220.3V359Z" class="g0_6"/>
<path fill-rule="evenodd" d="M339.9,359h9.2v17.7h-9.2V359Z" class="g0_6"/>
<path fill-rule="evenodd" d="M358.3,359h9.2v17.7h-9.2V359Z" class="g0_6"/>
<path fill-rule="evenodd" d="M367.5,359h9.2v17.7h-9.2V359Z" class="g0_6"/>
<path fill-rule="evenodd" d="M110,376.7H825v17.8H110V376.7Z" class="g0_6"/>
<path fill-rule="evenodd" d="M284.7,376.7h9.2v17.8h-9.2V376.7Z" class="g0_6"/>
<path fill-rule="evenodd" d="M293.9,376.7h82.8v17.8H293.9V376.7Z" class="g0_6"/>
<path fill-rule="evenodd" d="M376.7,376.7h9.2v17.8h-9.2V376.7Z" class="g0_6"/>
<path fill-rule="evenodd" d="M385.9,376.7h55.2v17.8H385.9V376.7Z" class="g0_6"/>
<path fill-rule="evenodd" d="M441.1,376.7h9.2v17.8h-9.2V376.7Z" class="g0_6"/>
<path fill-rule="evenodd" d="M450.3,376.7h27.6v17.8H450.3V376.7Z" class="g0_6"/>
<path fill-rule="evenodd" d="M477.9,376.7h9.2v17.8h-9.2V376.7Z" class="g0_6"/>
<path fill-rule="evenodd" d="M487.1,376.7H533v17.8H487.1V376.7Z" class="g0_6"/>
<path fill-rule="evenodd" d="M533,376.7h9.3v17.8H533V376.7Z" class="g0_6"/>
<path fill-rule="evenodd" d="M542.3,376.7h9.2v17.8h-9.2V376.7Z" class="g0_6"/>
<path fill-rule="evenodd" d="M551.5,376.7h9.2v17.8h-9.2V376.7Z" class="g0_6"/>
<path fill-rule="evenodd" d="M560.7,376.7h9.2v17.8h-9.2V376.7Z" class="g0_6"/>
<path fill-rule="evenodd" d="M569.9,376.7h18.4v17.8H569.9V376.7Z" class="g0_6"/>
<path fill-rule="evenodd" d="M110,394.5H825v17.8H110V394.5Z" class="g0_6"/>
<path fill-rule="evenodd" d="M238.7,394.5H248v17.8h-9.3V394.5Z" class="g0_6"/>
<path fill-rule="evenodd" d="M257.1,394.5h27.6v17.8H257.1V394.5Z" class="g0_6"/>
<path fill-rule="evenodd" d="M284.7,394.5h9.2v17.8h-9.2V394.5Z" class="g0_6"/>
<path fill-rule="evenodd" d="M293.9,394.5h46v17.8h-46V394.5Z" class="g0_6"/>
<path fill-rule="evenodd" d="M339.9,394.5h9.2v17.8h-9.2V394.5Z" class="g0_6"/>
<path fill-rule="evenodd" d="M413.5,394.5h9.2v17.8h-9.2V394.5Z" class="g0_6"/>
<path fill-rule="evenodd" d="M422.7,394.5h73.6v17.8H422.7V394.5Z" class="g0_6"/>
<path fill-rule="evenodd" d="M496.3,394.5H533v17.8H496.3V394.5Z" class="g0_6"/>
<path fill-rule="evenodd" d="M110,412.3H825V430H110V412.3Z" class="g0_6"/>
<path fill-rule="evenodd" d="M220.3,412.3H248V430H220.3V412.3Z" class="g0_6"/>
<path fill-rule="evenodd" d="M248,412.3h18.3V430H248V412.3Z" class="g0_6"/>
<path fill-rule="evenodd" d="M293.9,412.3h9.2V430h-9.2V412.3Z" class="g0_6"/>
<path fill-rule="evenodd" d="M312.4,412.3h27.5V430H312.4V412.3Z" class="g0_6"/>
<path fill-rule="evenodd" d="M349.1,412.3h27.6V430H349.1V412.3Z" class="g0_6"/>
<path fill-rule="evenodd" d="M376.7,412.3h9.2V430h-9.2V412.3Z" class="g0_6"/>
<path fill-rule="evenodd" d="M395.1,412.3h18.4V430H395.1V412.3Z" class="g0_6"/>
<path fill-rule="evenodd" d="M110,430.1H825v17.7H110V430.1Z" class="g0_6"/>
<path fill-rule="evenodd" d="M284.7,430.1h9.2v17.7h-9.2V430.1Z" class="g0_6"/>
<path fill-rule="evenodd" d="M293.9,430.1h82.8v17.7H293.9V430.1Z" class="g0_6"/>
<path fill-rule="evenodd" d="M376.7,430.1h9.2v17.7h-9.2V430.1Z" class="g0_6"/>
<path fill-rule="evenodd" d="M385.9,430.1h55.2v17.7H385.9V430.1Z" class="g0_6"/>
<path fill-rule="evenodd" d="M441.1,430.1h9.2v17.7h-9.2V430.1Z" class="g0_6"/>
<path fill-rule="evenodd" d="M450.3,430.1h27.6v17.7H450.3V430.1Z" class="g0_6"/>
<path fill-rule="evenodd" d="M477.9,430.1h9.2v17.7h-9.2V430.1Z" class="g0_6"/>
<path fill-rule="evenodd" d="M487.1,430.1h64.4v17.7H487.1V430.1Z" class="g0_6"/>
<path fill-rule="evenodd" d="M551.5,430.1h9.2v17.7h-9.2V430.1Z" class="g0_6"/>
<path fill-rule="evenodd" d="M560.7,430.1H579v17.7H560.7V430.1Z" class="g0_6"/>
<path fill-rule="evenodd" d="M579,430.1h18.4v17.7H579V430.1Z" class="g0_6"/>
<path fill-rule="evenodd" d="M110,447.9H825v17.7H110V447.9Z" class="g0_6"/>
<path fill-rule="evenodd" d="M220.3,447.9H248v17.7H220.3V447.9Z" class="g0_6"/>
<path fill-rule="evenodd" d="M257.1,447.9h9.2v17.7h-9.2V447.9Z" class="g0_6"/>
<path fill-rule="evenodd" d="M266.3,447.9h27.6v17.7H266.3V447.9Z" class="g0_6"/>
<path fill-rule="evenodd" d="M321.5,447.9h9.2v17.7h-9.2V447.9Z" class="g0_6"/>
<path fill-rule="evenodd" d="M339.9,447.9h9.2v17.7h-9.2V447.9Z" class="g0_6"/>
<path fill-rule="evenodd" d="M349.1,447.9h9.2v17.7h-9.2V447.9Z" class="g0_6"/>
<path fill-rule="evenodd" d="M385.9,447.9h9.2v17.7h-9.2V447.9Z" class="g0_6"/>
<path fill-rule="evenodd" d="M413.5,447.9h9.2v17.7h-9.2V447.9Z" class="g0_6"/>
<path fill-rule="evenodd" d="M441.1,447.9h27.5v17.7H441.1V447.9Z" class="g0_6"/>
<path fill-rule="evenodd" d="M110,465.7H825v17.7H110V465.7Z" class="g0_6"/>
<path fill-rule="evenodd" d="M220.3,465.7h9.2v17.7h-9.2V465.7Z" class="g0_6"/>
<path fill-rule="evenodd" d="M110,483.5H825v17.7H110V483.5Z" class="g0_6"/>
<path fill-rule="evenodd" d="M266.3,483.5h9.2v17.7h-9.2V483.5Z" class="g0_6"/>
<path fill-rule="evenodd" d="M284.7,483.5h9.2v17.7h-9.2V483.5Z" class="g0_6"/>
<path fill-rule="evenodd" d="M303.1,483.5h9.3v17.7h-9.3V483.5Z" class="g0_6"/>
<path fill-rule="evenodd" d="M385.9,483.5h9.2v17.7h-9.2V483.5Z" class="g0_6"/>
<path fill-rule="evenodd" d="M395.1,483.5h64.4v17.7H395.1V483.5Z" class="g0_6"/>
<path fill-rule="evenodd" d="M459.5,483.5h9.1v17.7h-9.1V483.5Z" class="g0_6"/>
<path fill-rule="evenodd" d="M533,483.5h9.3v17.7H533V483.5Z" class="g0_6"/>
<path fill-rule="evenodd" d="M542.3,483.5h73.5v17.7H542.3V483.5Z" class="g0_6"/>
<path fill-rule="evenodd" d="M615.8,483.5h36.9v17.7H615.8V483.5Z" class="g0_6"/>
<path fill-rule="evenodd" d="M110,501.2H825v17.7H110V501.2Z" class="g0_6"/>
<path fill-rule="evenodd" d="M220.3,501.2h9.2v17.7h-9.2V501.2Z" class="g0_6"/>
<path fill-rule="evenodd" d="M110,519H825v17.7H110V519Z" class="g0_6"/>
<path fill-rule="evenodd" d="M220.3,519h64.4v17.7H220.3V519Z" class="g0_6"/>
<path fill-rule="evenodd" d="M293.9,519h9.2v17.7h-9.2V519Z" class="g0_6"/>
<path fill-rule="evenodd" d="M303.1,519h27.6v17.7H303.1V519Z" class="g0_6"/>
<path fill-rule="evenodd" d="M358.3,519h18.4v17.7H358.3V519Z" class="g0_6"/>
<path fill-rule="evenodd" d="M395.1,519h9.2v17.7h-9.2V519Z" class="g0_6"/>
<path fill-rule="evenodd" d="M110,536.8H825v17.7H110V536.8Z" class="g0_6"/>
<path fill-rule="evenodd" d="M220.3,536.8h9.2v17.7h-9.2V536.8Z" class="g0_6"/>
<path fill-rule="evenodd" d="M110,554.6H825v17.7H110V554.6Z" class="g0_6"/>
<path fill-rule="evenodd" d="M257.1,554.6h18.4v17.7H257.1V554.6Z" class="g0_6"/>
<path fill-rule="evenodd" d="M284.7,554.6h9.2v17.7h-9.2V554.6Z" class="g0_6"/>
<path fill-rule="evenodd" d="M312.4,554.6h18.3v17.7H312.4V554.6Z" class="g0_6"/>
<path fill-rule="evenodd" d="M339.9,554.6h9.2v17.7h-9.2V554.6Z" class="g0_6"/>
<path fill-rule="evenodd" d="M349.1,554.6h9.2v17.7h-9.2V554.6Z" class="g0_6"/>
<path fill-rule="evenodd" d="M110,572.4H825v17.7H110V572.4Z" class="g0_6"/>
<path fill-rule="evenodd" d="M257.1,572.4h9.2v17.7h-9.2V572.4Z" class="g0_6"/>
<path fill-rule="evenodd" d="M110,590.1H825v17.7H110V590.1Z" class="g0_6"/>
<path fill-rule="evenodd" d="M339.9,590.1h27.6v17.7H339.9V590.1Z" class="g0_6"/>
<path fill-rule="evenodd" d="M110,607.9H825v17.7H110V607.9Z" class="g0_6"/>
<path fill-rule="evenodd" d="M257.1,607.9h9.2v17.7h-9.2V607.9Z" class="g0_6"/>
<path fill-rule="evenodd" d="M110,625.7H825v17.7H110V625.7Z" class="g0_6"/>
<path fill-rule="evenodd" d="M220.3,625.7h9.2v17.7h-9.2V625.7Z" class="g0_6"/>
<path fill-rule="evenodd" d="M110,643.5H825v17.7H110V643.5Z" class="g0_6"/>
<path fill-rule="evenodd" d="M284.7,643.5h9.2v17.7h-9.2V643.5Z" class="g0_6"/>
<path fill-rule="evenodd" d="M293.9,643.5h82.8v17.7H293.9V643.5Z" class="g0_6"/>
<path fill-rule="evenodd" d="M376.7,643.5h9.2v17.7h-9.2V643.5Z" class="g0_6"/>
<path fill-rule="evenodd" d="M385.9,643.5h64.4v17.7H385.9V643.5Z" class="g0_6"/>
<path fill-rule="evenodd" d="M450.3,643.5h9.2v17.7h-9.2V643.5Z" class="g0_6"/>
<path fill-rule="evenodd" d="M459.5,643.5h18.4v17.7H459.5V643.5Z" class="g0_6"/>
<path fill-rule="evenodd" d="M477.9,643.5h9.2v17.7h-9.2V643.5Z" class="g0_6"/>
<path fill-rule="evenodd" d="M487.1,643.5h27.6v17.7H487.1V643.5Z" class="g0_6"/>
<path fill-rule="evenodd" d="M514.7,643.5h9.2v17.7h-9.2V643.5Z" class="g0_6"/>
<path fill-rule="evenodd" d="M523.9,643.5h18.4v17.7H523.9V643.5Z" class="g0_6"/>
<path fill-rule="evenodd" d="M542.3,643.5h9.2v17.7h-9.2V643.5Z" class="g0_6"/>
<path fill-rule="evenodd" d="M551.5,643.5H579v17.7H551.5V643.5Z" class="g0_6"/>
<path fill-rule="evenodd" d="M579,643.5h9.3v17.7H579V643.5Z" class="g0_6"/>
<path fill-rule="evenodd" d="M588.3,643.5h64.4v17.7H588.3V643.5Z" class="g0_6"/>
<path fill-rule="evenodd" d="M652.7,643.5h9.1v17.7h-9.1V643.5Z" class="g0_6"/>
<path fill-rule="evenodd" d="M661.8,643.5h55.3v17.7H661.8V643.5Z" class="g0_6"/>
<path fill-rule="evenodd" d="M717.1,643.5h9.1v17.7h-9.1V643.5Z" class="g0_6"/>
<path fill-rule="evenodd" d="M726.2,643.5h9.2v17.7h-9.2V643.5Z" class="g0_6"/>
<path fill-rule="evenodd" d="M735.4,643.5h9.2v17.7h-9.2V643.5Z" class="g0_6"/>
<path fill-rule="evenodd" d="M744.6,643.5h9.2v17.7h-9.2V643.5Z" class="g0_6"/>
<path fill-rule="evenodd" d="M753.8,643.5h18.4v17.7H753.8V643.5Z" class="g0_6"/>
<path fill-rule="evenodd" d="M110,661.3H825V679H110V661.3Z" class="g0_6"/>
<path fill-rule="evenodd" d="M284.7,661.3h9.2V679h-9.2V661.3Z" class="g0_6"/>
<path fill-rule="evenodd" d="M293.9,661.3h82.8V679H293.9V661.3Z" class="g0_6"/>
<path fill-rule="evenodd" d="M376.7,661.3h9.2V679h-9.2V661.3Z" class="g0_6"/>
<path fill-rule="evenodd" d="M431.9,661.3h18.4V679H431.9V661.3Z" class="g0_6"/>
<path fill-rule="evenodd" d="M110,679.1H825v17.7H110V679.1Z" class="g0_6"/>
<path fill-rule="evenodd" d="M284.7,679.1h9.2v17.7h-9.2V679.1Z" class="g0_6"/>
<path fill-rule="evenodd" d="M293.9,679.1h73.6v17.7H293.9V679.1Z" class="g0_6"/>
<path fill-rule="evenodd" d="M367.5,679.1h27.6v17.7H367.5V679.1Z" class="g0_6"/>
<path fill-rule="evenodd" d="M110,696.8H825v17.7H110V696.8Z" class="g0_6"/>
<path fill-rule="evenodd" d="M183.6,696.8h9.1v17.7h-9.1V696.8Z" class="g0_6"/>
<path fill-rule="evenodd" d="M110,714.6H825v17.7H110V714.6Z" class="g0_6"/>
<path fill-rule="evenodd" d="M146.7,714.6H156v17.7h-9.3V714.6Z" class="g0_6"/>
<path fill-rule="evenodd" d="M110,732.4H825v29.2H110V732.4Z" class="g0_6"/>
<path fill-rule="evenodd" d="M110,732.4h9.2v17.7H110V732.4Z" class="g0_6"/>
<path fill-rule="evenodd" d="M110,761.7H825v29.5H110V761.7Z" class="g1_6"/>
<path fill-rule="evenodd" d="M110,791.2H825v14.2H110V791.2Z" class="g1_6"/>
<path fill-rule="evenodd" d="M110,805.4H825v14.2H110V805.4Z" class="g1_6"/>
<path fill-rule="evenodd" d="M110,819.7H825v14.2H110V819.7Z" class="g1_6"/>
<path fill-rule="evenodd" d="M110,833.9H825v29.4H110V833.9Z" class="g1_6"/>
<path fill-rule="evenodd" d="M110,863.3H825v31.3H110V863.3Z" class="g1_6"/>
<path fill-rule="evenodd" d="M110,894.7H825v15.9H110V894.7Z" class="g0_6"/>
<path fill-rule="evenodd" d="M110,910.6H825v16H110v-16Z" class="g0_6"/>
<path fill-rule="evenodd" d="M110,926.7H825v15.9H110V926.7Z" class="g0_6"/>
<path fill-rule="evenodd" d="M110,942.6H825v16H110v-16Z" class="g0_6"/>
<path fill-rule="evenodd" d="M110,958.7H825v15.9H110V958.7Z" class="g0_6"/>
<path fill-rule="evenodd" d="M110,974.6H825v16H110v-16Z" class="g0_6"/>
<path fill-rule="evenodd" d="M110,990.7H825v16H110v-16Z" class="g0_6"/>
<path fill-rule="evenodd" d="M110,1006.7H825v15.9H110v-15.9Z" class="g0_6"/>
<path fill-rule="evenodd" d="M110,1022.7H825v27.4H110v-27.4Z" class="g0_6"/>
</svg>