<?xml version="1.0" encoding="UTF-8" standalone="no"?>
<!DOCTYPE svg PUBLIC "-//W3C//DTD SVG 1.1//EN"
"http://www.w3.org/Graphics/SVG/1.1/DTD/svg11.dtd">
<svg viewBox="0 0 935 1210" version="1.1" xmlns="http://www.w3.org/2000/svg" xmlns:xlink="http://www.w3.org/1999/xlink">
<defs>
<style type="text/css"><![CDATA[
.g0_21{
fill: #F4F4F4;
}
.g1_21{
fill: #FDFDFD;
}
]]></style>
</defs>
<path fill-rule="evenodd" d="M110,110H825v17.7H110V110Z" class="g0_21"/>
<path fill-rule="evenodd" d="M110,110h18.3v17.7H110V110Z" class="g0_21"/>
<path fill-rule="evenodd" d="M110,127.7H825v17.7H110V127.7Z" class="g0_21"/>
<path fill-rule="evenodd" d="M110,127.7h9.2v17.7H110V127.7Z" class="g0_21"/>
<path fill-rule="evenodd" d="M119.2,127.7h9.1v17.7h-9.1V127.7Z" class="g0_21"/>
<path fill-rule="evenodd" d="M128.3,127.7h9.3v17.7h-9.3V127.7Z" class="g0_21"/>
<path fill-rule="evenodd" d="M137.6,127.7H156v17.7H137.6V127.7Z" class="g0_21"/>
<path fill-rule="evenodd" d="M156,127.7h9.2v17.7H156V127.7Z" class="g0_21"/>
<path fill-rule="evenodd" d="M165.2,127.7h64.3v17.7H165.2V127.7Z" class="g0_21"/>
<path fill-rule="evenodd" d="M229.5,127.7h9.2v17.7h-9.2V127.7Z" class="g0_21"/>
<path fill-rule="evenodd" d="M238.7,127.7h18.4v17.7H238.7V127.7Z" class="g0_21"/>
<path fill-rule="evenodd" d="M257.1,127.7h9.2v17.7h-9.2V127.7Z" class="g0_21"/>
<path fill-rule="evenodd" d="M266.3,127.7h64.4v17.7H266.3V127.7Z" class="g0_21"/>
<path fill-rule="evenodd" d="M330.7,127.7h9.2v17.7h-9.2V127.7Z" class="g0_21"/>
<path fill-rule="evenodd" d="M339.9,127.7h92v17.7h-92V127.7Z" class="g0_21"/>
<path fill-rule="evenodd" d="M431.9,127.7h9.2v17.7h-9.2V127.7Z" class="g0_21"/>
<path fill-rule="evenodd" d="M441.1,127.7h18.4v17.7H441.1V127.7Z" class="g0_21"/>
<path fill-rule="evenodd" d="M459.5,127.7h9.1v17.7h-9.1V127.7Z" class="g0_21"/>
<path fill-rule="evenodd" d="M468.6,127.7h9.3v17.7h-9.3V127.7Z" class="g0_21"/>
<path fill-rule="evenodd" d="M477.9,127.7h9.2v17.7h-9.2V127.7Z" class="g0_21"/>
<path fill-rule="evenodd" d="M487.1,127.7H533v17.7H487.1V127.7Z" class="g0_21"/>
<path fill-rule="evenodd" d="M110,145.5H825v17.7H110V145.5Z" class="g0_21"/>
<path fill-rule="evenodd" d="M110,145.5h9.2v17.7H110V145.5Z" class="g0_21"/>
<path fill-rule="evenodd" d="M119.2,145.5h18.4v17.7H119.2V145.5Z" class="g0_21"/>
<path fill-rule="evenodd" d="M110,163.3H825V181H110V163.3Z" class="g0_21"/>
<path fill-rule="evenodd" d="M110,163.3h46V181H110V163.3Z" class="g0_21"/>
<path fill-rule="evenodd" d="M165.2,163.3h55.1V181H165.2V163.3Z" class="g0_21"/>
<path fill-rule="evenodd" d="M220.3,163.3h9.2V181h-9.2V163.3Z" class="g0_21"/>
<path fill-rule="evenodd" d="M110,181.1H825v17.7H110V181.1Z" class="g0_21"/>
<path fill-rule="evenodd" d="M110,181.1h46v17.7H110V181.1Z" class="g0_21"/>
<path fill-rule="evenodd" d="M110,198.9H825v17.7H110V198.9Z" class="g0_21"/>
<path fill-rule="evenodd" d="M110,198.9h9.2v17.7H110V198.9Z" class="g0_21"/>
<path fill-rule="evenodd" d="M110,216.6H825v17.8H110V216.6Z" class="g0_21"/>
<path fill-rule="evenodd" d="M146.7,216.6H202v17.8H146.7V216.6Z" class="g0_21"/>
<path fill-rule="evenodd" d="M211.1,216.6h55.2v17.8H211.1V216.6Z" class="g0_21"/>
<path fill-rule="evenodd" d="M275.5,216.6h36.9v17.8H275.5V216.6Z" class="g0_21"/>
<path fill-rule="evenodd" d="M358.3,216.6h18.4v17.8H358.3V216.6Z" class="g0_21"/>
<path fill-rule="evenodd" d="M110,234.4H825v17.8H110V234.4Z" class="g0_21"/>
<path fill-rule="evenodd" d="M146.7,234.4H156v17.8h-9.3V234.4Z" class="g0_21"/>
<path fill-rule="evenodd" d="M110,252.2H825V270H110V252.2Z" class="g0_21"/>
<path fill-rule="evenodd" d="M183.6,252.2h27.5V270H183.6V252.2Z" class="g0_21"/>
<path fill-rule="evenodd" d="M395.1,252.2h9.2V270h-9.2V252.2Z" class="g0_21"/>
<path fill-rule="evenodd" d="M110,270H825v17.8H110V270Z" class="g0_21"/>
<path fill-rule="evenodd" d="M248,270h9.1v17.8H248V270Z" class="g0_21"/>
<path fill-rule="evenodd" d="M257.1,270h46v17.8h-46V270Z" class="g0_21"/>
<path fill-rule="evenodd" d="M312.4,270h9.1v17.8h-9.1V270Z" class="g0_21"/>
<path fill-rule="evenodd" d="M321.5,270h55.2v17.8H321.5V270Z" class="g0_21"/>
<path fill-rule="evenodd" d="M376.7,270h9.2v17.8h-9.2V270Z" class="g0_21"/>
<path fill-rule="evenodd" d="M385.9,270h55.2v17.8H385.9V270Z" class="g0_21"/>
<path fill-rule="evenodd" d="M441.1,270h9.2v17.8h-9.2V270Z" class="g0_21"/>
<path fill-rule="evenodd" d="M450.3,270h18.3v17.8H450.3V270Z" class="g0_21"/>
<path fill-rule="evenodd" d="M468.6,270h9.3v17.8h-9.3V270Z" class="g0_21"/>
<path fill-rule="evenodd" d="M477.9,270h36.8v17.8H477.9V270Z" class="g0_21"/>
<path fill-rule="evenodd" d="M514.7,270h9.2v17.8h-9.2V270Z" class="g0_21"/>
<path fill-rule="evenodd" d="M523.9,270h18.4v17.8H523.9V270Z" class="g0_21"/>
<path fill-rule="evenodd" d="M542.3,270h9.2v17.8h-9.2V270Z" class="g0_21"/>
<path fill-rule="evenodd" d="M551.5,270h45.9v17.8H551.5V270Z" class="g0_21"/>
<path fill-rule="evenodd" d="M597.4,270h9.3v17.8h-9.3V270Z" class="g0_21"/>
<path fill-rule="evenodd" d="M606.7,270h9.1v17.8h-9.1V270Z" class="g0_21"/>
<path fill-rule="evenodd" d="M615.8,270h18.5v17.8H615.8V270Z" class="g0_21"/>
<path fill-rule="evenodd" d="M110,287.8H825v17.8H110V287.8Z" class="g0_21"/>
<path fill-rule="evenodd" d="M248,287.8h9.1v17.8H248V287.8Z" class="g0_21"/>
<path fill-rule="evenodd" d="M330.7,287.8h9.2v17.8h-9.2V287.8Z" class="g0_21"/>
<path fill-rule="evenodd" d="M339.9,287.8h64.4v17.8H339.9V287.8Z" class="g0_21"/>
<path fill-rule="evenodd" d="M413.5,287.8h9.2v17.8h-9.2V287.8Z" class="g0_21"/>
<path fill-rule="evenodd" d="M487.1,287.8h9.2v17.8h-9.2V287.8Z" class="g0_21"/>
<path fill-rule="evenodd" d="M496.3,287.8h73.6v17.8H496.3V287.8Z" class="g0_21"/>
<path fill-rule="evenodd" d="M569.9,287.8h36.8v17.8H569.9V287.8Z" class="g0_21"/>
<path fill-rule="evenodd" d="M110,305.6H825v17.7H110V305.6Z" class="g0_21"/>
<path fill-rule="evenodd" d="M248,305.6h9.1v17.7H248V305.6Z" class="g0_21"/>
<path fill-rule="evenodd" d="M257.1,305.6h46v17.7h-46V305.6Z" class="g0_21"/>
<path fill-rule="evenodd" d="M312.4,305.6h9.1v17.7h-9.1V305.6Z" class="g0_21"/>
<path fill-rule="evenodd" d="M330.7,305.6h55.2v17.7H330.7V305.6Z" class="g0_21"/>
<path fill-rule="evenodd" d="M385.9,305.6h9.2v17.7h-9.2V305.6Z" class="g0_21"/>
<path fill-rule="evenodd" d="M395.1,305.6h46v17.7h-46V305.6Z" class="g0_21"/>
<path fill-rule="evenodd" d="M441.1,305.6h9.2v17.7h-9.2V305.6Z" class="g0_21"/>
<path fill-rule="evenodd" d="M450.3,305.6h18.3v17.7H450.3V305.6Z" class="g0_21"/>
<path fill-rule="evenodd" d="M468.6,305.6h9.3v17.7h-9.3V305.6Z" class="g0_21"/>
<path fill-rule="evenodd" d="M477.9,305.6h36.8v17.7H477.9V305.6Z" class="g0_21"/>
<path fill-rule="evenodd" d="M514.7,305.6h9.2v17.7h-9.2V305.6Z" class="g0_21"/>
<path fill-rule="evenodd" d="M523.9,305.6h18.4v17.7H523.9V305.6Z" class="g0_21"/>
<path fill-rule="evenodd" d="M542.3,305.6h9.2v17.7h-9.2V305.6Z" class="g0_21"/>
<path fill-rule="evenodd" d="M551.5,305.6h55.2v17.7H551.5V305.6Z" class="g0_21"/>
<path fill-rule="evenodd" d="M606.7,305.6H625v17.7H606.7V305.6Z" class="g0_21"/>
<path fill-rule="evenodd" d="M110,323.4H825v17.7H110V323.4Z" class="g0_21"/>
<path fill-rule="evenodd" d="M238.7,323.4H248v17.7h-9.3V323.4Z" class="g0_21"/>
<path fill-rule="evenodd" d="M321.5,323.4h9.2v17.7h-9.2V323.4Z" class="g0_21"/>
<path fill-rule="evenodd" d="M330.7,323.4h64.4v17.7H330.7V323.4Z" class="g0_21"/>
<path fill-rule="evenodd" d="M395.1,323.4h9.2v17.7h-9.2V323.4Z" class="g0_21"/>
<path fill-rule="evenodd" d="M468.6,323.4h9.3v17.7h-9.3V323.4Z" class="g0_21"/>
<path fill-rule="evenodd" d="M477.9,323.4h73.6v17.7H477.9V323.4Z" class="g0_21"/>
<path fill-rule="evenodd" d="M551.5,323.4h36.8v17.7H551.5V323.4Z" class="g0_21"/>
<path fill-rule="evenodd" d="M110,341.2H825v17.7H110V341.2Z" class="g0_21"/>
<path fill-rule="evenodd" d="M229.5,341.2h9.2v17.7h-9.2V341.2Z" class="g0_21"/>
<path fill-rule="evenodd" d="M312.4,341.2h9.1v17.7h-9.1V341.2Z" class="g0_21"/>
<path fill-rule="evenodd" d="M376.7,341.2h9.2v17.7h-9.2V341.2Z" class="g0_21"/>
<path fill-rule="evenodd" d="M110,359H825v17.7H110V359Z" class="g0_21"/>
<path fill-rule="evenodd" d="M248,359h9.1v17.7H248V359Z" class="g0_21"/>
<path fill-rule="evenodd" d="M257.1,359h82.8v17.7H257.1V359Z" class="g0_21"/>
<path fill-rule="evenodd" d="M349.1,359h9.2v17.7h-9.2V359Z" class="g0_21"/>
<path fill-rule="evenodd" d="M358.3,359h55.2v17.7H358.3V359Z" class="g0_21"/>
<path fill-rule="evenodd" d="M413.5,359h9.2v17.7h-9.2V359Z" class="g0_21"/>
<path fill-rule="evenodd" d="M422.7,359h18.4v17.7H422.7V359Z" class="g0_21"/>
<path fill-rule="evenodd" d="M441.1,359h9.2v17.7h-9.2V359Z" class="g0_21"/>
<path fill-rule="evenodd" d="M450.3,359h9.2v17.7h-9.2V359Z" class="g0_21"/>
<path fill-rule="evenodd" d="M468.6,359h9.3v17.7h-9.3V359Z" class="g0_21"/>
<path fill-rule="evenodd" d="M533,359h9.3v17.7H533V359Z" class="g0_21"/>
<path fill-rule="evenodd" d="M560.7,359h9.2v17.7h-9.2V359Z" class="g0_21"/>
<path fill-rule="evenodd" d="M569.9,359H579v17.7h-9.1V359Z" class="g0_21"/>
<path fill-rule="evenodd" d="M579,359h55.3v17.7H579V359Z" class="g0_21"/>
<path fill-rule="evenodd" d="M634.3,359h9.1v17.7h-9.1V359Z" class="g0_21"/>
<path fill-rule="evenodd" d="M643.4,359h55.3v17.7H643.4V359Z" class="g0_21"/>
<path fill-rule="evenodd" d="M698.7,359h18.4v17.7H698.7V359Z" class="g0_21"/>
<path fill-rule="evenodd" d="M110,376.7H825v17.8H110V376.7Z" class="g0_21"/>
<path fill-rule="evenodd" d="M248,376.7h9.1v17.8H248V376.7Z" class="g0_21"/>
<path fill-rule="evenodd" d="M257.1,376.7h73.6v17.8H257.1V376.7Z" class="g0_21"/>
<path fill-rule="evenodd" d="M330.7,376.7h27.6v17.8H330.7V376.7Z" class="g0_21"/>
<path fill-rule="evenodd" d="M110,394.5H825v17.8H110V394.5Z" class="g0_21"/>
<path fill-rule="evenodd" d="M146.7,394.5H156v17.8h-9.3V394.5Z" class="g0_21"/>
<path fill-rule="evenodd" d="M110,412.3H825v29.2H110V412.3Z" class="g0_21"/>
<path fill-rule="evenodd" d="M110,412.3h9.2V430H110V412.3Z" class="g0_21"/>
<path fill-rule="evenodd" d="M110,441.5H825v43.7H110V441.5Z" class="g1_21"/>
<path fill-rule="evenodd" d="M110,485.3H825v27.5H110V485.3Z" class="g1_21"/>
<path fill-rule="evenodd" d="M110,512.8H825v27.5H110V512.8Z" class="g1_21"/>
<path fill-rule="evenodd" d="M110,540.3H825v39H110v-39Z" class="g1_21"/>
<path fill-rule="evenodd" d="M110,579.3H825V623H110V579.3Z" class="g1_21"/>
<path fill-rule="evenodd" d="M110,623H825v17.7H110V623Z" class="g0_21"/>
<path fill-rule="evenodd" d="M110,640.7H825v17.8H110V640.7Z" class="g0_21"/>
<path fill-rule="evenodd" d="M110,658.5H825v17.8H110V658.5Z" class="g0_21"/>
<path fill-rule="evenodd" d="M110,676.3H825v29.2H110V676.3Z" class="g0_21"/>
</svg>