<?xml version="1.0" encoding="UTF-8" standalone="no"?>
<!DOCTYPE svg PUBLIC "-//W3C//DTD SVG 1.1//EN"
"http://www.w3.org/Graphics/SVG/1.1/DTD/svg11.dtd">
<svg viewBox="0 0 935 1210" version="1.1" xmlns="http://www.w3.org/2000/svg" xmlns:xlink="http://www.w3.org/1999/xlink">
<defs>
<style type="text/css"><![CDATA[
.g0_11{
fill: #F4F4F4;
}
.g1_11{
fill: #FDFDFD;
}
]]></style>
</defs>
<path fill-rule="evenodd" d="M110,110H825v17.7H110V110Z" class="g0_11"/>
<path fill-rule="evenodd" d="M110,110h18.3v17.7H110V110Z" class="g0_11"/>
<path fill-rule="evenodd" d="M110,127.7H825v17.7H110V127.7Z" class="g0_11"/>
<path fill-rule="evenodd" d="M110,127.7h9.2v17.7H110V127.7Z" class="g0_11"/>
<path fill-rule="evenodd" d="M119.2,127.7h9.1v17.7h-9.1V127.7Z" class="g0_11"/>
<path fill-rule="evenodd" d="M128.3,127.7h9.3v17.7h-9.3V127.7Z" class="g0_11"/>
<path fill-rule="evenodd" d="M137.6,127.7H156v17.7H137.6V127.7Z" class="g0_11"/>
<path fill-rule="evenodd" d="M156,127.7h9.2v17.7H156V127.7Z" class="g0_11"/>
<path fill-rule="evenodd" d="M165.2,127.7h64.3v17.7H165.2V127.7Z" class="g0_11"/>
<path fill-rule="evenodd" d="M229.5,127.7h9.2v17.7h-9.2V127.7Z" class="g0_11"/>
<path fill-rule="evenodd" d="M238.7,127.7h18.4v17.7H238.7V127.7Z" class="g0_11"/>
<path fill-rule="evenodd" d="M257.1,127.7h9.2v17.7h-9.2V127.7Z" class="g0_11"/>
<path fill-rule="evenodd" d="M266.3,127.7h73.6v17.7H266.3V127.7Z" class="g0_11"/>
<path fill-rule="evenodd" d="M339.9,127.7h9.2v17.7h-9.2V127.7Z" class="g0_11"/>
<path fill-rule="evenodd" d="M349.1,127.7h55.2v17.7H349.1V127.7Z" class="g0_11"/>
<path fill-rule="evenodd" d="M404.3,127.7h9.2v17.7h-9.2V127.7Z" class="g0_11"/>
<path fill-rule="evenodd" d="M413.5,127.7h64.4v17.7H413.5V127.7Z" class="g0_11"/>
<path fill-rule="evenodd" d="M110,145.5H825v17.7H110V145.5Z" class="g0_11"/>
<path fill-rule="evenodd" d="M110,145.5h9.2v17.7H110V145.5Z" class="g0_11"/>
<path fill-rule="evenodd" d="M119.2,145.5h18.4v17.7H119.2V145.5Z" class="g0_11"/>
<path fill-rule="evenodd" d="M110,163.3H825V181H110V163.3Z" class="g0_11"/>
<path fill-rule="evenodd" d="M110,163.3h46V181H110V163.3Z" class="g0_11"/>
<path fill-rule="evenodd" d="M165.2,163.3h55.1V181H165.2V163.3Z" class="g0_11"/>
<path fill-rule="evenodd" d="M220.3,163.3h9.2V181h-9.2V163.3Z" class="g0_11"/>
<path fill-rule="evenodd" d="M110,181.1H825v17.7H110V181.1Z" class="g0_11"/>
<path fill-rule="evenodd" d="M110,181.1h46v17.7H110V181.1Z" class="g0_11"/>
<path fill-rule="evenodd" d="M110,198.9H825v17.7H110V198.9Z" class="g0_11"/>
<path fill-rule="evenodd" d="M110,198.9h9.2v17.7H110V198.9Z" class="g0_11"/>
<path fill-rule="evenodd" d="M110,216.6H825v17.8H110V216.6Z" class="g0_11"/>
<path fill-rule="evenodd" d="M146.7,216.6H202v17.8H146.7V216.6Z" class="g0_11"/>
<path fill-rule="evenodd" d="M211.1,216.6H248v17.8H211.1V216.6Z" class="g0_11"/>
<path fill-rule="evenodd" d="M293.9,216.6h18.5v17.8H293.9V216.6Z" class="g0_11"/>
<path fill-rule="evenodd" d="M110,234.4H825v17.8H110V234.4Z" class="g0_11"/>
<path fill-rule="evenodd" d="M146.7,234.4H156v17.8h-9.3V234.4Z" class="g0_11"/>
<path fill-rule="evenodd" d="M110,252.2H825V270H110V252.2Z" class="g0_11"/>
<path fill-rule="evenodd" d="M248,252.2h9.1V270H248V252.2Z" class="g0_11"/>
<path fill-rule="evenodd" d="M257.1,252.2h82.8V270H257.1V252.2Z" class="g0_11"/>
<path fill-rule="evenodd" d="M339.9,252.2h9.2V270h-9.2V252.2Z" class="g0_11"/>
<path fill-rule="evenodd" d="M349.1,252.2h46V270h-46V252.2Z" class="g0_11"/>
<path fill-rule="evenodd" d="M395.1,252.2h9.2V270h-9.2V252.2Z" class="g0_11"/>
<path fill-rule="evenodd" d="M404.3,252.2h55.2V270H404.3V252.2Z" class="g0_11"/>
<path fill-rule="evenodd" d="M459.5,252.2h9.1V270h-9.1V252.2Z" class="g0_11"/>
<path fill-rule="evenodd" d="M468.6,252.2H533V270H468.6V252.2Z" class="g0_11"/>
<path fill-rule="evenodd" d="M533,252.2h9.3V270H533V252.2Z" class="g0_11"/>
<path fill-rule="evenodd" d="M542.3,252.2H579V270H542.3V252.2Z" class="g0_11"/>
<path fill-rule="evenodd" d="M579,252.2h9.3V270H579V252.2Z" class="g0_11"/>
<path fill-rule="evenodd" d="M588.3,252.2h27.5V270H588.3V252.2Z" class="g0_11"/>
<path fill-rule="evenodd" d="M615.8,252.2H625V270h-9.2V252.2Z" class="g0_11"/>
<path fill-rule="evenodd" d="M625,252.2h82.8V270H625V252.2Z" class="g0_11"/>
<path fill-rule="evenodd" d="M707.8,252.2h9.3V270h-9.3V252.2Z" class="g0_11"/>
<path fill-rule="evenodd" d="M717.1,252.2h27.5V270H717.1V252.2Z" class="g0_11"/>
<path fill-rule="evenodd" d="M744.6,252.2h9.2V270h-9.2V252.2Z" class="g0_11"/>
<path fill-rule="evenodd" d="M753.8,252.2H763V270h-9.2V252.2Z" class="g0_11"/>
<path fill-rule="evenodd" d="M763,252.2h9.2V270H763V252.2Z" class="g0_11"/>
<path fill-rule="evenodd" d="M772.2,252.2h9.2V270h-9.2V252.2Z" class="g0_11"/>
<path fill-rule="evenodd" d="M781.4,252.2h18.4V270H781.4V252.2Z" class="g0_11"/>
<path fill-rule="evenodd" d="M110,270H825v17.8H110V270Z" class="g0_11"/>
<path fill-rule="evenodd" d="M183.6,270h27.5v17.8H183.6V270Z" class="g0_11"/>
<path fill-rule="evenodd" d="M220.3,270h9.2v17.8h-9.2V270Z" class="g0_11"/>
<path fill-rule="evenodd" d="M229.5,270h27.6v17.8H229.5V270Z" class="g0_11"/>
<path fill-rule="evenodd" d="M284.7,270h9.2v17.8h-9.2V270Z" class="g0_11"/>
<path fill-rule="evenodd" d="M303.1,270h9.3v17.8h-9.3V270Z" class="g0_11"/>
<path fill-rule="evenodd" d="M312.4,270h9.1v17.8h-9.1V270Z" class="g0_11"/>
<path fill-rule="evenodd" d="M349.1,270h9.2v17.8h-9.2V270Z" class="g0_11"/>
<path fill-rule="evenodd" d="M367.5,270h18.4v17.8H367.5V270Z" class="g0_11"/>
<path fill-rule="evenodd" d="M385.9,270h9.2v17.8h-9.2V270Z" class="g0_11"/>
<path fill-rule="evenodd" d="M413.5,270h27.6v17.8H413.5V270Z" class="g0_11"/>
<path fill-rule="evenodd" d="M110,287.8H825v17.8H110V287.8Z" class="g0_11"/>
<path fill-rule="evenodd" d="M183.6,287.8h9.1v17.8h-9.1V287.8Z" class="g0_11"/>
<path fill-rule="evenodd" d="M110,305.6H825v17.7H110V305.6Z" class="g0_11"/>
<path fill-rule="evenodd" d="M293.9,305.6h27.6v17.7H293.9V305.6Z" class="g0_11"/>
<path fill-rule="evenodd" d="M110,323.4H825v17.7H110V323.4Z" class="g0_11"/>
<path fill-rule="evenodd" d="M183.6,323.4h9.1v17.7h-9.1V323.4Z" class="g0_11"/>
<path fill-rule="evenodd" d="M110,341.2H825v17.7H110V341.2Z" class="g0_11"/>
<path fill-rule="evenodd" d="M146.7,341.2H156v17.7h-9.3V341.2Z" class="g0_11"/>
<path fill-rule="evenodd" d="M110,359H825v17.7H110V359Z" class="g0_11"/>
<path fill-rule="evenodd" d="M146.7,359H202v17.7H146.7V359Z" class="g0_11"/>
<path fill-rule="evenodd" d="M293.9,359h9.2v17.7h-9.2V359Z" class="g0_11"/>
<path fill-rule="evenodd" d="M312.4,359h27.5v17.7H312.4V359Z" class="g0_11"/>
<path fill-rule="evenodd" d="M404.3,359h27.6v17.7H404.3V359Z" class="g0_11"/>
<path fill-rule="evenodd" d="M110,376.7H825v17.8H110V376.7Z" class="g0_11"/>
<path fill-rule="evenodd" d="M146.7,376.7H202v17.8H146.7V376.7Z" class="g0_11"/>
<path fill-rule="evenodd" d="M211.1,376.7H248v17.8H211.1V376.7Z" class="g0_11"/>
<path fill-rule="evenodd" d="M330.7,376.7h18.4v17.8H330.7V376.7Z" class="g0_11"/>
<path fill-rule="evenodd" d="M110,394.5H825v17.8H110V394.5Z" class="g0_11"/>
<path fill-rule="evenodd" d="M146.7,394.5H156v17.8h-9.3V394.5Z" class="g0_11"/>
<path fill-rule="evenodd" d="M110,412.3H825V430H110V412.3Z" class="g0_11"/>
<path fill-rule="evenodd" d="M183.6,412.3h27.5V430H183.6V412.3Z" class="g0_11"/>
<path fill-rule="evenodd" d="M238.7,412.3H248V430h-9.3V412.3Z" class="g0_11"/>
<path fill-rule="evenodd" d="M266.3,412.3h9.2V430h-9.2V412.3Z" class="g0_11"/>
<path fill-rule="evenodd" d="M275.5,412.3h36.9V430H275.5V412.3Z" class="g0_11"/>
<path fill-rule="evenodd" d="M312.4,412.3h27.5V430H312.4V412.3Z" class="g0_11"/>
<path fill-rule="evenodd" d="M110,430.1H825v17.7H110V430.1Z" class="g0_11"/>
<path fill-rule="evenodd" d="M248,430.1h9.1v17.7H248V430.1Z" class="g0_11"/>
<path fill-rule="evenodd" d="M257.1,430.1h82.8v17.7H257.1V430.1Z" class="g0_11"/>
<path fill-rule="evenodd" d="M339.9,430.1h9.2v17.7h-9.2V430.1Z" class="g0_11"/>
<path fill-rule="evenodd" d="M358.3,430.1h18.4v17.7H358.3V430.1Z" class="g0_11"/>
<path fill-rule="evenodd" d="M110,447.9H825v17.7H110V447.9Z" class="g0_11"/>
<path fill-rule="evenodd" d="M248,447.9h9.1v17.7H248V447.9Z" class="g0_11"/>
<path fill-rule="evenodd" d="M257.1,447.9h73.6v17.7H257.1V447.9Z" class="g0_11"/>
<path fill-rule="evenodd" d="M330.7,447.9h27.6v17.7H330.7V447.9Z" class="g0_11"/>
<path fill-rule="evenodd" d="M110,465.7H825v17.7H110V465.7Z" class="g0_11"/>
<path fill-rule="evenodd" d="M146.7,465.7H156v17.7h-9.3V465.7Z" class="g0_11"/>
<path fill-rule="evenodd" d="M110,483.5H825v29.1H110V483.5Z" class="g0_11"/>
<path fill-rule="evenodd" d="M110,483.5h9.2v17.7H110V483.5Z" class="g0_11"/>
<path fill-rule="evenodd" d="M110,512.6H825v43.7H110V512.6Z" class="g1_11"/>
<path fill-rule="evenodd" d="M110,556.4H825v27.5H110V556.4Z" class="g1_11"/>
<path fill-rule="evenodd" d="M110,583.9H825v27.5H110V583.9Z" class="g1_11"/>
<path fill-rule="evenodd" d="M110,611.4H825v39H110v-39Z" class="g1_11"/>
<path fill-rule="evenodd" d="M110,650.4H825v43.7H110V650.4Z" class="g1_11"/>
<path fill-rule="evenodd" d="M110,694.1H825v17.7H110V694.1Z" class="g0_11"/>
<path fill-rule="evenodd" d="M110,711.9H825v17.7H110V711.9Z" class="g0_11"/>
<path fill-rule="evenodd" d="M110,729.7H825v17.7H110V729.7Z" class="g0_11"/>
<path fill-rule="evenodd" d="M110,747.5H825v17.7H110V747.5Z" class="g0_11"/>
<path fill-rule="evenodd" d="M110,765.3H825V783H110V765.3Z" class="g0_11"/>
<path fill-rule="evenodd" d="M110,783H825v17.7H110V783Z" class="g0_11"/>
<path fill-rule="evenodd" d="M110,800.8H825v17.7H110V800.8Z" class="g0_11"/>
<path fill-rule="evenodd" d="M110,818.6H825v17.7H110V818.6Z" class="g0_11"/>
<path fill-rule="evenodd" d="M110,836.4H825v17.7H110V836.4Z" class="g0_11"/>
<path fill-rule="evenodd" d="M110,854.2H825v17.7H110V854.2Z" class="g0_11"/>
<path fill-rule="evenodd" d="M110,872H825v29.2H110V872Z" class="g0_11"/>
</svg>