<?xml version="1.0" encoding="UTF-8" standalone="no"?>
<!DOCTYPE svg PUBLIC "-//W3C//DTD SVG 1.1//EN"
"http://www.w3.org/Graphics/SVG/1.1/DTD/svg11.dtd">
<svg viewBox="0 0 935 1210" version="1.1" xmlns="http://www.w3.org/2000/svg" xmlns:xlink="http://www.w3.org/1999/xlink">
<defs>
<style type="text/css"><![CDATA[
.g0_12{
fill: #F4F4F4;
}
.g1_12{
fill: #FDFDFD;
}
]]></style>
</defs>
<path fill-rule="evenodd" d="M110,110H825v17.7H110V110Z" class="g0_12"/>
<path fill-rule="evenodd" d="M110,110h18.3v17.7H110V110Z" class="g0_12"/>
<path fill-rule="evenodd" d="M110,127.7H825v17.7H110V127.7Z" class="g0_12"/>
<path fill-rule="evenodd" d="M110,127.7h9.2v17.7H110V127.7Z" class="g0_12"/>
<path fill-rule="evenodd" d="M119.2,127.7h9.1v17.7h-9.1V127.7Z" class="g0_12"/>
<path fill-rule="evenodd" d="M128.3,127.7h9.3v17.7h-9.3V127.7Z" class="g0_12"/>
<path fill-rule="evenodd" d="M137.6,127.7H156v17.7H137.6V127.7Z" class="g0_12"/>
<path fill-rule="evenodd" d="M156,127.7h9.2v17.7H156V127.7Z" class="g0_12"/>
<path fill-rule="evenodd" d="M165.2,127.7h64.3v17.7H165.2V127.7Z" class="g0_12"/>
<path fill-rule="evenodd" d="M229.5,127.7h9.2v17.7h-9.2V127.7Z" class="g0_12"/>
<path fill-rule="evenodd" d="M238.7,127.7h18.4v17.7H238.7V127.7Z" class="g0_12"/>
<path fill-rule="evenodd" d="M257.1,127.7h9.2v17.7h-9.2V127.7Z" class="g0_12"/>
<path fill-rule="evenodd" d="M266.3,127.7h55.2v17.7H266.3V127.7Z" class="g0_12"/>
<path fill-rule="evenodd" d="M321.5,127.7h9.2v17.7h-9.2V127.7Z" class="g0_12"/>
<path fill-rule="evenodd" d="M330.7,127.7h27.6v17.7H330.7V127.7Z" class="g0_12"/>
<path fill-rule="evenodd" d="M358.3,127.7h9.2v17.7h-9.2V127.7Z" class="g0_12"/>
<path fill-rule="evenodd" d="M367.5,127.7h55.2v17.7H367.5V127.7Z" class="g0_12"/>
<path fill-rule="evenodd" d="M422.7,127.7h9.2v17.7h-9.2V127.7Z" class="g0_12"/>
<path fill-rule="evenodd" d="M431.9,127.7h18.4v17.7H431.9V127.7Z" class="g0_12"/>
<path fill-rule="evenodd" d="M450.3,127.7h9.2v17.7h-9.2V127.7Z" class="g0_12"/>
<path fill-rule="evenodd" d="M459.5,127.7h9.1v17.7h-9.1V127.7Z" class="g0_12"/>
<path fill-rule="evenodd" d="M468.6,127.7h9.3v17.7h-9.3V127.7Z" class="g0_12"/>
<path fill-rule="evenodd" d="M477.9,127.7H533v17.7H477.9V127.7Z" class="g0_12"/>
<path fill-rule="evenodd" d="M533,127.7h9.3v17.7H533V127.7Z" class="g0_12"/>
<path fill-rule="evenodd" d="M542.3,127.7h9.2v17.7h-9.2V127.7Z" class="g0_12"/>
<path fill-rule="evenodd" d="M551.5,127.7h9.2v17.7h-9.2V127.7Z" class="g0_12"/>
<path fill-rule="evenodd" d="M560.7,127.7h92v17.7h-92V127.7Z" class="g0_12"/>
<path fill-rule="evenodd" d="M652.7,127.7h9.1v17.7h-9.1V127.7Z" class="g0_12"/>
<path fill-rule="evenodd" d="M661.8,127.7h18.4v17.7H661.8V127.7Z" class="g0_12"/>
<path fill-rule="evenodd" d="M680.2,127.7h9.2v17.7h-9.2V127.7Z" class="g0_12"/>
<path fill-rule="evenodd" d="M110,145.5H825v17.7H110V145.5Z" class="g0_12"/>
<path fill-rule="evenodd" d="M110,145.5h9.2v17.7H110V145.5Z" class="g0_12"/>
<path fill-rule="evenodd" d="M119.2,145.5h9.1v17.7h-9.1V145.5Z" class="g0_12"/>
<path fill-rule="evenodd" d="M128.3,145.5h9.3v17.7h-9.3V145.5Z" class="g0_12"/>
<path fill-rule="evenodd" d="M137.6,145.5h46v17.7h-46V145.5Z" class="g0_12"/>
<path fill-rule="evenodd" d="M183.6,145.5h9.1v17.7h-9.1V145.5Z" class="g0_12"/>
<path fill-rule="evenodd" d="M192.7,145.5h46v17.7h-46V145.5Z" class="g0_12"/>
<path fill-rule="evenodd" d="M238.7,145.5H248v17.7h-9.3V145.5Z" class="g0_12"/>
<path fill-rule="evenodd" d="M248,145.5h18.3v17.7H248V145.5Z" class="g0_12"/>
<path fill-rule="evenodd" d="M266.3,145.5h9.2v17.7h-9.2V145.5Z" class="g0_12"/>
<path fill-rule="evenodd" d="M275.5,145.5h64.4v17.7H275.5V145.5Z" class="g0_12"/>
<path fill-rule="evenodd" d="M110,163.3H825V181H110V163.3Z" class="g0_12"/>
<path fill-rule="evenodd" d="M110,163.3h9.2V181H110V163.3Z" class="g0_12"/>
<path fill-rule="evenodd" d="M119.2,163.3h18.4V181H119.2V163.3Z" class="g0_12"/>
<path fill-rule="evenodd" d="M110,181.1H825v17.7H110V181.1Z" class="g0_12"/>
<path fill-rule="evenodd" d="M110,181.1h46v17.7H110V181.1Z" class="g0_12"/>
<path fill-rule="evenodd" d="M165.2,181.1h55.1v17.7H165.2V181.1Z" class="g0_12"/>
<path fill-rule="evenodd" d="M220.3,181.1h9.2v17.7h-9.2V181.1Z" class="g0_12"/>
<path fill-rule="evenodd" d="M110,198.9H825v17.7H110V198.9Z" class="g0_12"/>
<path fill-rule="evenodd" d="M110,198.9h46v17.7H110V198.9Z" class="g0_12"/>
<path fill-rule="evenodd" d="M110,216.6H825v17.8H110V216.6Z" class="g0_12"/>
<path fill-rule="evenodd" d="M110,216.6h9.2v17.8H110V216.6Z" class="g0_12"/>
<path fill-rule="evenodd" d="M110,234.4H825v17.8H110V234.4Z" class="g0_12"/>
<path fill-rule="evenodd" d="M146.7,234.4H202v17.8H146.7V234.4Z" class="g0_12"/>
<path fill-rule="evenodd" d="M211.1,234.4h55.2v17.8H211.1V234.4Z" class="g0_12"/>
<path fill-rule="evenodd" d="M275.5,234.4h36.9v17.8H275.5V234.4Z" class="g0_12"/>
<path fill-rule="evenodd" d="M358.3,234.4h18.4v17.8H358.3V234.4Z" class="g0_12"/>
<path fill-rule="evenodd" d="M110,252.2H825V270H110V252.2Z" class="g0_12"/>
<path fill-rule="evenodd" d="M146.7,252.2H156V270h-9.3V252.2Z" class="g0_12"/>
<path fill-rule="evenodd" d="M110,270H825v17.8H110V270Z" class="g0_12"/>
<path fill-rule="evenodd" d="M183.6,270h45.9v17.8H183.6V270Z" class="g0_12"/>
<path fill-rule="evenodd" d="M293.9,270h9.2v17.8h-9.2V270Z" class="g0_12"/>
<path fill-rule="evenodd" d="M110,287.8H825v17.8H110V287.8Z" class="g0_12"/>
<path fill-rule="evenodd" d="M248,287.8h9.1v17.8H248V287.8Z" class="g0_12"/>
<path fill-rule="evenodd" d="M257.1,287.8h82.8v17.8H257.1V287.8Z" class="g0_12"/>
<path fill-rule="evenodd" d="M339.9,287.8h9.2v17.8h-9.2V287.8Z" class="g0_12"/>
<path fill-rule="evenodd" d="M349.1,287.8h55.2v17.8H349.1V287.8Z" class="g0_12"/>
<path fill-rule="evenodd" d="M404.3,287.8h9.2v17.8h-9.2V287.8Z" class="g0_12"/>
<path fill-rule="evenodd" d="M413.5,287.8h9.2v17.8h-9.2V287.8Z" class="g0_12"/>
<path fill-rule="evenodd" d="M422.7,287.8h27.6v17.8H422.7V287.8Z" class="g0_12"/>
<path fill-rule="evenodd" d="M450.3,287.8h9.2v17.8h-9.2V287.8Z" class="g0_12"/>
<path fill-rule="evenodd" d="M459.5,287.8h55.2v17.8H459.5V287.8Z" class="g0_12"/>
<path fill-rule="evenodd" d="M514.7,287.8h9.2v17.8h-9.2V287.8Z" class="g0_12"/>
<path fill-rule="evenodd" d="M523.9,287.8h27.6v17.8H523.9V287.8Z" class="g0_12"/>
<path fill-rule="evenodd" d="M551.5,287.8h9.2v17.8h-9.2V287.8Z" class="g0_12"/>
<path fill-rule="evenodd" d="M560.7,287.8H671.1v17.8H560.7V287.8Z" class="g0_12"/>
<path fill-rule="evenodd" d="M671.1,287.8h9.1v17.8h-9.1V287.8Z" class="g0_12"/>
<path fill-rule="evenodd" d="M680.2,287.8h18.5v17.8H680.2V287.8Z" class="g0_12"/>
<path fill-rule="evenodd" d="M698.7,287.8h9.1v17.8h-9.1V287.8Z" class="g0_12"/>
<path fill-rule="evenodd" d="M707.8,287.8h9.3v17.8h-9.3V287.8Z" class="g0_12"/>
<path fill-rule="evenodd" d="M717.1,287.8h9.1v17.8h-9.1V287.8Z" class="g0_12"/>
<path fill-rule="evenodd" d="M110,305.6H825v17.7H110V305.6Z" class="g0_12"/>
<path fill-rule="evenodd" d="M248,305.6h9.1v17.7H248V305.6Z" class="g0_12"/>
<path fill-rule="evenodd" d="M266.3,305.6h27.6v17.7H266.3V305.6Z" class="g0_12"/>
<path fill-rule="evenodd" d="M293.9,305.6h9.2v17.7h-9.2V305.6Z" class="g0_12"/>
<path fill-rule="evenodd" d="M303.1,305.6h46v17.7h-46V305.6Z" class="g0_12"/>
<path fill-rule="evenodd" d="M349.1,305.6h9.2v17.7h-9.2V305.6Z" class="g0_12"/>
<path fill-rule="evenodd" d="M422.7,305.6h9.2v17.7h-9.2V305.6Z" class="g0_12"/>
<path fill-rule="evenodd" d="M431.9,305.6h73.6v17.7H431.9V305.6Z" class="g0_12"/>
<path fill-rule="evenodd" d="M505.5,305.6H533v17.7H505.5V305.6Z" class="g0_12"/>
<path fill-rule="evenodd" d="M533,305.6h9.3v17.7H533V305.6Z" class="g0_12"/>
<path fill-rule="evenodd" d="M110,323.4H825v17.7H110V323.4Z" class="g0_12"/>
<path fill-rule="evenodd" d="M183.6,323.4H202v17.7H183.6V323.4Z" class="g0_12"/>
<path fill-rule="evenodd" d="M211.1,323.4h9.2v17.7h-9.2V323.4Z" class="g0_12"/>
<path fill-rule="evenodd" d="M284.7,323.4h9.2v17.7h-9.2V323.4Z" class="g0_12"/>
<path fill-rule="evenodd" d="M303.1,323.4h46v17.7h-46V323.4Z" class="g0_12"/>
<path fill-rule="evenodd" d="M349.1,323.4h9.2v17.7h-9.2V323.4Z" class="g0_12"/>
<path fill-rule="evenodd" d="M110,341.2H825v17.7H110V341.2Z" class="g0_12"/>
<path fill-rule="evenodd" d="M284.7,341.2h9.2v17.7h-9.2V341.2Z" class="g0_12"/>
<path fill-rule="evenodd" d="M293.9,341.2h82.8v17.7H293.9V341.2Z" class="g0_12"/>
<path fill-rule="evenodd" d="M376.7,341.2h9.2v17.7h-9.2V341.2Z" class="g0_12"/>
<path fill-rule="evenodd" d="M385.9,341.2h55.2v17.7H385.9V341.2Z" class="g0_12"/>
<path fill-rule="evenodd" d="M441.1,341.2h9.2v17.7h-9.2V341.2Z" class="g0_12"/>
<path fill-rule="evenodd" d="M450.3,341.2h18.3v17.7H450.3V341.2Z" class="g0_12"/>
<path fill-rule="evenodd" d="M468.6,341.2h9.3v17.7h-9.3V341.2Z" class="g0_12"/>
<path fill-rule="evenodd" d="M477.9,341.2h9.2v17.7h-9.2V341.2Z" class="g0_12"/>
<path fill-rule="evenodd" d="M487.1,341.2h9.2v17.7h-9.2V341.2Z" class="g0_12"/>
<path fill-rule="evenodd" d="M110,359H825v17.7H110V359Z" class="g0_12"/>
<path fill-rule="evenodd" d="M183.6,359h36.7v17.7H183.6V359Z" class="g0_12"/>
<path fill-rule="evenodd" d="M229.5,359H248v17.7H229.5V359Z" class="g0_12"/>
<path fill-rule="evenodd" d="M257.1,359h18.4v17.7H257.1V359Z" class="g0_12"/>
<path fill-rule="evenodd" d="M339.9,359h18.4v17.7H339.9V359Z" class="g0_12"/>
<path fill-rule="evenodd" d="M367.5,359h46v17.7h-46V359Z" class="g0_12"/>
<path fill-rule="evenodd" d="M413.5,359h9.2v17.7h-9.2V359Z" class="g0_12"/>
<path fill-rule="evenodd" d="M431.9,359h18.4v17.7H431.9V359Z" class="g0_12"/>
<path fill-rule="evenodd" d="M459.5,359h9.1v17.7h-9.1V359Z" class="g0_12"/>
<path fill-rule="evenodd" d="M533,359h18.5v17.7H533V359Z" class="g0_12"/>
<path fill-rule="evenodd" d="M560.7,359h46v17.7h-46V359Z" class="g0_12"/>
<path fill-rule="evenodd" d="M606.7,359H625v17.7H606.7V359Z" class="g0_12"/>
<path fill-rule="evenodd" d="M110,376.7H825v17.8H110V376.7Z" class="g0_12"/>
<path fill-rule="evenodd" d="M284.7,376.7h9.2v17.8h-9.2V376.7Z" class="g0_12"/>
<path fill-rule="evenodd" d="M293.9,376.7h82.8v17.8H293.9V376.7Z" class="g0_12"/>
<path fill-rule="evenodd" d="M376.7,376.7h9.2v17.8h-9.2V376.7Z" class="g0_12"/>
<path fill-rule="evenodd" d="M385.9,376.7h9.2v17.8h-9.2V376.7Z" class="g0_12"/>
<path fill-rule="evenodd" d="M395.1,376.7h9.2v17.8h-9.2V376.7Z" class="g0_12"/>
<path fill-rule="evenodd" d="M404.3,376.7h64.3v17.8H404.3V376.7Z" class="g0_12"/>
<path fill-rule="evenodd" d="M468.6,376.7h9.3v17.8h-9.3V376.7Z" class="g0_12"/>
<path fill-rule="evenodd" d="M477.9,376.7H533v17.8H477.9V376.7Z" class="g0_12"/>
<path fill-rule="evenodd" d="M533,376.7h9.3v17.8H533V376.7Z" class="g0_12"/>
<path fill-rule="evenodd" d="M542.3,376.7h18.4v17.8H542.3V376.7Z" class="g0_12"/>
<path fill-rule="evenodd" d="M560.7,376.7h9.2v17.8h-9.2V376.7Z" class="g0_12"/>
<path fill-rule="evenodd" d="M569.9,376.7H579v17.8h-9.1V376.7Z" class="g0_12"/>
<path fill-rule="evenodd" d="M579,376.7h9.3v17.8H579V376.7Z" class="g0_12"/>
<path fill-rule="evenodd" d="M110,394.5H825v17.8H110V394.5Z" class="g0_12"/>
<path fill-rule="evenodd" d="M183.6,394.5h36.7v17.8H183.6V394.5Z" class="g0_12"/>
<path fill-rule="evenodd" d="M229.5,394.5H248v17.8H229.5V394.5Z" class="g0_12"/>
<path fill-rule="evenodd" d="M257.1,394.5h18.4v17.8H257.1V394.5Z" class="g0_12"/>
<path fill-rule="evenodd" d="M339.9,394.5h18.4v17.8H339.9V394.5Z" class="g0_12"/>
<path fill-rule="evenodd" d="M367.5,394.5h46v17.8h-46V394.5Z" class="g0_12"/>
<path fill-rule="evenodd" d="M413.5,394.5h9.2v17.8h-9.2V394.5Z" class="g0_12"/>
<path fill-rule="evenodd" d="M431.9,394.5h18.4v17.8H431.9V394.5Z" class="g0_12"/>
<path fill-rule="evenodd" d="M459.5,394.5h9.1v17.8h-9.1V394.5Z" class="g0_12"/>
<path fill-rule="evenodd" d="M533,394.5h18.5v17.8H533V394.5Z" class="g0_12"/>
<path fill-rule="evenodd" d="M560.7,394.5h46v17.8h-46V394.5Z" class="g0_12"/>
<path fill-rule="evenodd" d="M606.7,394.5H625v17.8H606.7V394.5Z" class="g0_12"/>
<path fill-rule="evenodd" d="M110,412.3H825V430H110V412.3Z" class="g0_12"/>
<path fill-rule="evenodd" d="M284.7,412.3h9.2V430h-9.2V412.3Z" class="g0_12"/>
<path fill-rule="evenodd" d="M293.9,412.3h82.8V430H293.9V412.3Z" class="g0_12"/>
<path fill-rule="evenodd" d="M376.7,412.3h9.2V430h-9.2V412.3Z" class="g0_12"/>
<path fill-rule="evenodd" d="M385.9,412.3h64.4V430H385.9V412.3Z" class="g0_12"/>
<path fill-rule="evenodd" d="M450.3,412.3h9.2V430h-9.2V412.3Z" class="g0_12"/>
<path fill-rule="evenodd" d="M459.5,412.3h18.4V430H459.5V412.3Z" class="g0_12"/>
<path fill-rule="evenodd" d="M477.9,412.3h9.2V430h-9.2V412.3Z" class="g0_12"/>
<path fill-rule="evenodd" d="M487.1,412.3h9.2V430h-9.2V412.3Z" class="g0_12"/>
<path fill-rule="evenodd" d="M496.3,412.3h9.2V430h-9.2V412.3Z" class="g0_12"/>
<path fill-rule="evenodd" d="M110,430.1H825v17.7H110V430.1Z" class="g0_12"/>
<path fill-rule="evenodd" d="M183.6,430.1h36.7v17.7H183.6V430.1Z" class="g0_12"/>
<path fill-rule="evenodd" d="M110,447.9H825v17.7H110V447.9Z" class="g0_12"/>
<path fill-rule="evenodd" d="M284.7,447.9h9.2v17.7h-9.2V447.9Z" class="g0_12"/>
<path fill-rule="evenodd" d="M293.9,447.9h82.8v17.7H293.9V447.9Z" class="g0_12"/>
<path fill-rule="evenodd" d="M376.7,447.9h9.2v17.7h-9.2V447.9Z" class="g0_12"/>
<path fill-rule="evenodd" d="M385.9,447.9h82.7v17.7H385.9V447.9Z" class="g0_12"/>
<path fill-rule="evenodd" d="M468.6,447.9h9.3v17.7h-9.3V447.9Z" class="g0_12"/>
<path fill-rule="evenodd" d="M477.9,447.9H533v17.7H477.9V447.9Z" class="g0_12"/>
<path fill-rule="evenodd" d="M533,447.9h9.3v17.7H533V447.9Z" class="g0_12"/>
<path fill-rule="evenodd" d="M542.3,447.9h18.4v17.7H542.3V447.9Z" class="g0_12"/>
<path fill-rule="evenodd" d="M560.7,447.9h9.2v17.7h-9.2V447.9Z" class="g0_12"/>
<path fill-rule="evenodd" d="M569.9,447.9H579v17.7h-9.1V447.9Z" class="g0_12"/>
<path fill-rule="evenodd" d="M579,447.9h9.3v17.7H579V447.9Z" class="g0_12"/>
<path fill-rule="evenodd" d="M110,465.7H825v17.7H110V465.7Z" class="g0_12"/>
<path fill-rule="evenodd" d="M146.7,465.7H156v17.7h-9.3V465.7Z" class="g0_12"/>
<path fill-rule="evenodd" d="M110,483.5H825v17.7H110V483.5Z" class="g0_12"/>
<path fill-rule="evenodd" d="M110,483.5h9.2v17.7H110V483.5Z" class="g0_12"/>
<path fill-rule="evenodd" d="M110,501.2H825v43.7H110V501.2Z" class="g1_12"/>
<path fill-rule="evenodd" d="M110,545H825v17.7H110V545Z" class="g0_12"/>
<path fill-rule="evenodd" d="M110,562.8H825v17.7H110V562.8Z" class="g0_12"/>
<path fill-rule="evenodd" d="M110,580.6H825v17.7H110V580.6Z" class="g0_12"/>
<path fill-rule="evenodd" d="M110,598.3H825v29.2H110V598.3Z" class="g0_12"/>
</svg>