<?xml version="1.0" encoding="UTF-8" standalone="no"?>
<!DOCTYPE svg PUBLIC "-//W3C//DTD SVG 1.1//EN"
"http://www.w3.org/Graphics/SVG/1.1/DTD/svg11.dtd">
<svg viewBox="0 0 935 1210" version="1.1" xmlns="http://www.w3.org/2000/svg" xmlns:xlink="http://www.w3.org/1999/xlink">
<defs>
<style type="text/css"><![CDATA[
.g0_16{
fill: #F4F4F4;
}
.g1_16{
fill: #FDFDFD;
}
]]></style>
</defs>
<path fill-rule="evenodd" d="M110,110H825v17.7H110V110Z" class="g0_16"/>
<path fill-rule="evenodd" d="M110,110h18.3v17.7H110V110Z" class="g0_16"/>
<path fill-rule="evenodd" d="M110,127.7H825v17.7H110V127.7Z" class="g0_16"/>
<path fill-rule="evenodd" d="M110,127.7h9.2v17.7H110V127.7Z" class="g0_16"/>
<path fill-rule="evenodd" d="M119.2,127.7h9.1v17.7h-9.1V127.7Z" class="g0_16"/>
<path fill-rule="evenodd" d="M128.3,127.7h9.3v17.7h-9.3V127.7Z" class="g0_16"/>
<path fill-rule="evenodd" d="M137.6,127.7H156v17.7H137.6V127.7Z" class="g0_16"/>
<path fill-rule="evenodd" d="M156,127.7h9.2v17.7H156V127.7Z" class="g0_16"/>
<path fill-rule="evenodd" d="M165.2,127.7h64.3v17.7H165.2V127.7Z" class="g0_16"/>
<path fill-rule="evenodd" d="M229.5,127.7h9.2v17.7h-9.2V127.7Z" class="g0_16"/>
<path fill-rule="evenodd" d="M238.7,127.7h18.4v17.7H238.7V127.7Z" class="g0_16"/>
<path fill-rule="evenodd" d="M257.1,127.7h9.2v17.7h-9.2V127.7Z" class="g0_16"/>
<path fill-rule="evenodd" d="M266.3,127.7h46.1v17.7H266.3V127.7Z" class="g0_16"/>
<path fill-rule="evenodd" d="M312.4,127.7h9.1v17.7h-9.1V127.7Z" class="g0_16"/>
<path fill-rule="evenodd" d="M321.5,127.7h27.6v17.7H321.5V127.7Z" class="g0_16"/>
<path fill-rule="evenodd" d="M349.1,127.7h9.2v17.7h-9.2V127.7Z" class="g0_16"/>
<path fill-rule="evenodd" d="M358.3,127.7h27.6v17.7H358.3V127.7Z" class="g0_16"/>
<path fill-rule="evenodd" d="M385.9,127.7h9.2v17.7h-9.2V127.7Z" class="g0_16"/>
<path fill-rule="evenodd" d="M395.1,127.7h18.4v17.7H395.1V127.7Z" class="g0_16"/>
<path fill-rule="evenodd" d="M413.5,127.7h9.2v17.7h-9.2V127.7Z" class="g0_16"/>
<path fill-rule="evenodd" d="M422.7,127.7h27.6v17.7H422.7V127.7Z" class="g0_16"/>
<path fill-rule="evenodd" d="M450.3,127.7h9.2v17.7h-9.2V127.7Z" class="g0_16"/>
<path fill-rule="evenodd" d="M459.5,127.7h27.6v17.7H459.5V127.7Z" class="g0_16"/>
<path fill-rule="evenodd" d="M487.1,127.7h9.2v17.7h-9.2V127.7Z" class="g0_16"/>
<path fill-rule="evenodd" d="M496.3,127.7H579v17.7H496.3V127.7Z" class="g0_16"/>
<path fill-rule="evenodd" d="M579,127.7h9.3v17.7H579V127.7Z" class="g0_16"/>
<path fill-rule="evenodd" d="M588.3,127.7h18.4v17.7H588.3V127.7Z" class="g0_16"/>
<path fill-rule="evenodd" d="M606.7,127.7h9.1v17.7h-9.1V127.7Z" class="g0_16"/>
<path fill-rule="evenodd" d="M615.8,127.7H625v17.7h-9.2V127.7Z" class="g0_16"/>
<path fill-rule="evenodd" d="M625,127.7h9.3v17.7H625V127.7Z" class="g0_16"/>
<path fill-rule="evenodd" d="M634.3,127.7h27.5v17.7H634.3V127.7Z" class="g0_16"/>
<path fill-rule="evenodd" d="M661.8,127.7h9.3v17.7h-9.3V127.7Z" class="g0_16"/>
<path fill-rule="evenodd" d="M671.1,127.7h9.1v17.7h-9.1V127.7Z" class="g0_16"/>
<path fill-rule="evenodd" d="M110,145.5H825v17.7H110V145.5Z" class="g0_16"/>
<path fill-rule="evenodd" d="M110,145.5h9.2v17.7H110V145.5Z" class="g0_16"/>
<path fill-rule="evenodd" d="M119.2,145.5h18.4v17.7H119.2V145.5Z" class="g0_16"/>
<path fill-rule="evenodd" d="M110,163.3H825V181H110V163.3Z" class="g0_16"/>
<path fill-rule="evenodd" d="M110,163.3h46V181H110V163.3Z" class="g0_16"/>
<path fill-rule="evenodd" d="M165.2,163.3h55.1V181H165.2V163.3Z" class="g0_16"/>
<path fill-rule="evenodd" d="M220.3,163.3h9.2V181h-9.2V163.3Z" class="g0_16"/>
<path fill-rule="evenodd" d="M110,181.1H825v17.7H110V181.1Z" class="g0_16"/>
<path fill-rule="evenodd" d="M110,181.1h46v17.7H110V181.1Z" class="g0_16"/>
<path fill-rule="evenodd" d="M110,198.9H825v17.7H110V198.9Z" class="g0_16"/>
<path fill-rule="evenodd" d="M110,198.9h9.2v17.7H110V198.9Z" class="g0_16"/>
<path fill-rule="evenodd" d="M110,216.6H825v17.8H110V216.6Z" class="g0_16"/>
<path fill-rule="evenodd" d="M146.7,216.6H202v17.8H146.7V216.6Z" class="g0_16"/>
<path fill-rule="evenodd" d="M211.1,216.6h55.2v17.8H211.1V216.6Z" class="g0_16"/>
<path fill-rule="evenodd" d="M275.5,216.6h36.9v17.8H275.5V216.6Z" class="g0_16"/>
<path fill-rule="evenodd" d="M358.3,216.6h18.4v17.8H358.3V216.6Z" class="g0_16"/>
<path fill-rule="evenodd" d="M110,234.4H825v17.8H110V234.4Z" class="g0_16"/>
<path fill-rule="evenodd" d="M146.7,234.4H156v17.8h-9.3V234.4Z" class="g0_16"/>
<path fill-rule="evenodd" d="M110,252.2H825V270H110V252.2Z" class="g0_16"/>
<path fill-rule="evenodd" d="M183.6,252.2h27.5V270H183.6V252.2Z" class="g0_16"/>
<path fill-rule="evenodd" d="M404.3,252.2h9.2V270h-9.2V252.2Z" class="g0_16"/>
<path fill-rule="evenodd" d="M422.7,252.2h9.2V270h-9.2V252.2Z" class="g0_16"/>
<path fill-rule="evenodd" d="M431.9,252.2h9.2V270h-9.2V252.2Z" class="g0_16"/>
<path fill-rule="evenodd" d="M110,270H825v17.8H110V270Z" class="g0_16"/>
<path fill-rule="evenodd" d="M248,270h9.1v17.8H248V270Z" class="g0_16"/>
<path fill-rule="evenodd" d="M257.1,270h46v17.8h-46V270Z" class="g0_16"/>
<path fill-rule="evenodd" d="M303.1,270h9.3v17.8h-9.3V270Z" class="g0_16"/>
<path fill-rule="evenodd" d="M312.4,270h55.1v17.8H312.4V270Z" class="g0_16"/>
<path fill-rule="evenodd" d="M367.5,270h9.2v17.8h-9.2V270Z" class="g0_16"/>
<path fill-rule="evenodd" d="M376.7,270h55.2v17.8H376.7V270Z" class="g0_16"/>
<path fill-rule="evenodd" d="M431.9,270h9.2v17.8h-9.2V270Z" class="g0_16"/>
<path fill-rule="evenodd" d="M441.1,270h18.4v17.8H441.1V270Z" class="g0_16"/>
<path fill-rule="evenodd" d="M459.5,270h9.1v17.8h-9.1V270Z" class="g0_16"/>
<path fill-rule="evenodd" d="M468.6,270h36.9v17.8H468.6V270Z" class="g0_16"/>
<path fill-rule="evenodd" d="M505.5,270h18.4v17.8H505.5V270Z" class="g0_16"/>
<path fill-rule="evenodd" d="M523.9,270H533v17.8h-9.1V270Z" class="g0_16"/>
<path fill-rule="evenodd" d="M533,270h9.3v17.8H533V270Z" class="g0_16"/>
<path fill-rule="evenodd" d="M542.3,270h9.2v17.8h-9.2V270Z" class="g0_16"/>
<path fill-rule="evenodd" d="M110,287.8H825v17.8H110V287.8Z" class="g0_16"/>
<path fill-rule="evenodd" d="M248,287.8h9.1v17.8H248V287.8Z" class="g0_16"/>
<path fill-rule="evenodd" d="M266.3,287.8h27.6v17.8H266.3V287.8Z" class="g0_16"/>
<path fill-rule="evenodd" d="M293.9,287.8h9.2v17.8h-9.2V287.8Z" class="g0_16"/>
<path fill-rule="evenodd" d="M303.1,287.8h46v17.8h-46V287.8Z" class="g0_16"/>
<path fill-rule="evenodd" d="M349.1,287.8h9.2v17.8h-9.2V287.8Z" class="g0_16"/>
<path fill-rule="evenodd" d="M422.7,287.8h9.2v17.8h-9.2V287.8Z" class="g0_16"/>
<path fill-rule="evenodd" d="M431.9,287.8h73.6v17.8H431.9V287.8Z" class="g0_16"/>
<path fill-rule="evenodd" d="M505.5,287.8H533v17.8H505.5V287.8Z" class="g0_16"/>
<path fill-rule="evenodd" d="M533,287.8h9.3v17.8H533V287.8Z" class="g0_16"/>
<path fill-rule="evenodd" d="M110,305.6H825v17.7H110V305.6Z" class="g0_16"/>
<path fill-rule="evenodd" d="M238.7,305.6H248v17.7h-9.3V305.6Z" class="g0_16"/>
<path fill-rule="evenodd" d="M321.5,305.6h9.2v17.7h-9.2V305.6Z" class="g0_16"/>
<path fill-rule="evenodd" d="M339.9,305.6h9.2v17.7h-9.2V305.6Z" class="g0_16"/>
<path fill-rule="evenodd" d="M349.1,305.6h9.2v17.7h-9.2V305.6Z" class="g0_16"/>
<path fill-rule="evenodd" d="M110,323.4H825v17.7H110V323.4Z" class="g0_16"/>
<path fill-rule="evenodd" d="M183.6,323.4h27.5v17.7H183.6V323.4Z" class="g0_16"/>
<path fill-rule="evenodd" d="M220.3,323.4h9.2v17.7h-9.2V323.4Z" class="g0_16"/>
<path fill-rule="evenodd" d="M248,323.4h9.1v17.7H248V323.4Z" class="g0_16"/>
<path fill-rule="evenodd" d="M266.3,323.4h9.2v17.7h-9.2V323.4Z" class="g0_16"/>
<path fill-rule="evenodd" d="M275.5,323.4h9.2v17.7h-9.2V323.4Z" class="g0_16"/>
<path fill-rule="evenodd" d="M312.4,323.4h18.3v17.7H312.4V323.4Z" class="g0_16"/>
<path fill-rule="evenodd" d="M395.1,323.4h9.2v17.7h-9.2V323.4Z" class="g0_16"/>
<path fill-rule="evenodd" d="M422.7,323.4h18.4v17.7H422.7V323.4Z" class="g0_16"/>
<path fill-rule="evenodd" d="M441.1,323.4h9.2v17.7h-9.2V323.4Z" class="g0_16"/>
<path fill-rule="evenodd" d="M110,341.2H825v17.7H110V341.2Z" class="g0_16"/>
<path fill-rule="evenodd" d="M183.6,341.2h9.1v17.7h-9.1V341.2Z" class="g0_16"/>
<path fill-rule="evenodd" d="M110,359H825v17.7H110V359Z" class="g0_16"/>
<path fill-rule="evenodd" d="M220.3,359H248v17.7H220.3V359Z" class="g0_16"/>
<path fill-rule="evenodd" d="M257.1,359h9.2v17.7h-9.2V359Z" class="g0_16"/>
<path fill-rule="evenodd" d="M284.7,359h9.2v17.7h-9.2V359Z" class="g0_16"/>
<path fill-rule="evenodd" d="M303.1,359h9.3v17.7h-9.3V359Z" class="g0_16"/>
<path fill-rule="evenodd" d="M312.4,359h9.1v17.7h-9.1V359Z" class="g0_16"/>
<path fill-rule="evenodd" d="M349.1,359h18.4v17.7H349.1V359Z" class="g0_16"/>
<path fill-rule="evenodd" d="M422.7,359h9.2v17.7h-9.2V359Z" class="g0_16"/>
<path fill-rule="evenodd" d="M450.3,359h18.3v17.7H450.3V359Z" class="g0_16"/>
<path fill-rule="evenodd" d="M468.6,359h9.3v17.7h-9.3V359Z" class="g0_16"/>
<path fill-rule="evenodd" d="M110,376.7H825v17.8H110V376.7Z" class="g0_16"/>
<path fill-rule="evenodd" d="M321.5,376.7h9.2v17.8h-9.2V376.7Z" class="g0_16"/>
<path fill-rule="evenodd" d="M330.7,376.7h46v17.8h-46V376.7Z" class="g0_16"/>
<path fill-rule="evenodd" d="M376.7,376.7h9.2v17.8h-9.2V376.7Z" class="g0_16"/>
<path fill-rule="evenodd" d="M385.9,376.7h9.2v17.8h-9.2V376.7Z" class="g0_16"/>
<path fill-rule="evenodd" d="M395.1,376.7h9.2v17.8h-9.2V376.7Z" class="g0_16"/>
<path fill-rule="evenodd" d="M404.3,376.7h9.2v17.8h-9.2V376.7Z" class="g0_16"/>
<path fill-rule="evenodd" d="M413.5,376.7h9.2v17.8h-9.2V376.7Z" class="g0_16"/>
<path fill-rule="evenodd" d="M422.7,376.7h9.2v17.8h-9.2V376.7Z" class="g0_16"/>
<path fill-rule="evenodd" d="M110,394.5H825v17.8H110V394.5Z" class="g0_16"/>
<path fill-rule="evenodd" d="M266.3,394.5h27.6v17.8H266.3V394.5Z" class="g0_16"/>
<path fill-rule="evenodd" d="M110,412.3H825V430H110V412.3Z" class="g0_16"/>
<path fill-rule="evenodd" d="M220.3,412.3H248V430H220.3V412.3Z" class="g0_16"/>
<path fill-rule="evenodd" d="M257.1,412.3h9.2V430h-9.2V412.3Z" class="g0_16"/>
<path fill-rule="evenodd" d="M284.7,412.3h9.2V430h-9.2V412.3Z" class="g0_16"/>
<path fill-rule="evenodd" d="M303.1,412.3h9.3V430h-9.3V412.3Z" class="g0_16"/>
<path fill-rule="evenodd" d="M312.4,412.3h9.1V430h-9.1V412.3Z" class="g0_16"/>
<path fill-rule="evenodd" d="M349.1,412.3h18.4V430H349.1V412.3Z" class="g0_16"/>
<path fill-rule="evenodd" d="M376.7,412.3h9.2V430h-9.2V412.3Z" class="g0_16"/>
<path fill-rule="evenodd" d="M395.1,412.3h9.2V430h-9.2V412.3Z" class="g0_16"/>
<path fill-rule="evenodd" d="M431.9,412.3h9.2V430h-9.2V412.3Z" class="g0_16"/>
<path fill-rule="evenodd" d="M450.3,412.3h9.2V430h-9.2V412.3Z" class="g0_16"/>
<path fill-rule="evenodd" d="M459.5,412.3h9.1V430h-9.1V412.3Z" class="g0_16"/>
<path fill-rule="evenodd" d="M487.1,412.3h18.4V430H487.1V412.3Z" class="g0_16"/>
<path fill-rule="evenodd" d="M505.5,412.3h9.2V430h-9.2V412.3Z" class="g0_16"/>
<path fill-rule="evenodd" d="M110,430.1H825v17.7H110V430.1Z" class="g0_16"/>
<path fill-rule="evenodd" d="M321.5,430.1h9.2v17.7h-9.2V430.1Z" class="g0_16"/>
<path fill-rule="evenodd" d="M330.7,430.1h46v17.7h-46V430.1Z" class="g0_16"/>
<path fill-rule="evenodd" d="M376.7,430.1h9.2v17.7h-9.2V430.1Z" class="g0_16"/>
<path fill-rule="evenodd" d="M385.9,430.1h27.6v17.7H385.9V430.1Z" class="g0_16"/>
<path fill-rule="evenodd" d="M413.5,430.1h9.2v17.7h-9.2V430.1Z" class="g0_16"/>
<path fill-rule="evenodd" d="M422.7,430.1h9.2v17.7h-9.2V430.1Z" class="g0_16"/>
<path fill-rule="evenodd" d="M110,447.9H825v17.7H110V447.9Z" class="g0_16"/>
<path fill-rule="evenodd" d="M284.7,447.9h9.2v17.7h-9.2V447.9Z" class="g0_16"/>
<path fill-rule="evenodd" d="M293.9,447.9h82.8v17.7H293.9V447.9Z" class="g0_16"/>
<path fill-rule="evenodd" d="M376.7,447.9h18.4v17.7H376.7V447.9Z" class="g0_16"/>
<path fill-rule="evenodd" d="M395.1,447.9h9.2v17.7h-9.2V447.9Z" class="g0_16"/>
<path fill-rule="evenodd" d="M110,465.7H825v17.7H110V465.7Z" class="g0_16"/>
<path fill-rule="evenodd" d="M183.6,465.7h9.1v17.7h-9.1V465.7Z" class="g0_16"/>
<path fill-rule="evenodd" d="M110,483.5H825v17.7H110V483.5Z" class="g0_16"/>
<path fill-rule="evenodd" d="M238.7,483.5H248v17.7h-9.3V483.5Z" class="g0_16"/>
<path fill-rule="evenodd" d="M257.1,483.5h9.2v17.7h-9.2V483.5Z" class="g0_16"/>
<path fill-rule="evenodd" d="M266.3,483.5h9.2v17.7h-9.2V483.5Z" class="g0_16"/>
<path fill-rule="evenodd" d="M110,501.2H825v17.7H110V501.2Z" class="g0_16"/>
<path fill-rule="evenodd" d="M183.6,501.2h27.5v17.7H183.6V501.2Z" class="g0_16"/>
<path fill-rule="evenodd" d="M220.3,501.2h9.2v17.7h-9.2V501.2Z" class="g0_16"/>
<path fill-rule="evenodd" d="M248,501.2h9.1v17.7H248V501.2Z" class="g0_16"/>
<path fill-rule="evenodd" d="M266.3,501.2h9.2v17.7h-9.2V501.2Z" class="g0_16"/>
<path fill-rule="evenodd" d="M275.5,501.2h9.2v17.7h-9.2V501.2Z" class="g0_16"/>
<path fill-rule="evenodd" d="M312.4,501.2h18.3v17.7H312.4V501.2Z" class="g0_16"/>
<path fill-rule="evenodd" d="M404.3,501.2h9.2v17.7h-9.2V501.2Z" class="g0_16"/>
<path fill-rule="evenodd" d="M422.7,501.2h9.2v17.7h-9.2V501.2Z" class="g0_16"/>
<path fill-rule="evenodd" d="M431.9,501.2h9.2v17.7h-9.2V501.2Z" class="g0_16"/>
<path fill-rule="evenodd" d="M459.5,501.2h18.4v17.7H459.5V501.2Z" class="g0_16"/>
<path fill-rule="evenodd" d="M477.9,501.2h9.2v17.7h-9.2V501.2Z" class="g0_16"/>
<path fill-rule="evenodd" d="M110,519H825v17.7H110V519Z" class="g0_16"/>
<path fill-rule="evenodd" d="M183.6,519h9.1v17.7h-9.1V519Z" class="g0_16"/>
<path fill-rule="evenodd" d="M110,536.8H825v17.7H110V536.8Z" class="g0_16"/>
<path fill-rule="evenodd" d="M220.3,536.8H248v17.7H220.3V536.8Z" class="g0_16"/>
<path fill-rule="evenodd" d="M257.1,536.8h9.2v17.7h-9.2V536.8Z" class="g0_16"/>
<path fill-rule="evenodd" d="M284.7,536.8h9.2v17.7h-9.2V536.8Z" class="g0_16"/>
<path fill-rule="evenodd" d="M303.1,536.8h9.3v17.7h-9.3V536.8Z" class="g0_16"/>
<path fill-rule="evenodd" d="M312.4,536.8h9.1v17.7h-9.1V536.8Z" class="g0_16"/>
<path fill-rule="evenodd" d="M349.1,536.8h18.4v17.7H349.1V536.8Z" class="g0_16"/>
<path fill-rule="evenodd" d="M422.7,536.8h9.2v17.7h-9.2V536.8Z" class="g0_16"/>
<path fill-rule="evenodd" d="M450.3,536.8h18.3v17.7H450.3V536.8Z" class="g0_16"/>
<path fill-rule="evenodd" d="M468.6,536.8h9.3v17.7h-9.3V536.8Z" class="g0_16"/>
<path fill-rule="evenodd" d="M110,554.6H825v17.7H110V554.6Z" class="g0_16"/>
<path fill-rule="evenodd" d="M321.5,554.6h9.2v17.7h-9.2V554.6Z" class="g0_16"/>
<path fill-rule="evenodd" d="M330.7,554.6h46v17.7h-46V554.6Z" class="g0_16"/>
<path fill-rule="evenodd" d="M376.7,554.6h9.2v17.7h-9.2V554.6Z" class="g0_16"/>
<path fill-rule="evenodd" d="M385.9,554.6h9.2v17.7h-9.2V554.6Z" class="g0_16"/>
<path fill-rule="evenodd" d="M395.1,554.6h9.2v17.7h-9.2V554.6Z" class="g0_16"/>
<path fill-rule="evenodd" d="M404.3,554.6h9.2v17.7h-9.2V554.6Z" class="g0_16"/>
<path fill-rule="evenodd" d="M413.5,554.6h9.2v17.7h-9.2V554.6Z" class="g0_16"/>
<path fill-rule="evenodd" d="M422.7,554.6h9.2v17.7h-9.2V554.6Z" class="g0_16"/>
<path fill-rule="evenodd" d="M110,572.4H825v17.7H110V572.4Z" class="g0_16"/>
<path fill-rule="evenodd" d="M266.3,572.4h27.6v17.7H266.3V572.4Z" class="g0_16"/>
<path fill-rule="evenodd" d="M110,590.1H825v17.7H110V590.1Z" class="g0_16"/>
<path fill-rule="evenodd" d="M220.3,590.1H248v17.7H220.3V590.1Z" class="g0_16"/>
<path fill-rule="evenodd" d="M257.1,590.1h9.2v17.7h-9.2V590.1Z" class="g0_16"/>
<path fill-rule="evenodd" d="M284.7,590.1h9.2v17.7h-9.2V590.1Z" class="g0_16"/>
<path fill-rule="evenodd" d="M303.1,590.1h9.3v17.7h-9.3V590.1Z" class="g0_16"/>
<path fill-rule="evenodd" d="M312.4,590.1h9.1v17.7h-9.1V590.1Z" class="g0_16"/>
<path fill-rule="evenodd" d="M349.1,590.1h18.4v17.7H349.1V590.1Z" class="g0_16"/>
<path fill-rule="evenodd" d="M376.7,590.1h9.2v17.7h-9.2V590.1Z" class="g0_16"/>
<path fill-rule="evenodd" d="M395.1,590.1h9.2v17.7h-9.2V590.1Z" class="g0_16"/>
<path fill-rule="evenodd" d="M413.5,590.1h9.2v17.7h-9.2V590.1Z" class="g0_16"/>
<path fill-rule="evenodd" d="M487.1,590.1h9.2v17.7h-9.2V590.1Z" class="g0_16"/>
<path fill-rule="evenodd" d="M514.7,590.1h9.2v17.7h-9.2V590.1Z" class="g0_16"/>
<path fill-rule="evenodd" d="M533,590.1h9.3v17.7H533V590.1Z" class="g0_16"/>
<path fill-rule="evenodd" d="M551.5,590.1h9.2v17.7h-9.2V590.1Z" class="g0_16"/>
<path fill-rule="evenodd" d="M560.7,590.1h9.2v17.7h-9.2V590.1Z" class="g0_16"/>
<path fill-rule="evenodd" d="M588.3,590.1h18.4v17.7H588.3V590.1Z" class="g0_16"/>
<path fill-rule="evenodd" d="M606.7,590.1h9.1v17.7h-9.1V590.1Z" class="g0_16"/>
<path fill-rule="evenodd" d="M110,607.9H825v17.7H110V607.9Z" class="g0_16"/>
<path fill-rule="evenodd" d="M321.5,607.9h9.2v17.7h-9.2V607.9Z" class="g0_16"/>
<path fill-rule="evenodd" d="M330.7,607.9h46v17.7h-46V607.9Z" class="g0_16"/>
<path fill-rule="evenodd" d="M376.7,607.9h9.2v17.7h-9.2V607.9Z" class="g0_16"/>
<path fill-rule="evenodd" d="M385.9,607.9h27.6v17.7H385.9V607.9Z" class="g0_16"/>
<path fill-rule="evenodd" d="M413.5,607.9h9.2v17.7h-9.2V607.9Z" class="g0_16"/>
<path fill-rule="evenodd" d="M422.7,607.9h9.2v17.7h-9.2V607.9Z" class="g0_16"/>
<path fill-rule="evenodd" d="M110,625.7H825v17.7H110V625.7Z" class="g0_16"/>
<path fill-rule="evenodd" d="M284.7,625.7h9.2v17.7h-9.2V625.7Z" class="g0_16"/>
<path fill-rule="evenodd" d="M293.9,625.7h82.8v17.7H293.9V625.7Z" class="g0_16"/>
<path fill-rule="evenodd" d="M376.7,625.7h18.4v17.7H376.7V625.7Z" class="g0_16"/>
<path fill-rule="evenodd" d="M395.1,625.7h9.2v17.7h-9.2V625.7Z" class="g0_16"/>
<path fill-rule="evenodd" d="M110,643.5H825v17.7H110V643.5Z" class="g0_16"/>
<path fill-rule="evenodd" d="M183.6,643.5h9.1v17.7h-9.1V643.5Z" class="g0_16"/>
<path fill-rule="evenodd" d="M110,661.3H825V679H110V661.3Z" class="g0_16"/>
<path fill-rule="evenodd" d="M248,661.3h9.1V679H248V661.3Z" class="g0_16"/>
<path fill-rule="evenodd" d="M257.1,661.3h73.6V679H257.1V661.3Z" class="g0_16"/>
<path fill-rule="evenodd" d="M330.7,661.3h18.4V679H330.7V661.3Z" class="g0_16"/>
<path fill-rule="evenodd" d="M349.1,661.3h9.2V679h-9.2V661.3Z" class="g0_16"/>
<path fill-rule="evenodd" d="M110,679.1H825v17.7H110V679.1Z" class="g0_16"/>
<path fill-rule="evenodd" d="M146.7,679.1H156v17.7h-9.3V679.1Z" class="g0_16"/>
<path fill-rule="evenodd" d="M110,696.8H825v17.7H110V696.8Z" class="g0_16"/>
<path fill-rule="evenodd" d="M110,696.8h9.2v17.7H110V696.8Z" class="g0_16"/>
<path fill-rule="evenodd" d="M110,714.6H825v43.7H110V714.6Z" class="g1_16"/>
<path fill-rule="evenodd" d="M110,758.4H825v43.7H110V758.4Z" class="g1_16"/>
<path fill-rule="evenodd" d="M110,802.1H825v17.7H110V802.1Z" class="g0_16"/>
<path fill-rule="evenodd" d="M110,819.9H825v17.7H110V819.9Z" class="g0_16"/>
<path fill-rule="evenodd" d="M110,837.7H825v17.7H110V837.7Z" class="g0_16"/>
<path fill-rule="evenodd" d="M110,855.5H825v17.7H110V855.5Z" class="g0_16"/>
<path fill-rule="evenodd" d="M110,873.2H825v17.7H110V873.2Z" class="g0_16"/>
<path fill-rule="evenodd" d="M110,891H825v17.7H110V891Z" class="g0_16"/>
<path fill-rule="evenodd" d="M110,908.8H825v17.7H110V908.8Z" class="g0_16"/>
<path fill-rule="evenodd" d="M110,926.6H825v17.7H110V926.6Z" class="g0_16"/>
</svg>