<?xml version="1.0" encoding="UTF-8" standalone="no"?>
<!DOCTYPE svg PUBLIC "-//W3C//DTD SVG 1.1//EN"
"http://www.w3.org/Graphics/SVG/1.1/DTD/svg11.dtd">
<svg viewBox="0 0 935 1210" version="1.1" xmlns="http://www.w3.org/2000/svg" xmlns:xlink="http://www.w3.org/1999/xlink">
<defs>
<style type="text/css"><![CDATA[
.g0_24{
fill: #F4F4F4;
}
.g1_24{
fill: #FDFDFD;
}
]]></style>
</defs>
<path fill-rule="evenodd" d="M110,110H825v17.7H110V110Z" class="g0_24"/>
<path fill-rule="evenodd" d="M110,110h18.3v17.7H110V110Z" class="g0_24"/>
<path fill-rule="evenodd" d="M110,127.7H825v17.7H110V127.7Z" class="g0_24"/>
<path fill-rule="evenodd" d="M110,127.7h9.2v17.7H110V127.7Z" class="g0_24"/>
<path fill-rule="evenodd" d="M119.2,127.7h9.1v17.7h-9.1V127.7Z" class="g0_24"/>
<path fill-rule="evenodd" d="M128.3,127.7h9.3v17.7h-9.3V127.7Z" class="g0_24"/>
<path fill-rule="evenodd" d="M137.6,127.7H156v17.7H137.6V127.7Z" class="g0_24"/>
<path fill-rule="evenodd" d="M156,127.7h9.2v17.7H156V127.7Z" class="g0_24"/>
<path fill-rule="evenodd" d="M165.2,127.7h64.3v17.7H165.2V127.7Z" class="g0_24"/>
<path fill-rule="evenodd" d="M229.5,127.7h9.2v17.7h-9.2V127.7Z" class="g0_24"/>
<path fill-rule="evenodd" d="M238.7,127.7h18.4v17.7H238.7V127.7Z" class="g0_24"/>
<path fill-rule="evenodd" d="M257.1,127.7h9.2v17.7h-9.2V127.7Z" class="g0_24"/>
<path fill-rule="evenodd" d="M266.3,127.7h64.4v17.7H266.3V127.7Z" class="g0_24"/>
<path fill-rule="evenodd" d="M330.7,127.7h9.2v17.7h-9.2V127.7Z" class="g0_24"/>
<path fill-rule="evenodd" d="M339.9,127.7h27.6v17.7H339.9V127.7Z" class="g0_24"/>
<path fill-rule="evenodd" d="M367.5,127.7h9.2v17.7h-9.2V127.7Z" class="g0_24"/>
<path fill-rule="evenodd" d="M376.7,127.7h27.6v17.7H376.7V127.7Z" class="g0_24"/>
<path fill-rule="evenodd" d="M404.3,127.7h9.2v17.7h-9.2V127.7Z" class="g0_24"/>
<path fill-rule="evenodd" d="M413.5,127.7h46v17.7h-46V127.7Z" class="g0_24"/>
<path fill-rule="evenodd" d="M459.5,127.7h9.1v17.7h-9.1V127.7Z" class="g0_24"/>
<path fill-rule="evenodd" d="M468.6,127.7H533v17.7H468.6V127.7Z" class="g0_24"/>
<path fill-rule="evenodd" d="M533,127.7h9.3v17.7H533V127.7Z" class="g0_24"/>
<path fill-rule="evenodd" d="M542.3,127.7h64.4v17.7H542.3V127.7Z" class="g0_24"/>
<path fill-rule="evenodd" d="M606.7,127.7h9.1v17.7h-9.1V127.7Z" class="g0_24"/>
<path fill-rule="evenodd" d="M615.8,127.7H625v17.7h-9.2V127.7Z" class="g0_24"/>
<path fill-rule="evenodd" d="M625,127.7h9.3v17.7H625V127.7Z" class="g0_24"/>
<path fill-rule="evenodd" d="M634.3,127.7h18.4v17.7H634.3V127.7Z" class="g0_24"/>
<path fill-rule="evenodd" d="M652.7,127.7h9.1v17.7h-9.1V127.7Z" class="g0_24"/>
<path fill-rule="evenodd" d="M661.8,127.7h27.6v17.7H661.8V127.7Z" class="g0_24"/>
<path fill-rule="evenodd" d="M110,145.5H825v17.7H110V145.5Z" class="g0_24"/>
<path fill-rule="evenodd" d="M110,145.5h9.2v17.7H110V145.5Z" class="g0_24"/>
<path fill-rule="evenodd" d="M119.2,145.5h18.4v17.7H119.2V145.5Z" class="g0_24"/>
<path fill-rule="evenodd" d="M110,163.3H825V181H110V163.3Z" class="g0_24"/>
<path fill-rule="evenodd" d="M110,163.3h46V181H110V163.3Z" class="g0_24"/>
<path fill-rule="evenodd" d="M165.2,163.3h55.1V181H165.2V163.3Z" class="g0_24"/>
<path fill-rule="evenodd" d="M220.3,163.3h9.2V181h-9.2V163.3Z" class="g0_24"/>
<path fill-rule="evenodd" d="M110,181.1H825v17.7H110V181.1Z" class="g0_24"/>
<path fill-rule="evenodd" d="M110,181.1h46v17.7H110V181.1Z" class="g0_24"/>
<path fill-rule="evenodd" d="M165.2,181.1H404.3v17.7H165.2V181.1Z" class="g0_24"/>
<path fill-rule="evenodd" d="M404.3,181.1h9.2v17.7h-9.2V181.1Z" class="g0_24"/>
<path fill-rule="evenodd" d="M110,198.9H825v17.7H110V198.9Z" class="g0_24"/>
<path fill-rule="evenodd" d="M110,198.9h46v17.7H110V198.9Z" class="g0_24"/>
<path fill-rule="evenodd" d="M165.2,198.9H266.3v17.7H165.2V198.9Z" class="g0_24"/>
<path fill-rule="evenodd" d="M266.3,198.9h9.2v17.7h-9.2V198.9Z" class="g0_24"/>
<path fill-rule="evenodd" d="M110,216.6H825v17.8H110V216.6Z" class="g0_24"/>
<path fill-rule="evenodd" d="M110,216.6h46v17.8H110V216.6Z" class="g0_24"/>
<path fill-rule="evenodd" d="M165.2,216.6H266.3v17.8H165.2V216.6Z" class="g0_24"/>
<path fill-rule="evenodd" d="M266.3,216.6h9.2v17.8h-9.2V216.6Z" class="g0_24"/>
<path fill-rule="evenodd" d="M110,234.4H825v17.8H110V234.4Z" class="g0_24"/>
<path fill-rule="evenodd" d="M110,234.4h82.7v17.8H110V234.4Z" class="g0_24"/>
<path fill-rule="evenodd" d="M110,252.2H825V270H110V252.2Z" class="g0_24"/>
<path fill-rule="evenodd" d="M110,252.2h9.2V270H110V252.2Z" class="g0_24"/>
<path fill-rule="evenodd" d="M110,270H825v17.8H110V270Z" class="g0_24"/>
<path fill-rule="evenodd" d="M146.7,270h46v17.8h-46V270Z" class="g0_24"/>
<path fill-rule="evenodd" d="M110,287.8H825v17.8H110V287.8Z" class="g0_24"/>
<path fill-rule="evenodd" d="M146.7,287.8H156v17.8h-9.3V287.8Z" class="g0_24"/>
<path fill-rule="evenodd" d="M110,305.6H825v17.7H110V305.6Z" class="g0_24"/>
<path fill-rule="evenodd" d="M183.6,305.6h55.1v17.7H183.6V305.6Z" class="g0_24"/>
<path fill-rule="evenodd" d="M248,305.6h36.7v17.7H248V305.6Z" class="g0_24"/>
<path fill-rule="evenodd" d="M330.7,305.6h9.2v17.7h-9.2V305.6Z" class="g0_24"/>
<path fill-rule="evenodd" d="M339.9,305.6h55.2v17.7H339.9V305.6Z" class="g0_24"/>
<path fill-rule="evenodd" d="M395.1,305.6h18.4v17.7H395.1V305.6Z" class="g0_24"/>
<path fill-rule="evenodd" d="M459.5,305.6h9.1v17.7h-9.1V305.6Z" class="g0_24"/>
<path fill-rule="evenodd" d="M110,323.4H825v17.7H110V323.4Z" class="g0_24"/>
<path fill-rule="evenodd" d="M183.6,323.4h9.1v17.7h-9.1V323.4Z" class="g0_24"/>
<path fill-rule="evenodd" d="M110,341.2H825v17.7H110V341.2Z" class="g0_24"/>
<path fill-rule="evenodd" d="M220.3,341.2h36.8v17.7H220.3V341.2Z" class="g0_24"/>
<path fill-rule="evenodd" d="M339.9,341.2h9.2v17.7h-9.2V341.2Z" class="g0_24"/>
<path fill-rule="evenodd" d="M358.3,341.2h36.8v17.7H358.3V341.2Z" class="g0_24"/>
<path fill-rule="evenodd" d="M395.1,341.2h9.2v17.7h-9.2V341.2Z" class="g0_24"/>
<path fill-rule="evenodd" d="M110,359H825v17.7H110V359Z" class="g0_24"/>
<path fill-rule="evenodd" d="M284.7,359h9.2v17.7h-9.2V359Z" class="g0_24"/>
<path fill-rule="evenodd" d="M293.9,359h82.8v17.7H293.9V359Z" class="g0_24"/>
<path fill-rule="evenodd" d="M376.7,359h9.2v17.7h-9.2V359Z" class="g0_24"/>
<path fill-rule="evenodd" d="M385.9,359h55.2v17.7H385.9V359Z" class="g0_24"/>
<path fill-rule="evenodd" d="M441.1,359h9.2v17.7h-9.2V359Z" class="g0_24"/>
<path fill-rule="evenodd" d="M450.3,359h64.4v17.7H450.3V359Z" class="g0_24"/>
<path fill-rule="evenodd" d="M514.7,359h9.2v17.7h-9.2V359Z" class="g0_24"/>
<path fill-rule="evenodd" d="M523.9,359H533v17.7h-9.1V359Z" class="g0_24"/>
<path fill-rule="evenodd" d="M533,359h9.3v17.7H533V359Z" class="g0_24"/>
<path fill-rule="evenodd" d="M542.3,359h9.2v17.7h-9.2V359Z" class="g0_24"/>
<path fill-rule="evenodd" d="M551.5,359h9.2v17.7h-9.2V359Z" class="g0_24"/>
<path fill-rule="evenodd" d="M560.7,359h9.2v17.7h-9.2V359Z" class="g0_24"/>
<path fill-rule="evenodd" d="M110,376.7H825v17.8H110V376.7Z" class="g0_24"/>
<path fill-rule="evenodd" d="M220.3,376.7H248v17.8H220.3V376.7Z" class="g0_24"/>
<path fill-rule="evenodd" d="M257.1,376.7h9.2v17.8h-9.2V376.7Z" class="g0_24"/>
<path fill-rule="evenodd" d="M266.3,376.7h27.6v17.8H266.3V376.7Z" class="g0_24"/>
<path fill-rule="evenodd" d="M321.5,376.7h9.2v17.8h-9.2V376.7Z" class="g0_24"/>
<path fill-rule="evenodd" d="M339.9,376.7h9.2v17.8h-9.2V376.7Z" class="g0_24"/>
<path fill-rule="evenodd" d="M349.1,376.7h9.2v17.8h-9.2V376.7Z" class="g0_24"/>
<path fill-rule="evenodd" d="M385.9,376.7h18.4v17.8H385.9V376.7Z" class="g0_24"/>
<path fill-rule="evenodd" d="M413.5,376.7h27.6v17.8H413.5V376.7Z" class="g0_24"/>
<path fill-rule="evenodd" d="M441.1,376.7h9.2v17.8h-9.2V376.7Z" class="g0_24"/>
<path fill-rule="evenodd" d="M468.6,376.7h18.5v17.8H468.6V376.7Z" class="g0_24"/>
<path fill-rule="evenodd" d="M487.1,376.7h9.2v17.8h-9.2V376.7Z" class="g0_24"/>
<path fill-rule="evenodd" d="M110,394.5H825v17.8H110V394.5Z" class="g0_24"/>
<path fill-rule="evenodd" d="M220.3,394.5h9.2v17.8h-9.2V394.5Z" class="g0_24"/>
<path fill-rule="evenodd" d="M110,412.3H825V430H110V412.3Z" class="g0_24"/>
<path fill-rule="evenodd" d="M257.1,412.3h27.6V430H257.1V412.3Z" class="g0_24"/>
<path fill-rule="evenodd" d="M293.9,412.3h9.2V430h-9.2V412.3Z" class="g0_24"/>
<path fill-rule="evenodd" d="M303.1,412.3h27.6V430H303.1V412.3Z" class="g0_24"/>
<path fill-rule="evenodd" d="M358.3,412.3h9.2V430h-9.2V412.3Z" class="g0_24"/>
<path fill-rule="evenodd" d="M376.7,412.3h9.2V430h-9.2V412.3Z" class="g0_24"/>
<path fill-rule="evenodd" d="M385.9,412.3h9.2V430h-9.2V412.3Z" class="g0_24"/>
<path fill-rule="evenodd" d="M422.7,412.3h18.4V430H422.7V412.3Z" class="g0_24"/>
<path fill-rule="evenodd" d="M450.3,412.3h27.6V430H450.3V412.3Z" class="g0_24"/>
<path fill-rule="evenodd" d="M477.9,412.3h9.2V430h-9.2V412.3Z" class="g0_24"/>
<path fill-rule="evenodd" d="M505.5,412.3h18.4V430H505.5V412.3Z" class="g0_24"/>
<path fill-rule="evenodd" d="M523.9,412.3H533V430h-9.1V412.3Z" class="g0_24"/>
<path fill-rule="evenodd" d="M110,430.1H825v17.7H110V430.1Z" class="g0_24"/>
<path fill-rule="evenodd" d="M257.1,430.1h9.2v17.7h-9.2V430.1Z" class="g0_24"/>
<path fill-rule="evenodd" d="M110,447.9H825v17.7H110V447.9Z" class="g0_24"/>
<path fill-rule="evenodd" d="M110,465.7H825v17.7H110V465.7Z" class="g0_24"/>
<path fill-rule="evenodd" d="M293.9,465.7h18.5v17.7H293.9V465.7Z" class="g0_24"/>
<path fill-rule="evenodd" d="M321.5,465.7h9.2v17.7h-9.2V465.7Z" class="g0_24"/>
<path fill-rule="evenodd" d="M349.1,465.7h18.4v17.7H349.1V465.7Z" class="g0_24"/>
<path fill-rule="evenodd" d="M395.1,465.7h18.4v17.7H395.1V465.7Z" class="g0_24"/>
<path fill-rule="evenodd" d="M441.1,465.7h9.2v17.7h-9.2V465.7Z" class="g0_24"/>
<path fill-rule="evenodd" d="M477.9,465.7h18.4v17.7H477.9V465.7Z" class="g0_24"/>
<path fill-rule="evenodd" d="M505.5,465.7h9.2v17.7h-9.2V465.7Z" class="g0_24"/>
<path fill-rule="evenodd" d="M514.7,465.7h9.2v17.7h-9.2V465.7Z" class="g0_24"/>
<path fill-rule="evenodd" d="M110,483.5H825v17.7H110V483.5Z" class="g0_24"/>
<path fill-rule="evenodd" d="M293.9,483.5h9.2v17.7h-9.2V483.5Z" class="g0_24"/>
<path fill-rule="evenodd" d="M110,501.2H825v17.7H110V501.2Z" class="g0_24"/>
<path fill-rule="evenodd" d="M404.3,501.2h9.2v17.7h-9.2V501.2Z" class="g0_24"/>
<path fill-rule="evenodd" d="M422.7,501.2h45.9v17.7H422.7V501.2Z" class="g0_24"/>
<path fill-rule="evenodd" d="M468.6,501.2h9.3v17.7h-9.3V501.2Z" class="g0_24"/>
<path fill-rule="evenodd" d="M110,519H825v17.7H110V519Z" class="g0_24"/>
<path fill-rule="evenodd" d="M330.7,519h46v17.7h-46V519Z" class="g0_24"/>
<path fill-rule="evenodd" d="M376.7,519h9.2v17.7h-9.2V519Z" class="g0_24"/>
<path fill-rule="evenodd" d="M110,536.8H825v17.7H110V536.8Z" class="g0_24"/>
<path fill-rule="evenodd" d="M293.9,536.8h9.2v17.7h-9.2V536.8Z" class="g0_24"/>
<path fill-rule="evenodd" d="M110,554.6H825v17.7H110V554.6Z" class="g0_24"/>
<path fill-rule="evenodd" d="M110,572.4H825v17.7H110V572.4Z" class="g0_24"/>
<path fill-rule="evenodd" d="M257.1,572.4h9.2v17.7h-9.2V572.4Z" class="g0_24"/>
<path fill-rule="evenodd" d="M110,590.1H825v17.7H110V590.1Z" class="g0_24"/>
<path fill-rule="evenodd" d="M257.1,590.1h18.4v17.7H257.1V590.1Z" class="g0_24"/>
<path fill-rule="evenodd" d="M284.7,590.1h9.2v17.7h-9.2V590.1Z" class="g0_24"/>
<path fill-rule="evenodd" d="M358.3,590.1h9.2v17.7h-9.2V590.1Z" class="g0_24"/>
<path fill-rule="evenodd" d="M110,607.9H825v17.7H110V607.9Z" class="g0_24"/>
<path fill-rule="evenodd" d="M257.1,607.9h9.2v17.7h-9.2V607.9Z" class="g0_24"/>
<path fill-rule="evenodd" d="M110,625.7H825v17.7H110V625.7Z" class="g0_24"/>
<path fill-rule="evenodd" d="M358.3,625.7h9.2v17.7h-9.2V625.7Z" class="g0_24"/>
<path fill-rule="evenodd" d="M367.5,625.7h46v17.7h-46V625.7Z" class="g0_24"/>
<path fill-rule="evenodd" d="M413.5,625.7h9.2v17.7h-9.2V625.7Z" class="g0_24"/>
<path fill-rule="evenodd" d="M422.7,625.7h9.2v17.7h-9.2V625.7Z" class="g0_24"/>
<path fill-rule="evenodd" d="M431.9,625.7h18.4v17.7H431.9V625.7Z" class="g0_24"/>
<path fill-rule="evenodd" d="M450.3,625.7h9.2v17.7h-9.2V625.7Z" class="g0_24"/>
<path fill-rule="evenodd" d="M468.6,625.7h9.3v17.7h-9.3V625.7Z" class="g0_24"/>
<path fill-rule="evenodd" d="M487.1,625.7h9.2v17.7h-9.2V625.7Z" class="g0_24"/>
<path fill-rule="evenodd" d="M496.3,625.7h9.2v17.7h-9.2V625.7Z" class="g0_24"/>
<path fill-rule="evenodd" d="M110,643.5H825v17.7H110V643.5Z" class="g0_24"/>
<path fill-rule="evenodd" d="M257.1,643.5h9.2v17.7h-9.2V643.5Z" class="g0_24"/>
<path fill-rule="evenodd" d="M110,661.3H825V679H110V661.3Z" class="g0_24"/>
<path fill-rule="evenodd" d="M330.7,661.3h9.2V679h-9.2V661.3Z" class="g0_24"/>
<path fill-rule="evenodd" d="M349.1,661.3h36.8V679H349.1V661.3Z" class="g0_24"/>
<path fill-rule="evenodd" d="M385.9,661.3h9.2V679h-9.2V661.3Z" class="g0_24"/>
<path fill-rule="evenodd" d="M110,679.1H825v17.7H110V679.1Z" class="g0_24"/>
<path fill-rule="evenodd" d="M220.3,679.1h9.2v17.7h-9.2V679.1Z" class="g0_24"/>
<path fill-rule="evenodd" d="M110,696.8H825v17.7H110V696.8Z" class="g0_24"/>
<path fill-rule="evenodd" d="M284.7,696.8h9.2v17.7h-9.2V696.8Z" class="g0_24"/>
<path fill-rule="evenodd" d="M293.9,696.8h64.4v17.7H293.9V696.8Z" class="g0_24"/>
<path fill-rule="evenodd" d="M358.3,696.8h18.4v17.7H358.3V696.8Z" class="g0_24"/>
<path fill-rule="evenodd" d="M376.7,696.8h9.2v17.7h-9.2V696.8Z" class="g0_24"/>
<path fill-rule="evenodd" d="M110,714.6H825v17.7H110V714.6Z" class="g0_24"/>
<path fill-rule="evenodd" d="M183.6,714.6h9.1v17.7h-9.1V714.6Z" class="g0_24"/>
<path fill-rule="evenodd" d="M110,732.4H825v17.7H110V732.4Z" class="g0_24"/>
<path fill-rule="evenodd" d="M146.7,732.4H156v17.7h-9.3V732.4Z" class="g0_24"/>
<path fill-rule="evenodd" d="M110,750.2H825v17.7H110V750.2Z" class="g0_24"/>
<path fill-rule="evenodd" d="M110,750.2h9.2v17.7H110V750.2Z" class="g0_24"/>
<path fill-rule="evenodd" d="M110,768H825v43.7H110V768Z" class="g1_24"/>
<path fill-rule="evenodd" d="M110,811.7H825v43.7H110V811.7Z" class="g1_24"/>
<path fill-rule="evenodd" d="M110,855.5H825v17.7H110V855.5Z" class="g0_24"/>
<path fill-rule="evenodd" d="M110,873.2H825v17.7H110V873.2Z" class="g0_24"/>
<path fill-rule="evenodd" d="M110,891H825v17.7H110V891Z" class="g0_24"/>
<path fill-rule="evenodd" d="M110,908.8H825v17.7H110V908.8Z" class="g0_24"/>
<path fill-rule="evenodd" d="M110,926.6H825v29.2H110V926.6Z" class="g0_24"/>
</svg>