<?xml version="1.0" encoding="UTF-8" standalone="no"?>
<!DOCTYPE svg PUBLIC "-//W3C//DTD SVG 1.1//EN"
"http://www.w3.org/Graphics/SVG/1.1/DTD/svg11.dtd">
<svg viewBox="0 0 935 1210" version="1.1" xmlns="http://www.w3.org/2000/svg" xmlns:xlink="http://www.w3.org/1999/xlink">
<defs>
<style type="text/css"><![CDATA[
.g0_10{
fill: #F4F4F4;
}
.g1_10{
fill: #FDFDFD;
}
]]></style>
</defs>
<path fill-rule="evenodd" d="M110,110H825v11.5H110V110Z" class="g0_10"/>
<path fill-rule="evenodd" d="M110,110h11.9v11.5H110V110Z" class="g0_10"/>
<path fill-rule="evenodd" d="M110,121.5H825v11.6H110V121.5Z" class="g0_10"/>
<path fill-rule="evenodd" d="M110,121.5h6v11.6h-6V121.5Z" class="g0_10"/>
<path fill-rule="evenodd" d="M116,121.5h5.9v11.6H116V121.5Z" class="g0_10"/>
<path fill-rule="evenodd" d="M121.9,121.5h6v11.6h-6V121.5Z" class="g0_10"/>
<path fill-rule="evenodd" d="M127.9,121.5h12v11.6h-12V121.5Z" class="g0_10"/>
<path fill-rule="evenodd" d="M139.9,121.5h5.9v11.6h-5.9V121.5Z" class="g0_10"/>
<path fill-rule="evenodd" d="M145.8,121.5h41.9v11.6H145.8V121.5Z" class="g0_10"/>
<path fill-rule="evenodd" d="M187.7,121.5h5.9v11.6h-5.9V121.5Z" class="g0_10"/>
<path fill-rule="evenodd" d="M193.6,121.5h12v11.6h-12V121.5Z" class="g0_10"/>
<path fill-rule="evenodd" d="M205.6,121.5h6v11.6h-6V121.5Z" class="g0_10"/>
<path fill-rule="evenodd" d="M211.6,121.5h41.9v11.6H211.6V121.5Z" class="g0_10"/>
<path fill-rule="evenodd" d="M253.5,121.5h5.9v11.6h-5.9V121.5Z" class="g0_10"/>
<path fill-rule="evenodd" d="M259.4,121.5h18v11.6h-18V121.5Z" class="g0_10"/>
<path fill-rule="evenodd" d="M277.4,121.5h5.9v11.6h-5.9V121.5Z" class="g0_10"/>
<path fill-rule="evenodd" d="M283.3,121.5h18v11.6h-18V121.5Z" class="g0_10"/>
<path fill-rule="evenodd" d="M301.3,121.5h5.9v11.6h-5.9V121.5Z" class="g0_10"/>
<path fill-rule="evenodd" d="M307.2,121.5H373v11.6H307.2V121.5Z" class="g0_10"/>
<path fill-rule="evenodd" d="M110,133.1H825v11.5H110V133.1Z" class="g0_10"/>
<path fill-rule="evenodd" d="M110,133.1h6v11.5h-6V133.1Z" class="g0_10"/>
<path fill-rule="evenodd" d="M116,133.1h11.9v11.5H116V133.1Z" class="g0_10"/>
<path fill-rule="evenodd" d="M110,144.6H825v11.5H110V144.6Z" class="g0_10"/>
<path fill-rule="evenodd" d="M110,144.6h29.9v11.5H110V144.6Z" class="g0_10"/>
<path fill-rule="evenodd" d="M145.8,144.6h35.9v11.5H145.8V144.6Z" class="g0_10"/>
<path fill-rule="evenodd" d="M181.7,144.6h6v11.5h-6V144.6Z" class="g0_10"/>
<path fill-rule="evenodd" d="M110,156.2H825v11.5H110V156.2Z" class="g0_10"/>
<path fill-rule="evenodd" d="M110,156.2h29.9v11.5H110V156.2Z" class="g0_10"/>
<path fill-rule="evenodd" d="M110,167.7H825v11.6H110V167.7Z" class="g0_10"/>
<path fill-rule="evenodd" d="M110,167.7h6v11.6h-6V167.7Z" class="g0_10"/>
<path fill-rule="evenodd" d="M110,179.3H825v11.5H110V179.3Z" class="g0_10"/>
<path fill-rule="evenodd" d="M133.9,179.3h35.8v11.5H133.9V179.3Z" class="g0_10"/>
<path fill-rule="evenodd" d="M175.7,179.3h35.9v11.5H175.7V179.3Z" class="g0_10"/>
<path fill-rule="evenodd" d="M217.6,179.3h23.9v11.5H217.6V179.3Z" class="g0_10"/>
<path fill-rule="evenodd" d="M271.4,179.3h11.9v11.5H271.4V179.3Z" class="g0_10"/>
<path fill-rule="evenodd" d="M110,190.9H825v11.5H110V190.9Z" class="g0_10"/>
<path fill-rule="evenodd" d="M133.9,190.9h6v11.5h-6V190.9Z" class="g0_10"/>
<path fill-rule="evenodd" d="M110,202.4H825V214H110V202.4Z" class="g0_10"/>
<path fill-rule="evenodd" d="M110,214H825v11.5H110V214Z" class="g0_10"/>
<path fill-rule="evenodd" d="M157.8,214h17.9v11.5H157.8V214Z" class="g0_10"/>
<path fill-rule="evenodd" d="M223.6,214h5.9v11.5h-5.9V214Z" class="g0_10"/>
<path fill-rule="evenodd" d="M235.5,214h23.9v11.5H235.5V214Z" class="g0_10"/>
<path fill-rule="evenodd" d="M373,214h6v11.5h-6V214Z" class="g0_10"/>
<path fill-rule="evenodd" d="M110,225.6H825v11.5H110V225.6Z" class="g0_10"/>
<path fill-rule="evenodd" d="M157.8,225.6h17.9v11.5H157.8V225.6Z" class="g0_10"/>
<path fill-rule="evenodd" d="M253.5,225.6h5.9v11.5h-5.9V225.6Z" class="g0_10"/>
<path fill-rule="evenodd" d="M265.4,225.6h6v11.5h-6V225.6Z" class="g0_10"/>
<path fill-rule="evenodd" d="M295.3,225.6h6v11.5h-6V225.6Z" class="g0_10"/>
<path fill-rule="evenodd" d="M307.2,225.6h6.1v11.5h-6.1V225.6Z" class="g0_10"/>
<path fill-rule="evenodd" d="M313.3,225.6h5.9v11.5h-5.9V225.6Z" class="g0_10"/>
<path fill-rule="evenodd" d="M110,237.1H825v11.5H110V237.1Z" class="g0_10"/>
<path fill-rule="evenodd" d="M199.6,237.1h6v11.5h-6V237.1Z" class="g0_10"/>
<path fill-rule="evenodd" d="M205.6,237.1h53.8v11.5H205.6V237.1Z" class="g0_10"/>
<path fill-rule="evenodd" d="M259.4,237.1h6v11.5h-6V237.1Z" class="g0_10"/>
<path fill-rule="evenodd" d="M265.4,237.1h35.9v11.5H265.4V237.1Z" class="g0_10"/>
<path fill-rule="evenodd" d="M301.3,237.1h5.9v11.5h-5.9V237.1Z" class="g0_10"/>
<path fill-rule="evenodd" d="M307.2,237.1h23.9v11.5H307.2V237.1Z" class="g0_10"/>
<path fill-rule="evenodd" d="M331.1,237.1h6.1v11.5h-6.1V237.1Z" class="g0_10"/>
<path fill-rule="evenodd" d="M337.2,237.1h17.9v11.5H337.2V237.1Z" class="g0_10"/>
<path fill-rule="evenodd" d="M355.1,237.1h6v11.5h-6V237.1Z" class="g0_10"/>
<path fill-rule="evenodd" d="M361.1,237.1h35.8v11.5H361.1V237.1Z" class="g0_10"/>
<path fill-rule="evenodd" d="M396.9,237.1H403v11.5h-6.1V237.1Z" class="g0_10"/>
<path fill-rule="evenodd" d="M403,237.1h5.9v11.5H403V237.1Z" class="g0_10"/>
<path fill-rule="evenodd" d="M408.9,237.1h11.9v11.5H408.9V237.1Z" class="g0_10"/>
<path fill-rule="evenodd" d="M110,248.6H825v11.6H110V248.6Z" class="g0_10"/>
<path fill-rule="evenodd" d="M181.7,248.6h6v11.6h-6V248.6Z" class="g0_10"/>
<path fill-rule="evenodd" d="M193.6,248.6h18v11.6h-18V248.6Z" class="g0_10"/>
<path fill-rule="evenodd" d="M211.6,248.6h6v11.6h-6V248.6Z" class="g0_10"/>
<path fill-rule="evenodd" d="M217.6,248.6h29.9v11.6H217.6V248.6Z" class="g0_10"/>
<path fill-rule="evenodd" d="M247.5,248.6h6v11.6h-6V248.6Z" class="g0_10"/>
<path fill-rule="evenodd" d="M295.3,248.6h6v11.6h-6V248.6Z" class="g0_10"/>
<path fill-rule="evenodd" d="M301.3,248.6h47.8v11.6H301.3V248.6Z" class="g0_10"/>
<path fill-rule="evenodd" d="M349.1,248.6H373v11.6H349.1V248.6Z" class="g0_10"/>
<path fill-rule="evenodd" d="M110,260.3H825v11.5H110V260.3Z" class="g0_10"/>
<path fill-rule="evenodd" d="M157.8,260.3h29.9v11.5H157.8V260.3Z" class="g0_10"/>
<path fill-rule="evenodd" d="M193.6,260.3h6v11.5h-6V260.3Z" class="g0_10"/>
<path fill-rule="evenodd" d="M199.6,260.3h24v11.5h-24V260.3Z" class="g0_10"/>
<path fill-rule="evenodd" d="M223.6,260.3h5.9v11.5h-5.9V260.3Z" class="g0_10"/>
<path fill-rule="evenodd" d="M110,271.8H825v11.5H110V271.8Z" class="g0_10"/>
<path fill-rule="evenodd" d="M157.8,271.8h6v11.5h-6V271.8Z" class="g0_10"/>
<path fill-rule="evenodd" d="M110,283.3H825v11.6H110V283.3Z" class="g0_10"/>
<path fill-rule="evenodd" d="M211.6,283.3h6v11.6h-6V283.3Z" class="g0_10"/>
<path fill-rule="evenodd" d="M217.6,283.3h53.8v11.6H217.6V283.3Z" class="g0_10"/>
<path fill-rule="evenodd" d="M271.4,283.3h6v11.6h-6V283.3Z" class="g0_10"/>
<path fill-rule="evenodd" d="M277.4,283.3H373v11.6H277.4V283.3Z" class="g0_10"/>
<path fill-rule="evenodd" d="M373,283.3h6v11.6h-6V283.3Z" class="g0_10"/>
<path fill-rule="evenodd" d="M379,283.3h12v11.6H379V283.3Z" class="g0_10"/>
<path fill-rule="evenodd" d="M391,283.3h5.9v11.6H391V283.3Z" class="g0_10"/>
<path fill-rule="evenodd" d="M396.9,283.3h18v11.6h-18V283.3Z" class="g0_10"/>
<path fill-rule="evenodd" d="M414.9,283.3h5.9v11.6h-5.9V283.3Z" class="g0_10"/>
<path fill-rule="evenodd" d="M420.8,283.3H546.4v11.6H420.8V283.3Z" class="g0_10"/>
<path fill-rule="evenodd" d="M546.4,283.3h11.9v11.6H546.4V283.3Z" class="g0_10"/>
<path fill-rule="evenodd" d="M558.3,283.3h6.1v11.6h-6.1V283.3Z" class="g0_10"/>
<path fill-rule="evenodd" d="M564.4,283.3h11.9v11.6H564.4V283.3Z" class="g0_10"/>
<path fill-rule="evenodd" d="M110,294.9H825v11.6H110V294.9Z" class="g0_10"/>
<path fill-rule="evenodd" d="M223.6,294.9h5.9v11.6h-5.9V294.9Z" class="g0_10"/>
<path fill-rule="evenodd" d="M229.5,294.9h53.8v11.6H229.5V294.9Z" class="g0_10"/>
<path fill-rule="evenodd" d="M283.3,294.9h6v11.6h-6V294.9Z" class="g0_10"/>
<path fill-rule="evenodd" d="M289.3,294.9h17.9v11.6H289.3V294.9Z" class="g0_10"/>
<path fill-rule="evenodd" d="M307.2,294.9h6.1v11.6h-6.1V294.9Z" class="g0_10"/>
<path fill-rule="evenodd" d="M313.3,294.9h29.8v11.6H313.3V294.9Z" class="g0_10"/>
<path fill-rule="evenodd" d="M343.1,294.9h6v11.6h-6V294.9Z" class="g0_10"/>
<path fill-rule="evenodd" d="M349.1,294.9H391v11.6H349.1V294.9Z" class="g0_10"/>
<path fill-rule="evenodd" d="M391,294.9h12v11.6H391V294.9Z" class="g0_10"/>
<path fill-rule="evenodd" d="M403,294.9h5.9v11.6H403V294.9Z" class="g0_10"/>
<path fill-rule="evenodd" d="M408.9,294.9h11.9v11.6H408.9V294.9Z" class="g0_10"/>
<path fill-rule="evenodd" d="M110,306.5H825V318H110V306.5Z" class="g0_10"/>
<path fill-rule="evenodd" d="M223.6,306.5h5.9V318h-5.9V306.5Z" class="g0_10"/>
<path fill-rule="evenodd" d="M229.5,306.5h53.8V318H229.5V306.5Z" class="g0_10"/>
<path fill-rule="evenodd" d="M283.3,306.5h6V318h-6V306.5Z" class="g0_10"/>
<path fill-rule="evenodd" d="M289.3,306.5h17.9V318H289.3V306.5Z" class="g0_10"/>
<path fill-rule="evenodd" d="M307.2,306.5h6.1V318h-6.1V306.5Z" class="g0_10"/>
<path fill-rule="evenodd" d="M313.3,306.5h47.8V318H313.3V306.5Z" class="g0_10"/>
<path fill-rule="evenodd" d="M361.1,306.5H367V318h-5.9V306.5Z" class="g0_10"/>
<path fill-rule="evenodd" d="M367,306.5h24V318H367V306.5Z" class="g0_10"/>
<path fill-rule="evenodd" d="M391,306.5h12V318H391V306.5Z" class="g0_10"/>
<path fill-rule="evenodd" d="M403,306.5h5.9V318H403V306.5Z" class="g0_10"/>
<path fill-rule="evenodd" d="M408.9,306.5h11.9V318H408.9V306.5Z" class="g0_10"/>
<path fill-rule="evenodd" d="M110,318H825v11.5H110V318Z" class="g0_10"/>
<path fill-rule="evenodd" d="M223.6,318h5.9v11.5h-5.9V318Z" class="g0_10"/>
<path fill-rule="evenodd" d="M229.5,318h53.8v11.5H229.5V318Z" class="g0_10"/>
<path fill-rule="evenodd" d="M283.3,318h6v11.5h-6V318Z" class="g0_10"/>
<path fill-rule="evenodd" d="M289.3,318h17.9v11.5H289.3V318Z" class="g0_10"/>
<path fill-rule="evenodd" d="M307.2,318h6.1v11.5h-6.1V318Z" class="g0_10"/>
<path fill-rule="evenodd" d="M313.3,318h41.8v11.5H313.3V318Z" class="g0_10"/>
<path fill-rule="evenodd" d="M355.1,318h6v11.5h-6V318Z" class="g0_10"/>
<path fill-rule="evenodd" d="M361.1,318H385v11.5H361.1V318Z" class="g0_10"/>
<path fill-rule="evenodd" d="M385,318h11.9v11.5H385V318Z" class="g0_10"/>
<path fill-rule="evenodd" d="M396.9,318H403v11.5h-6.1V318Z" class="g0_10"/>
<path fill-rule="evenodd" d="M403,318h11.9v11.5H403V318Z" class="g0_10"/>
<path fill-rule="evenodd" d="M110,329.6H825v11.6H110V329.6Z" class="g0_10"/>
<path fill-rule="evenodd" d="M223.6,329.6h5.9v11.6h-5.9V329.6Z" class="g0_10"/>
<path fill-rule="evenodd" d="M229.5,329.6h53.8v11.6H229.5V329.6Z" class="g0_10"/>
<path fill-rule="evenodd" d="M283.3,329.6h6v11.6h-6V329.6Z" class="g0_10"/>
<path fill-rule="evenodd" d="M289.3,329.6h17.9v11.6H289.3V329.6Z" class="g0_10"/>
<path fill-rule="evenodd" d="M307.2,329.6h6.1v11.6h-6.1V329.6Z" class="g0_10"/>
<path fill-rule="evenodd" d="M313.3,329.6h23.9v11.6H313.3V329.6Z" class="g0_10"/>
<path fill-rule="evenodd" d="M337.2,329.6h11.9v11.6H337.2V329.6Z" class="g0_10"/>
<path fill-rule="evenodd" d="M349.1,329.6h6v11.6h-6V329.6Z" class="g0_10"/>
<path fill-rule="evenodd" d="M355.1,329.6H367v11.6H355.1V329.6Z" class="g0_10"/>
<path fill-rule="evenodd" d="M110,341.2H825v11.5H110V341.2Z" class="g0_10"/>
<path fill-rule="evenodd" d="M193.6,341.2h6v11.5h-6V341.2Z" class="g0_10"/>
<path fill-rule="evenodd" d="M199.6,341.2h53.9v11.5H199.6V341.2Z" class="g0_10"/>
<path fill-rule="evenodd" d="M253.5,341.2h5.9v11.5h-5.9V341.2Z" class="g0_10"/>
<path fill-rule="evenodd" d="M259.4,341.2h275v11.5h-275V341.2Z" class="g0_10"/>
<path fill-rule="evenodd" d="M534.4,341.2h23.9v11.5H534.4V341.2Z" class="g0_10"/>
<path fill-rule="evenodd" d="M558.3,341.2h6.1v11.5h-6.1V341.2Z" class="g0_10"/>
<path fill-rule="evenodd" d="M564.4,341.2h11.9v11.5H564.4V341.2Z" class="g0_10"/>
<path fill-rule="evenodd" d="M110,352.7H825v11.5H110V352.7Z" class="g0_10"/>
<path fill-rule="evenodd" d="M223.6,352.7h5.9v11.5h-5.9V352.7Z" class="g0_10"/>
<path fill-rule="evenodd" d="M229.5,352.7h53.8v11.5H229.5V352.7Z" class="g0_10"/>
<path fill-rule="evenodd" d="M283.3,352.7h6v11.5h-6V352.7Z" class="g0_10"/>
<path fill-rule="evenodd" d="M289.3,352.7h35.9v11.5H289.3V352.7Z" class="g0_10"/>
<path fill-rule="evenodd" d="M325.2,352.7h5.9v11.5h-5.9V352.7Z" class="g0_10"/>
<path fill-rule="evenodd" d="M331.1,352.7h24v11.5h-24V352.7Z" class="g0_10"/>
<path fill-rule="evenodd" d="M355.1,352.7h6v11.5h-6V352.7Z" class="g0_10"/>
<path fill-rule="evenodd" d="M361.1,352.7H403v11.5H361.1V352.7Z" class="g0_10"/>
<path fill-rule="evenodd" d="M403,352.7h5.9v11.5H403V352.7Z" class="g0_10"/>
<path fill-rule="evenodd" d="M408.9,352.7h6v11.5h-6V352.7Z" class="g0_10"/>
<path fill-rule="evenodd" d="M414.9,352.7h12v11.5h-12V352.7Z" class="g0_10"/>
<path fill-rule="evenodd" d="M110,364.3H825v11.5H110V364.3Z" class="g0_10"/>
<path fill-rule="evenodd" d="M223.6,364.3h5.9v11.5h-5.9V364.3Z" class="g0_10"/>
<path fill-rule="evenodd" d="M235.5,364.3h18v11.5h-18V364.3Z" class="g0_10"/>
<path fill-rule="evenodd" d="M253.5,364.3h5.9v11.5h-5.9V364.3Z" class="g0_10"/>
<path fill-rule="evenodd" d="M259.4,364.3h29.9v11.5H259.4V364.3Z" class="g0_10"/>
<path fill-rule="evenodd" d="M289.3,364.3h6v11.5h-6V364.3Z" class="g0_10"/>
<path fill-rule="evenodd" d="M337.2,364.3h5.9v11.5h-5.9V364.3Z" class="g0_10"/>
<path fill-rule="evenodd" d="M343.1,364.3H391v11.5H343.1V364.3Z" class="g0_10"/>
<path fill-rule="evenodd" d="M391,364.3h23.9v11.5H391V364.3Z" class="g0_10"/>
<path fill-rule="evenodd" d="M110,375.8H825v11.6H110V375.8Z" class="g0_10"/>
<path fill-rule="evenodd" d="M181.7,375.8h35.9v11.6H181.7V375.8Z" class="g0_10"/>
<path fill-rule="evenodd" d="M223.6,375.8h5.9v11.6h-5.9V375.8Z" class="g0_10"/>
<path fill-rule="evenodd" d="M265.4,375.8h6v11.6h-6V375.8Z" class="g0_10"/>
<path fill-rule="evenodd" d="M110,387.4H825v11.5H110V387.4Z" class="g0_10"/>
<path fill-rule="evenodd" d="M181.7,387.4h6v11.5h-6V387.4Z" class="g0_10"/>
<path fill-rule="evenodd" d="M110,399H825v11.5H110V399Z" class="g0_10"/>
<path fill-rule="evenodd" d="M181.7,399h23.9v11.5H181.7V399Z" class="g0_10"/>
<path fill-rule="evenodd" d="M211.6,399h6v11.5h-6V399Z" class="g0_10"/>
<path fill-rule="evenodd" d="M217.6,399h6v11.5h-6V399Z" class="g0_10"/>
<path fill-rule="evenodd" d="M110,410.5H825V422H110V410.5Z" class="g0_10"/>
<path fill-rule="evenodd" d="M247.5,410.5h6V422h-6V410.5Z" class="g0_10"/>
<path fill-rule="evenodd" d="M253.5,410.5h53.7V422H253.5V410.5Z" class="g0_10"/>
<path fill-rule="evenodd" d="M307.2,410.5h6.1V422h-6.1V410.5Z" class="g0_10"/>
<path fill-rule="evenodd" d="M313.3,410.5h5.9V422h-5.9V410.5Z" class="g0_10"/>
<path fill-rule="evenodd" d="M319.2,410.5h11.9V422H319.2V410.5Z" class="g0_10"/>
<path fill-rule="evenodd" d="M331.1,410.5h6.1V422h-6.1V410.5Z" class="g0_10"/>
<path fill-rule="evenodd" d="M337.2,410.5h23.9V422H337.2V410.5Z" class="g0_10"/>
<path fill-rule="evenodd" d="M361.1,410.5H367V422h-5.9V410.5Z" class="g0_10"/>
<path fill-rule="evenodd" d="M367,410.5h41.9V422H367V410.5Z" class="g0_10"/>
<path fill-rule="evenodd" d="M408.9,410.5h6V422h-6V410.5Z" class="g0_10"/>
<path fill-rule="evenodd" d="M414.9,410.5h12V422h-12V410.5Z" class="g0_10"/>
<path fill-rule="evenodd" d="M426.9,410.5h5.9V422h-5.9V410.5Z" class="g0_10"/>
<path fill-rule="evenodd" d="M432.8,410.5h11.9V422H432.8V410.5Z" class="g0_10"/>
<path fill-rule="evenodd" d="M444.7,410.5h6.1V422h-6.1V410.5Z" class="g0_10"/>
<path fill-rule="evenodd" d="M450.8,410.5h5.9V422h-5.9V410.5Z" class="g0_10"/>
<path fill-rule="evenodd" d="M456.7,410.5h6V422h-6V410.5Z" class="g0_10"/>
<path fill-rule="evenodd" d="M462.7,410.5h17.9V422H462.7V410.5Z" class="g0_10"/>
<path fill-rule="evenodd" d="M480.6,410.5h6V422h-6V410.5Z" class="g0_10"/>
<path fill-rule="evenodd" d="M486.6,410.5h6V422h-6V410.5Z" class="g0_10"/>
<path fill-rule="evenodd" d="M540.5,410.5h11.9V422H540.5V410.5Z" class="g0_10"/>
<path fill-rule="evenodd" d="M110,422H825v11.6H110V422Z" class="g0_10"/>
<path fill-rule="evenodd" d="M205.6,422h29.9v11.6H205.6V422Z" class="g0_10"/>
<path fill-rule="evenodd" d="M235.5,422h6v11.6h-6V422Z" class="g0_10"/>
<path fill-rule="evenodd" d="M110,433.7H825v11.5H110V433.7Z" class="g0_10"/>
<path fill-rule="evenodd" d="M181.7,433.7h23.9v11.5H181.7V433.7Z" class="g0_10"/>
<path fill-rule="evenodd" d="M211.6,433.7h6v11.5h-6V433.7Z" class="g0_10"/>
<path fill-rule="evenodd" d="M217.6,433.7h6v11.5h-6V433.7Z" class="g0_10"/>
<path fill-rule="evenodd" d="M110,445.2H825v11.5H110V445.2Z" class="g0_10"/>
<path fill-rule="evenodd" d="M247.5,445.2h6v11.5h-6V445.2Z" class="g0_10"/>
<path fill-rule="evenodd" d="M253.5,445.2h53.7v11.5H253.5V445.2Z" class="g0_10"/>
<path fill-rule="evenodd" d="M307.2,445.2h6.1v11.5h-6.1V445.2Z" class="g0_10"/>
<path fill-rule="evenodd" d="M313.3,445.2h5.9v11.5h-5.9V445.2Z" class="g0_10"/>
<path fill-rule="evenodd" d="M319.2,445.2h11.9v11.5H319.2V445.2Z" class="g0_10"/>
<path fill-rule="evenodd" d="M331.1,445.2h6.1v11.5h-6.1V445.2Z" class="g0_10"/>
<path fill-rule="evenodd" d="M337.2,445.2H367v11.5H337.2V445.2Z" class="g0_10"/>
<path fill-rule="evenodd" d="M367,445.2h6v11.5h-6V445.2Z" class="g0_10"/>
<path fill-rule="evenodd" d="M373,445.2h18v11.5H373V445.2Z" class="g0_10"/>
<path fill-rule="evenodd" d="M391,445.2h5.9v11.5H391V445.2Z" class="g0_10"/>
<path fill-rule="evenodd" d="M396.9,445.2h35.9v11.5H396.9V445.2Z" class="g0_10"/>
<path fill-rule="evenodd" d="M432.8,445.2h6v11.5h-6V445.2Z" class="g0_10"/>
<path fill-rule="evenodd" d="M438.8,445.2h12v11.5h-12V445.2Z" class="g0_10"/>
<path fill-rule="evenodd" d="M450.8,445.2h5.9v11.5h-5.9V445.2Z" class="g0_10"/>
<path fill-rule="evenodd" d="M456.7,445.2h53.8v11.5H456.7V445.2Z" class="g0_10"/>
<path fill-rule="evenodd" d="M510.5,445.2h6v11.5h-6V445.2Z" class="g0_10"/>
<path fill-rule="evenodd" d="M516.5,445.2h6v11.5h-6V445.2Z" class="g0_10"/>
<path fill-rule="evenodd" d="M522.5,445.2h11.9v11.5H522.5V445.2Z" class="g0_10"/>
<path fill-rule="evenodd" d="M110,456.7H825v11.6H110V456.7Z" class="g0_10"/>
<path fill-rule="evenodd" d="M259.4,456.7h6v11.6h-6V456.7Z" class="g0_10"/>
<path fill-rule="evenodd" d="M271.4,456.7h17.9v11.6H271.4V456.7Z" class="g0_10"/>
<path fill-rule="evenodd" d="M289.3,456.7h6v11.6h-6V456.7Z" class="g0_10"/>
<path fill-rule="evenodd" d="M295.3,456.7h29.9v11.6H295.3V456.7Z" class="g0_10"/>
<path fill-rule="evenodd" d="M325.2,456.7h5.9v11.6h-5.9V456.7Z" class="g0_10"/>
<path fill-rule="evenodd" d="M373,456.7h6v11.6h-6V456.7Z" class="g0_10"/>
<path fill-rule="evenodd" d="M379,456.7h47.9v11.6H379V456.7Z" class="g0_10"/>
<path fill-rule="evenodd" d="M426.9,456.7h23.9v11.6H426.9V456.7Z" class="g0_10"/>
<path fill-rule="evenodd" d="M110,468.3H825v11.6H110V468.3Z" class="g0_10"/>
<path fill-rule="evenodd" d="M205.6,468.3h12v11.6h-12V468.3Z" class="g0_10"/>
<path fill-rule="evenodd" d="M223.6,468.3h5.9v11.6h-5.9V468.3Z" class="g0_10"/>
<path fill-rule="evenodd" d="M283.3,468.3h6v11.6h-6V468.3Z" class="g0_10"/>
<path fill-rule="evenodd" d="M295.3,468.3h18v11.6h-18V468.3Z" class="g0_10"/>
<path fill-rule="evenodd" d="M319.2,468.3h11.9v11.6H319.2V468.3Z" class="g0_10"/>
<path fill-rule="evenodd" d="M337.2,468.3h5.9v11.6h-5.9V468.3Z" class="g0_10"/>
<path fill-rule="evenodd" d="M343.1,468.3h6v11.6h-6V468.3Z" class="g0_10"/>
<path fill-rule="evenodd" d="M110,479.9H825v11.5H110V479.9Z" class="g0_10"/>
<path fill-rule="evenodd" d="M205.6,479.9h6v11.5h-6V479.9Z" class="g0_10"/>
<path fill-rule="evenodd" d="M110,491.4H825v11.5H110V491.4Z" class="g0_10"/>
<path fill-rule="evenodd" d="M211.6,491.4h6v11.5h-6V491.4Z" class="g0_10"/>
<path fill-rule="evenodd" d="M217.6,491.4h53.8v11.5H217.6V491.4Z" class="g0_10"/>
<path fill-rule="evenodd" d="M271.4,491.4h6v11.5h-6V491.4Z" class="g0_10"/>
<path fill-rule="evenodd" d="M277.4,491.4h5.9v11.5h-5.9V491.4Z" class="g0_10"/>
<path fill-rule="evenodd" d="M283.3,491.4h12v11.5h-12V491.4Z" class="g0_10"/>
<path fill-rule="evenodd" d="M295.3,491.4h6v11.5h-6V491.4Z" class="g0_10"/>
<path fill-rule="evenodd" d="M301.3,491.4h35.9v11.5H301.3V491.4Z" class="g0_10"/>
<path fill-rule="evenodd" d="M337.2,491.4h5.9v11.5h-5.9V491.4Z" class="g0_10"/>
<path fill-rule="evenodd" d="M343.1,491.4H373v11.5H343.1V491.4Z" class="g0_10"/>
<path fill-rule="evenodd" d="M373,491.4h6v11.5h-6V491.4Z" class="g0_10"/>
<path fill-rule="evenodd" d="M379,491.4h17.9v11.5H379V491.4Z" class="g0_10"/>
<path fill-rule="evenodd" d="M396.9,491.4H403v11.5h-6.1V491.4Z" class="g0_10"/>
<path fill-rule="evenodd" d="M403,491.4h35.8v11.5H403V491.4Z" class="g0_10"/>
<path fill-rule="evenodd" d="M438.8,491.4h5.9v11.5h-5.9V491.4Z" class="g0_10"/>
<path fill-rule="evenodd" d="M444.7,491.4h12v11.5h-12V491.4Z" class="g0_10"/>
<path fill-rule="evenodd" d="M456.7,491.4h6v11.5h-6V491.4Z" class="g0_10"/>
<path fill-rule="evenodd" d="M462.7,491.4h53.8v11.5H462.7V491.4Z" class="g0_10"/>
<path fill-rule="evenodd" d="M516.5,491.4h6v11.5h-6V491.4Z" class="g0_10"/>
<path fill-rule="evenodd" d="M522.5,491.4h11.9v11.5H522.5V491.4Z" class="g0_10"/>
<path fill-rule="evenodd" d="M534.4,491.4h6.1v11.5h-6.1V491.4Z" class="g0_10"/>
<path fill-rule="evenodd" d="M540.5,491.4h23.9v11.5H540.5V491.4Z" class="g0_10"/>
<path fill-rule="evenodd" d="M564.4,491.4h11.9v11.5H564.4V491.4Z" class="g0_10"/>
<path fill-rule="evenodd" d="M110,503H825v11.6H110V503Z" class="g0_10"/>
<path fill-rule="evenodd" d="M205.6,503h6v11.6h-6V503Z" class="g0_10"/>
<path fill-rule="evenodd" d="M110,514.6H825v11.5H110V514.6Z" class="g0_10"/>
<path fill-rule="evenodd" d="M205.6,514.6h23.9v11.5H205.6V514.6Z" class="g0_10"/>
<path fill-rule="evenodd" d="M235.5,514.6h12v11.5h-12V514.6Z" class="g0_10"/>
<path fill-rule="evenodd" d="M253.5,514.6h5.9v11.5h-5.9V514.6Z" class="g0_10"/>
<path fill-rule="evenodd" d="M313.3,514.6h5.9v11.5h-5.9V514.6Z" class="g0_10"/>
<path fill-rule="evenodd" d="M325.2,514.6h5.9v11.5h-5.9V514.6Z" class="g0_10"/>
<path fill-rule="evenodd" d="M373,514.6h6v11.5h-6V514.6Z" class="g0_10"/>
<path fill-rule="evenodd" d="M385,514.6h18v11.5H385V514.6Z" class="g0_10"/>
<path fill-rule="evenodd" d="M403,514.6h11.9v11.5H403V514.6Z" class="g0_10"/>
<path fill-rule="evenodd" d="M110,526.1H825v11.5H110V526.1Z" class="g0_10"/>
<path fill-rule="evenodd" d="M205.6,526.1h6v11.5h-6V526.1Z" class="g0_10"/>
<path fill-rule="evenodd" d="M110,537.7H825v11.5H110V537.7Z" class="g0_10"/>
<path fill-rule="evenodd" d="M265.4,537.7h6v11.5h-6V537.7Z" class="g0_10"/>
<path fill-rule="evenodd" d="M271.4,537.7h53.8v11.5H271.4V537.7Z" class="g0_10"/>
<path fill-rule="evenodd" d="M325.2,537.7h5.9v11.5h-5.9V537.7Z" class="g0_10"/>
<path fill-rule="evenodd" d="M331.1,537.7h6.1v11.5h-6.1V537.7Z" class="g0_10"/>
<path fill-rule="evenodd" d="M337.2,537.7h11.9v11.5H337.2V537.7Z" class="g0_10"/>
<path fill-rule="evenodd" d="M349.1,537.7h6v11.5h-6V537.7Z" class="g0_10"/>
<path fill-rule="evenodd" d="M355.1,537.7h65.7v11.5H355.1V537.7Z" class="g0_10"/>
<path fill-rule="evenodd" d="M420.8,537.7h6.1v11.5h-6.1V537.7Z" class="g0_10"/>
<path fill-rule="evenodd" d="M426.9,537.7h47.8v11.5H426.9V537.7Z" class="g0_10"/>
<path fill-rule="evenodd" d="M474.7,537.7h11.9v11.5H474.7V537.7Z" class="g0_10"/>
<path fill-rule="evenodd" d="M110,549.2H825v11.6H110V549.2Z" class="g0_10"/>
<path fill-rule="evenodd" d="M205.6,549.2h6v11.6h-6V549.2Z" class="g0_10"/>
<path fill-rule="evenodd" d="M110,560.8H825v11.5H110V560.8Z" class="g0_10"/>
<path fill-rule="evenodd" d="M205.6,560.8h23.9v11.5H205.6V560.8Z" class="g0_10"/>
<path fill-rule="evenodd" d="M110,572.4H825v11.5H110V572.4Z" class="g0_10"/>
<path fill-rule="evenodd" d="M205.6,572.4h6v11.5h-6V572.4Z" class="g0_10"/>
<path fill-rule="evenodd" d="M110,583.9H825v11.6H110V583.9Z" class="g0_10"/>
<path fill-rule="evenodd" d="M265.4,583.9h6v11.6h-6V583.9Z" class="g0_10"/>
<path fill-rule="evenodd" d="M319.2,583.9h6v11.6h-6V583.9Z" class="g0_10"/>
<path fill-rule="evenodd" d="M379,583.9h6v11.6h-6V583.9Z" class="g0_10"/>
<path fill-rule="evenodd" d="M110,595.5H825V607H110V595.5Z" class="g0_10"/>
<path fill-rule="evenodd" d="M265.4,595.5h6V607h-6V595.5Z" class="g0_10"/>
<path fill-rule="evenodd" d="M271.4,595.5h53.8V607H271.4V595.5Z" class="g0_10"/>
<path fill-rule="evenodd" d="M325.2,595.5h5.9V607h-5.9V595.5Z" class="g0_10"/>
<path fill-rule="evenodd" d="M331.1,595.5h6.1V607h-6.1V595.5Z" class="g0_10"/>
<path fill-rule="evenodd" d="M337.2,595.5h23.9V607H337.2V595.5Z" class="g0_10"/>
<path fill-rule="evenodd" d="M361.1,595.5H367V607h-5.9V595.5Z" class="g0_10"/>
<path fill-rule="evenodd" d="M367,595.5h36V607H367V595.5Z" class="g0_10"/>
<path fill-rule="evenodd" d="M403,595.5h5.9V607H403V595.5Z" class="g0_10"/>
<path fill-rule="evenodd" d="M408.9,595.5h41.9V607H408.9V595.5Z" class="g0_10"/>
<path fill-rule="evenodd" d="M450.8,595.5h5.9V607h-5.9V595.5Z" class="g0_10"/>
<path fill-rule="evenodd" d="M456.7,595.5h29.9V607H456.7V595.5Z" class="g0_10"/>
<path fill-rule="evenodd" d="M486.6,595.5h12V607h-12V595.5Z" class="g0_10"/>
<path fill-rule="evenodd" d="M110,607.1H825v11.5H110V607.1Z" class="g0_10"/>
<path fill-rule="evenodd" d="M247.5,607.1h6v11.5h-6V607.1Z" class="g0_10"/>
<path fill-rule="evenodd" d="M253.5,607.1h53.7v11.5H253.5V607.1Z" class="g0_10"/>
<path fill-rule="evenodd" d="M307.2,607.1h6.1v11.5h-6.1V607.1Z" class="g0_10"/>
<path fill-rule="evenodd" d="M313.3,607.1h5.9v11.5h-5.9V607.1Z" class="g0_10"/>
<path fill-rule="evenodd" d="M319.2,607.1h11.9v11.5H319.2V607.1Z" class="g0_10"/>
<path fill-rule="evenodd" d="M331.1,607.1h6.1v11.5h-6.1V607.1Z" class="g0_10"/>
<path fill-rule="evenodd" d="M337.2,607.1h23.9v11.5H337.2V607.1Z" class="g0_10"/>
<path fill-rule="evenodd" d="M361.1,607.1H367v11.5h-5.9V607.1Z" class="g0_10"/>
<path fill-rule="evenodd" d="M367,607.1h41.9v11.5H367V607.1Z" class="g0_10"/>
<path fill-rule="evenodd" d="M408.9,607.1h6v11.5h-6V607.1Z" class="g0_10"/>
<path fill-rule="evenodd" d="M414.9,607.1h41.8v11.5H414.9V607.1Z" class="g0_10"/>
<path fill-rule="evenodd" d="M456.7,607.1h6v11.5h-6V607.1Z" class="g0_10"/>
<path fill-rule="evenodd" d="M462.7,607.1h12v11.5h-12V607.1Z" class="g0_10"/>
<path fill-rule="evenodd" d="M474.7,607.1h5.9v11.5h-5.9V607.1Z" class="g0_10"/>
<path fill-rule="evenodd" d="M480.6,607.1h23.9v11.5H480.6V607.1Z" class="g0_10"/>
<path fill-rule="evenodd" d="M552.4,607.1h12v11.5h-12V607.1Z" class="g0_10"/>
<path fill-rule="evenodd" d="M110,618.6H825v11.5H110V618.6Z" class="g0_10"/>
<path fill-rule="evenodd" d="M205.6,618.6h6v11.5h-6V618.6Z" class="g0_10"/>
<path fill-rule="evenodd" d="M110,630.1H825v11.6H110V630.1Z" class="g0_10"/>
<path fill-rule="evenodd" d="M205.6,630.1h29.9v11.6H205.6V630.1Z" class="g0_10"/>
<path fill-rule="evenodd" d="M235.5,630.1h6v11.6h-6V630.1Z" class="g0_10"/>
<path fill-rule="evenodd" d="M110,641.7H825v11.6H110V641.7Z" class="g0_10"/>
<path fill-rule="evenodd" d="M181.7,641.7h23.9v11.6H181.7V641.7Z" class="g0_10"/>
<path fill-rule="evenodd" d="M211.6,641.7h6v11.6h-6V641.7Z" class="g0_10"/>
<path fill-rule="evenodd" d="M217.6,641.7h6v11.6h-6V641.7Z" class="g0_10"/>
<path fill-rule="evenodd" d="M110,653.3H825v11.5H110V653.3Z" class="g0_10"/>
<path fill-rule="evenodd" d="M247.5,653.3h6v11.5h-6V653.3Z" class="g0_10"/>
<path fill-rule="evenodd" d="M253.5,653.3h53.7v11.5H253.5V653.3Z" class="g0_10"/>
<path fill-rule="evenodd" d="M307.2,653.3h6.1v11.5h-6.1V653.3Z" class="g0_10"/>
<path fill-rule="evenodd" d="M313.3,653.3h5.9v11.5h-5.9V653.3Z" class="g0_10"/>
<path fill-rule="evenodd" d="M319.2,653.3h11.9v11.5H319.2V653.3Z" class="g0_10"/>
<path fill-rule="evenodd" d="M331.1,653.3h6.1v11.5h-6.1V653.3Z" class="g0_10"/>
<path fill-rule="evenodd" d="M337.2,653.3H367v11.5H337.2V653.3Z" class="g0_10"/>
<path fill-rule="evenodd" d="M367,653.3h6v11.5h-6V653.3Z" class="g0_10"/>
<path fill-rule="evenodd" d="M373,653.3h18v11.5H373V653.3Z" class="g0_10"/>
<path fill-rule="evenodd" d="M391,653.3h5.9v11.5H391V653.3Z" class="g0_10"/>
<path fill-rule="evenodd" d="M396.9,653.3h35.9v11.5H396.9V653.3Z" class="g0_10"/>
<path fill-rule="evenodd" d="M432.8,653.3h6v11.5h-6V653.3Z" class="g0_10"/>
<path fill-rule="evenodd" d="M438.8,653.3h12v11.5h-12V653.3Z" class="g0_10"/>
<path fill-rule="evenodd" d="M450.8,653.3h5.9v11.5h-5.9V653.3Z" class="g0_10"/>
<path fill-rule="evenodd" d="M456.7,653.3h47.8v11.5H456.7V653.3Z" class="g0_10"/>
<path fill-rule="evenodd" d="M504.5,653.3h12v11.5h-12V653.3Z" class="g0_10"/>
<path fill-rule="evenodd" d="M110,664.8H825v11.5H110V664.8Z" class="g0_10"/>
<path fill-rule="evenodd" d="M253.5,664.8h5.9v11.5h-5.9V664.8Z" class="g0_10"/>
<path fill-rule="evenodd" d="M265.4,664.8h17.9v11.5H265.4V664.8Z" class="g0_10"/>
<path fill-rule="evenodd" d="M283.3,664.8h6v11.5h-6V664.8Z" class="g0_10"/>
<path fill-rule="evenodd" d="M289.3,664.8h29.9v11.5H289.3V664.8Z" class="g0_10"/>
<path fill-rule="evenodd" d="M319.2,664.8h6v11.5h-6V664.8Z" class="g0_10"/>
<path fill-rule="evenodd" d="M367,664.8h6v11.5h-6V664.8Z" class="g0_10"/>
<path fill-rule="evenodd" d="M373,664.8h47.8v11.5H373V664.8Z" class="g0_10"/>
<path fill-rule="evenodd" d="M420.8,664.8h23.9v11.5H420.8V664.8Z" class="g0_10"/>
<path fill-rule="evenodd" d="M110,676.4H825V688H110V676.4Z" class="g0_10"/>
<path fill-rule="evenodd" d="M247.5,676.4h6V688h-6V676.4Z" class="g0_10"/>
<path fill-rule="evenodd" d="M301.3,676.4h5.9V688h-5.9V676.4Z" class="g0_10"/>
<path fill-rule="evenodd" d="M355.1,676.4h6V688h-6V676.4Z" class="g0_10"/>
<path fill-rule="evenodd" d="M110,688H825v11.5H110V688Z" class="g0_10"/>
<path fill-rule="evenodd" d="M247.5,688h6v11.5h-6V688Z" class="g0_10"/>
<path fill-rule="evenodd" d="M253.5,688h53.7v11.5H253.5V688Z" class="g0_10"/>
<path fill-rule="evenodd" d="M307.2,688h6.1v11.5h-6.1V688Z" class="g0_10"/>
<path fill-rule="evenodd" d="M313.3,688h29.8v11.5H313.3V688Z" class="g0_10"/>
<path fill-rule="evenodd" d="M343.1,688h6v11.5h-6V688Z" class="g0_10"/>
<path fill-rule="evenodd" d="M349.1,688H391v11.5H349.1V688Z" class="g0_10"/>
<path fill-rule="evenodd" d="M391,688h5.9v11.5H391V688Z" class="g0_10"/>
<path fill-rule="evenodd" d="M396.9,688h12v11.5h-12V688Z" class="g0_10"/>
<path fill-rule="evenodd" d="M408.9,688h6v11.5h-6V688Z" class="g0_10"/>
<path fill-rule="evenodd" d="M414.9,688h23.9v11.5H414.9V688Z" class="g0_10"/>
<path fill-rule="evenodd" d="M486.6,688h12v11.5h-12V688Z" class="g0_10"/>
<path fill-rule="evenodd" d="M110,699.5H825V711H110V699.5Z" class="g0_10"/>
<path fill-rule="evenodd" d="M205.6,699.5h29.9V711H205.6V699.5Z" class="g0_10"/>
<path fill-rule="evenodd" d="M235.5,699.5h6V711h-6V699.5Z" class="g0_10"/>
<path fill-rule="evenodd" d="M110,711.1H825v11.5H110V711.1Z" class="g0_10"/>
<path fill-rule="evenodd" d="M181.7,711.1h23.9v11.5H181.7V711.1Z" class="g0_10"/>
<path fill-rule="evenodd" d="M211.6,711.1h6v11.5h-6V711.1Z" class="g0_10"/>
<path fill-rule="evenodd" d="M217.6,711.1h6v11.5h-6V711.1Z" class="g0_10"/>
<path fill-rule="evenodd" d="M110,722.6H825v11.6H110V722.6Z" class="g0_10"/>
<path fill-rule="evenodd" d="M247.5,722.6h6v11.6h-6V722.6Z" class="g0_10"/>
<path fill-rule="evenodd" d="M253.5,722.6h53.7v11.6H253.5V722.6Z" class="g0_10"/>
<path fill-rule="evenodd" d="M307.2,722.6h6.1v11.6h-6.1V722.6Z" class="g0_10"/>
<path fill-rule="evenodd" d="M313.3,722.6h5.9v11.6h-5.9V722.6Z" class="g0_10"/>
<path fill-rule="evenodd" d="M319.2,722.6h11.9v11.6H319.2V722.6Z" class="g0_10"/>
<path fill-rule="evenodd" d="M331.1,722.6h6.1v11.6h-6.1V722.6Z" class="g0_10"/>
<path fill-rule="evenodd" d="M337.2,722.6H367v11.6H337.2V722.6Z" class="g0_10"/>
<path fill-rule="evenodd" d="M367,722.6h6v11.6h-6V722.6Z" class="g0_10"/>
<path fill-rule="evenodd" d="M373,722.6h6v11.6h-6V722.6Z" class="g0_10"/>
<path fill-rule="evenodd" d="M379,722.6h6v11.6h-6V722.6Z" class="g0_10"/>
<path fill-rule="evenodd" d="M385,722.6h29.9v11.6H385V722.6Z" class="g0_10"/>
<path fill-rule="evenodd" d="M414.9,722.6h5.9v11.6h-5.9V722.6Z" class="g0_10"/>
<path fill-rule="evenodd" d="M420.8,722.6h23.9v11.6H420.8V722.6Z" class="g0_10"/>
<path fill-rule="evenodd" d="M444.7,722.6h12v11.6h-12V722.6Z" class="g0_10"/>
<path fill-rule="evenodd" d="M110,734.2H825v11.5H110V734.2Z" class="g0_10"/>
<path fill-rule="evenodd" d="M181.7,734.2h29.9v11.5H181.7V734.2Z" class="g0_10"/>
<path fill-rule="evenodd" d="M211.6,734.2h6v11.5h-6V734.2Z" class="g0_10"/>
<path fill-rule="evenodd" d="M110,745.8H825v11.5H110V745.8Z" class="g0_10"/>
<path fill-rule="evenodd" d="M181.7,745.8h6v11.5h-6V745.8Z" class="g0_10"/>
<path fill-rule="evenodd" d="M110,757.3H825v11.6H110V757.3Z" class="g0_10"/>
<path fill-rule="evenodd" d="M157.8,757.3h6v11.6h-6V757.3Z" class="g0_10"/>
<path fill-rule="evenodd" d="M110,768.9H825v11.5H110V768.9Z" class="g0_10"/>
<path fill-rule="evenodd" d="M199.6,768.9h6v11.5h-6V768.9Z" class="g0_10"/>
<path fill-rule="evenodd" d="M205.6,768.9h53.8v11.5H205.6V768.9Z" class="g0_10"/>
<path fill-rule="evenodd" d="M259.4,768.9h6v11.5h-6V768.9Z" class="g0_10"/>
<path fill-rule="evenodd" d="M265.4,768.9h6v11.5h-6V768.9Z" class="g0_10"/>
<path fill-rule="evenodd" d="M271.4,768.9h23.9v11.5H271.4V768.9Z" class="g0_10"/>
<path fill-rule="evenodd" d="M295.3,768.9h6v11.5h-6V768.9Z" class="g0_10"/>
<path fill-rule="evenodd" d="M301.3,768.9h35.9v11.5H301.3V768.9Z" class="g0_10"/>
<path fill-rule="evenodd" d="M337.2,768.9h5.9v11.5h-5.9V768.9Z" class="g0_10"/>
<path fill-rule="evenodd" d="M343.1,768.9h18v11.5h-18V768.9Z" class="g0_10"/>
<path fill-rule="evenodd" d="M361.1,768.9H367v11.5h-5.9V768.9Z" class="g0_10"/>
<path fill-rule="evenodd" d="M367,768.9h29.9v11.5H367V768.9Z" class="g0_10"/>
<path fill-rule="evenodd" d="M396.9,768.9H403v11.5h-6.1V768.9Z" class="g0_10"/>
<path fill-rule="evenodd" d="M403,768.9h17.8v11.5H403V768.9Z" class="g0_10"/>
<path fill-rule="evenodd" d="M420.8,768.9h6.1v11.5h-6.1V768.9Z" class="g0_10"/>
<path fill-rule="evenodd" d="M426.9,768.9h17.8v11.5H426.9V768.9Z" class="g0_10"/>
<path fill-rule="evenodd" d="M444.7,768.9h6.1v11.5h-6.1V768.9Z" class="g0_10"/>
<path fill-rule="evenodd" d="M450.8,768.9h47.8v11.5H450.8V768.9Z" class="g0_10"/>
<path fill-rule="evenodd" d="M498.6,768.9h11.9v11.5H498.6V768.9Z" class="g0_10"/>
<path fill-rule="evenodd" d="M110,780.5H825V792H110V780.5Z" class="g0_10"/>
<path fill-rule="evenodd" d="M133.9,780.5h6V792h-6V780.5Z" class="g0_10"/>
<path fill-rule="evenodd" d="M110,792H825v23H110V792Z" class="g0_10"/>
<path fill-rule="evenodd" d="M116,792h5.9v11.5H116V792Z" class="g0_10"/>
<path fill-rule="evenodd" d="M110,815H825v26.8H110V815Z" class="g1_10"/>
<path fill-rule="evenodd" d="M110,841.9H825v11.5H110V841.9Z" class="g0_10"/>
<path fill-rule="evenodd" d="M110,853.4H825V865H110V853.4Z" class="g0_10"/>
<path fill-rule="evenodd" d="M110,865H825v11.5H110V865Z" class="g0_10"/>
<path fill-rule="evenodd" d="M110,876.6H825v11.5H110V876.6Z" class="g0_10"/>
<path fill-rule="evenodd" d="M110,888.1H825v11.5H110V888.1Z" class="g0_10"/>
<path fill-rule="evenodd" d="M110,899.6H825v11.6H110V899.6Z" class="g0_10"/>
<path fill-rule="evenodd" d="M110,911.2H825v11.5H110V911.2Z" class="g0_10"/>
<path fill-rule="evenodd" d="M110,922.8H825v11.5H110V922.8Z" class="g0_10"/>
<path fill-rule="evenodd" d="M110,934.3H825v11.5H110V934.3Z" class="g0_10"/>
<path fill-rule="evenodd" d="M110,945.8H825v11.6H110V945.8Z" class="g0_10"/>
<path fill-rule="evenodd" d="M110,957.5H825V969H110V957.5Z" class="g0_10"/>
<path fill-rule="evenodd" d="M110,969H825v11.5H110V969Z" class="g0_10"/>
<path fill-rule="evenodd" d="M110,980.5H825v11.6H110V980.5Z" class="g0_10"/>
<path fill-rule="evenodd" d="M110,992.1H825v11.6H110V992.1Z" class="g0_10"/>
<path fill-rule="evenodd" d="M110,1003.7H825v11.5H110v-11.5Z" class="g0_10"/>
<path fill-rule="evenodd" d="M110,1015.2H825v11.5H110v-11.5Z" class="g0_10"/>
<path fill-rule="evenodd" d="M110,1026.8H825v23H110v-23Z" class="g0_10"/>
</svg>