<?xml version="1.0" encoding="UTF-8" standalone="no"?>
<!DOCTYPE svg PUBLIC "-//W3C//DTD SVG 1.1//EN"
"http://www.w3.org/Graphics/SVG/1.1/DTD/svg11.dtd">
<svg viewBox="0 0 935 1210" version="1.1" xmlns="http://www.w3.org/2000/svg" xmlns:xlink="http://www.w3.org/1999/xlink">
<defs>
<style type="text/css"><![CDATA[
.g0_15{
fill: #F4F4F4;
}
.g1_15{
fill: #FDFDFD;
}
]]></style>
</defs>
<path fill-rule="evenodd" d="M110,110H825v16H110V110Z" class="g0_15"/>
<path fill-rule="evenodd" d="M110,110h16.5v16H110V110Z" class="g0_15"/>
<path fill-rule="evenodd" d="M110,126H825v15.9H110V126Z" class="g0_15"/>
<path fill-rule="evenodd" d="M110,126h8.3v15.9H110V126Z" class="g0_15"/>
<path fill-rule="evenodd" d="M118.3,126h8.2v15.9h-8.2V126Z" class="g0_15"/>
<path fill-rule="evenodd" d="M126.5,126h8.3v15.9h-8.3V126Z" class="g0_15"/>
<path fill-rule="evenodd" d="M134.8,126h16.5v15.9H134.8V126Z" class="g0_15"/>
<path fill-rule="evenodd" d="M151.3,126h8.4v15.9h-8.4V126Z" class="g0_15"/>
<path fill-rule="evenodd" d="M159.7,126h57.9v15.9H159.7V126Z" class="g0_15"/>
<path fill-rule="evenodd" d="M217.6,126h8.3v15.9h-8.3V126Z" class="g0_15"/>
<path fill-rule="evenodd" d="M225.9,126h16.5v15.9H225.9V126Z" class="g0_15"/>
<path fill-rule="evenodd" d="M242.4,126h8.3v15.9h-8.3V126Z" class="g0_15"/>
<path fill-rule="evenodd" d="M250.7,126h82.7v15.9H250.7V126Z" class="g0_15"/>
<path fill-rule="evenodd" d="M333.4,126h8.4v15.9h-8.4V126Z" class="g0_15"/>
<path fill-rule="evenodd" d="M341.8,126h24.8v15.9H341.8V126Z" class="g0_15"/>
<path fill-rule="evenodd" d="M366.6,126h8.2v15.9h-8.2V126Z" class="g0_15"/>
<path fill-rule="evenodd" d="M374.8,126h24.9v15.9H374.8V126Z" class="g0_15"/>
<path fill-rule="evenodd" d="M399.7,126H408v15.9h-8.3V126Z" class="g0_15"/>
<path fill-rule="evenodd" d="M408,126h16.6v15.9H408V126Z" class="g0_15"/>
<path fill-rule="evenodd" d="M424.6,126h8.2v15.9h-8.2V126Z" class="g0_15"/>
<path fill-rule="evenodd" d="M432.8,126h49.7v15.9H432.8V126Z" class="g0_15"/>
<path fill-rule="evenodd" d="M482.5,126h8.2v15.9h-8.2V126Z" class="g0_15"/>
<path fill-rule="evenodd" d="M490.7,126h82.8v15.9H490.7V126Z" class="g0_15"/>
<path fill-rule="evenodd" d="M110,142H825v16H110V142Z" class="g0_15"/>
<path fill-rule="evenodd" d="M110,142h8.3v16H110V142Z" class="g0_15"/>
<path fill-rule="evenodd" d="M118.3,142h16.5v16H118.3V142Z" class="g0_15"/>
<path fill-rule="evenodd" d="M110,158H825v15.9H110V158Z" class="g0_15"/>
<path fill-rule="evenodd" d="M110,158h41.3v15.9H110V158Z" class="g0_15"/>
<path fill-rule="evenodd" d="M159.7,158h49.6v15.9H159.7V158Z" class="g0_15"/>
<path fill-rule="evenodd" d="M209.3,158h8.3v15.9h-8.3V158Z" class="g0_15"/>
<path fill-rule="evenodd" d="M110,174H825v16H110V174Z" class="g0_15"/>
<path fill-rule="evenodd" d="M110,174h74.5v16H110V174Z" class="g0_15"/>
<path fill-rule="evenodd" d="M110,190H825v15.9H110V190Z" class="g0_15"/>
<path fill-rule="evenodd" d="M110,190h8.3v15.9H110V190Z" class="g0_15"/>
<path fill-rule="evenodd" d="M110,206H825v16H110V206Z" class="g0_15"/>
<path fill-rule="evenodd" d="M143.1,206h41.4v16H143.1V206Z" class="g0_15"/>
<path fill-rule="evenodd" d="M110,222H825v16H110V222Z" class="g0_15"/>
<path fill-rule="evenodd" d="M143.1,222h8.2v16h-8.2V222Z" class="g0_15"/>
<path fill-rule="evenodd" d="M110,238H825v16H110V238Z" class="g0_15"/>
<path fill-rule="evenodd" d="M176.2,238h49.7v16H176.2V238Z" class="g0_15"/>
<path fill-rule="evenodd" d="M234.1,238h33.2v16H234.1V238Z" class="g0_15"/>
<path fill-rule="evenodd" d="M308.6,238h8.3v16h-8.3V238Z" class="g0_15"/>
<path fill-rule="evenodd" d="M316.9,238h49.7v16H316.9V238Z" class="g0_15"/>
<path fill-rule="evenodd" d="M366.6,238h16.6v16H366.6V238Z" class="g0_15"/>
<path fill-rule="evenodd" d="M424.6,238h8.2v16h-8.2V238Z" class="g0_15"/>
<path fill-rule="evenodd" d="M110,254H825v16H110V254Z" class="g0_15"/>
<path fill-rule="evenodd" d="M176.2,254h8.3v16h-8.3V254Z" class="g0_15"/>
<path fill-rule="evenodd" d="M110,270H825v16H110V270Z" class="g0_15"/>
<path fill-rule="evenodd" d="M259,270h8.3v16H259V270Z" class="g0_15"/>
<path fill-rule="evenodd" d="M275.5,270h24.9v16H275.5V270Z" class="g0_15"/>
<path fill-rule="evenodd" d="M333.4,270h24.9v16H333.4V270Z" class="g0_15"/>
<path fill-rule="evenodd" d="M110,286H825v16H110V286Z" class="g0_15"/>
<path fill-rule="evenodd" d="M217.6,286h8.3v16h-8.3V286Z" class="g0_15"/>
<path fill-rule="evenodd" d="M225.9,286H259v16H225.9V286Z" class="g0_15"/>
<path fill-rule="evenodd" d="M259,286h24.8v16H259V286Z" class="g0_15"/>
<path fill-rule="evenodd" d="M110,302H825v16H110V302Z" class="g0_15"/>
<path fill-rule="evenodd" d="M176.2,302h8.3v16h-8.3V302Z" class="g0_15"/>
<path fill-rule="evenodd" d="M110,318H825v16H110V318Z" class="g0_15"/>
<path fill-rule="evenodd" d="M143.1,318h8.2v16h-8.2V318Z" class="g0_15"/>
<path fill-rule="evenodd" d="M110,334H825v16H110V334Z" class="g0_15"/>
<path fill-rule="evenodd" d="M143.1,334h41.4v16H143.1V334Z" class="g0_15"/>
<path fill-rule="evenodd" d="M110,350H825v16H110V350Z" class="g0_15"/>
<path fill-rule="evenodd" d="M143.1,350h8.2v16h-8.2V350Z" class="g0_15"/>
<path fill-rule="evenodd" d="M110,366.1H825V382H110V366.1Z" class="g0_15"/>
<path fill-rule="evenodd" d="M176.2,366.1h57.9V382H176.2V366.1Z" class="g0_15"/>
<path fill-rule="evenodd" d="M242.4,366.1h24.9V382H242.4V366.1Z" class="g0_15"/>
<path fill-rule="evenodd" d="M283.8,366.1h8.3V382h-8.3V366.1Z" class="g0_15"/>
<path fill-rule="evenodd" d="M110,382.1H825v16H110v-16Z" class="g0_15"/>
<path fill-rule="evenodd" d="M176.2,382.1h74.5v16H176.2v-16Z" class="g0_15"/>
<path fill-rule="evenodd" d="M259,382.1h24.8v16H259v-16Z" class="g0_15"/>
<path fill-rule="evenodd" d="M300.4,382.1h8.2v16h-8.2v-16Z" class="g0_15"/>
<path fill-rule="evenodd" d="M110,398.1H825V414H110V398.1Z" class="g0_15"/>
<path fill-rule="evenodd" d="M176.2,398.1h66.2V414H176.2V398.1Z" class="g0_15"/>
<path fill-rule="evenodd" d="M250.7,398.1h24.8V414H250.7V398.1Z" class="g0_15"/>
<path fill-rule="evenodd" d="M292.1,398.1h8.3V414h-8.3V398.1Z" class="g0_15"/>
<path fill-rule="evenodd" d="M110,414.1H825v16H110v-16Z" class="g0_15"/>
<path fill-rule="evenodd" d="M176.2,414.1h49.7v16H176.2v-16Z" class="g0_15"/>
<path fill-rule="evenodd" d="M234.1,414.1H259v16H234.1v-16Z" class="g0_15"/>
<path fill-rule="evenodd" d="M275.5,414.1h8.3v16h-8.3v-16Z" class="g0_15"/>
<path fill-rule="evenodd" d="M110,430.1H825V446H110V430.1Z" class="g0_15"/>
<path fill-rule="evenodd" d="M176.2,430.1h74.5V446H176.2V430.1Z" class="g0_15"/>
<path fill-rule="evenodd" d="M259,430.1h66.2V446H259V430.1Z" class="g0_15"/>
<path fill-rule="evenodd" d="M333.4,430.1h24.9V446H333.4V430.1Z" class="g0_15"/>
<path fill-rule="evenodd" d="M374.8,430.1h8.4V446h-8.4V430.1Z" class="g0_15"/>
<path fill-rule="evenodd" d="M110,446.1H825v16H110v-16Z" class="g0_15"/>
<path fill-rule="evenodd" d="M143.1,446.1h8.2v16h-8.2v-16Z" class="g0_15"/>
<path fill-rule="evenodd" d="M110,462.1H825V478H110V462.1Z" class="g0_15"/>
<path fill-rule="evenodd" d="M143.1,462.1h41.4V478H143.1V462.1Z" class="g0_15"/>
<path fill-rule="evenodd" d="M225.9,462.1h8.2V478h-8.2V462.1Z" class="g0_15"/>
<path fill-rule="evenodd" d="M110,478.1H825v16H110v-16Z" class="g0_15"/>
<path fill-rule="evenodd" d="M143.1,478.1h8.2v16h-8.2v-16Z" class="g0_15"/>
<path fill-rule="evenodd" d="M110,494.1H825V510H110V494.1Z" class="g0_15"/>
<path fill-rule="evenodd" d="M176.2,494.1h49.7V510H176.2V494.1Z" class="g0_15"/>
<path fill-rule="evenodd" d="M234.1,494.1h33.2V510H234.1V494.1Z" class="g0_15"/>
<path fill-rule="evenodd" d="M308.6,494.1h16.6V510H308.6V494.1Z" class="g0_15"/>
<path fill-rule="evenodd" d="M110,510.1H825v16H110v-16Z" class="g0_15"/>
<path fill-rule="evenodd" d="M176.2,510.1h8.3v16h-8.3v-16Z" class="g0_15"/>
<path fill-rule="evenodd" d="M110,526.1H825v16H110v-16Z" class="g0_15"/>
<path fill-rule="evenodd" d="M267.3,526.1h8.2v16h-8.2v-16Z" class="g0_15"/>
<path fill-rule="evenodd" d="M275.5,526.1H350v16H275.5v-16Z" class="g0_15"/>
<path fill-rule="evenodd" d="M350,526.1h8.3v16H350v-16Z" class="g0_15"/>
<path fill-rule="evenodd" d="M358.3,526.1h57.9v16H358.3v-16Z" class="g0_15"/>
<path fill-rule="evenodd" d="M416.2,526.1h8.4v16h-8.4v-16Z" class="g0_15"/>
<path fill-rule="evenodd" d="M424.6,526.1h24.8v16H424.6v-16Z" class="g0_15"/>
<path fill-rule="evenodd" d="M449.4,526.1h8.2v16h-8.2v-16Z" class="g0_15"/>
<path fill-rule="evenodd" d="M457.6,526.1h8.3v16h-8.3v-16Z" class="g0_15"/>
<path fill-rule="evenodd" d="M465.9,526.1h8.3v16h-8.3v-16Z" class="g0_15"/>
<path fill-rule="evenodd" d="M474.2,526.1h8.3v16h-8.3v-16Z" class="g0_15"/>
<path fill-rule="evenodd" d="M482.5,526.1H499v16H482.5v-16Z" class="g0_15"/>
<path fill-rule="evenodd" d="M110,542.1H825v16H110v-16Z" class="g0_15"/>
<path fill-rule="evenodd" d="M209.3,542.1h58v16h-58v-16Z" class="g0_15"/>
<path fill-rule="evenodd" d="M110,558.1H825v16H110v-16Z" class="g0_15"/>
<path fill-rule="evenodd" d="M225.9,558.1h8.2v16h-8.2v-16Z" class="g0_15"/>
<path fill-rule="evenodd" d="M242.4,558.1H259v16H242.4v-16Z" class="g0_15"/>
<path fill-rule="evenodd" d="M259,558.1h8.3v16H259v-16Z" class="g0_15"/>
<path fill-rule="evenodd" d="M110,574.1H825v16H110v-16Z" class="g0_15"/>
<path fill-rule="evenodd" d="M225.9,574.1h8.2v16h-8.2v-16Z" class="g0_15"/>
<path fill-rule="evenodd" d="M242.4,574.1H259v16H242.4v-16Z" class="g0_15"/>
<path fill-rule="evenodd" d="M259,574.1h8.3v16H259v-16Z" class="g0_15"/>
<path fill-rule="evenodd" d="M110,590.1H825v16H110v-16Z" class="g0_15"/>
<path fill-rule="evenodd" d="M225.9,590.1h8.2v16h-8.2v-16Z" class="g0_15"/>
<path fill-rule="evenodd" d="M242.4,590.1H259v16H242.4v-16Z" class="g0_15"/>
<path fill-rule="evenodd" d="M259,590.1h8.3v16H259v-16Z" class="g0_15"/>
<path fill-rule="evenodd" d="M110,606.1H825v16H110v-16Z" class="g0_15"/>
<path fill-rule="evenodd" d="M225.9,606.1h8.2v16h-8.2v-16Z" class="g0_15"/>
<path fill-rule="evenodd" d="M242.4,606.1H259v16H242.4v-16Z" class="g0_15"/>
<path fill-rule="evenodd" d="M259,606.1h8.3v16H259v-16Z" class="g0_15"/>
<path fill-rule="evenodd" d="M110,622.2H825v16H110v-16Z" class="g0_15"/>
<path fill-rule="evenodd" d="M209.3,622.2h16.6v16H209.3v-16Z" class="g0_15"/>
<path fill-rule="evenodd" d="M225.9,622.2h8.2v16h-8.2v-16Z" class="g0_15"/>
<path fill-rule="evenodd" d="M234.1,622.2H416.2v16H234.1v-16Z" class="g0_15"/>
<path fill-rule="evenodd" d="M416.2,622.2h8.4v16h-8.4v-16Z" class="g0_15"/>
<path fill-rule="evenodd" d="M424.6,622.2h16.5v16H424.6v-16Z" class="g0_15"/>
<path fill-rule="evenodd" d="M441.1,622.2h8.3v16h-8.3v-16Z" class="g0_15"/>
<path fill-rule="evenodd" d="M449.4,622.2h41.3v16H449.4v-16Z" class="g0_15"/>
<path fill-rule="evenodd" d="M490.7,622.2H499v16h-8.3v-16Z" class="g0_15"/>
<path fill-rule="evenodd" d="M499,622.2h8.3v16H499v-16Z" class="g0_15"/>
<path fill-rule="evenodd" d="M507.3,622.2h8.3v16h-8.3v-16Z" class="g0_15"/>
<path fill-rule="evenodd" d="M515.6,622.2h16.5v16H515.6v-16Z" class="g0_15"/>
<path fill-rule="evenodd" d="M532.1,622.2h8.4v16h-8.4v-16Z" class="g0_15"/>
<path fill-rule="evenodd" d="M540.5,622.2h24.8v16H540.5v-16Z" class="g0_15"/>
<path fill-rule="evenodd" d="M565.3,622.2h8.2v16h-8.2v-16Z" class="g0_15"/>
<path fill-rule="evenodd" d="M573.5,622.2h82.8v16H573.5v-16Z" class="g0_15"/>
<path fill-rule="evenodd" d="M110,638.2H825v15.9H110V638.2Z" class="g0_15"/>
<path fill-rule="evenodd" d="M267.3,638.2h8.2v15.9h-8.2V638.2Z" class="g0_15"/>
<path fill-rule="evenodd" d="M275.5,638.2H350v15.9H275.5V638.2Z" class="g0_15"/>
<path fill-rule="evenodd" d="M350,638.2h8.3v15.9H350V638.2Z" class="g0_15"/>
<path fill-rule="evenodd" d="M366.6,638.2h16.6v15.9H366.6V638.2Z" class="g0_15"/>
<path fill-rule="evenodd" d="M110,654.2H825v16H110v-16Z" class="g0_15"/>
<path fill-rule="evenodd" d="M267.3,654.2h8.2v16h-8.2v-16Z" class="g0_15"/>
<path fill-rule="evenodd" d="M275.5,654.2H350v16H275.5v-16Z" class="g0_15"/>
<path fill-rule="evenodd" d="M350,654.2h8.3v16H350v-16Z" class="g0_15"/>
<path fill-rule="evenodd" d="M366.6,654.2h16.6v16H366.6v-16Z" class="g0_15"/>
<path fill-rule="evenodd" d="M110,670.2H825v15.9H110V670.2Z" class="g0_15"/>
<path fill-rule="evenodd" d="M267.3,670.2h8.2v15.9h-8.2V670.2Z" class="g0_15"/>
<path fill-rule="evenodd" d="M275.5,670.2H350v15.9H275.5V670.2Z" class="g0_15"/>
<path fill-rule="evenodd" d="M350,670.2h8.3v15.9H350V670.2Z" class="g0_15"/>
<path fill-rule="evenodd" d="M366.6,670.2h16.6v15.9H366.6V670.2Z" class="g0_15"/>
<path fill-rule="evenodd" d="M110,686.2H825v16H110v-16Z" class="g0_15"/>
<path fill-rule="evenodd" d="M267.3,686.2h8.2v16h-8.2v-16Z" class="g0_15"/>
<path fill-rule="evenodd" d="M275.5,686.2H350v16H275.5v-16Z" class="g0_15"/>
<path fill-rule="evenodd" d="M350,686.2h8.3v16H350v-16Z" class="g0_15"/>
<path fill-rule="evenodd" d="M366.6,686.2h16.6v16H366.6v-16Z" class="g0_15"/>
<path fill-rule="evenodd" d="M110,702.2H825v15.9H110V702.2Z" class="g0_15"/>
<path fill-rule="evenodd" d="M267.3,702.2h8.2v15.9h-8.2V702.2Z" class="g0_15"/>
<path fill-rule="evenodd" d="M275.5,702.2h66.3v15.9H275.5V702.2Z" class="g0_15"/>
<path fill-rule="evenodd" d="M341.8,702.2h24.8v15.9H341.8V702.2Z" class="g0_15"/>
<path fill-rule="evenodd" d="M110,718.2H825v16H110v-16Z" class="g0_15"/>
<path fill-rule="evenodd" d="M110,734.2H825v15.9H110V734.2Z" class="g0_15"/>
<path fill-rule="evenodd" d="M176.2,734.2h8.3v15.9h-8.3V734.2Z" class="g0_15"/>
<path fill-rule="evenodd" d="M110,750.2H825v16H110v-16Z" class="g0_15"/>
<path fill-rule="evenodd" d="M143.1,750.2h8.2v16h-8.2v-16Z" class="g0_15"/>
<path fill-rule="evenodd" d="M110,766.2H825v27.4H110V766.2Z" class="g0_15"/>
<path fill-rule="evenodd" d="M110,766.2h8.3v15.9H110V766.2Z" class="g0_15"/>
<path fill-rule="evenodd" d="M110,793.7H825v31.2H110V793.7Z" class="g1_15"/>
<path fill-rule="evenodd" d="M110,824.9H825v27.5H110V824.9Z" class="g1_15"/>
<path fill-rule="evenodd" d="M110,852.4H825v27.5H110V852.4Z" class="g1_15"/>
<path fill-rule="evenodd" d="M110,879.9H825v39H110v-39Z" class="g1_15"/>
<path fill-rule="evenodd" d="M110,918.9H825v31.2H110V918.9Z" class="g1_15"/>
<path fill-rule="evenodd" d="M110,950.2H825v16H110v-16Z" class="g0_15"/>
<path fill-rule="evenodd" d="M110,966.2H825v15.9H110V966.2Z" class="g0_15"/>
<path fill-rule="evenodd" d="M110,982.2H825v16H110v-16Z" class="g0_15"/>
<path fill-rule="evenodd" d="M110,998.2H825v15.9H110V998.2Z" class="g0_15"/>
<path fill-rule="evenodd" d="M110,1014.2H825v16H110v-16Z" class="g0_15"/>
<path fill-rule="evenodd" d="M110,1030.3H825v27.4H110v-27.4Z" class="g0_15"/>
</svg>