<?xml version="1.0" encoding="UTF-8" standalone="no"?>
<!DOCTYPE svg PUBLIC "-//W3C//DTD SVG 1.1//EN"
"http://www.w3.org/Graphics/SVG/1.1/DTD/svg11.dtd">
<svg viewBox="0 0 935 1210" version="1.1" xmlns="http://www.w3.org/2000/svg" xmlns:xlink="http://www.w3.org/1999/xlink">
<defs>
<style type="text/css"><![CDATA[
.g0_22{
fill: #F4F4F4;
}
.g1_22{
fill: #FDFDFD;
}
]]></style>
</defs>
<path fill-rule="evenodd" d="M110,110H825v17.7H110V110Z" class="g0_22"/>
<path fill-rule="evenodd" d="M110,110h18.3v17.7H110V110Z" class="g0_22"/>
<path fill-rule="evenodd" d="M110,127.7H825v17.7H110V127.7Z" class="g0_22"/>
<path fill-rule="evenodd" d="M110,127.7h9.2v17.7H110V127.7Z" class="g0_22"/>
<path fill-rule="evenodd" d="M119.2,127.7h9.1v17.7h-9.1V127.7Z" class="g0_22"/>
<path fill-rule="evenodd" d="M128.3,127.7h9.3v17.7h-9.3V127.7Z" class="g0_22"/>
<path fill-rule="evenodd" d="M137.6,127.7H156v17.7H137.6V127.7Z" class="g0_22"/>
<path fill-rule="evenodd" d="M156,127.7h9.2v17.7H156V127.7Z" class="g0_22"/>
<path fill-rule="evenodd" d="M165.2,127.7h64.3v17.7H165.2V127.7Z" class="g0_22"/>
<path fill-rule="evenodd" d="M229.5,127.7h9.2v17.7h-9.2V127.7Z" class="g0_22"/>
<path fill-rule="evenodd" d="M238.7,127.7h18.4v17.7H238.7V127.7Z" class="g0_22"/>
<path fill-rule="evenodd" d="M257.1,127.7h9.2v17.7h-9.2V127.7Z" class="g0_22"/>
<path fill-rule="evenodd" d="M266.3,127.7h55.2v17.7H266.3V127.7Z" class="g0_22"/>
<path fill-rule="evenodd" d="M321.5,127.7h9.2v17.7h-9.2V127.7Z" class="g0_22"/>
<path fill-rule="evenodd" d="M330.7,127.7h55.2v17.7H330.7V127.7Z" class="g0_22"/>
<path fill-rule="evenodd" d="M385.9,127.7h9.2v17.7h-9.2V127.7Z" class="g0_22"/>
<path fill-rule="evenodd" d="M395.1,127.7h46v17.7h-46V127.7Z" class="g0_22"/>
<path fill-rule="evenodd" d="M110,145.5H825v17.7H110V145.5Z" class="g0_22"/>
<path fill-rule="evenodd" d="M110,145.5h9.2v17.7H110V145.5Z" class="g0_22"/>
<path fill-rule="evenodd" d="M119.2,145.5h18.4v17.7H119.2V145.5Z" class="g0_22"/>
<path fill-rule="evenodd" d="M110,163.3H825V181H110V163.3Z" class="g0_22"/>
<path fill-rule="evenodd" d="M110,163.3h46V181H110V163.3Z" class="g0_22"/>
<path fill-rule="evenodd" d="M165.2,163.3h55.1V181H165.2V163.3Z" class="g0_22"/>
<path fill-rule="evenodd" d="M220.3,163.3h9.2V181h-9.2V163.3Z" class="g0_22"/>
<path fill-rule="evenodd" d="M110,181.1H825v17.7H110V181.1Z" class="g0_22"/>
<path fill-rule="evenodd" d="M110,181.1h55.2v17.7H110V181.1Z" class="g0_22"/>
<path fill-rule="evenodd" d="M174.3,181.1h46v17.7h-46V181.1Z" class="g0_22"/>
<path fill-rule="evenodd" d="M110,198.9H825v17.7H110V198.9Z" class="g0_22"/>
<path fill-rule="evenodd" d="M110,198.9h9.2v17.7H110V198.9Z" class="g0_22"/>
<path fill-rule="evenodd" d="M110,216.6H825v17.8H110V216.6Z" class="g0_22"/>
<path fill-rule="evenodd" d="M146.7,216.6H202v17.8H146.7V216.6Z" class="g0_22"/>
<path fill-rule="evenodd" d="M211.1,216.6h27.6v17.8H211.1V216.6Z" class="g0_22"/>
<path fill-rule="evenodd" d="M257.1,216.6h9.2v17.8h-9.2V216.6Z" class="g0_22"/>
<path fill-rule="evenodd" d="M110,234.4H825v17.8H110V234.4Z" class="g0_22"/>
<path fill-rule="evenodd" d="M146.7,234.4H202v17.8H146.7V234.4Z" class="g0_22"/>
<path fill-rule="evenodd" d="M211.1,234.4h27.6v17.8H211.1V234.4Z" class="g0_22"/>
<path fill-rule="evenodd" d="M257.1,234.4h9.2v17.8h-9.2V234.4Z" class="g0_22"/>
<path fill-rule="evenodd" d="M110,252.2H825V270H110V252.2Z" class="g0_22"/>
<path fill-rule="evenodd" d="M110,252.2h9.2V270H110V252.2Z" class="g0_22"/>
<path fill-rule="evenodd" d="M110,270H825v17.8H110V270Z" class="g0_22"/>
<path fill-rule="evenodd" d="M110,287.8H825v17.8H110V287.8Z" class="g0_22"/>
<path fill-rule="evenodd" d="M110,287.8h46v17.8H110V287.8Z" class="g0_22"/>
<path fill-rule="evenodd" d="M110,305.6H825v17.7H110V305.6Z" class="g0_22"/>
<path fill-rule="evenodd" d="M110,305.6h9.2v17.7H110V305.6Z" class="g0_22"/>
<path fill-rule="evenodd" d="M110,323.4H825v17.7H110V323.4Z" class="g0_22"/>
<path fill-rule="evenodd" d="M146.7,323.4H202v17.7H146.7V323.4Z" class="g0_22"/>
<path fill-rule="evenodd" d="M211.1,323.4H248v17.7H211.1V323.4Z" class="g0_22"/>
<path fill-rule="evenodd" d="M293.9,323.4h18.5v17.7H293.9V323.4Z" class="g0_22"/>
<path fill-rule="evenodd" d="M110,341.2H825v17.7H110V341.2Z" class="g0_22"/>
<path fill-rule="evenodd" d="M146.7,341.2H156v17.7h-9.3V341.2Z" class="g0_22"/>
<path fill-rule="evenodd" d="M110,359H825v17.7H110V359Z" class="g0_22"/>
<path fill-rule="evenodd" d="M321.5,359h9.2v17.7h-9.2V359Z" class="g0_22"/>
<path fill-rule="evenodd" d="M339.9,359h27.6v17.7H339.9V359Z" class="g0_22"/>
<path fill-rule="evenodd" d="M477.9,359h27.6v17.7H477.9V359Z" class="g0_22"/>
<path fill-rule="evenodd" d="M110,376.7H825v17.8H110V376.7Z" class="g0_22"/>
<path fill-rule="evenodd" d="M202,376.7h9.1v17.8H202V376.7Z" class="g0_22"/>
<path fill-rule="evenodd" d="M211.1,376.7h9.2v17.8h-9.2V376.7Z" class="g0_22"/>
<path fill-rule="evenodd" d="M229.5,376.7h9.2v17.8h-9.2V376.7Z" class="g0_22"/>
<path fill-rule="evenodd" d="M248,376.7h27.5v17.8H248V376.7Z" class="g0_22"/>
<path fill-rule="evenodd" d="M275.5,376.7h9.2v17.8h-9.2V376.7Z" class="g0_22"/>
<path fill-rule="evenodd" d="M110,394.5H825v17.8H110V394.5Z" class="g0_22"/>
<path fill-rule="evenodd" d="M202,394.5h9.1v17.8H202V394.5Z" class="g0_22"/>
<path fill-rule="evenodd" d="M211.1,394.5h9.2v17.8h-9.2V394.5Z" class="g0_22"/>
<path fill-rule="evenodd" d="M229.5,394.5h9.2v17.8h-9.2V394.5Z" class="g0_22"/>
<path fill-rule="evenodd" d="M248,394.5h27.5v17.8H248V394.5Z" class="g0_22"/>
<path fill-rule="evenodd" d="M275.5,394.5h9.2v17.8h-9.2V394.5Z" class="g0_22"/>
<path fill-rule="evenodd" d="M110,412.3H825V430H110V412.3Z" class="g0_22"/>
<path fill-rule="evenodd" d="M248,412.3h9.1V430H248V412.3Z" class="g0_22"/>
<path fill-rule="evenodd" d="M257.1,412.3h82.8V430H257.1V412.3Z" class="g0_22"/>
<path fill-rule="evenodd" d="M339.9,412.3h9.2V430h-9.2V412.3Z" class="g0_22"/>
<path fill-rule="evenodd" d="M349.1,412.3h18.4V430H349.1V412.3Z" class="g0_22"/>
<path fill-rule="evenodd" d="M367.5,412.3h9.2V430h-9.2V412.3Z" class="g0_22"/>
<path fill-rule="evenodd" d="M376.7,412.3h9.2V430h-9.2V412.3Z" class="g0_22"/>
<path fill-rule="evenodd" d="M385.9,412.3h9.2V430h-9.2V412.3Z" class="g0_22"/>
<path fill-rule="evenodd" d="M395.1,412.3h36.8V430H395.1V412.3Z" class="g0_22"/>
<path fill-rule="evenodd" d="M431.9,412.3h9.2V430h-9.2V412.3Z" class="g0_22"/>
<path fill-rule="evenodd" d="M441.1,412.3h9.2V430h-9.2V412.3Z" class="g0_22"/>
<path fill-rule="evenodd" d="M450.3,412.3h9.2V430h-9.2V412.3Z" class="g0_22"/>
<path fill-rule="evenodd" d="M459.5,412.3h9.1V430h-9.1V412.3Z" class="g0_22"/>
<path fill-rule="evenodd" d="M468.6,412.3h9.3V430h-9.3V412.3Z" class="g0_22"/>
<path fill-rule="evenodd" d="M477.9,412.3h36.8V430H477.9V412.3Z" class="g0_22"/>
<path fill-rule="evenodd" d="M551.5,412.3h9.2V430h-9.2V412.3Z" class="g0_22"/>
<path fill-rule="evenodd" d="M560.7,412.3h9.2V430h-9.2V412.3Z" class="g0_22"/>
<path fill-rule="evenodd" d="M606.7,412.3h9.1V430h-9.1V412.3Z" class="g0_22"/>
<path fill-rule="evenodd" d="M615.8,412.3H625V430h-9.2V412.3Z" class="g0_22"/>
<path fill-rule="evenodd" d="M625,412.3h18.4V430H625V412.3Z" class="g0_22"/>
<path fill-rule="evenodd" d="M110,430.1H825v17.7H110V430.1Z" class="g0_22"/>
<path fill-rule="evenodd" d="M248,430.1h9.1v17.7H248V430.1Z" class="g0_22"/>
<path fill-rule="evenodd" d="M257.1,430.1h73.6v17.7H257.1V430.1Z" class="g0_22"/>
<path fill-rule="evenodd" d="M330.7,430.1h27.6v17.7H330.7V430.1Z" class="g0_22"/>
<path fill-rule="evenodd" d="M110,447.9H825v17.7H110V447.9Z" class="g0_22"/>
<path fill-rule="evenodd" d="M146.7,447.9H156v17.7h-9.3V447.9Z" class="g0_22"/>
<path fill-rule="evenodd" d="M110,465.7H825v29.1H110V465.7Z" class="g0_22"/>
<path fill-rule="evenodd" d="M110,465.7h9.2v17.7H110V465.7Z" class="g0_22"/>
<path fill-rule="evenodd" d="M110,494.9H825v43.7H110V494.9Z" class="g1_22"/>
<path fill-rule="evenodd" d="M110,538.6H825v27.5H110V538.6Z" class="g1_22"/>
<path fill-rule="evenodd" d="M110,566.1H825v27.5H110V566.1Z" class="g1_22"/>
<path fill-rule="evenodd" d="M110,593.6H825v27.5H110V593.6Z" class="g1_22"/>
<path fill-rule="evenodd" d="M110,621.1H825v39H110v-39Z" class="g1_22"/>
<path fill-rule="evenodd" d="M110,660.1H825v43.7H110V660.1Z" class="g1_22"/>
<path fill-rule="evenodd" d="M110,703.8H825v17.8H110V703.8Z" class="g0_22"/>
<path fill-rule="evenodd" d="M110,721.6H825v29.1H110V721.6Z" class="g0_22"/>
</svg>