<?xml version="1.0" encoding="UTF-8" standalone="no"?>
<!DOCTYPE svg PUBLIC "-//W3C//DTD SVG 1.1//EN"
"http://www.w3.org/Graphics/SVG/1.1/DTD/svg11.dtd">
<svg viewBox="0 0 935 1210" version="1.1" xmlns="http://www.w3.org/2000/svg" xmlns:xlink="http://www.w3.org/1999/xlink">
<defs>
<style type="text/css"><![CDATA[
.g0_17{
fill: #F4F4F4;
}
.g1_17{
fill: #FDFDFD;
}
]]></style>
</defs>
<path fill-rule="evenodd" d="M110,110H825v17.7H110V110Z" class="g0_17"/>
<path fill-rule="evenodd" d="M110,110h18.3v17.7H110V110Z" class="g0_17"/>
<path fill-rule="evenodd" d="M110,127.7H825v17.7H110V127.7Z" class="g0_17"/>
<path fill-rule="evenodd" d="M110,127.7h9.2v17.7H110V127.7Z" class="g0_17"/>
<path fill-rule="evenodd" d="M119.2,127.7h9.1v17.7h-9.1V127.7Z" class="g0_17"/>
<path fill-rule="evenodd" d="M128.3,127.7h9.3v17.7h-9.3V127.7Z" class="g0_17"/>
<path fill-rule="evenodd" d="M137.6,127.7H156v17.7H137.6V127.7Z" class="g0_17"/>
<path fill-rule="evenodd" d="M156,127.7h9.2v17.7H156V127.7Z" class="g0_17"/>
<path fill-rule="evenodd" d="M165.2,127.7h64.3v17.7H165.2V127.7Z" class="g0_17"/>
<path fill-rule="evenodd" d="M229.5,127.7h9.2v17.7h-9.2V127.7Z" class="g0_17"/>
<path fill-rule="evenodd" d="M238.7,127.7h18.4v17.7H238.7V127.7Z" class="g0_17"/>
<path fill-rule="evenodd" d="M257.1,127.7h9.2v17.7h-9.2V127.7Z" class="g0_17"/>
<path fill-rule="evenodd" d="M266.3,127.7h92v17.7h-92V127.7Z" class="g0_17"/>
<path fill-rule="evenodd" d="M358.3,127.7h9.2v17.7h-9.2V127.7Z" class="g0_17"/>
<path fill-rule="evenodd" d="M367.5,127.7h82.8v17.7H367.5V127.7Z" class="g0_17"/>
<path fill-rule="evenodd" d="M450.3,127.7h9.2v17.7h-9.2V127.7Z" class="g0_17"/>
<path fill-rule="evenodd" d="M459.5,127.7h92v17.7h-92V127.7Z" class="g0_17"/>
<path fill-rule="evenodd" d="M110,145.5H825v17.7H110V145.5Z" class="g0_17"/>
<path fill-rule="evenodd" d="M110,145.5h9.2v17.7H110V145.5Z" class="g0_17"/>
<path fill-rule="evenodd" d="M119.2,145.5h18.4v17.7H119.2V145.5Z" class="g0_17"/>
<path fill-rule="evenodd" d="M110,163.3H825V181H110V163.3Z" class="g0_17"/>
<path fill-rule="evenodd" d="M110,163.3h46V181H110V163.3Z" class="g0_17"/>
<path fill-rule="evenodd" d="M165.2,163.3h55.1V181H165.2V163.3Z" class="g0_17"/>
<path fill-rule="evenodd" d="M220.3,163.3h9.2V181h-9.2V163.3Z" class="g0_17"/>
<path fill-rule="evenodd" d="M110,181.1H825v17.7H110V181.1Z" class="g0_17"/>
<path fill-rule="evenodd" d="M110,181.1h46v17.7H110V181.1Z" class="g0_17"/>
<path fill-rule="evenodd" d="M110,198.9H825v17.7H110V198.9Z" class="g0_17"/>
<path fill-rule="evenodd" d="M110,198.9h9.2v17.7H110V198.9Z" class="g0_17"/>
<path fill-rule="evenodd" d="M110,216.6H825v17.8H110V216.6Z" class="g0_17"/>
<path fill-rule="evenodd" d="M146.7,216.6H202v17.8H146.7V216.6Z" class="g0_17"/>
<path fill-rule="evenodd" d="M211.1,216.6h55.2v17.8H211.1V216.6Z" class="g0_17"/>
<path fill-rule="evenodd" d="M275.5,216.6h36.9v17.8H275.5V216.6Z" class="g0_17"/>
<path fill-rule="evenodd" d="M358.3,216.6h18.4v17.8H358.3V216.6Z" class="g0_17"/>
<path fill-rule="evenodd" d="M110,234.4H825v17.8H110V234.4Z" class="g0_17"/>
<path fill-rule="evenodd" d="M146.7,234.4H156v17.8h-9.3V234.4Z" class="g0_17"/>
<path fill-rule="evenodd" d="M110,252.2H825V270H110V252.2Z" class="g0_17"/>
<path fill-rule="evenodd" d="M183.6,252.2h27.5V270H183.6V252.2Z" class="g0_17"/>
<path fill-rule="evenodd" d="M238.7,252.2H248V270h-9.3V252.2Z" class="g0_17"/>
<path fill-rule="evenodd" d="M257.1,252.2h36.8V270H257.1V252.2Z" class="g0_17"/>
<path fill-rule="evenodd" d="M303.1,252.2h9.3V270h-9.3V252.2Z" class="g0_17"/>
<path fill-rule="evenodd" d="M321.5,252.2h36.8V270H321.5V252.2Z" class="g0_17"/>
<path fill-rule="evenodd" d="M367.5,252.2h9.2V270h-9.2V252.2Z" class="g0_17"/>
<path fill-rule="evenodd" d="M385.9,252.2h36.8V270H385.9V252.2Z" class="g0_17"/>
<path fill-rule="evenodd" d="M422.7,252.2h9.2V270h-9.2V252.2Z" class="g0_17"/>
<path fill-rule="evenodd" d="M110,270H825v17.8H110V270Z" class="g0_17"/>
<path fill-rule="evenodd" d="M183.6,270h36.7v17.8H183.6V270Z" class="g0_17"/>
<path fill-rule="evenodd" d="M248,270h9.1v17.8H248V270Z" class="g0_17"/>
<path fill-rule="evenodd" d="M266.3,270h36.8v17.8H266.3V270Z" class="g0_17"/>
<path fill-rule="evenodd" d="M312.4,270h9.1v17.8h-9.1V270Z" class="g0_17"/>
<path fill-rule="evenodd" d="M330.7,270h36.8v17.8H330.7V270Z" class="g0_17"/>
<path fill-rule="evenodd" d="M376.7,270h9.2v17.8h-9.2V270Z" class="g0_17"/>
<path fill-rule="evenodd" d="M395.1,270h36.8v17.8H395.1V270Z" class="g0_17"/>
<path fill-rule="evenodd" d="M431.9,270h9.2v17.8h-9.2V270Z" class="g0_17"/>
<path fill-rule="evenodd" d="M110,287.8H825v17.8H110V287.8Z" class="g0_17"/>
<path fill-rule="evenodd" d="M183.6,287.8h27.5v17.8H183.6V287.8Z" class="g0_17"/>
<path fill-rule="evenodd" d="M238.7,287.8H248v17.8h-9.3V287.8Z" class="g0_17"/>
<path fill-rule="evenodd" d="M257.1,287.8h9.2v17.8h-9.2V287.8Z" class="g0_17"/>
<path fill-rule="evenodd" d="M266.3,287.8h18.4v17.8H266.3V287.8Z" class="g0_17"/>
<path fill-rule="evenodd" d="M284.7,287.8h9.2v17.8h-9.2V287.8Z" class="g0_17"/>
<path fill-rule="evenodd" d="M110,305.6H825v17.7H110V305.6Z" class="g0_17"/>
<path fill-rule="evenodd" d="M248,305.6h9.1v17.7H248V305.6Z" class="g0_17"/>
<path fill-rule="evenodd" d="M257.1,305.6h82.8v17.7H257.1V305.6Z" class="g0_17"/>
<path fill-rule="evenodd" d="M339.9,305.6h9.2v17.7h-9.2V305.6Z" class="g0_17"/>
<path fill-rule="evenodd" d="M349.1,305.6h46v17.7h-46V305.6Z" class="g0_17"/>
<path fill-rule="evenodd" d="M395.1,305.6h9.2v17.7h-9.2V305.6Z" class="g0_17"/>
<path fill-rule="evenodd" d="M404.3,305.6h46v17.7h-46V305.6Z" class="g0_17"/>
<path fill-rule="evenodd" d="M450.3,305.6h9.2v17.7h-9.2V305.6Z" class="g0_17"/>
<path fill-rule="evenodd" d="M459.5,305.6h92v17.7h-92V305.6Z" class="g0_17"/>
<path fill-rule="evenodd" d="M551.5,305.6h9.2v17.7h-9.2V305.6Z" class="g0_17"/>
<path fill-rule="evenodd" d="M560.7,305.6H579v17.7H560.7V305.6Z" class="g0_17"/>
<path fill-rule="evenodd" d="M579,305.6h18.4v17.7H579V305.6Z" class="g0_17"/>
<path fill-rule="evenodd" d="M110,323.4H825v17.7H110V323.4Z" class="g0_17"/>
<path fill-rule="evenodd" d="M248,323.4h9.1v17.7H248V323.4Z" class="g0_17"/>
<path fill-rule="evenodd" d="M257.1,323.4h82.8v17.7H257.1V323.4Z" class="g0_17"/>
<path fill-rule="evenodd" d="M339.9,323.4h9.2v17.7h-9.2V323.4Z" class="g0_17"/>
<path fill-rule="evenodd" d="M349.1,323.4H468.6v17.7H349.1V323.4Z" class="g0_17"/>
<path fill-rule="evenodd" d="M533,323.4h9.3v17.7H533V323.4Z" class="g0_17"/>
<path fill-rule="evenodd" d="M551.5,323.4h9.2v17.7h-9.2V323.4Z" class="g0_17"/>
<path fill-rule="evenodd" d="M597.4,323.4h18.4v17.7H597.4V323.4Z" class="g0_17"/>
<path fill-rule="evenodd" d="M625,323.4h9.3v17.7H625V323.4Z" class="g0_17"/>
<path fill-rule="evenodd" d="M634.3,323.4h18.4v17.7H634.3V323.4Z" class="g0_17"/>
<path fill-rule="evenodd" d="M110,341.2H825v17.7H110V341.2Z" class="g0_17"/>
<path fill-rule="evenodd" d="M248,341.2h9.1v17.7H248V341.2Z" class="g0_17"/>
<path fill-rule="evenodd" d="M257.1,341.2h82.8v17.7H257.1V341.2Z" class="g0_17"/>
<path fill-rule="evenodd" d="M339.9,341.2h9.2v17.7h-9.2V341.2Z" class="g0_17"/>
<path fill-rule="evenodd" d="M349.1,341.2H468.6v17.7H349.1V341.2Z" class="g0_17"/>
<path fill-rule="evenodd" d="M533,341.2h9.3v17.7H533V341.2Z" class="g0_17"/>
<path fill-rule="evenodd" d="M551.5,341.2h9.2v17.7h-9.2V341.2Z" class="g0_17"/>
<path fill-rule="evenodd" d="M597.4,341.2h18.4v17.7H597.4V341.2Z" class="g0_17"/>
<path fill-rule="evenodd" d="M625,341.2h9.3v17.7H625V341.2Z" class="g0_17"/>
<path fill-rule="evenodd" d="M634.3,341.2h18.4v17.7H634.3V341.2Z" class="g0_17"/>
<path fill-rule="evenodd" d="M110,359H825v17.7H110V359Z" class="g0_17"/>
<path fill-rule="evenodd" d="M248,359h9.1v17.7H248V359Z" class="g0_17"/>
<path fill-rule="evenodd" d="M257.1,359h82.8v17.7H257.1V359Z" class="g0_17"/>
<path fill-rule="evenodd" d="M339.9,359h9.2v17.7h-9.2V359Z" class="g0_17"/>
<path fill-rule="evenodd" d="M349.1,359H468.6v17.7H349.1V359Z" class="g0_17"/>
<path fill-rule="evenodd" d="M533,359h9.3v17.7H533V359Z" class="g0_17"/>
<path fill-rule="evenodd" d="M551.5,359h9.2v17.7h-9.2V359Z" class="g0_17"/>
<path fill-rule="evenodd" d="M597.4,359h18.4v17.7H597.4V359Z" class="g0_17"/>
<path fill-rule="evenodd" d="M625,359h9.3v17.7H625V359Z" class="g0_17"/>
<path fill-rule="evenodd" d="M634.3,359h18.4v17.7H634.3V359Z" class="g0_17"/>
<path fill-rule="evenodd" d="M110,376.7H825v17.8H110V376.7Z" class="g0_17"/>
<path fill-rule="evenodd" d="M248,376.7h9.1v17.8H248V376.7Z" class="g0_17"/>
<path fill-rule="evenodd" d="M257.1,376.7h82.8v17.8H257.1V376.7Z" class="g0_17"/>
<path fill-rule="evenodd" d="M339.9,376.7h9.2v17.8h-9.2V376.7Z" class="g0_17"/>
<path fill-rule="evenodd" d="M349.1,376.7H468.6v17.8H349.1V376.7Z" class="g0_17"/>
<path fill-rule="evenodd" d="M533,376.7h9.3v17.8H533V376.7Z" class="g0_17"/>
<path fill-rule="evenodd" d="M551.5,376.7h9.2v17.8h-9.2V376.7Z" class="g0_17"/>
<path fill-rule="evenodd" d="M597.4,376.7h18.4v17.8H597.4V376.7Z" class="g0_17"/>
<path fill-rule="evenodd" d="M625,376.7h9.3v17.8H625V376.7Z" class="g0_17"/>
<path fill-rule="evenodd" d="M634.3,376.7h18.4v17.8H634.3V376.7Z" class="g0_17"/>
<path fill-rule="evenodd" d="M110,394.5H825v17.8H110V394.5Z" class="g0_17"/>
<path fill-rule="evenodd" d="M248,394.5h9.1v17.8H248V394.5Z" class="g0_17"/>
<path fill-rule="evenodd" d="M257.1,394.5h82.8v17.8H257.1V394.5Z" class="g0_17"/>
<path fill-rule="evenodd" d="M339.9,394.5h9.2v17.8h-9.2V394.5Z" class="g0_17"/>
<path fill-rule="evenodd" d="M349.1,394.5H468.6v17.8H349.1V394.5Z" class="g0_17"/>
<path fill-rule="evenodd" d="M533,394.5h9.3v17.8H533V394.5Z" class="g0_17"/>
<path fill-rule="evenodd" d="M551.5,394.5h36.8v17.8H551.5V394.5Z" class="g0_17"/>
<path fill-rule="evenodd" d="M597.4,394.5h9.3v17.8h-9.3V394.5Z" class="g0_17"/>
<path fill-rule="evenodd" d="M615.8,394.5h36.9v17.8H615.8V394.5Z" class="g0_17"/>
<path fill-rule="evenodd" d="M661.8,394.5h9.3v17.8h-9.3V394.5Z" class="g0_17"/>
<path fill-rule="evenodd" d="M680.2,394.5h18.5v17.8H680.2V394.5Z" class="g0_17"/>
<path fill-rule="evenodd" d="M735.4,394.5h18.4v17.8H735.4V394.5Z" class="g0_17"/>
<path fill-rule="evenodd" d="M763,394.5h18.4v17.8H763V394.5Z" class="g0_17"/>
<path fill-rule="evenodd" d="M781.4,394.5h18.4v17.8H781.4V394.5Z" class="g0_17"/>
<path fill-rule="evenodd" d="M110,412.3H825V430H110V412.3Z" class="g0_17"/>
<path fill-rule="evenodd" d="M248,412.3h9.1V430H248V412.3Z" class="g0_17"/>
<path fill-rule="evenodd" d="M257.1,412.3h73.6V430H257.1V412.3Z" class="g0_17"/>
<path fill-rule="evenodd" d="M330.7,412.3h27.6V430H330.7V412.3Z" class="g0_17"/>
<path fill-rule="evenodd" d="M110,430.1H825v17.7H110V430.1Z" class="g0_17"/>
<path fill-rule="evenodd" d="M146.7,430.1H156v17.7h-9.3V430.1Z" class="g0_17"/>
<path fill-rule="evenodd" d="M110,447.9H825V477H110V447.9Z" class="g0_17"/>
<path fill-rule="evenodd" d="M110,447.9h9.2v17.7H110V447.9Z" class="g0_17"/>
<path fill-rule="evenodd" d="M110,477.1H825v43.7H110V477.1Z" class="g1_17"/>
<path fill-rule="evenodd" d="M110,520.8H825v27.5H110V520.8Z" class="g1_17"/>
<path fill-rule="evenodd" d="M110,548.3H825v39H110v-39Z" class="g1_17"/>
<path fill-rule="evenodd" d="M110,587.3H825v27.5H110V587.3Z" class="g1_17"/>
<path fill-rule="evenodd" d="M110,614.8H825v38.9H110V614.8Z" class="g1_17"/>
<path fill-rule="evenodd" d="M110,653.7H825v43.7H110V653.7Z" class="g1_17"/>
<path fill-rule="evenodd" d="M110,697.5H825v17.7H110V697.5Z" class="g0_17"/>
<path fill-rule="evenodd" d="M110,715.3H825V733H110V715.3Z" class="g0_17"/>
<path fill-rule="evenodd" d="M110,733H825v17.7H110V733Z" class="g0_17"/>
<path fill-rule="evenodd" d="M110,750.8H825v17.7H110V750.8Z" class="g0_17"/>
<path fill-rule="evenodd" d="M110,768.6H825v17.7H110V768.6Z" class="g0_17"/>
<path fill-rule="evenodd" d="M110,786.4H825v17.7H110V786.4Z" class="g0_17"/>
<path fill-rule="evenodd" d="M110,804.2H825v29.2H110V804.2Z" class="g0_17"/>
</svg>