<?xml version="1.0" encoding="UTF-8" standalone="no"?>
<!DOCTYPE svg PUBLIC "-//W3C//DTD SVG 1.1//EN"
"http://www.w3.org/Graphics/SVG/1.1/DTD/svg11.dtd">
<svg viewBox="0 0 935 1210" version="1.1" xmlns="http://www.w3.org/2000/svg" xmlns:xlink="http://www.w3.org/1999/xlink">
<defs>
<style type="text/css"><![CDATA[
.g0_8{
fill: #F4F4F4;
}
.g1_8{
fill: #FDFDFD;
}
]]></style>
</defs>
<path fill-rule="evenodd" d="M110,110H825v17.7H110V110Z" class="g0_8"/>
<path fill-rule="evenodd" d="M110,110h18.3v17.7H110V110Z" class="g0_8"/>
<path fill-rule="evenodd" d="M110,127.7H825v17.7H110V127.7Z" class="g0_8"/>
<path fill-rule="evenodd" d="M110,127.7h9.2v17.7H110V127.7Z" class="g0_8"/>
<path fill-rule="evenodd" d="M119.2,127.7h9.1v17.7h-9.1V127.7Z" class="g0_8"/>
<path fill-rule="evenodd" d="M128.3,127.7h9.3v17.7h-9.3V127.7Z" class="g0_8"/>
<path fill-rule="evenodd" d="M137.6,127.7H156v17.7H137.6V127.7Z" class="g0_8"/>
<path fill-rule="evenodd" d="M156,127.7h9.2v17.7H156V127.7Z" class="g0_8"/>
<path fill-rule="evenodd" d="M165.2,127.7h64.3v17.7H165.2V127.7Z" class="g0_8"/>
<path fill-rule="evenodd" d="M229.5,127.7h9.2v17.7h-9.2V127.7Z" class="g0_8"/>
<path fill-rule="evenodd" d="M238.7,127.7h18.4v17.7H238.7V127.7Z" class="g0_8"/>
<path fill-rule="evenodd" d="M257.1,127.7h9.2v17.7h-9.2V127.7Z" class="g0_8"/>
<path fill-rule="evenodd" d="M266.3,127.7h64.4v17.7H266.3V127.7Z" class="g0_8"/>
<path fill-rule="evenodd" d="M330.7,127.7h9.2v17.7h-9.2V127.7Z" class="g0_8"/>
<path fill-rule="evenodd" d="M339.9,127.7h27.6v17.7H339.9V127.7Z" class="g0_8"/>
<path fill-rule="evenodd" d="M367.5,127.7h9.2v17.7h-9.2V127.7Z" class="g0_8"/>
<path fill-rule="evenodd" d="M376.7,127.7h36.8v17.7H376.7V127.7Z" class="g0_8"/>
<path fill-rule="evenodd" d="M413.5,127.7h9.2v17.7h-9.2V127.7Z" class="g0_8"/>
<path fill-rule="evenodd" d="M422.7,127.7h18.4v17.7H422.7V127.7Z" class="g0_8"/>
<path fill-rule="evenodd" d="M441.1,127.7h9.2v17.7h-9.2V127.7Z" class="g0_8"/>
<path fill-rule="evenodd" d="M450.3,127.7h64.4v17.7H450.3V127.7Z" class="g0_8"/>
<path fill-rule="evenodd" d="M514.7,127.7h9.2v17.7h-9.2V127.7Z" class="g0_8"/>
<path fill-rule="evenodd" d="M523.9,127.7h64.4v17.7H523.9V127.7Z" class="g0_8"/>
<path fill-rule="evenodd" d="M588.3,127.7h9.1v17.7h-9.1V127.7Z" class="g0_8"/>
<path fill-rule="evenodd" d="M110,145.5H825v17.7H110V145.5Z" class="g0_8"/>
<path fill-rule="evenodd" d="M110,145.5h9.2v17.7H110V145.5Z" class="g0_8"/>
<path fill-rule="evenodd" d="M119.2,145.5h18.4v17.7H119.2V145.5Z" class="g0_8"/>
<path fill-rule="evenodd" d="M110,163.3H825V181H110V163.3Z" class="g0_8"/>
<path fill-rule="evenodd" d="M110,163.3h46V181H110V163.3Z" class="g0_8"/>
<path fill-rule="evenodd" d="M165.2,163.3h55.1V181H165.2V163.3Z" class="g0_8"/>
<path fill-rule="evenodd" d="M220.3,163.3h9.2V181h-9.2V163.3Z" class="g0_8"/>
<path fill-rule="evenodd" d="M110,181.1H825v17.7H110V181.1Z" class="g0_8"/>
<path fill-rule="evenodd" d="M110,181.1h82.7v17.7H110V181.1Z" class="g0_8"/>
<path fill-rule="evenodd" d="M110,198.9H825v17.7H110V198.9Z" class="g0_8"/>
<path fill-rule="evenodd" d="M110,198.9h9.2v17.7H110V198.9Z" class="g0_8"/>
<path fill-rule="evenodd" d="M110,216.6H825v17.8H110V216.6Z" class="g0_8"/>
<path fill-rule="evenodd" d="M146.7,216.6h46v17.8h-46V216.6Z" class="g0_8"/>
<path fill-rule="evenodd" d="M110,234.4H825v17.8H110V234.4Z" class="g0_8"/>
<path fill-rule="evenodd" d="M146.7,234.4H156v17.8h-9.3V234.4Z" class="g0_8"/>
<path fill-rule="evenodd" d="M110,252.2H825V270H110V252.2Z" class="g0_8"/>
<path fill-rule="evenodd" d="M183.6,252.2h55.1V270H183.6V252.2Z" class="g0_8"/>
<path fill-rule="evenodd" d="M248,252.2h27.5V270H248V252.2Z" class="g0_8"/>
<path fill-rule="evenodd" d="M321.5,252.2h18.4V270H321.5V252.2Z" class="g0_8"/>
<path fill-rule="evenodd" d="M110,270H825v17.8H110V270Z" class="g0_8"/>
<path fill-rule="evenodd" d="M183.6,270h9.1v17.8h-9.1V270Z" class="g0_8"/>
<path fill-rule="evenodd" d="M110,287.8H825v17.8H110V287.8Z" class="g0_8"/>
<path fill-rule="evenodd" d="M349.1,287.8h9.2v17.8h-9.2V287.8Z" class="g0_8"/>
<path fill-rule="evenodd" d="M367.5,287.8h27.6v17.8H367.5V287.8Z" class="g0_8"/>
<path fill-rule="evenodd" d="M477.9,287.8h9.2v17.8h-9.2V287.8Z" class="g0_8"/>
<path fill-rule="evenodd" d="M487.1,287.8h36.8v17.8H487.1V287.8Z" class="g0_8"/>
<path fill-rule="evenodd" d="M533,287.8h9.3v17.8H533V287.8Z" class="g0_8"/>
<path fill-rule="evenodd" d="M560.7,287.8H579v17.8H560.7V287.8Z" class="g0_8"/>
<path fill-rule="evenodd" d="M579,287.8h18.4v17.8H579V287.8Z" class="g0_8"/>
<path fill-rule="evenodd" d="M110,305.6H825v17.7H110V305.6Z" class="g0_8"/>
<path fill-rule="evenodd" d="M284.7,305.6h9.2v17.7h-9.2V305.6Z" class="g0_8"/>
<path fill-rule="evenodd" d="M293.9,305.6h82.8v17.7H293.9V305.6Z" class="g0_8"/>
<path fill-rule="evenodd" d="M376.7,305.6h9.2v17.7h-9.2V305.6Z" class="g0_8"/>
<path fill-rule="evenodd" d="M385.9,305.6h46v17.7h-46V305.6Z" class="g0_8"/>
<path fill-rule="evenodd" d="M431.9,305.6h9.2v17.7h-9.2V305.6Z" class="g0_8"/>
<path fill-rule="evenodd" d="M441.1,305.6h36.8v17.7H441.1V305.6Z" class="g0_8"/>
<path fill-rule="evenodd" d="M477.9,305.6h9.2v17.7h-9.2V305.6Z" class="g0_8"/>
<path fill-rule="evenodd" d="M487.1,305.6h64.4v17.7H487.1V305.6Z" class="g0_8"/>
<path fill-rule="evenodd" d="M551.5,305.6h9.2v17.7h-9.2V305.6Z" class="g0_8"/>
<path fill-rule="evenodd" d="M560.7,305.6h9.2v17.7h-9.2V305.6Z" class="g0_8"/>
<path fill-rule="evenodd" d="M569.9,305.6H579v17.7h-9.1V305.6Z" class="g0_8"/>
<path fill-rule="evenodd" d="M579,305.6h9.3v17.7H579V305.6Z" class="g0_8"/>
<path fill-rule="evenodd" d="M588.3,305.6h18.4v17.7H588.3V305.6Z" class="g0_8"/>
<path fill-rule="evenodd" d="M110,323.4H825v17.7H110V323.4Z" class="g0_8"/>
<path fill-rule="evenodd" d="M284.7,323.4h9.2v17.7h-9.2V323.4Z" class="g0_8"/>
<path fill-rule="evenodd" d="M293.9,323.4h82.8v17.7H293.9V323.4Z" class="g0_8"/>
<path fill-rule="evenodd" d="M376.7,323.4h9.2v17.7h-9.2V323.4Z" class="g0_8"/>
<path fill-rule="evenodd" d="M385.9,323.4h46v17.7h-46V323.4Z" class="g0_8"/>
<path fill-rule="evenodd" d="M431.9,323.4h9.2v17.7h-9.2V323.4Z" class="g0_8"/>
<path fill-rule="evenodd" d="M441.1,323.4h27.5v17.7H441.1V323.4Z" class="g0_8"/>
<path fill-rule="evenodd" d="M468.6,323.4h9.3v17.7h-9.3V323.4Z" class="g0_8"/>
<path fill-rule="evenodd" d="M477.9,323.4h46v17.7h-46V323.4Z" class="g0_8"/>
<path fill-rule="evenodd" d="M523.9,323.4H533v17.7h-9.1V323.4Z" class="g0_8"/>
<path fill-rule="evenodd" d="M533,323.4h9.3v17.7H533V323.4Z" class="g0_8"/>
<path fill-rule="evenodd" d="M542.3,323.4H579v17.7H542.3V323.4Z" class="g0_8"/>
<path fill-rule="evenodd" d="M634.3,323.4h18.4v17.7H634.3V323.4Z" class="g0_8"/>
<path fill-rule="evenodd" d="M110,341.2H825v17.7H110V341.2Z" class="g0_8"/>
<path fill-rule="evenodd" d="M284.7,341.2h9.2v17.7h-9.2V341.2Z" class="g0_8"/>
<path fill-rule="evenodd" d="M293.9,341.2h82.8v17.7H293.9V341.2Z" class="g0_8"/>
<path fill-rule="evenodd" d="M376.7,341.2h9.2v17.7h-9.2V341.2Z" class="g0_8"/>
<path fill-rule="evenodd" d="M422.7,341.2h9.2v17.7h-9.2V341.2Z" class="g0_8"/>
<path fill-rule="evenodd" d="M431.9,341.2h73.6v17.7H431.9V341.2Z" class="g0_8"/>
<path fill-rule="evenodd" d="M505.5,341.2h9.2v17.7h-9.2V341.2Z" class="g0_8"/>
<path fill-rule="evenodd" d="M514.7,341.2H625v17.7H514.7V341.2Z" class="g0_8"/>
<path fill-rule="evenodd" d="M625,341.2h27.7v17.7H625V341.2Z" class="g0_8"/>
<path fill-rule="evenodd" d="M110,359H825v17.7H110V359Z" class="g0_8"/>
<path fill-rule="evenodd" d="M284.7,359h9.2v17.7h-9.2V359Z" class="g0_8"/>
<path fill-rule="evenodd" d="M293.9,359h82.8v17.7H293.9V359Z" class="g0_8"/>
<path fill-rule="evenodd" d="M376.7,359h9.2v17.7h-9.2V359Z" class="g0_8"/>
<path fill-rule="evenodd" d="M422.7,359h9.2v17.7h-9.2V359Z" class="g0_8"/>
<path fill-rule="evenodd" d="M431.9,359h73.6v17.7H431.9V359Z" class="g0_8"/>
<path fill-rule="evenodd" d="M505.5,359h9.2v17.7h-9.2V359Z" class="g0_8"/>
<path fill-rule="evenodd" d="M514.7,359H615.8v17.7H514.7V359Z" class="g0_8"/>
<path fill-rule="evenodd" d="M615.8,359h27.6v17.7H615.8V359Z" class="g0_8"/>
<path fill-rule="evenodd" d="M110,376.7H825v17.8H110V376.7Z" class="g0_8"/>
<path fill-rule="evenodd" d="M284.7,376.7h9.2v17.8h-9.2V376.7Z" class="g0_8"/>
<path fill-rule="evenodd" d="M293.9,376.7h82.8v17.8H293.9V376.7Z" class="g0_8"/>
<path fill-rule="evenodd" d="M376.7,376.7h9.2v17.8h-9.2V376.7Z" class="g0_8"/>
<path fill-rule="evenodd" d="M422.7,376.7h9.2v17.8h-9.2V376.7Z" class="g0_8"/>
<path fill-rule="evenodd" d="M431.9,376.7h73.6v17.8H431.9V376.7Z" class="g0_8"/>
<path fill-rule="evenodd" d="M505.5,376.7h9.2v17.8h-9.2V376.7Z" class="g0_8"/>
<path fill-rule="evenodd" d="M514.7,376.7h92v17.8h-92V376.7Z" class="g0_8"/>
<path fill-rule="evenodd" d="M606.7,376.7h27.6v17.8H606.7V376.7Z" class="g0_8"/>
<path fill-rule="evenodd" d="M110,394.5H825v17.8H110V394.5Z" class="g0_8"/>
<path fill-rule="evenodd" d="M284.7,394.5h9.2v17.8h-9.2V394.5Z" class="g0_8"/>
<path fill-rule="evenodd" d="M293.9,394.5h82.8v17.8H293.9V394.5Z" class="g0_8"/>
<path fill-rule="evenodd" d="M376.7,394.5h9.2v17.8h-9.2V394.5Z" class="g0_8"/>
<path fill-rule="evenodd" d="M422.7,394.5h9.2v17.8h-9.2V394.5Z" class="g0_8"/>
<path fill-rule="evenodd" d="M431.9,394.5h73.6v17.8H431.9V394.5Z" class="g0_8"/>
<path fill-rule="evenodd" d="M505.5,394.5h9.2v17.8h-9.2V394.5Z" class="g0_8"/>
<path fill-rule="evenodd" d="M514.7,394.5h73.6v17.8H514.7V394.5Z" class="g0_8"/>
<path fill-rule="evenodd" d="M588.3,394.5h27.5v17.8H588.3V394.5Z" class="g0_8"/>
<path fill-rule="evenodd" d="M110,412.3H825V430H110V412.3Z" class="g0_8"/>
<path fill-rule="evenodd" d="M284.7,412.3h9.2V430h-9.2V412.3Z" class="g0_8"/>
<path fill-rule="evenodd" d="M293.9,412.3h82.8V430H293.9V412.3Z" class="g0_8"/>
<path fill-rule="evenodd" d="M376.7,412.3h9.2V430h-9.2V412.3Z" class="g0_8"/>
<path fill-rule="evenodd" d="M422.7,412.3h9.2V430h-9.2V412.3Z" class="g0_8"/>
<path fill-rule="evenodd" d="M431.9,412.3h73.6V430H431.9V412.3Z" class="g0_8"/>
<path fill-rule="evenodd" d="M505.5,412.3h9.2V430h-9.2V412.3Z" class="g0_8"/>
<path fill-rule="evenodd" d="M514.7,412.3H625V430H514.7V412.3Z" class="g0_8"/>
<path fill-rule="evenodd" d="M625,412.3h27.7V430H625V412.3Z" class="g0_8"/>
<path fill-rule="evenodd" d="M110,430.1H825v17.7H110V430.1Z" class="g0_8"/>
<path fill-rule="evenodd" d="M284.7,430.1h9.2v17.7h-9.2V430.1Z" class="g0_8"/>
<path fill-rule="evenodd" d="M293.9,430.1h82.8v17.7H293.9V430.1Z" class="g0_8"/>
<path fill-rule="evenodd" d="M376.7,430.1h9.2v17.7h-9.2V430.1Z" class="g0_8"/>
<path fill-rule="evenodd" d="M422.7,430.1h9.2v17.7h-9.2V430.1Z" class="g0_8"/>
<path fill-rule="evenodd" d="M431.9,430.1h73.6v17.7H431.9V430.1Z" class="g0_8"/>
<path fill-rule="evenodd" d="M505.5,430.1h9.2v17.7h-9.2V430.1Z" class="g0_8"/>
<path fill-rule="evenodd" d="M514.7,430.1h92v17.7h-92V430.1Z" class="g0_8"/>
<path fill-rule="evenodd" d="M606.7,430.1h27.6v17.7H606.7V430.1Z" class="g0_8"/>
<path fill-rule="evenodd" d="M110,447.9H825v17.7H110V447.9Z" class="g0_8"/>
<path fill-rule="evenodd" d="M284.7,447.9h9.2v17.7h-9.2V447.9Z" class="g0_8"/>
<path fill-rule="evenodd" d="M293.9,447.9h82.8v17.7H293.9V447.9Z" class="g0_8"/>
<path fill-rule="evenodd" d="M376.7,447.9h9.2v17.7h-9.2V447.9Z" class="g0_8"/>
<path fill-rule="evenodd" d="M422.7,447.9h9.2v17.7h-9.2V447.9Z" class="g0_8"/>
<path fill-rule="evenodd" d="M431.9,447.9h73.6v17.7H431.9V447.9Z" class="g0_8"/>
<path fill-rule="evenodd" d="M505.5,447.9h9.2v17.7h-9.2V447.9Z" class="g0_8"/>
<path fill-rule="evenodd" d="M514.7,447.9h92v17.7h-92V447.9Z" class="g0_8"/>
<path fill-rule="evenodd" d="M606.7,447.9h27.6v17.7H606.7V447.9Z" class="g0_8"/>
<path fill-rule="evenodd" d="M110,465.7H825v17.7H110V465.7Z" class="g0_8"/>
<path fill-rule="evenodd" d="M284.7,465.7h9.2v17.7h-9.2V465.7Z" class="g0_8"/>
<path fill-rule="evenodd" d="M293.9,465.7h36.8v17.7H293.9V465.7Z" class="g0_8"/>
<path fill-rule="evenodd" d="M330.7,465.7h27.6v17.7H330.7V465.7Z" class="g0_8"/>
<path fill-rule="evenodd" d="M110,483.5H825v17.7H110V483.5Z" class="g0_8"/>
<path fill-rule="evenodd" d="M220.3,483.5h55.2v17.7H220.3V483.5Z" class="g0_8"/>
<path fill-rule="evenodd" d="M284.7,483.5h9.2v17.7h-9.2V483.5Z" class="g0_8"/>
<path fill-rule="evenodd" d="M293.9,483.5h9.2v17.7h-9.2V483.5Z" class="g0_8"/>
<path fill-rule="evenodd" d="M110,501.2H825v17.7H110V501.2Z" class="g0_8"/>
<path fill-rule="evenodd" d="M183.6,501.2h9.1v17.7h-9.1V501.2Z" class="g0_8"/>
<path fill-rule="evenodd" d="M110,519H825v17.7H110V519Z" class="g0_8"/>
<path fill-rule="evenodd" d="M146.7,519H156v17.7h-9.3V519Z" class="g0_8"/>
<path fill-rule="evenodd" d="M110,536.8H825V566H110V536.8Z" class="g0_8"/>
<path fill-rule="evenodd" d="M110,536.8h9.2v17.7H110V536.8Z" class="g0_8"/>
<path fill-rule="evenodd" d="M110,566H825v43.7H110V566Z" class="g1_8"/>
<path fill-rule="evenodd" d="M110,609.7H825v27.5H110V609.7Z" class="g1_8"/>
<path fill-rule="evenodd" d="M110,637.2H825v27.5H110V637.2Z" class="g1_8"/>
<path fill-rule="evenodd" d="M110,664.7H825v27.5H110V664.7Z" class="g1_8"/>
<path fill-rule="evenodd" d="M110,692.2H825v39H110v-39Z" class="g1_8"/>
<path fill-rule="evenodd" d="M110,731.2H825v43.7H110V731.2Z" class="g1_8"/>
<path fill-rule="evenodd" d="M110,775H825v17.7H110V775Z" class="g0_8"/>
<path fill-rule="evenodd" d="M110,792.8H825v17.7H110V792.8Z" class="g0_8"/>
<path fill-rule="evenodd" d="M110,810.5H825v17.7H110V810.5Z" class="g0_8"/>
<path fill-rule="evenodd" d="M110,828.3H825V846H110V828.3Z" class="g0_8"/>
<path fill-rule="evenodd" d="M110,846.1H825v17.7H110V846.1Z" class="g0_8"/>
<path fill-rule="evenodd" d="M110,863.9H825v17.7H110V863.9Z" class="g0_8"/>
<path fill-rule="evenodd" d="M110,881.7H825v17.7H110V881.7Z" class="g0_8"/>
<path fill-rule="evenodd" d="M110,899.5H825v17.7H110V899.5Z" class="g0_8"/>
<path fill-rule="evenodd" d="M110,917.2H825v17.7H110V917.2Z" class="g0_8"/>
<path fill-rule="evenodd" d="M110,935H825v29.2H110V935Z" class="g0_8"/>
</svg>