<?xml version="1.0" encoding="UTF-8" standalone="no"?>
<!DOCTYPE svg PUBLIC "-//W3C//DTD SVG 1.1//EN"
"http://www.w3.org/Graphics/SVG/1.1/DTD/svg11.dtd">
<svg viewBox="0 0 935 1210" version="1.1" xmlns="http://www.w3.org/2000/svg" xmlns:xlink="http://www.w3.org/1999/xlink">
<defs>
<style type="text/css"><![CDATA[
.g0_34{
fill: #F4F4F4;
}
.g1_34{
fill: #FDFDFD;
}
]]></style>
</defs>
<path fill-rule="evenodd" d="M110,110H825v17.7H110V110Z" class="g0_34"/>
<path fill-rule="evenodd" d="M110,110h18.3v17.7H110V110Z" class="g0_34"/>
<path fill-rule="evenodd" d="M110,127.7H825v17.7H110V127.7Z" class="g0_34"/>
<path fill-rule="evenodd" d="M110,127.7h9.2v17.7H110V127.7Z" class="g0_34"/>
<path fill-rule="evenodd" d="M119.2,127.7h9.1v17.7h-9.1V127.7Z" class="g0_34"/>
<path fill-rule="evenodd" d="M128.3,127.7h9.3v17.7h-9.3V127.7Z" class="g0_34"/>
<path fill-rule="evenodd" d="M137.6,127.7h9.1v17.7h-9.1V127.7Z" class="g0_34"/>
<path fill-rule="evenodd" d="M146.7,127.7h18.5v17.7H146.7V127.7Z" class="g0_34"/>
<path fill-rule="evenodd" d="M165.2,127.7h9.1v17.7h-9.1V127.7Z" class="g0_34"/>
<path fill-rule="evenodd" d="M174.3,127.7h64.4v17.7H174.3V127.7Z" class="g0_34"/>
<path fill-rule="evenodd" d="M238.7,127.7H248v17.7h-9.3V127.7Z" class="g0_34"/>
<path fill-rule="evenodd" d="M248,127.7h18.3v17.7H248V127.7Z" class="g0_34"/>
<path fill-rule="evenodd" d="M266.3,127.7h9.2v17.7h-9.2V127.7Z" class="g0_34"/>
<path fill-rule="evenodd" d="M275.5,127.7h64.4v17.7H275.5V127.7Z" class="g0_34"/>
<path fill-rule="evenodd" d="M339.9,127.7h9.2v17.7h-9.2V127.7Z" class="g0_34"/>
<path fill-rule="evenodd" d="M349.1,127.7h64.4v17.7H349.1V127.7Z" class="g0_34"/>
<path fill-rule="evenodd" d="M413.5,127.7h9.2v17.7h-9.2V127.7Z" class="g0_34"/>
<path fill-rule="evenodd" d="M422.7,127.7h73.6v17.7H422.7V127.7Z" class="g0_34"/>
<path fill-rule="evenodd" d="M496.3,127.7h9.2v17.7h-9.2V127.7Z" class="g0_34"/>
<path fill-rule="evenodd" d="M505.5,127.7h36.8v17.7H505.5V127.7Z" class="g0_34"/>
<path fill-rule="evenodd" d="M542.3,127.7h9.2v17.7h-9.2V127.7Z" class="g0_34"/>
<path fill-rule="evenodd" d="M551.5,127.7h18.4v17.7H551.5V127.7Z" class="g0_34"/>
<path fill-rule="evenodd" d="M569.9,127.7H579v17.7h-9.1V127.7Z" class="g0_34"/>
<path fill-rule="evenodd" d="M579,127.7h64.4v17.7H579V127.7Z" class="g0_34"/>
<path fill-rule="evenodd" d="M643.4,127.7h9.3v17.7h-9.3V127.7Z" class="g0_34"/>
<path fill-rule="evenodd" d="M652.7,127.7h36.7v17.7H652.7V127.7Z" class="g0_34"/>
<path fill-rule="evenodd" d="M110,145.5H825v17.7H110V145.5Z" class="g0_34"/>
<path fill-rule="evenodd" d="M110,145.5h9.2v17.7H110V145.5Z" class="g0_34"/>
<path fill-rule="evenodd" d="M119.2,145.5h18.4v17.7H119.2V145.5Z" class="g0_34"/>
<path fill-rule="evenodd" d="M110,163.3H825V181H110V163.3Z" class="g0_34"/>
<path fill-rule="evenodd" d="M110,163.3h46V181H110V163.3Z" class="g0_34"/>
<path fill-rule="evenodd" d="M165.2,163.3h55.1V181H165.2V163.3Z" class="g0_34"/>
<path fill-rule="evenodd" d="M220.3,163.3h9.2V181h-9.2V163.3Z" class="g0_34"/>
<path fill-rule="evenodd" d="M110,181.1H825v17.7H110V181.1Z" class="g0_34"/>
<path fill-rule="evenodd" d="M110,181.1h46v17.7H110V181.1Z" class="g0_34"/>
<path fill-rule="evenodd" d="M110,198.9H825v17.7H110V198.9Z" class="g0_34"/>
<path fill-rule="evenodd" d="M110,198.9h9.2v17.7H110V198.9Z" class="g0_34"/>
<path fill-rule="evenodd" d="M110,216.6H825v17.8H110V216.6Z" class="g0_34"/>
<path fill-rule="evenodd" d="M146.7,216.6H202v17.8H146.7V216.6Z" class="g0_34"/>
<path fill-rule="evenodd" d="M211.1,216.6H248v17.8H211.1V216.6Z" class="g0_34"/>
<path fill-rule="evenodd" d="M293.9,216.6h9.2v17.8h-9.2V216.6Z" class="g0_34"/>
<path fill-rule="evenodd" d="M303.1,216.6h55.2v17.8H303.1V216.6Z" class="g0_34"/>
<path fill-rule="evenodd" d="M358.3,216.6h18.4v17.8H358.3V216.6Z" class="g0_34"/>
<path fill-rule="evenodd" d="M422.7,216.6h9.2v17.8h-9.2V216.6Z" class="g0_34"/>
<path fill-rule="evenodd" d="M110,234.4H825v17.8H110V234.4Z" class="g0_34"/>
<path fill-rule="evenodd" d="M146.7,234.4H156v17.8h-9.3V234.4Z" class="g0_34"/>
<path fill-rule="evenodd" d="M110,252.2H825V270H110V252.2Z" class="g0_34"/>
<path fill-rule="evenodd" d="M110,270H825v17.8H110V270Z" class="g0_34"/>
<path fill-rule="evenodd" d="M183.6,270h27.5v17.8H183.6V270Z" class="g0_34"/>
<path fill-rule="evenodd" d="M293.9,270h9.2v17.8h-9.2V270Z" class="g0_34"/>
<path fill-rule="evenodd" d="M312.4,270h9.1v17.8h-9.1V270Z" class="g0_34"/>
<path fill-rule="evenodd" d="M321.5,270h9.2v17.8h-9.2V270Z" class="g0_34"/>
<path fill-rule="evenodd" d="M110,287.8H825v17.8H110V287.8Z" class="g0_34"/>
<path fill-rule="evenodd" d="M174.3,287.8H202v17.8H174.3V287.8Z" class="g0_34"/>
<path fill-rule="evenodd" d="M211.1,287.8h9.2v17.8h-9.2V287.8Z" class="g0_34"/>
<path fill-rule="evenodd" d="M238.7,287.8H248v17.8h-9.3V287.8Z" class="g0_34"/>
<path fill-rule="evenodd" d="M257.1,287.8h9.2v17.8h-9.2V287.8Z" class="g0_34"/>
<path fill-rule="evenodd" d="M266.3,287.8h9.2v17.8h-9.2V287.8Z" class="g0_34"/>
<path fill-rule="evenodd" d="M303.1,287.8h18.4v17.8H303.1V287.8Z" class="g0_34"/>
<path fill-rule="evenodd" d="M330.7,287.8h18.4v17.8H330.7V287.8Z" class="g0_34"/>
<path fill-rule="evenodd" d="M349.1,287.8h9.2v17.8h-9.2V287.8Z" class="g0_34"/>
<path fill-rule="evenodd" d="M376.7,287.8h27.6v17.8H376.7V287.8Z" class="g0_34"/>
<path fill-rule="evenodd" d="M110,305.6H825v17.7H110V305.6Z" class="g0_34"/>
<path fill-rule="evenodd" d="M183.6,305.6h9.1v17.7h-9.1V305.6Z" class="g0_34"/>
<path fill-rule="evenodd" d="M110,323.4H825v17.7H110V323.4Z" class="g0_34"/>
<path fill-rule="evenodd" d="M220.3,323.4H248v17.7H220.3V323.4Z" class="g0_34"/>
<path fill-rule="evenodd" d="M257.1,323.4h9.2v17.7h-9.2V323.4Z" class="g0_34"/>
<path fill-rule="evenodd" d="M284.7,323.4h9.2v17.7h-9.2V323.4Z" class="g0_34"/>
<path fill-rule="evenodd" d="M303.1,323.4h9.3v17.7h-9.3V323.4Z" class="g0_34"/>
<path fill-rule="evenodd" d="M312.4,323.4h9.1v17.7h-9.1V323.4Z" class="g0_34"/>
<path fill-rule="evenodd" d="M349.1,323.4h9.2v17.7h-9.2V323.4Z" class="g0_34"/>
<path fill-rule="evenodd" d="M385.9,323.4h9.2v17.7h-9.2V323.4Z" class="g0_34"/>
<path fill-rule="evenodd" d="M404.3,323.4h9.2v17.7h-9.2V323.4Z" class="g0_34"/>
<path fill-rule="evenodd" d="M413.5,323.4h9.2v17.7h-9.2V323.4Z" class="g0_34"/>
<path fill-rule="evenodd" d="M441.1,323.4h27.5v17.7H441.1V323.4Z" class="g0_34"/>
<path fill-rule="evenodd" d="M110,341.2H825v17.7H110V341.2Z" class="g0_34"/>
<path fill-rule="evenodd" d="M220.3,341.2h9.2v17.7h-9.2V341.2Z" class="g0_34"/>
<path fill-rule="evenodd" d="M110,359H825v17.7H110V359Z" class="g0_34"/>
<path fill-rule="evenodd" d="M321.5,359h9.2v17.7h-9.2V359Z" class="g0_34"/>
<path fill-rule="evenodd" d="M330.7,359h46v17.7h-46V359Z" class="g0_34"/>
<path fill-rule="evenodd" d="M376.7,359h9.2v17.7h-9.2V359Z" class="g0_34"/>
<path fill-rule="evenodd" d="M395.1,359h18.4v17.7H395.1V359Z" class="g0_34"/>
<path fill-rule="evenodd" d="M422.7,359h9.2v17.7h-9.2V359Z" class="g0_34"/>
<path fill-rule="evenodd" d="M441.1,359h9.2v17.7h-9.2V359Z" class="g0_34"/>
<path fill-rule="evenodd" d="M450.3,359h9.2v17.7h-9.2V359Z" class="g0_34"/>
<path fill-rule="evenodd" d="M459.5,359h9.1v17.7h-9.1V359Z" class="g0_34"/>
<path fill-rule="evenodd" d="M468.6,359h18.5v17.7H468.6V359Z" class="g0_34"/>
<path fill-rule="evenodd" d="M110,376.7H825v17.8H110V376.7Z" class="g0_34"/>
<path fill-rule="evenodd" d="M220.3,376.7h9.2v17.8h-9.2V376.7Z" class="g0_34"/>
<path fill-rule="evenodd" d="M110,394.5H825v17.8H110V394.5Z" class="g0_34"/>
<path fill-rule="evenodd" d="M110,412.3H825V430H110V412.3Z" class="g0_34"/>
<path fill-rule="evenodd" d="M284.7,412.3h9.2V430h-9.2V412.3Z" class="g0_34"/>
<path fill-rule="evenodd" d="M293.9,412.3h46V430h-46V412.3Z" class="g0_34"/>
<path fill-rule="evenodd" d="M339.9,412.3h9.2V430h-9.2V412.3Z" class="g0_34"/>
<path fill-rule="evenodd" d="M349.1,412.3h9.2V430h-9.2V412.3Z" class="g0_34"/>
<path fill-rule="evenodd" d="M358.3,412.3h18.4V430H358.3V412.3Z" class="g0_34"/>
<path fill-rule="evenodd" d="M376.7,412.3h9.2V430h-9.2V412.3Z" class="g0_34"/>
<path fill-rule="evenodd" d="M385.9,412.3h18.4V430H385.9V412.3Z" class="g0_34"/>
<path fill-rule="evenodd" d="M110,430.1H825v17.7H110V430.1Z" class="g0_34"/>
<path fill-rule="evenodd" d="M183.6,430.1h9.1v17.7h-9.1V430.1Z" class="g0_34"/>
<path fill-rule="evenodd" d="M110,447.9H825v17.7H110V447.9Z" class="g0_34"/>
<path fill-rule="evenodd" d="M248,447.9h9.1v17.7H248V447.9Z" class="g0_34"/>
<path fill-rule="evenodd" d="M257.1,447.9h73.6v17.7H257.1V447.9Z" class="g0_34"/>
<path fill-rule="evenodd" d="M330.7,447.9h27.6v17.7H330.7V447.9Z" class="g0_34"/>
<path fill-rule="evenodd" d="M110,465.7H825v17.7H110V465.7Z" class="g0_34"/>
<path fill-rule="evenodd" d="M146.7,465.7H156v17.7h-9.3V465.7Z" class="g0_34"/>
<path fill-rule="evenodd" d="M110,483.5H825v29.1H110V483.5Z" class="g0_34"/>
<path fill-rule="evenodd" d="M110,483.5h9.2v17.7H110V483.5Z" class="g0_34"/>
<path fill-rule="evenodd" d="M110,512.6H825v43.7H110V512.6Z" class="g1_34"/>
<path fill-rule="evenodd" d="M110,556.4H825v27.5H110V556.4Z" class="g1_34"/>
<path fill-rule="evenodd" d="M110,583.9H825v27.5H110V583.9Z" class="g1_34"/>
<path fill-rule="evenodd" d="M110,611.4H825v27.5H110V611.4Z" class="g1_34"/>
<path fill-rule="evenodd" d="M110,638.9H825v27.5H110V638.9Z" class="g1_34"/>
<path fill-rule="evenodd" d="M110,666.4H825v39H110v-39Z" class="g1_34"/>
<path fill-rule="evenodd" d="M110,705.4H825v43.7H110V705.4Z" class="g1_34"/>
<path fill-rule="evenodd" d="M110,749.1H825v17.7H110V749.1Z" class="g0_34"/>
<path fill-rule="evenodd" d="M110,766.9H825v17.7H110V766.9Z" class="g0_34"/>
<path fill-rule="evenodd" d="M110,784.7H825v17.7H110V784.7Z" class="g0_34"/>
<path fill-rule="evenodd" d="M110,802.5H825v17.7H110V802.5Z" class="g0_34"/>
<path fill-rule="evenodd" d="M110,820.3H825V838H110V820.3Z" class="g0_34"/>
<path fill-rule="evenodd" d="M110,838H825v17.7H110V838Z" class="g0_34"/>
<path fill-rule="evenodd" d="M110,855.8H825v17.7H110V855.8Z" class="g0_34"/>
<path fill-rule="evenodd" d="M110,873.6H825v17.7H110V873.6Z" class="g0_34"/>
<path fill-rule="evenodd" d="M110,891.4H825v17.7H110V891.4Z" class="g0_34"/>
<path fill-rule="evenodd" d="M110,909.2H825v17.7H110V909.2Z" class="g0_34"/>
<path fill-rule="evenodd" d="M110,927H825v29.2H110V927Z" class="g0_34"/>
</svg>