<?xml version="1.0" encoding="UTF-8" standalone="no"?>
<!DOCTYPE svg PUBLIC "-//W3C//DTD SVG 1.1//EN"
"http://www.w3.org/Graphics/SVG/1.1/DTD/svg11.dtd">
<svg viewBox="0 0 935 1210" version="1.1" xmlns="http://www.w3.org/2000/svg" xmlns:xlink="http://www.w3.org/1999/xlink">
<defs>
<style type="text/css"><![CDATA[
.g0_30{
fill: #F4F4F4;
}
.g1_30{
fill: #FDFDFD;
}
]]></style>
</defs>
<path fill-rule="evenodd" d="M110,110H825v11.5H110V110Z" class="g0_30"/>
<path fill-rule="evenodd" d="M110,110h11.9v11.5H110V110Z" class="g0_30"/>
<path fill-rule="evenodd" d="M110,121.5H825v11.6H110V121.5Z" class="g0_30"/>
<path fill-rule="evenodd" d="M110,121.5h6v11.6h-6V121.5Z" class="g0_30"/>
<path fill-rule="evenodd" d="M116,121.5h5.9v11.6H116V121.5Z" class="g0_30"/>
<path fill-rule="evenodd" d="M121.9,121.5h6v11.6h-6V121.5Z" class="g0_30"/>
<path fill-rule="evenodd" d="M127.9,121.5h12v11.6h-12V121.5Z" class="g0_30"/>
<path fill-rule="evenodd" d="M139.9,121.5h5.9v11.6h-5.9V121.5Z" class="g0_30"/>
<path fill-rule="evenodd" d="M145.8,121.5h41.9v11.6H145.8V121.5Z" class="g0_30"/>
<path fill-rule="evenodd" d="M187.7,121.5h5.9v11.6h-5.9V121.5Z" class="g0_30"/>
<path fill-rule="evenodd" d="M193.6,121.5h12v11.6h-12V121.5Z" class="g0_30"/>
<path fill-rule="evenodd" d="M205.6,121.5h6v11.6h-6V121.5Z" class="g0_30"/>
<path fill-rule="evenodd" d="M211.6,121.5h53.8v11.6H211.6V121.5Z" class="g0_30"/>
<path fill-rule="evenodd" d="M265.4,121.5h6v11.6h-6V121.5Z" class="g0_30"/>
<path fill-rule="evenodd" d="M271.4,121.5h47.8v11.6H271.4V121.5Z" class="g0_30"/>
<path fill-rule="evenodd" d="M319.2,121.5h6v11.6h-6V121.5Z" class="g0_30"/>
<path fill-rule="evenodd" d="M325.2,121.5h12v11.6h-12V121.5Z" class="g0_30"/>
<path fill-rule="evenodd" d="M337.2,121.5h5.9v11.6h-5.9V121.5Z" class="g0_30"/>
<path fill-rule="evenodd" d="M343.1,121.5H391v11.6H343.1V121.5Z" class="g0_30"/>
<path fill-rule="evenodd" d="M110,133.1H825v11.5H110V133.1Z" class="g0_30"/>
<path fill-rule="evenodd" d="M110,133.1h6v11.5h-6V133.1Z" class="g0_30"/>
<path fill-rule="evenodd" d="M116,133.1h11.9v11.5H116V133.1Z" class="g0_30"/>
<path fill-rule="evenodd" d="M110,144.6H825v11.5H110V144.6Z" class="g0_30"/>
<path fill-rule="evenodd" d="M110,144.6h29.9v11.5H110V144.6Z" class="g0_30"/>
<path fill-rule="evenodd" d="M145.8,144.6h35.9v11.5H145.8V144.6Z" class="g0_30"/>
<path fill-rule="evenodd" d="M181.7,144.6h6v11.5h-6V144.6Z" class="g0_30"/>
<path fill-rule="evenodd" d="M110,156.2H825v11.5H110V156.2Z" class="g0_30"/>
<path fill-rule="evenodd" d="M110,156.2h29.9v11.5H110V156.2Z" class="g0_30"/>
<path fill-rule="evenodd" d="M145.8,156.2H253.5v11.5H145.8V156.2Z" class="g0_30"/>
<path fill-rule="evenodd" d="M253.5,156.2h5.9v11.5h-5.9V156.2Z" class="g0_30"/>
<path fill-rule="evenodd" d="M110,167.7H825v11.6H110V167.7Z" class="g0_30"/>
<path fill-rule="evenodd" d="M110,167.7h29.9v11.6H110V167.7Z" class="g0_30"/>
<path fill-rule="evenodd" d="M229.5,167.7h6v11.6h-6V167.7Z" class="g0_30"/>
<path fill-rule="evenodd" d="M110,179.3H825v11.5H110V179.3Z" class="g0_30"/>
<path fill-rule="evenodd" d="M110,179.3h6v11.5h-6V179.3Z" class="g0_30"/>
<path fill-rule="evenodd" d="M110,190.9H825v11.5H110V190.9Z" class="g0_30"/>
<path fill-rule="evenodd" d="M121.9,190.9h35.9v11.5H121.9V190.9Z" class="g0_30"/>
<path fill-rule="evenodd" d="M157.8,190.9h11.9v11.5H157.8V190.9Z" class="g0_30"/>
<path fill-rule="evenodd" d="M181.7,190.9h6v11.5h-6V190.9Z" class="g0_30"/>
<path fill-rule="evenodd" d="M110,202.4H825V214H110V202.4Z" class="g0_30"/>
<path fill-rule="evenodd" d="M121.9,202.4h35.9V214H121.9V202.4Z" class="g0_30"/>
<path fill-rule="evenodd" d="M241.5,202.4h6V214h-6V202.4Z" class="g0_30"/>
<path fill-rule="evenodd" d="M247.5,202.4h17.9V214H247.5V202.4Z" class="g0_30"/>
<path fill-rule="evenodd" d="M295.3,202.4h6V214h-6V202.4Z" class="g0_30"/>
<path fill-rule="evenodd" d="M110,214H825v11.5H110V214Z" class="g0_30"/>
<path fill-rule="evenodd" d="M121.9,214h6v11.5h-6V214Z" class="g0_30"/>
<path fill-rule="evenodd" d="M110,225.6H825v11.5H110V225.6Z" class="g0_30"/>
<path fill-rule="evenodd" d="M145.8,225.6h6v11.5h-6V225.6Z" class="g0_30"/>
<path fill-rule="evenodd" d="M157.8,225.6h17.9v11.5H157.8V225.6Z" class="g0_30"/>
<path fill-rule="evenodd" d="M181.7,225.6h35.9v11.5H181.7V225.6Z" class="g0_30"/>
<path fill-rule="evenodd" d="M217.6,225.6h6v11.5h-6V225.6Z" class="g0_30"/>
<path fill-rule="evenodd" d="M247.5,225.6h11.9v11.5H247.5V225.6Z" class="g0_30"/>
<path fill-rule="evenodd" d="M110,237.1H825v11.5H110V237.1Z" class="g0_30"/>
<path fill-rule="evenodd" d="M121.9,237.1h6v11.5h-6V237.1Z" class="g0_30"/>
<path fill-rule="evenodd" d="M110,248.6H825v11.6H110V248.6Z" class="g0_30"/>
<path fill-rule="evenodd" d="M121.9,248.6h35.9v11.6H121.9V248.6Z" class="g0_30"/>
<path fill-rule="evenodd" d="M241.5,248.6h12v11.6h-12V248.6Z" class="g0_30"/>
<path fill-rule="evenodd" d="M259.4,248.6h6v11.6h-6V248.6Z" class="g0_30"/>
<path fill-rule="evenodd" d="M271.4,248.6h23.9v11.6H271.4V248.6Z" class="g0_30"/>
<path fill-rule="evenodd" d="M295.3,248.6h6v11.6h-6V248.6Z" class="g0_30"/>
<path fill-rule="evenodd" d="M301.3,248.6h5.9v11.6h-5.9V248.6Z" class="g0_30"/>
<path fill-rule="evenodd" d="M307.2,248.6h6.1v11.6h-6.1V248.6Z" class="g0_30"/>
<path fill-rule="evenodd" d="M319.2,248.6h11.9v11.6H319.2V248.6Z" class="g0_30"/>
<path fill-rule="evenodd" d="M110,260.3H825v11.5H110V260.3Z" class="g0_30"/>
<path fill-rule="evenodd" d="M121.9,260.3h23.9v11.5H121.9V260.3Z" class="g0_30"/>
<path fill-rule="evenodd" d="M175.7,260.3h12v11.5h-12V260.3Z" class="g0_30"/>
<path fill-rule="evenodd" d="M110,271.8H825v11.5H110V271.8Z" class="g0_30"/>
<path fill-rule="evenodd" d="M121.9,271.8h6v11.5h-6V271.8Z" class="g0_30"/>
<path fill-rule="evenodd" d="M110,283.3H825v11.6H110V283.3Z" class="g0_30"/>
<path fill-rule="evenodd" d="M133.9,283.3h35.8v11.6H133.9V283.3Z" class="g0_30"/>
<path fill-rule="evenodd" d="M169.7,283.3h12v11.6h-12V283.3Z" class="g0_30"/>
<path fill-rule="evenodd" d="M199.6,283.3h6v11.6h-6V283.3Z" class="g0_30"/>
<path fill-rule="evenodd" d="M211.6,283.3h17.9v11.6H211.6V283.3Z" class="g0_30"/>
<path fill-rule="evenodd" d="M235.5,283.3h35.9v11.6H235.5V283.3Z" class="g0_30"/>
<path fill-rule="evenodd" d="M271.4,283.3h6v11.6h-6V283.3Z" class="g0_30"/>
<path fill-rule="evenodd" d="M277.4,283.3h5.9v11.6h-5.9V283.3Z" class="g0_30"/>
<path fill-rule="evenodd" d="M289.3,283.3h6v11.6h-6V283.3Z" class="g0_30"/>
<path fill-rule="evenodd" d="M307.2,283.3h6.1v11.6h-6.1V283.3Z" class="g0_30"/>
<path fill-rule="evenodd" d="M313.3,283.3h35.8v11.6H313.3V283.3Z" class="g0_30"/>
<path fill-rule="evenodd" d="M349.1,283.3h12v11.6h-12V283.3Z" class="g0_30"/>
<path fill-rule="evenodd" d="M110,294.9H825v11.6H110V294.9Z" class="g0_30"/>
<path fill-rule="evenodd" d="M163.8,294.9h5.9v11.6h-5.9V294.9Z" class="g0_30"/>
<path fill-rule="evenodd" d="M169.7,294.9h23.9v11.6H169.7V294.9Z" class="g0_30"/>
<path fill-rule="evenodd" d="M193.6,294.9h6v11.6h-6V294.9Z" class="g0_30"/>
<path fill-rule="evenodd" d="M241.5,294.9h6v11.6h-6V294.9Z" class="g0_30"/>
<path fill-rule="evenodd" d="M247.5,294.9h35.8v11.6H247.5V294.9Z" class="g0_30"/>
<path fill-rule="evenodd" d="M283.3,294.9h12v11.6h-12V294.9Z" class="g0_30"/>
<path fill-rule="evenodd" d="M110,306.5H825V318H110V306.5Z" class="g0_30"/>
<path fill-rule="evenodd" d="M145.8,306.5h6V318h-6V306.5Z" class="g0_30"/>
<path fill-rule="evenodd" d="M163.8,306.5h5.9V318h-5.9V306.5Z" class="g0_30"/>
<path fill-rule="evenodd" d="M110,318H825v11.5H110V318Z" class="g0_30"/>
<path fill-rule="evenodd" d="M121.9,318h6v11.5h-6V318Z" class="g0_30"/>
<path fill-rule="evenodd" d="M110,329.6H825v11.6H110V329.6Z" class="g0_30"/>
<path fill-rule="evenodd" d="M121.9,329.6h35.9v11.6H121.9V329.6Z" class="g0_30"/>
<path fill-rule="evenodd" d="M163.8,329.6h35.8v11.6H163.8V329.6Z" class="g0_30"/>
<path fill-rule="evenodd" d="M205.6,329.6h23.9v11.6H205.6V329.6Z" class="g0_30"/>
<path fill-rule="evenodd" d="M229.5,329.6h6v11.6h-6V329.6Z" class="g0_30"/>
<path fill-rule="evenodd" d="M235.5,329.6h18v11.6h-18V329.6Z" class="g0_30"/>
<path fill-rule="evenodd" d="M265.4,329.6h6v11.6h-6V329.6Z" class="g0_30"/>
<path fill-rule="evenodd" d="M110,341.2H825v11.5H110V341.2Z" class="g0_30"/>
<path fill-rule="evenodd" d="M121.9,341.2h6v11.5h-6V341.2Z" class="g0_30"/>
<path fill-rule="evenodd" d="M110,352.7H825v11.5H110V352.7Z" class="g0_30"/>
<path fill-rule="evenodd" d="M133.9,352.7h17.9v11.5H133.9V352.7Z" class="g0_30"/>
<path fill-rule="evenodd" d="M110,364.3H825v11.5H110V364.3Z" class="g0_30"/>
<path fill-rule="evenodd" d="M133.9,364.3h6v11.5h-6V364.3Z" class="g0_30"/>
<path fill-rule="evenodd" d="M110,375.8H825v11.6H110V375.8Z" class="g0_30"/>
<path fill-rule="evenodd" d="M145.8,375.8h12v11.6h-12V375.8Z" class="g0_30"/>
<path fill-rule="evenodd" d="M163.8,375.8h5.9v11.6h-5.9V375.8Z" class="g0_30"/>
<path fill-rule="evenodd" d="M181.7,375.8h11.9v11.6H181.7V375.8Z" class="g0_30"/>
<path fill-rule="evenodd" d="M205.6,375.8h6v11.6h-6V375.8Z" class="g0_30"/>
<path fill-rule="evenodd" d="M211.6,375.8h35.9v11.6H211.6V375.8Z" class="g0_30"/>
<path fill-rule="evenodd" d="M247.5,375.8h6v11.6h-6V375.8Z" class="g0_30"/>
<path fill-rule="evenodd" d="M283.3,375.8h18v11.6h-18V375.8Z" class="g0_30"/>
<path fill-rule="evenodd" d="M110,387.4H825v11.5H110V387.4Z" class="g0_30"/>
<path fill-rule="evenodd" d="M151.8,387.4h6v11.5h-6V387.4Z" class="g0_30"/>
<path fill-rule="evenodd" d="M163.8,387.4h5.9v11.5h-5.9V387.4Z" class="g0_30"/>
<path fill-rule="evenodd" d="M175.7,387.4h6v11.5h-6V387.4Z" class="g0_30"/>
<path fill-rule="evenodd" d="M187.7,387.4h29.9v11.5H187.7V387.4Z" class="g0_30"/>
<path fill-rule="evenodd" d="M217.6,387.4h6v11.5h-6V387.4Z" class="g0_30"/>
<path fill-rule="evenodd" d="M110,399H825v11.5H110V399Z" class="g0_30"/>
<path fill-rule="evenodd" d="M133.9,399h6v11.5h-6V399Z" class="g0_30"/>
<path fill-rule="evenodd" d="M110,410.5H825V422H110V410.5Z" class="g0_30"/>
<path fill-rule="evenodd" d="M133.9,410.5h17.9V422H133.9V410.5Z" class="g0_30"/>
<path fill-rule="evenodd" d="M110,422H825v11.6H110V422Z" class="g0_30"/>
<path fill-rule="evenodd" d="M133.9,422h6v11.6h-6V422Z" class="g0_30"/>
<path fill-rule="evenodd" d="M110,433.7H825v11.5H110V433.7Z" class="g0_30"/>
<path fill-rule="evenodd" d="M145.8,433.7h12v11.5h-12V433.7Z" class="g0_30"/>
<path fill-rule="evenodd" d="M163.8,433.7h5.9v11.5h-5.9V433.7Z" class="g0_30"/>
<path fill-rule="evenodd" d="M181.7,433.7h11.9v11.5H181.7V433.7Z" class="g0_30"/>
<path fill-rule="evenodd" d="M205.6,433.7h6v11.5h-6V433.7Z" class="g0_30"/>
<path fill-rule="evenodd" d="M211.6,433.7h35.9v11.5H211.6V433.7Z" class="g0_30"/>
<path fill-rule="evenodd" d="M247.5,433.7h6v11.5h-6V433.7Z" class="g0_30"/>
<path fill-rule="evenodd" d="M283.3,433.7h18v11.5h-18V433.7Z" class="g0_30"/>
<path fill-rule="evenodd" d="M110,445.2H825v11.5H110V445.2Z" class="g0_30"/>
<path fill-rule="evenodd" d="M145.8,445.2h35.9v11.5H145.8V445.2Z" class="g0_30"/>
<path fill-rule="evenodd" d="M193.6,445.2h6v11.5h-6V445.2Z" class="g0_30"/>
<path fill-rule="evenodd" d="M205.6,445.2h12v11.5h-12V445.2Z" class="g0_30"/>
<path fill-rule="evenodd" d="M110,456.7H825v11.6H110V456.7Z" class="g0_30"/>
<path fill-rule="evenodd" d="M133.9,456.7h6v11.6h-6V456.7Z" class="g0_30"/>
<path fill-rule="evenodd" d="M110,468.3H825v11.6H110V468.3Z" class="g0_30"/>
<path fill-rule="evenodd" d="M121.9,468.3h6v11.6h-6V468.3Z" class="g0_30"/>
<path fill-rule="evenodd" d="M110,479.9H825v11.5H110V479.9Z" class="g0_30"/>
<path fill-rule="evenodd" d="M121.9,479.9h35.9v11.5H121.9V479.9Z" class="g0_30"/>
<path fill-rule="evenodd" d="M313.3,479.9h11.9v11.5H313.3V479.9Z" class="g0_30"/>
<path fill-rule="evenodd" d="M110,491.4H825v11.5H110V491.4Z" class="g0_30"/>
<path fill-rule="evenodd" d="M121.9,491.4h6v11.5h-6V491.4Z" class="g0_30"/>
<path fill-rule="evenodd" d="M110,503H825v11.6H110V503Z" class="g0_30"/>
<path fill-rule="evenodd" d="M133.9,503h35.8v11.6H133.9V503Z" class="g0_30"/>
<path fill-rule="evenodd" d="M175.7,503h17.9v11.6H175.7V503Z" class="g0_30"/>
<path fill-rule="evenodd" d="M271.4,503h6v11.6h-6V503Z" class="g0_30"/>
<path fill-rule="evenodd" d="M283.3,503h12v11.6h-12V503Z" class="g0_30"/>
<path fill-rule="evenodd" d="M110,514.6H825v11.5H110V514.6Z" class="g0_30"/>
<path fill-rule="evenodd" d="M121.9,514.6h6v11.5h-6V514.6Z" class="g0_30"/>
<path fill-rule="evenodd" d="M110,526.1H825v11.5H110V526.1Z" class="g0_30"/>
<path fill-rule="evenodd" d="M121.9,526.1h29.9v11.5H121.9V526.1Z" class="g0_30"/>
<path fill-rule="evenodd" d="M235.5,526.1h6v11.5h-6V526.1Z" class="g0_30"/>
<path fill-rule="evenodd" d="M110,537.7H825v11.5H110V537.7Z" class="g0_30"/>
<path fill-rule="evenodd" d="M121.9,537.7h6v11.5h-6V537.7Z" class="g0_30"/>
<path fill-rule="evenodd" d="M110,549.2H825v11.6H110V549.2Z" class="g0_30"/>
<path fill-rule="evenodd" d="M133.9,549.2h35.8v11.6H133.9V549.2Z" class="g0_30"/>
<path fill-rule="evenodd" d="M169.7,549.2h12v11.6h-12V549.2Z" class="g0_30"/>
<path fill-rule="evenodd" d="M193.6,549.2h6v11.6h-6V549.2Z" class="g0_30"/>
<path fill-rule="evenodd" d="M110,560.8H825v11.5H110V560.8Z" class="g0_30"/>
<path fill-rule="evenodd" d="M133.9,560.8h17.9v11.5H133.9V560.8Z" class="g0_30"/>
<path fill-rule="evenodd" d="M169.7,560.8h6v11.5h-6V560.8Z" class="g0_30"/>
<path fill-rule="evenodd" d="M181.7,560.8h6v11.5h-6V560.8Z" class="g0_30"/>
<path fill-rule="evenodd" d="M187.7,560.8h5.9v11.5h-5.9V560.8Z" class="g0_30"/>
<path fill-rule="evenodd" d="M193.6,560.8h6v11.5h-6V560.8Z" class="g0_30"/>
<path fill-rule="evenodd" d="M110,572.4H825v11.5H110V572.4Z" class="g0_30"/>
<path fill-rule="evenodd" d="M133.9,572.4h35.8v11.5H133.9V572.4Z" class="g0_30"/>
<path fill-rule="evenodd" d="M247.5,572.4h6v11.5h-6V572.4Z" class="g0_30"/>
<path fill-rule="evenodd" d="M253.5,572.4h35.8v11.5H253.5V572.4Z" class="g0_30"/>
<path fill-rule="evenodd" d="M289.3,572.4h12v11.5h-12V572.4Z" class="g0_30"/>
<path fill-rule="evenodd" d="M313.3,572.4h5.9v11.5h-5.9V572.4Z" class="g0_30"/>
<path fill-rule="evenodd" d="M325.2,572.4h5.9v11.5h-5.9V572.4Z" class="g0_30"/>
<path fill-rule="evenodd" d="M337.2,572.4h23.9v11.5H337.2V572.4Z" class="g0_30"/>
<path fill-rule="evenodd" d="M361.1,572.4H367v11.5h-5.9V572.4Z" class="g0_30"/>
<path fill-rule="evenodd" d="M367,572.4h6v11.5h-6V572.4Z" class="g0_30"/>
<path fill-rule="evenodd" d="M379,572.4h6v11.5h-6V572.4Z" class="g0_30"/>
<path fill-rule="evenodd" d="M396.9,572.4H403v11.5h-6.1V572.4Z" class="g0_30"/>
<path fill-rule="evenodd" d="M408.9,572.4h6v11.5h-6V572.4Z" class="g0_30"/>
<path fill-rule="evenodd" d="M110,583.9H825v11.6H110V583.9Z" class="g0_30"/>
<path fill-rule="evenodd" d="M133.9,583.9h35.8v11.6H133.9V583.9Z" class="g0_30"/>
<path fill-rule="evenodd" d="M175.7,583.9h35.9v11.6H175.7V583.9Z" class="g0_30"/>
<path fill-rule="evenodd" d="M110,595.5H825V607H110V595.5Z" class="g0_30"/>
<path fill-rule="evenodd" d="M127.9,595.5h6V607h-6V595.5Z" class="g0_30"/>
<path fill-rule="evenodd" d="M110,607.1H825v11.5H110V607.1Z" class="g0_30"/>
<path fill-rule="evenodd" d="M145.8,607.1h18v11.5h-18V607.1Z" class="g0_30"/>
<path fill-rule="evenodd" d="M110,618.6H825v11.5H110V618.6Z" class="g0_30"/>
<path fill-rule="evenodd" d="M145.8,618.6h6v11.5h-6V618.6Z" class="g0_30"/>
<path fill-rule="evenodd" d="M110,630.1H825v11.6H110V630.1Z" class="g0_30"/>
<path fill-rule="evenodd" d="M163.8,630.1h35.8v11.6H163.8V630.1Z" class="g0_30"/>
<path fill-rule="evenodd" d="M211.6,630.1h6v11.6h-6V630.1Z" class="g0_30"/>
<path fill-rule="evenodd" d="M223.6,630.1h11.9v11.6H223.6V630.1Z" class="g0_30"/>
<path fill-rule="evenodd" d="M110,641.7H825v11.6H110V641.7Z" class="g0_30"/>
<path fill-rule="evenodd" d="M145.8,641.7h6v11.6h-6V641.7Z" class="g0_30"/>
<path fill-rule="evenodd" d="M110,653.3H825v11.5H110V653.3Z" class="g0_30"/>
<path fill-rule="evenodd" d="M127.9,653.3h6v11.5h-6V653.3Z" class="g0_30"/>
<path fill-rule="evenodd" d="M110,664.8H825v11.5H110V664.8Z" class="g0_30"/>
<path fill-rule="evenodd" d="M133.9,664.8h35.8v11.5H133.9V664.8Z" class="g0_30"/>
<path fill-rule="evenodd" d="M175.7,664.8h23.9v11.5H175.7V664.8Z" class="g0_30"/>
<path fill-rule="evenodd" d="M235.5,664.8h12v11.5h-12V664.8Z" class="g0_30"/>
<path fill-rule="evenodd" d="M110,676.4H825V688H110V676.4Z" class="g0_30"/>
<path fill-rule="evenodd" d="M133.9,676.4h6V688h-6V676.4Z" class="g0_30"/>
<path fill-rule="evenodd" d="M110,688H825v11.5H110V688Z" class="g0_30"/>
<path fill-rule="evenodd" d="M169.7,688h6v11.5h-6V688Z" class="g0_30"/>
<path fill-rule="evenodd" d="M181.7,688h6v11.5h-6V688Z" class="g0_30"/>
<path fill-rule="evenodd" d="M187.7,688h5.9v11.5h-5.9V688Z" class="g0_30"/>
<path fill-rule="evenodd" d="M193.6,688h6v11.5h-6V688Z" class="g0_30"/>
<path fill-rule="evenodd" d="M110,699.5H825V711H110V699.5Z" class="g0_30"/>
<path fill-rule="evenodd" d="M133.9,699.5h6V711h-6V699.5Z" class="g0_30"/>
<path fill-rule="evenodd" d="M110,711.1H825v11.5H110V711.1Z" class="g0_30"/>
<path fill-rule="evenodd" d="M133.9,711.1h35.8v11.5H133.9V711.1Z" class="g0_30"/>
<path fill-rule="evenodd" d="M175.7,711.1h23.9v11.5H175.7V711.1Z" class="g0_30"/>
<path fill-rule="evenodd" d="M253.5,711.1h11.9v11.5H253.5V711.1Z" class="g0_30"/>
<path fill-rule="evenodd" d="M110,722.6H825v11.6H110V722.6Z" class="g0_30"/>
<path fill-rule="evenodd" d="M133.9,722.6h6v11.6h-6V722.6Z" class="g0_30"/>
<path fill-rule="evenodd" d="M110,734.2H825v11.5H110V734.2Z" class="g0_30"/>
<path fill-rule="evenodd" d="M145.8,734.2h12v11.5h-12V734.2Z" class="g0_30"/>
<path fill-rule="evenodd" d="M169.7,734.2h18v11.5h-18V734.2Z" class="g0_30"/>
<path fill-rule="evenodd" d="M110,745.8H825v11.5H110V745.8Z" class="g0_30"/>
<path fill-rule="evenodd" d="M145.8,745.8h29.9v11.5H145.8V745.8Z" class="g0_30"/>
<path fill-rule="evenodd" d="M181.7,745.8h6v11.5h-6V745.8Z" class="g0_30"/>
<path fill-rule="evenodd" d="M199.6,745.8h6v11.5h-6V745.8Z" class="g0_30"/>
<path fill-rule="evenodd" d="M217.6,745.8h6v11.5h-6V745.8Z" class="g0_30"/>
<path fill-rule="evenodd" d="M223.6,745.8h35.8v11.5H223.6V745.8Z" class="g0_30"/>
<path fill-rule="evenodd" d="M265.4,745.8h12v11.5h-12V745.8Z" class="g0_30"/>
<path fill-rule="evenodd" d="M289.3,745.8h6v11.5h-6V745.8Z" class="g0_30"/>
<path fill-rule="evenodd" d="M301.3,745.8h5.9v11.5h-5.9V745.8Z" class="g0_30"/>
<path fill-rule="evenodd" d="M313.3,745.8h11.9v11.5H313.3V745.8Z" class="g0_30"/>
<path fill-rule="evenodd" d="M331.1,745.8h24v11.5h-24V745.8Z" class="g0_30"/>
<path fill-rule="evenodd" d="M355.1,745.8H367v11.5H355.1V745.8Z" class="g0_30"/>
<path fill-rule="evenodd" d="M110,757.3H825v11.6H110V757.3Z" class="g0_30"/>
<path fill-rule="evenodd" d="M145.8,757.3h12v11.6h-12V757.3Z" class="g0_30"/>
<path fill-rule="evenodd" d="M163.8,757.3h5.9v11.6h-5.9V757.3Z" class="g0_30"/>
<path fill-rule="evenodd" d="M181.7,757.3h11.9v11.6H181.7V757.3Z" class="g0_30"/>
<path fill-rule="evenodd" d="M205.6,757.3h6v11.6h-6V757.3Z" class="g0_30"/>
<path fill-rule="evenodd" d="M211.6,757.3h35.9v11.6H211.6V757.3Z" class="g0_30"/>
<path fill-rule="evenodd" d="M247.5,757.3h6v11.6h-6V757.3Z" class="g0_30"/>
<path fill-rule="evenodd" d="M110,768.9H825v11.5H110V768.9Z" class="g0_30"/>
<path fill-rule="evenodd" d="M163.8,768.9h35.8v11.5H163.8V768.9Z" class="g0_30"/>
<path fill-rule="evenodd" d="M205.6,768.9h29.9v11.5H205.6V768.9Z" class="g0_30"/>
<path fill-rule="evenodd" d="M235.5,768.9h6v11.5h-6V768.9Z" class="g0_30"/>
<path fill-rule="evenodd" d="M110,780.5H825V792H110V780.5Z" class="g0_30"/>
<path fill-rule="evenodd" d="M145.8,780.5h23.9V792H145.8V780.5Z" class="g0_30"/>
<path fill-rule="evenodd" d="M175.7,780.5h35.9V792H175.7V780.5Z" class="g0_30"/>
<path fill-rule="evenodd" d="M217.6,780.5h23.9V792H217.6V780.5Z" class="g0_30"/>
<path fill-rule="evenodd" d="M241.5,780.5h6V792h-6V780.5Z" class="g0_30"/>
<path fill-rule="evenodd" d="M110,792H825v11.5H110V792Z" class="g0_30"/>
<path fill-rule="evenodd" d="M133.9,792h6v11.5h-6V792Z" class="g0_30"/>
<path fill-rule="evenodd" d="M110,803.5H825v11.6H110V803.5Z" class="g0_30"/>
<path fill-rule="evenodd" d="M121.9,803.5h6v11.6h-6V803.5Z" class="g0_30"/>
<path fill-rule="evenodd" d="M110,815.1H825v11.6H110V815.1Z" class="g0_30"/>
<path fill-rule="evenodd" d="M110,815.1h6v11.6h-6V815.1Z" class="g0_30"/>
<path fill-rule="evenodd" d="M110,826.7H825v11.5H110V826.7Z" class="g0_30"/>
<path fill-rule="evenodd" d="M110,826.7h29.9v11.5H110V826.7Z" class="g0_30"/>
<path fill-rule="evenodd" d="M110,838.2H825v11.6H110V838.2Z" class="g0_30"/>
<path fill-rule="evenodd" d="M110,838.2h6v11.6h-6V838.2Z" class="g0_30"/>
<path fill-rule="evenodd" d="M110,849.8H825v11.6H110V849.8Z" class="g0_30"/>
<path fill-rule="evenodd" d="M110,849.8h35.8v11.6H110V849.8Z" class="g0_30"/>
<path fill-rule="evenodd" d="M151.8,849.8h35.9v11.6H151.8V849.8Z" class="g0_30"/>
<path fill-rule="evenodd" d="M193.6,849.8h24v11.6h-24V849.8Z" class="g0_30"/>
<path fill-rule="evenodd" d="M247.5,849.8h11.9v11.6H247.5V849.8Z" class="g0_30"/>
<path fill-rule="evenodd" d="M110,861.4H825v11.5H110V861.4Z" class="g0_30"/>
<path fill-rule="evenodd" d="M110,861.4h6v11.5h-6V861.4Z" class="g0_30"/>
<path fill-rule="evenodd" d="M110,872.9H825v11.5H110V872.9Z" class="g0_30"/>
<path fill-rule="evenodd" d="M229.5,872.9h6v11.5h-6V872.9Z" class="g0_30"/>
<path fill-rule="evenodd" d="M241.5,872.9h17.9v11.5H241.5V872.9Z" class="g0_30"/>
<path fill-rule="evenodd" d="M343.1,872.9h6v11.5h-6V872.9Z" class="g0_30"/>
<path fill-rule="evenodd" d="M349.1,872.9h6v11.5h-6V872.9Z" class="g0_30"/>
<path fill-rule="evenodd" d="M355.1,872.9H367v11.5H355.1V872.9Z" class="g0_30"/>
<path fill-rule="evenodd" d="M110,884.4H825V896H110V884.4Z" class="g0_30"/>
<path fill-rule="evenodd" d="M139.9,884.4h5.9V896h-5.9V884.4Z" class="g0_30"/>
<path fill-rule="evenodd" d="M145.8,884.4h6V896h-6V884.4Z" class="g0_30"/>
<path fill-rule="evenodd" d="M151.8,884.4h6V896h-6V884.4Z" class="g0_30"/>
<path fill-rule="evenodd" d="M163.8,884.4h5.9V896h-5.9V884.4Z" class="g0_30"/>
<path fill-rule="evenodd" d="M175.7,884.4h6V896h-6V884.4Z" class="g0_30"/>
<path fill-rule="evenodd" d="M181.7,884.4h6V896h-6V884.4Z" class="g0_30"/>
<path fill-rule="evenodd" d="M110,896H825v11.6H110V896Z" class="g0_30"/>
<path fill-rule="evenodd" d="M139.9,896h5.9v11.6h-5.9V896Z" class="g0_30"/>
<path fill-rule="evenodd" d="M145.8,896h6v11.6h-6V896Z" class="g0_30"/>
<path fill-rule="evenodd" d="M151.8,896h6v11.6h-6V896Z" class="g0_30"/>
<path fill-rule="evenodd" d="M163.8,896h5.9v11.6h-5.9V896Z" class="g0_30"/>
<path fill-rule="evenodd" d="M175.7,896h6v11.6h-6V896Z" class="g0_30"/>
<path fill-rule="evenodd" d="M181.7,896h6v11.6h-6V896Z" class="g0_30"/>
<path fill-rule="evenodd" d="M110,907.6H825v11.5H110V907.6Z" class="g0_30"/>
<path fill-rule="evenodd" d="M139.9,907.6h5.9v11.5h-5.9V907.6Z" class="g0_30"/>
<path fill-rule="evenodd" d="M145.8,907.6h6v11.5h-6V907.6Z" class="g0_30"/>
<path fill-rule="evenodd" d="M151.8,907.6h6v11.5h-6V907.6Z" class="g0_30"/>
<path fill-rule="evenodd" d="M163.8,907.6h5.9v11.5h-5.9V907.6Z" class="g0_30"/>
<path fill-rule="evenodd" d="M175.7,907.6h6v11.5h-6V907.6Z" class="g0_30"/>
<path fill-rule="evenodd" d="M181.7,907.6h6v11.5h-6V907.6Z" class="g0_30"/>
<path fill-rule="evenodd" d="M110,919.1H825v11.5H110V919.1Z" class="g0_30"/>
<path fill-rule="evenodd" d="M133.9,919.1h41.8v11.5H133.9V919.1Z" class="g0_30"/>
<path fill-rule="evenodd" d="M181.7,919.1h6v11.5h-6V919.1Z" class="g0_30"/>
<path fill-rule="evenodd" d="M187.7,919.1h35.9v11.5H187.7V919.1Z" class="g0_30"/>
<path fill-rule="evenodd" d="M241.5,919.1h12v11.5h-12V919.1Z" class="g0_30"/>
<path fill-rule="evenodd" d="M265.4,919.1h6v11.5h-6V919.1Z" class="g0_30"/>
<path fill-rule="evenodd" d="M319.2,919.1h6v11.5h-6V919.1Z" class="g0_30"/>
<path fill-rule="evenodd" d="M325.2,919.1h29.9v11.5H325.2V919.1Z" class="g0_30"/>
<path fill-rule="evenodd" d="M355.1,919.1h6v11.5h-6V919.1Z" class="g0_30"/>
<path fill-rule="evenodd" d="M361.1,919.1H367v11.5h-5.9V919.1Z" class="g0_30"/>
<path fill-rule="evenodd" d="M367,919.1h6v11.5h-6V919.1Z" class="g0_30"/>
<path fill-rule="evenodd" d="M373,919.1h6v11.5h-6V919.1Z" class="g0_30"/>
<path fill-rule="evenodd" d="M385,919.1h6v11.5h-6V919.1Z" class="g0_30"/>
<path fill-rule="evenodd" d="M403,919.1h11.9v11.5H403V919.1Z" class="g0_30"/>
<path fill-rule="evenodd" d="M110,930.7H825v11.6H110V930.7Z" class="g0_30"/>
<path fill-rule="evenodd" d="M110,930.7h6v11.6h-6V930.7Z" class="g0_30"/>
<path fill-rule="evenodd" d="M110,942.3H825v22.9H110V942.3Z" class="g0_30"/>
<path fill-rule="evenodd" d="M110,942.3h6v11.5h-6V942.3Z" class="g0_30"/>
<path fill-rule="evenodd" d="M110,965.2H825v26.9H110V965.2Z" class="g1_30"/>
<path fill-rule="evenodd" d="M110,992.1H825v11.6H110V992.1Z" class="g0_30"/>
<path fill-rule="evenodd" d="M110,1003.7H825v11.5H110v-11.5Z" class="g0_30"/>
<path fill-rule="evenodd" d="M110,1015.2H825v11.5H110v-11.5Z" class="g0_30"/>
<path fill-rule="evenodd" d="M110,1026.8H825v11.6H110v-11.6Z" class="g0_30"/>
<path fill-rule="evenodd" d="M110,1038.4H825v11.5H110v-11.5Z" class="g0_30"/>
<path fill-rule="evenodd" d="M110,1049.9H825v11.5H110v-11.5Z" class="g0_30"/>
<path fill-rule="evenodd" d="M110,1061.5H825V1073H110v-11.5Z" class="g0_30"/>
<path fill-rule="evenodd" d="M110,1073H825v23H110v-23Z" class="g0_30"/>
</svg>