<?xml version="1.0" encoding="UTF-8" standalone="no"?>
<!DOCTYPE svg PUBLIC "-//W3C//DTD SVG 1.1//EN"
"http://www.w3.org/Graphics/SVG/1.1/DTD/svg11.dtd">
<svg viewBox="0 0 935 1210" version="1.1" xmlns="http://www.w3.org/2000/svg" xmlns:xlink="http://www.w3.org/1999/xlink">
<defs>
<style type="text/css"><![CDATA[
.g0_29{
fill: #F4F4F4;
}
.g1_29{
fill: #FDFDFD;
}
]]></style>
</defs>
<path fill-rule="evenodd" d="M110,110H825v17.7H110V110Z" class="g0_29"/>
<path fill-rule="evenodd" d="M110,110h18.3v17.7H110V110Z" class="g0_29"/>
<path fill-rule="evenodd" d="M110,127.7H825v17.7H110V127.7Z" class="g0_29"/>
<path fill-rule="evenodd" d="M110,127.7h9.2v17.7H110V127.7Z" class="g0_29"/>
<path fill-rule="evenodd" d="M119.2,127.7h9.1v17.7h-9.1V127.7Z" class="g0_29"/>
<path fill-rule="evenodd" d="M128.3,127.7h9.3v17.7h-9.3V127.7Z" class="g0_29"/>
<path fill-rule="evenodd" d="M137.6,127.7H156v17.7H137.6V127.7Z" class="g0_29"/>
<path fill-rule="evenodd" d="M156,127.7h9.2v17.7H156V127.7Z" class="g0_29"/>
<path fill-rule="evenodd" d="M165.2,127.7h64.3v17.7H165.2V127.7Z" class="g0_29"/>
<path fill-rule="evenodd" d="M229.5,127.7h9.2v17.7h-9.2V127.7Z" class="g0_29"/>
<path fill-rule="evenodd" d="M238.7,127.7h18.4v17.7H238.7V127.7Z" class="g0_29"/>
<path fill-rule="evenodd" d="M257.1,127.7h9.2v17.7h-9.2V127.7Z" class="g0_29"/>
<path fill-rule="evenodd" d="M266.3,127.7h82.8v17.7H266.3V127.7Z" class="g0_29"/>
<path fill-rule="evenodd" d="M349.1,127.7h9.2v17.7h-9.2V127.7Z" class="g0_29"/>
<path fill-rule="evenodd" d="M358.3,127.7h82.8v17.7H358.3V127.7Z" class="g0_29"/>
<path fill-rule="evenodd" d="M110,145.5H825v17.7H110V145.5Z" class="g0_29"/>
<path fill-rule="evenodd" d="M110,145.5h9.2v17.7H110V145.5Z" class="g0_29"/>
<path fill-rule="evenodd" d="M119.2,145.5h18.4v17.7H119.2V145.5Z" class="g0_29"/>
<path fill-rule="evenodd" d="M110,163.3H825V181H110V163.3Z" class="g0_29"/>
<path fill-rule="evenodd" d="M110,163.3h46V181H110V163.3Z" class="g0_29"/>
<path fill-rule="evenodd" d="M165.2,163.3h55.1V181H165.2V163.3Z" class="g0_29"/>
<path fill-rule="evenodd" d="M220.3,163.3h9.2V181h-9.2V163.3Z" class="g0_29"/>
<path fill-rule="evenodd" d="M110,181.1H825v17.7H110V181.1Z" class="g0_29"/>
<path fill-rule="evenodd" d="M110,181.1h46v17.7H110V181.1Z" class="g0_29"/>
<path fill-rule="evenodd" d="M165.2,181.1H330.7v17.7H165.2V181.1Z" class="g0_29"/>
<path fill-rule="evenodd" d="M330.7,181.1h9.2v17.7h-9.2V181.1Z" class="g0_29"/>
<path fill-rule="evenodd" d="M110,198.9H825v17.7H110V198.9Z" class="g0_29"/>
<path fill-rule="evenodd" d="M110,198.9h46v17.7H110V198.9Z" class="g0_29"/>
<path fill-rule="evenodd" d="M165.2,198.9H248v17.7H165.2V198.9Z" class="g0_29"/>
<path fill-rule="evenodd" d="M248,198.9h9.1v17.7H248V198.9Z" class="g0_29"/>
<path fill-rule="evenodd" d="M110,216.6H825v17.8H110V216.6Z" class="g0_29"/>
<path fill-rule="evenodd" d="M110,216.6h46v17.8H110V216.6Z" class="g0_29"/>
<path fill-rule="evenodd" d="M110,234.4H825v17.8H110V234.4Z" class="g0_29"/>
<path fill-rule="evenodd" d="M110,234.4h9.2v17.8H110V234.4Z" class="g0_29"/>
<path fill-rule="evenodd" d="M110,252.2H825V270H110V252.2Z" class="g0_29"/>
<path fill-rule="evenodd" d="M110,270H825v17.8H110V270Z" class="g0_29"/>
<path fill-rule="evenodd" d="M146.7,270H202v17.8H146.7V270Z" class="g0_29"/>
<path fill-rule="evenodd" d="M211.1,270H248v17.8H211.1V270Z" class="g0_29"/>
<path fill-rule="evenodd" d="M293.9,270h9.2v17.8h-9.2V270Z" class="g0_29"/>
<path fill-rule="evenodd" d="M303.1,270h55.2v17.8H303.1V270Z" class="g0_29"/>
<path fill-rule="evenodd" d="M358.3,270h18.4v17.8H358.3V270Z" class="g0_29"/>
<path fill-rule="evenodd" d="M413.5,270h9.2v17.8h-9.2V270Z" class="g0_29"/>
<path fill-rule="evenodd" d="M110,287.8H825v17.8H110V287.8Z" class="g0_29"/>
<path fill-rule="evenodd" d="M146.7,287.8H156v17.8h-9.3V287.8Z" class="g0_29"/>
<path fill-rule="evenodd" d="M110,305.6H825v17.7H110V305.6Z" class="g0_29"/>
<path fill-rule="evenodd" d="M312.4,305.6h9.1v17.7h-9.1V305.6Z" class="g0_29"/>
<path fill-rule="evenodd" d="M330.7,305.6h27.6v17.7H330.7V305.6Z" class="g0_29"/>
<path fill-rule="evenodd" d="M450.3,305.6h18.3v17.7H450.3V305.6Z" class="g0_29"/>
<path fill-rule="evenodd" d="M468.6,305.6h9.3v17.7h-9.3V305.6Z" class="g0_29"/>
<path fill-rule="evenodd" d="M110,323.4H825v17.7H110V323.4Z" class="g0_29"/>
<path fill-rule="evenodd" d="M183.6,323.4h55.1v17.7H183.6V323.4Z" class="g0_29"/>
<path fill-rule="evenodd" d="M321.5,323.4h9.2v17.7h-9.2V323.4Z" class="g0_29"/>
<path fill-rule="evenodd" d="M110,341.2H825v17.7H110V341.2Z" class="g0_29"/>
<path fill-rule="evenodd" d="M183.6,341.2H202v17.7H183.6V341.2Z" class="g0_29"/>
<path fill-rule="evenodd" d="M110,359H825v17.7H110V359Z" class="g0_29"/>
<path fill-rule="evenodd" d="M183.6,359h9.1v17.7h-9.1V359Z" class="g0_29"/>
<path fill-rule="evenodd" d="M110,376.7H825v17.8H110V376.7Z" class="g0_29"/>
<path fill-rule="evenodd" d="M220.3,376.7h9.2v17.8h-9.2V376.7Z" class="g0_29"/>
<path fill-rule="evenodd" d="M257.1,376.7h9.2v17.8h-9.2V376.7Z" class="g0_29"/>
<path fill-rule="evenodd" d="M266.3,376.7h55.2v17.8H266.3V376.7Z" class="g0_29"/>
<path fill-rule="evenodd" d="M330.7,376.7h9.2v17.8h-9.2V376.7Z" class="g0_29"/>
<path fill-rule="evenodd" d="M349.1,376.7h9.2v17.8h-9.2V376.7Z" class="g0_29"/>
<path fill-rule="evenodd" d="M358.3,376.7h9.2v17.8h-9.2V376.7Z" class="g0_29"/>
<path fill-rule="evenodd" d="M459.5,376.7h9.1v17.8h-9.1V376.7Z" class="g0_29"/>
<path fill-rule="evenodd" d="M505.5,376.7h9.2v17.8h-9.2V376.7Z" class="g0_29"/>
<path fill-rule="evenodd" d="M514.7,376.7h9.2v17.8h-9.2V376.7Z" class="g0_29"/>
<path fill-rule="evenodd" d="M523.9,376.7H533v17.8h-9.1V376.7Z" class="g0_29"/>
<path fill-rule="evenodd" d="M533,376.7h9.3v17.8H533V376.7Z" class="g0_29"/>
<path fill-rule="evenodd" d="M110,394.5H825v17.8H110V394.5Z" class="g0_29"/>
<path fill-rule="evenodd" d="M183.6,394.5h9.1v17.8h-9.1V394.5Z" class="g0_29"/>
<path fill-rule="evenodd" d="M110,412.3H825V430H110V412.3Z" class="g0_29"/>
<path fill-rule="evenodd" d="M183.6,412.3h36.7V430H183.6V412.3Z" class="g0_29"/>
<path fill-rule="evenodd" d="M110,430.1H825v17.7H110V430.1Z" class="g0_29"/>
<path fill-rule="evenodd" d="M183.6,430.1h9.1v17.7h-9.1V430.1Z" class="g0_29"/>
<path fill-rule="evenodd" d="M110,447.9H825v17.7H110V447.9Z" class="g0_29"/>
<path fill-rule="evenodd" d="M303.1,447.9h9.3v17.7h-9.3V447.9Z" class="g0_29"/>
<path fill-rule="evenodd" d="M321.5,447.9h138v17.7h-138V447.9Z" class="g0_29"/>
<path fill-rule="evenodd" d="M459.5,447.9h9.1v17.7h-9.1V447.9Z" class="g0_29"/>
<path fill-rule="evenodd" d="M110,465.7H825v17.7H110V465.7Z" class="g0_29"/>
<path fill-rule="evenodd" d="M183.6,465.7h9.1v17.7h-9.1V465.7Z" class="g0_29"/>
<path fill-rule="evenodd" d="M110,483.5H825v17.7H110V483.5Z" class="g0_29"/>
<path fill-rule="evenodd" d="M321.5,483.5h9.2v17.7h-9.2V483.5Z" class="g0_29"/>
<path fill-rule="evenodd" d="M376.7,483.5h9.2v17.7h-9.2V483.5Z" class="g0_29"/>
<path fill-rule="evenodd" d="M385.9,483.5h73.6v17.7H385.9V483.5Z" class="g0_29"/>
<path fill-rule="evenodd" d="M459.5,483.5h9.1v17.7h-9.1V483.5Z" class="g0_29"/>
<path fill-rule="evenodd" d="M542.3,483.5h9.2v17.7h-9.2V483.5Z" class="g0_29"/>
<path fill-rule="evenodd" d="M551.5,483.5h9.2v17.7h-9.2V483.5Z" class="g0_29"/>
<path fill-rule="evenodd" d="M110,501.2H825v17.7H110V501.2Z" class="g0_29"/>
<path fill-rule="evenodd" d="M183.6,501.2h55.1v17.7H183.6V501.2Z" class="g0_29"/>
<path fill-rule="evenodd" d="M293.9,501.2h9.2v17.7h-9.2V501.2Z" class="g0_29"/>
<path fill-rule="evenodd" d="M321.5,501.2h9.2v17.7h-9.2V501.2Z" class="g0_29"/>
<path fill-rule="evenodd" d="M330.7,501.2h73.6v17.7H330.7V501.2Z" class="g0_29"/>
<path fill-rule="evenodd" d="M404.3,501.2h18.4v17.7H404.3V501.2Z" class="g0_29"/>
<path fill-rule="evenodd" d="M422.7,501.2h9.2v17.7h-9.2V501.2Z" class="g0_29"/>
<path fill-rule="evenodd" d="M110,519H825v17.7H110V519Z" class="g0_29"/>
<path fill-rule="evenodd" d="M183.6,519h45.9v17.7H183.6V519Z" class="g0_29"/>
<path fill-rule="evenodd" d="M238.7,519H248v17.7h-9.3V519Z" class="g0_29"/>
<path fill-rule="evenodd" d="M293.9,519h18.5v17.7H293.9V519Z" class="g0_29"/>
<path fill-rule="evenodd" d="M321.5,519h36.8v17.7H321.5V519Z" class="g0_29"/>
<path fill-rule="evenodd" d="M358.3,519h9.2v17.7h-9.2V519Z" class="g0_29"/>
<path fill-rule="evenodd" d="M110,536.8H825v17.7H110V536.8Z" class="g0_29"/>
<path fill-rule="evenodd" d="M183.6,536.8h9.1v17.7h-9.1V536.8Z" class="g0_29"/>
<path fill-rule="evenodd" d="M110,554.6H825v17.7H110V554.6Z" class="g0_29"/>
<path fill-rule="evenodd" d="M220.3,554.6H248v17.7H220.3V554.6Z" class="g0_29"/>
<path fill-rule="evenodd" d="M293.9,554.6h9.2v17.7h-9.2V554.6Z" class="g0_29"/>
<path fill-rule="evenodd" d="M349.1,554.6h9.2v17.7h-9.2V554.6Z" class="g0_29"/>
<path fill-rule="evenodd" d="M358.3,554.6h64.4v17.7H358.3V554.6Z" class="g0_29"/>
<path fill-rule="evenodd" d="M422.7,554.6h9.2v17.7h-9.2V554.6Z" class="g0_29"/>
<path fill-rule="evenodd" d="M431.9,554.6h27.6v17.7H431.9V554.6Z" class="g0_29"/>
<path fill-rule="evenodd" d="M459.5,554.6h9.1v17.7h-9.1V554.6Z" class="g0_29"/>
<path fill-rule="evenodd" d="M468.6,554.6h9.3v17.7h-9.3V554.6Z" class="g0_29"/>
<path fill-rule="evenodd" d="M110,572.4H825v17.7H110V572.4Z" class="g0_29"/>
<path fill-rule="evenodd" d="M220.3,572.4h55.2v17.7H220.3V572.4Z" class="g0_29"/>
<path fill-rule="evenodd" d="M330.7,572.4h9.2v17.7h-9.2V572.4Z" class="g0_29"/>
<path fill-rule="evenodd" d="M385.9,572.4h9.2v17.7h-9.2V572.4Z" class="g0_29"/>
<path fill-rule="evenodd" d="M395.1,572.4h82.8v17.7H395.1V572.4Z" class="g0_29"/>
<path fill-rule="evenodd" d="M477.9,572.4h9.2v17.7h-9.2V572.4Z" class="g0_29"/>
<path fill-rule="evenodd" d="M487.1,572.4h9.2v17.7h-9.2V572.4Z" class="g0_29"/>
<path fill-rule="evenodd" d="M542.3,572.4h9.2v17.7h-9.2V572.4Z" class="g0_29"/>
<path fill-rule="evenodd" d="M551.5,572.4h9.2v17.7h-9.2V572.4Z" class="g0_29"/>
<path fill-rule="evenodd" d="M560.7,572.4h36.7v17.7H560.7V572.4Z" class="g0_29"/>
<path fill-rule="evenodd" d="M597.4,572.4h18.4v17.7H597.4V572.4Z" class="g0_29"/>
<path fill-rule="evenodd" d="M615.8,572.4H625v17.7h-9.2V572.4Z" class="g0_29"/>
<path fill-rule="evenodd" d="M110,590.1H825v17.7H110V590.1Z" class="g0_29"/>
<path fill-rule="evenodd" d="M220.3,590.1h36.8v17.7H220.3V590.1Z" class="g0_29"/>
<path fill-rule="evenodd" d="M321.5,590.1h9.2v17.7h-9.2V590.1Z" class="g0_29"/>
<path fill-rule="evenodd" d="M404.3,590.1h9.2v17.7h-9.2V590.1Z" class="g0_29"/>
<path fill-rule="evenodd" d="M413.5,590.1h64.4v17.7H413.5V590.1Z" class="g0_29"/>
<path fill-rule="evenodd" d="M477.9,590.1h9.2v17.7h-9.2V590.1Z" class="g0_29"/>
<path fill-rule="evenodd" d="M523.9,590.1H533v17.7h-9.1V590.1Z" class="g0_29"/>
<path fill-rule="evenodd" d="M533,590.1h82.8v17.7H533V590.1Z" class="g0_29"/>
<path fill-rule="evenodd" d="M615.8,590.1H625v17.7h-9.2V590.1Z" class="g0_29"/>
<path fill-rule="evenodd" d="M661.8,590.1h9.3v17.7h-9.3V590.1Z" class="g0_29"/>
<path fill-rule="evenodd" d="M680.2,590.1h9.2v17.7h-9.2V590.1Z" class="g0_29"/>
<path fill-rule="evenodd" d="M689.4,590.1h18.4v17.7H689.4V590.1Z" class="g0_29"/>
<path fill-rule="evenodd" d="M707.8,590.1h9.3v17.7h-9.3V590.1Z" class="g0_29"/>
<path fill-rule="evenodd" d="M110,607.9H825v17.7H110V607.9Z" class="g0_29"/>
<path fill-rule="evenodd" d="M248,607.9h9.1v17.7H248V607.9Z" class="g0_29"/>
<path fill-rule="evenodd" d="M293.9,607.9h9.2v17.7h-9.2V607.9Z" class="g0_29"/>
<path fill-rule="evenodd" d="M312.4,607.9h9.1v17.7h-9.1V607.9Z" class="g0_29"/>
<path fill-rule="evenodd" d="M376.7,607.9h9.2v17.7h-9.2V607.9Z" class="g0_29"/>
<path fill-rule="evenodd" d="M110,625.7H825v17.7H110V625.7Z" class="g0_29"/>
<path fill-rule="evenodd" d="M266.3,625.7h9.2v17.7h-9.2V625.7Z" class="g0_29"/>
<path fill-rule="evenodd" d="M293.9,625.7h9.2v17.7h-9.2V625.7Z" class="g0_29"/>
<path fill-rule="evenodd" d="M303.1,625.7h73.6v17.7H303.1V625.7Z" class="g0_29"/>
<path fill-rule="evenodd" d="M376.7,625.7h18.4v17.7H376.7V625.7Z" class="g0_29"/>
<path fill-rule="evenodd" d="M395.1,625.7h9.2v17.7h-9.2V625.7Z" class="g0_29"/>
<path fill-rule="evenodd" d="M110,643.5H825v17.7H110V643.5Z" class="g0_29"/>
<path fill-rule="evenodd" d="M183.6,643.5h9.1v17.7h-9.1V643.5Z" class="g0_29"/>
<path fill-rule="evenodd" d="M110,661.3H825V679H110V661.3Z" class="g0_29"/>
<path fill-rule="evenodd" d="M192.7,661.3H202V679h-9.3V661.3Z" class="g0_29"/>
<path fill-rule="evenodd" d="M202,661.3h46V679H202V661.3Z" class="g0_29"/>
<path fill-rule="evenodd" d="M248,661.3h18.3V679H248V661.3Z" class="g0_29"/>
<path fill-rule="evenodd" d="M266.3,661.3h9.2V679h-9.2V661.3Z" class="g0_29"/>
<path fill-rule="evenodd" d="M110,679.1H825v17.7H110V679.1Z" class="g0_29"/>
<path fill-rule="evenodd" d="M183.6,679.1h27.5v17.7H183.6V679.1Z" class="g0_29"/>
<path fill-rule="evenodd" d="M220.3,679.1h9.2v17.7h-9.2V679.1Z" class="g0_29"/>
<path fill-rule="evenodd" d="M229.5,679.1h9.2v17.7h-9.2V679.1Z" class="g0_29"/>
<path fill-rule="evenodd" d="M248,679.1h9.1v17.7H248V679.1Z" class="g0_29"/>
<path fill-rule="evenodd" d="M266.3,679.1h9.2v17.7h-9.2V679.1Z" class="g0_29"/>
<path fill-rule="evenodd" d="M110,696.8H825v17.7H110V696.8Z" class="g0_29"/>
<path fill-rule="evenodd" d="M183.6,696.8h9.1v17.7h-9.1V696.8Z" class="g0_29"/>
<path fill-rule="evenodd" d="M110,714.6H825v17.7H110V714.6Z" class="g0_29"/>
<path fill-rule="evenodd" d="M284.7,714.6h9.2v17.7h-9.2V714.6Z" class="g0_29"/>
<path fill-rule="evenodd" d="M293.9,714.6h46v17.7h-46V714.6Z" class="g0_29"/>
<path fill-rule="evenodd" d="M339.9,714.6h9.2v17.7h-9.2V714.6Z" class="g0_29"/>
<path fill-rule="evenodd" d="M349.1,714.6h46v17.7h-46V714.6Z" class="g0_29"/>
<path fill-rule="evenodd" d="M395.1,714.6h9.2v17.7h-9.2V714.6Z" class="g0_29"/>
<path fill-rule="evenodd" d="M404.3,714.6h9.2v17.7h-9.2V714.6Z" class="g0_29"/>
<path fill-rule="evenodd" d="M413.5,714.6h9.2v17.7h-9.2V714.6Z" class="g0_29"/>
<path fill-rule="evenodd" d="M422.7,714.6h9.2v17.7h-9.2V714.6Z" class="g0_29"/>
<path fill-rule="evenodd" d="M431.9,714.6h9.2v17.7h-9.2V714.6Z" class="g0_29"/>
<path fill-rule="evenodd" d="M441.1,714.6h9.2v17.7h-9.2V714.6Z" class="g0_29"/>
<path fill-rule="evenodd" d="M110,732.4H825v17.7H110V732.4Z" class="g0_29"/>
<path fill-rule="evenodd" d="M220.3,732.4h55.2v17.7H220.3V732.4Z" class="g0_29"/>
<path fill-rule="evenodd" d="M330.7,732.4h9.2v17.7h-9.2V732.4Z" class="g0_29"/>
<path fill-rule="evenodd" d="M413.5,732.4h9.2v17.7h-9.2V732.4Z" class="g0_29"/>
<path fill-rule="evenodd" d="M422.7,732.4h73.6v17.7H422.7V732.4Z" class="g0_29"/>
<path fill-rule="evenodd" d="M496.3,732.4h18.4v17.7H496.3V732.4Z" class="g0_29"/>
<path fill-rule="evenodd" d="M514.7,732.4h9.2v17.7h-9.2V732.4Z" class="g0_29"/>
<path fill-rule="evenodd" d="M523.9,732.4h36.8v17.7H523.9V732.4Z" class="g0_29"/>
<path fill-rule="evenodd" d="M560.7,732.4H579v17.7H560.7V732.4Z" class="g0_29"/>
<path fill-rule="evenodd" d="M579,732.4h9.3v17.7H579V732.4Z" class="g0_29"/>
<path fill-rule="evenodd" d="M110,750.2H825v17.7H110V750.2Z" class="g0_29"/>
<path fill-rule="evenodd" d="M220.3,750.2h18.4v17.7H220.3V750.2Z" class="g0_29"/>
<path fill-rule="evenodd" d="M248,750.2h9.1v17.7H248V750.2Z" class="g0_29"/>
<path fill-rule="evenodd" d="M303.1,750.2h18.4v17.7H303.1V750.2Z" class="g0_29"/>
<path fill-rule="evenodd" d="M330.7,750.2h18.4v17.7H330.7V750.2Z" class="g0_29"/>
<path fill-rule="evenodd" d="M349.1,750.2h9.2v17.7h-9.2V750.2Z" class="g0_29"/>
<path fill-rule="evenodd" d="M110,768H825v17.7H110V768Z" class="g0_29"/>
<path fill-rule="evenodd" d="M257.1,768h46v17.7h-46V768Z" class="g0_29"/>
<path fill-rule="evenodd" d="M303.1,768h9.3v17.7h-9.3V768Z" class="g0_29"/>
<path fill-rule="evenodd" d="M110,785.7H825v17.8H110V785.7Z" class="g0_29"/>
<path fill-rule="evenodd" d="M220.3,785.7h55.2v17.8H220.3V785.7Z" class="g0_29"/>
<path fill-rule="evenodd" d="M339.9,785.7h9.2v17.8h-9.2V785.7Z" class="g0_29"/>
<path fill-rule="evenodd" d="M385.9,785.7h9.2v17.8h-9.2V785.7Z" class="g0_29"/>
<path fill-rule="evenodd" d="M431.9,785.7h9.2v17.8h-9.2V785.7Z" class="g0_29"/>
<path fill-rule="evenodd" d="M441.1,785.7h9.2v17.8h-9.2V785.7Z" class="g0_29"/>
<path fill-rule="evenodd" d="M110,803.5H825v17.8H110V803.5Z" class="g0_29"/>
<path fill-rule="evenodd" d="M220.3,803.5h18.4v17.8H220.3V803.5Z" class="g0_29"/>
<path fill-rule="evenodd" d="M248,803.5h9.1v17.8H248V803.5Z" class="g0_29"/>
<path fill-rule="evenodd" d="M312.4,803.5h18.3v17.8H312.4V803.5Z" class="g0_29"/>
<path fill-rule="evenodd" d="M339.9,803.5h36.8v17.8H339.9V803.5Z" class="g0_29"/>
<path fill-rule="evenodd" d="M376.7,803.5h9.2v17.8h-9.2V803.5Z" class="g0_29"/>
<path fill-rule="evenodd" d="M110,821.3H825v17.8H110V821.3Z" class="g0_29"/>
<path fill-rule="evenodd" d="M321.5,821.3h9.2v17.8h-9.2V821.3Z" class="g0_29"/>
<path fill-rule="evenodd" d="M330.7,821.3h82.8v17.8H330.7V821.3Z" class="g0_29"/>
<path fill-rule="evenodd" d="M413.5,821.3h9.2v17.8h-9.2V821.3Z" class="g0_29"/>
<path fill-rule="evenodd" d="M422.7,821.3h27.6v17.8H422.7V821.3Z" class="g0_29"/>
<path fill-rule="evenodd" d="M450.3,821.3h9.2v17.8h-9.2V821.3Z" class="g0_29"/>
<path fill-rule="evenodd" d="M459.5,821.3h27.6v17.8H459.5V821.3Z" class="g0_29"/>
<path fill-rule="evenodd" d="M487.1,821.3h9.2v17.8h-9.2V821.3Z" class="g0_29"/>
<path fill-rule="evenodd" d="M496.3,821.3h46v17.8h-46V821.3Z" class="g0_29"/>
<path fill-rule="evenodd" d="M542.3,821.3h9.2v17.8h-9.2V821.3Z" class="g0_29"/>
<path fill-rule="evenodd" d="M551.5,821.3h18.4v17.8H551.5V821.3Z" class="g0_29"/>
<path fill-rule="evenodd" d="M569.9,821.3H579v17.8h-9.1V821.3Z" class="g0_29"/>
<path fill-rule="evenodd" d="M579,821.3h46v17.8H579V821.3Z" class="g0_29"/>
<path fill-rule="evenodd" d="M625,821.3h9.3v17.8H625V821.3Z" class="g0_29"/>
<path fill-rule="evenodd" d="M634.3,821.3h45.9v17.8H634.3V821.3Z" class="g0_29"/>
<path fill-rule="evenodd" d="M680.2,821.3h9.2v17.8h-9.2V821.3Z" class="g0_29"/>
<path fill-rule="evenodd" d="M689.4,821.3h9.3v17.8h-9.3V821.3Z" class="g0_29"/>
<path fill-rule="evenodd" d="M110,839.1H825v17.8H110V839.1Z" class="g0_29"/>
<path fill-rule="evenodd" d="M220.3,839.1h36.8v17.8H220.3V839.1Z" class="g0_29"/>
<path fill-rule="evenodd" d="M110,856.9H825v17.8H110V856.9Z" class="g0_29"/>
<path fill-rule="evenodd" d="M321.5,856.9h9.2v17.8h-9.2V856.9Z" class="g0_29"/>
<path fill-rule="evenodd" d="M330.7,856.9h82.8v17.8H330.7V856.9Z" class="g0_29"/>
<path fill-rule="evenodd" d="M413.5,856.9h9.2v17.8h-9.2V856.9Z" class="g0_29"/>
<path fill-rule="evenodd" d="M468.6,856.9h9.3v17.8h-9.3V856.9Z" class="g0_29"/>
<path fill-rule="evenodd" d="M477.9,856.9h9.2v17.8h-9.2V856.9Z" class="g0_29"/>
<path fill-rule="evenodd" d="M110,874.7H825v17.7H110V874.7Z" class="g0_29"/>
<path fill-rule="evenodd" d="M183.6,874.7h9.1v17.7h-9.1V874.7Z" class="g0_29"/>
<path fill-rule="evenodd" d="M110,892.5H825v17.7H110V892.5Z" class="g0_29"/>
<path fill-rule="evenodd" d="M146.7,892.5H156v17.7h-9.3V892.5Z" class="g0_29"/>
<path fill-rule="evenodd" d="M110,910.2H825V928H110V910.2Z" class="g0_29"/>
<path fill-rule="evenodd" d="M110,910.2h9.2V928H110V910.2Z" class="g0_29"/>
<path fill-rule="evenodd" d="M110,928H825v43.7H110V928Z" class="g1_29"/>
<path fill-rule="evenodd" d="M110,971.7H825v17.8H110V971.7Z" class="g0_29"/>
<path fill-rule="evenodd" d="M110,989.5H825v17.8H110V989.5Z" class="g0_29"/>
<path fill-rule="evenodd" d="M110,1007.3H825v17.8H110v-17.8Z" class="g0_29"/>
<path fill-rule="evenodd" d="M110,1025.1H825v17.8H110v-17.8Z" class="g0_29"/>
<path fill-rule="evenodd" d="M110,1042.9H825v29.2H110v-29.2Z" class="g0_29"/>
</svg>