<?xml version="1.0" encoding="UTF-8" standalone="no"?>
<!DOCTYPE svg PUBLIC "-//W3C//DTD SVG 1.1//EN"
"http://www.w3.org/Graphics/SVG/1.1/DTD/svg11.dtd">
<svg viewBox="0 0 935 1210" version="1.1" xmlns="http://www.w3.org/2000/svg" xmlns:xlink="http://www.w3.org/1999/xlink">
<defs>
<style type="text/css"><![CDATA[
.g0_20{
fill: #F4F4F4;
}
.g1_20{
fill: #FDFDFD;
}
]]></style>
</defs>
<path fill-rule="evenodd" d="M110,110H825v17.7H110V110Z" class="g0_20"/>
<path fill-rule="evenodd" d="M110,110h18.3v17.7H110V110Z" class="g0_20"/>
<path fill-rule="evenodd" d="M110,127.7H825v17.7H110V127.7Z" class="g0_20"/>
<path fill-rule="evenodd" d="M110,127.7h9.2v17.7H110V127.7Z" class="g0_20"/>
<path fill-rule="evenodd" d="M119.2,127.7h9.1v17.7h-9.1V127.7Z" class="g0_20"/>
<path fill-rule="evenodd" d="M128.3,127.7h9.3v17.7h-9.3V127.7Z" class="g0_20"/>
<path fill-rule="evenodd" d="M137.6,127.7H156v17.7H137.6V127.7Z" class="g0_20"/>
<path fill-rule="evenodd" d="M156,127.7h9.2v17.7H156V127.7Z" class="g0_20"/>
<path fill-rule="evenodd" d="M165.2,127.7h64.3v17.7H165.2V127.7Z" class="g0_20"/>
<path fill-rule="evenodd" d="M229.5,127.7h9.2v17.7h-9.2V127.7Z" class="g0_20"/>
<path fill-rule="evenodd" d="M238.7,127.7h18.4v17.7H238.7V127.7Z" class="g0_20"/>
<path fill-rule="evenodd" d="M257.1,127.7h9.2v17.7h-9.2V127.7Z" class="g0_20"/>
<path fill-rule="evenodd" d="M266.3,127.7h36.8v17.7H266.3V127.7Z" class="g0_20"/>
<path fill-rule="evenodd" d="M303.1,127.7h9.3v17.7h-9.3V127.7Z" class="g0_20"/>
<path fill-rule="evenodd" d="M312.4,127.7h73.5v17.7H312.4V127.7Z" class="g0_20"/>
<path fill-rule="evenodd" d="M385.9,127.7h9.2v17.7h-9.2V127.7Z" class="g0_20"/>
<path fill-rule="evenodd" d="M395.1,127.7h46v17.7h-46V127.7Z" class="g0_20"/>
<path fill-rule="evenodd" d="M441.1,127.7h9.2v17.7h-9.2V127.7Z" class="g0_20"/>
<path fill-rule="evenodd" d="M450.3,127.7h9.2v17.7h-9.2V127.7Z" class="g0_20"/>
<path fill-rule="evenodd" d="M459.5,127.7h9.1v17.7h-9.1V127.7Z" class="g0_20"/>
<path fill-rule="evenodd" d="M468.6,127.7H533v17.7H468.6V127.7Z" class="g0_20"/>
<path fill-rule="evenodd" d="M110,145.5H825v17.7H110V145.5Z" class="g0_20"/>
<path fill-rule="evenodd" d="M110,145.5h9.2v17.7H110V145.5Z" class="g0_20"/>
<path fill-rule="evenodd" d="M119.2,145.5h18.4v17.7H119.2V145.5Z" class="g0_20"/>
<path fill-rule="evenodd" d="M110,163.3H825V181H110V163.3Z" class="g0_20"/>
<path fill-rule="evenodd" d="M110,163.3h46V181H110V163.3Z" class="g0_20"/>
<path fill-rule="evenodd" d="M165.2,163.3h55.1V181H165.2V163.3Z" class="g0_20"/>
<path fill-rule="evenodd" d="M220.3,163.3h9.2V181h-9.2V163.3Z" class="g0_20"/>
<path fill-rule="evenodd" d="M110,181.1H825v17.7H110V181.1Z" class="g0_20"/>
<path fill-rule="evenodd" d="M110,181.1h46v17.7H110V181.1Z" class="g0_20"/>
<path fill-rule="evenodd" d="M110,198.9H825v17.7H110V198.9Z" class="g0_20"/>
<path fill-rule="evenodd" d="M110,198.9h9.2v17.7H110V198.9Z" class="g0_20"/>
<path fill-rule="evenodd" d="M110,216.6H825v17.8H110V216.6Z" class="g0_20"/>
<path fill-rule="evenodd" d="M146.7,216.6H202v17.8H146.7V216.6Z" class="g0_20"/>
<path fill-rule="evenodd" d="M211.1,216.6h55.2v17.8H211.1V216.6Z" class="g0_20"/>
<path fill-rule="evenodd" d="M275.5,216.6h36.9v17.8H275.5V216.6Z" class="g0_20"/>
<path fill-rule="evenodd" d="M358.3,216.6h18.4v17.8H358.3V216.6Z" class="g0_20"/>
<path fill-rule="evenodd" d="M110,234.4H825v17.8H110V234.4Z" class="g0_20"/>
<path fill-rule="evenodd" d="M146.7,234.4H156v17.8h-9.3V234.4Z" class="g0_20"/>
<path fill-rule="evenodd" d="M110,252.2H825V270H110V252.2Z" class="g0_20"/>
<path fill-rule="evenodd" d="M183.6,252.2h27.5V270H183.6V252.2Z" class="g0_20"/>
<path fill-rule="evenodd" d="M257.1,252.2h9.2V270h-9.2V252.2Z" class="g0_20"/>
<path fill-rule="evenodd" d="M110,270H825v17.8H110V270Z" class="g0_20"/>
<path fill-rule="evenodd" d="M248,270h9.1v17.8H248V270Z" class="g0_20"/>
<path fill-rule="evenodd" d="M257.1,270h82.8v17.8H257.1V270Z" class="g0_20"/>
<path fill-rule="evenodd" d="M339.9,270h9.2v17.8h-9.2V270Z" class="g0_20"/>
<path fill-rule="evenodd" d="M349.1,270h55.2v17.8H349.1V270Z" class="g0_20"/>
<path fill-rule="evenodd" d="M404.3,270h9.2v17.8h-9.2V270Z" class="g0_20"/>
<path fill-rule="evenodd" d="M413.5,270h27.6v17.8H413.5V270Z" class="g0_20"/>
<path fill-rule="evenodd" d="M441.1,270h9.2v17.8h-9.2V270Z" class="g0_20"/>
<path fill-rule="evenodd" d="M450.3,270h27.6v17.8H450.3V270Z" class="g0_20"/>
<path fill-rule="evenodd" d="M477.9,270h9.2v17.8h-9.2V270Z" class="g0_20"/>
<path fill-rule="evenodd" d="M487.1,270h64.4v17.8H487.1V270Z" class="g0_20"/>
<path fill-rule="evenodd" d="M551.5,270h9.2v17.8h-9.2V270Z" class="g0_20"/>
<path fill-rule="evenodd" d="M560.7,270h9.2v17.8h-9.2V270Z" class="g0_20"/>
<path fill-rule="evenodd" d="M569.9,270H579v17.8h-9.1V270Z" class="g0_20"/>
<path fill-rule="evenodd" d="M579,270h9.3v17.8H579V270Z" class="g0_20"/>
<path fill-rule="evenodd" d="M588.3,270h18.4v17.8H588.3V270Z" class="g0_20"/>
<path fill-rule="evenodd" d="M110,287.8H825v17.8H110V287.8Z" class="g0_20"/>
<path fill-rule="evenodd" d="M202,287.8h9.1v17.8H202V287.8Z" class="g0_20"/>
<path fill-rule="evenodd" d="M284.7,287.8h9.2v17.8h-9.2V287.8Z" class="g0_20"/>
<path fill-rule="evenodd" d="M293.9,287.8h64.4v17.8H293.9V287.8Z" class="g0_20"/>
<path fill-rule="evenodd" d="M358.3,287.8h9.2v17.8h-9.2V287.8Z" class="g0_20"/>
<path fill-rule="evenodd" d="M431.9,287.8h9.2v17.8h-9.2V287.8Z" class="g0_20"/>
<path fill-rule="evenodd" d="M441.1,287.8h73.6v17.8H441.1V287.8Z" class="g0_20"/>
<path fill-rule="evenodd" d="M514.7,287.8h36.8v17.8H514.7V287.8Z" class="g0_20"/>
<path fill-rule="evenodd" d="M110,305.6H825v17.7H110V305.6Z" class="g0_20"/>
<path fill-rule="evenodd" d="M202,305.6h9.1v17.7H202V305.6Z" class="g0_20"/>
<path fill-rule="evenodd" d="M284.7,305.6h9.2v17.7h-9.2V305.6Z" class="g0_20"/>
<path fill-rule="evenodd" d="M293.9,305.6h64.4v17.7H293.9V305.6Z" class="g0_20"/>
<path fill-rule="evenodd" d="M358.3,305.6h9.2v17.7h-9.2V305.6Z" class="g0_20"/>
<path fill-rule="evenodd" d="M431.9,305.6h9.2v17.7h-9.2V305.6Z" class="g0_20"/>
<path fill-rule="evenodd" d="M441.1,305.6h73.6v17.7H441.1V305.6Z" class="g0_20"/>
<path fill-rule="evenodd" d="M514.7,305.6h36.8v17.7H514.7V305.6Z" class="g0_20"/>
<path fill-rule="evenodd" d="M110,323.4H825v17.7H110V323.4Z" class="g0_20"/>
<path fill-rule="evenodd" d="M183.6,323.4H202v17.7H183.6V323.4Z" class="g0_20"/>
<path fill-rule="evenodd" d="M211.1,323.4h9.2v17.7h-9.2V323.4Z" class="g0_20"/>
<path fill-rule="evenodd" d="M238.7,323.4H248v17.7h-9.3V323.4Z" class="g0_20"/>
<path fill-rule="evenodd" d="M266.3,323.4h9.2v17.7h-9.2V323.4Z" class="g0_20"/>
<path fill-rule="evenodd" d="M110,341.2H825v17.7H110V341.2Z" class="g0_20"/>
<path fill-rule="evenodd" d="M183.6,341.2h9.1v17.7h-9.1V341.2Z" class="g0_20"/>
<path fill-rule="evenodd" d="M110,359H825v17.7H110V359Z" class="g0_20"/>
<path fill-rule="evenodd" d="M284.7,359h9.2v17.7h-9.2V359Z" class="g0_20"/>
<path fill-rule="evenodd" d="M293.9,359h82.8v17.7H293.9V359Z" class="g0_20"/>
<path fill-rule="evenodd" d="M376.7,359h9.2v17.7h-9.2V359Z" class="g0_20"/>
<path fill-rule="evenodd" d="M385.9,359h36.8v17.7H385.9V359Z" class="g0_20"/>
<path fill-rule="evenodd" d="M422.7,359h9.2v17.7h-9.2V359Z" class="g0_20"/>
<path fill-rule="evenodd" d="M431.9,359h18.4v17.7H431.9V359Z" class="g0_20"/>
<path fill-rule="evenodd" d="M450.3,359h9.2v17.7h-9.2V359Z" class="g0_20"/>
<path fill-rule="evenodd" d="M459.5,359h27.6v17.7H459.5V359Z" class="g0_20"/>
<path fill-rule="evenodd" d="M487.1,359h9.2v17.7h-9.2V359Z" class="g0_20"/>
<path fill-rule="evenodd" d="M496.3,359h73.6v17.7H496.3V359Z" class="g0_20"/>
<path fill-rule="evenodd" d="M569.9,359H579v17.7h-9.1V359Z" class="g0_20"/>
<path fill-rule="evenodd" d="M579,359h64.4v17.7H579V359Z" class="g0_20"/>
<path fill-rule="evenodd" d="M671.1,359h18.3v17.7H671.1V359Z" class="g0_20"/>
<path fill-rule="evenodd" d="M110,376.7H825v17.8H110V376.7Z" class="g0_20"/>
<path fill-rule="evenodd" d="M183.6,376.7h9.1v17.8h-9.1V376.7Z" class="g0_20"/>
<path fill-rule="evenodd" d="M110,394.5H825v17.8H110V394.5Z" class="g0_20"/>
<path fill-rule="evenodd" d="M183.6,394.5h36.7v17.8H183.6V394.5Z" class="g0_20"/>
<path fill-rule="evenodd" d="M110,412.3H825V430H110V412.3Z" class="g0_20"/>
<path fill-rule="evenodd" d="M183.6,412.3h9.1V430h-9.1V412.3Z" class="g0_20"/>
<path fill-rule="evenodd" d="M110,430.1H825v17.7H110V430.1Z" class="g0_20"/>
<path fill-rule="evenodd" d="M284.7,430.1h9.2v17.7h-9.2V430.1Z" class="g0_20"/>
<path fill-rule="evenodd" d="M293.9,430.1h82.8v17.7H293.9V430.1Z" class="g0_20"/>
<path fill-rule="evenodd" d="M376.7,430.1h9.2v17.7h-9.2V430.1Z" class="g0_20"/>
<path fill-rule="evenodd" d="M385.9,430.1h36.8v17.7H385.9V430.1Z" class="g0_20"/>
<path fill-rule="evenodd" d="M422.7,430.1h9.2v17.7h-9.2V430.1Z" class="g0_20"/>
<path fill-rule="evenodd" d="M431.9,430.1h18.4v17.7H431.9V430.1Z" class="g0_20"/>
<path fill-rule="evenodd" d="M450.3,430.1h9.2v17.7h-9.2V430.1Z" class="g0_20"/>
<path fill-rule="evenodd" d="M459.5,430.1h27.6v17.7H459.5V430.1Z" class="g0_20"/>
<path fill-rule="evenodd" d="M487.1,430.1h9.2v17.7h-9.2V430.1Z" class="g0_20"/>
<path fill-rule="evenodd" d="M496.3,430.1h73.6v17.7H496.3V430.1Z" class="g0_20"/>
<path fill-rule="evenodd" d="M569.9,430.1H579v17.7h-9.1V430.1Z" class="g0_20"/>
<path fill-rule="evenodd" d="M579,430.1h55.3v17.7H579V430.1Z" class="g0_20"/>
<path fill-rule="evenodd" d="M634.3,430.1h9.1v17.7h-9.1V430.1Z" class="g0_20"/>
<path fill-rule="evenodd" d="M643.4,430.1h9.3v17.7h-9.3V430.1Z" class="g0_20"/>
<path fill-rule="evenodd" d="M680.2,430.1h18.5v17.7H680.2V430.1Z" class="g0_20"/>
<path fill-rule="evenodd" d="M110,447.9H825v17.7H110V447.9Z" class="g0_20"/>
<path fill-rule="evenodd" d="M183.6,447.9h9.1v17.7h-9.1V447.9Z" class="g0_20"/>
<path fill-rule="evenodd" d="M110,465.7H825v17.7H110V465.7Z" class="g0_20"/>
<path fill-rule="evenodd" d="M248,465.7h9.1v17.7H248V465.7Z" class="g0_20"/>
<path fill-rule="evenodd" d="M257.1,465.7h73.6v17.7H257.1V465.7Z" class="g0_20"/>
<path fill-rule="evenodd" d="M330.7,465.7h27.6v17.7H330.7V465.7Z" class="g0_20"/>
<path fill-rule="evenodd" d="M110,483.5H825v17.7H110V483.5Z" class="g0_20"/>
<path fill-rule="evenodd" d="M146.7,483.5H156v17.7h-9.3V483.5Z" class="g0_20"/>
<path fill-rule="evenodd" d="M110,501.2H825v29.2H110V501.2Z" class="g0_20"/>
<path fill-rule="evenodd" d="M110,501.2h9.2v17.7H110V501.2Z" class="g0_20"/>
<path fill-rule="evenodd" d="M110,530.4H825v43.7H110V530.4Z" class="g1_20"/>
<path fill-rule="evenodd" d="M110,574.2H825v27.5H110V574.2Z" class="g1_20"/>
<path fill-rule="evenodd" d="M110,601.7H825v27.5H110V601.7Z" class="g1_20"/>
<path fill-rule="evenodd" d="M110,629.2H825v39H110v-39Z" class="g1_20"/>
<path fill-rule="evenodd" d="M110,668.2H825v43.7H110V668.2Z" class="g1_20"/>
<path fill-rule="evenodd" d="M110,711.9H825v17.7H110V711.9Z" class="g0_20"/>
<path fill-rule="evenodd" d="M110,729.7H825v17.7H110V729.7Z" class="g0_20"/>
<path fill-rule="evenodd" d="M110,747.5H825v17.7H110V747.5Z" class="g0_20"/>
<path fill-rule="evenodd" d="M110,765.3H825V783H110V765.3Z" class="g0_20"/>
<path fill-rule="evenodd" d="M110,783H825v29.2H110V783Z" class="g0_20"/>
</svg>