<?xml version="1.0" encoding="UTF-8" standalone="no"?>
<!DOCTYPE svg PUBLIC "-//W3C//DTD SVG 1.1//EN"
"http://www.w3.org/Graphics/SVG/1.1/DTD/svg11.dtd">
<svg viewBox="0 0 935 1210" version="1.1" xmlns="http://www.w3.org/2000/svg" xmlns:xlink="http://www.w3.org/1999/xlink">
<defs>
<style type="text/css"><![CDATA[
.g0_25{
fill: #F4F4F4;
}
.g1_25{
fill: #FDFDFD;
}
]]></style>
</defs>
<path fill-rule="evenodd" d="M110,110H825v17.7H110V110Z" class="g0_25"/>
<path fill-rule="evenodd" d="M110,110h18.3v17.7H110V110Z" class="g0_25"/>
<path fill-rule="evenodd" d="M110,127.7H825v17.7H110V127.7Z" class="g0_25"/>
<path fill-rule="evenodd" d="M110,127.7h9.2v17.7H110V127.7Z" class="g0_25"/>
<path fill-rule="evenodd" d="M119.2,127.7h9.1v17.7h-9.1V127.7Z" class="g0_25"/>
<path fill-rule="evenodd" d="M128.3,127.7h9.3v17.7h-9.3V127.7Z" class="g0_25"/>
<path fill-rule="evenodd" d="M137.6,127.7H156v17.7H137.6V127.7Z" class="g0_25"/>
<path fill-rule="evenodd" d="M156,127.7h9.2v17.7H156V127.7Z" class="g0_25"/>
<path fill-rule="evenodd" d="M165.2,127.7h64.3v17.7H165.2V127.7Z" class="g0_25"/>
<path fill-rule="evenodd" d="M229.5,127.7h9.2v17.7h-9.2V127.7Z" class="g0_25"/>
<path fill-rule="evenodd" d="M238.7,127.7h18.4v17.7H238.7V127.7Z" class="g0_25"/>
<path fill-rule="evenodd" d="M257.1,127.7h9.2v17.7h-9.2V127.7Z" class="g0_25"/>
<path fill-rule="evenodd" d="M266.3,127.7h55.2v17.7H266.3V127.7Z" class="g0_25"/>
<path fill-rule="evenodd" d="M321.5,127.7h9.2v17.7h-9.2V127.7Z" class="g0_25"/>
<path fill-rule="evenodd" d="M330.7,127.7h9.2v17.7h-9.2V127.7Z" class="g0_25"/>
<path fill-rule="evenodd" d="M339.9,127.7h9.2v17.7h-9.2V127.7Z" class="g0_25"/>
<path fill-rule="evenodd" d="M349.1,127.7h55.2v17.7H349.1V127.7Z" class="g0_25"/>
<path fill-rule="evenodd" d="M404.3,127.7h9.2v17.7h-9.2V127.7Z" class="g0_25"/>
<path fill-rule="evenodd" d="M413.5,127.7h36.8v17.7H413.5V127.7Z" class="g0_25"/>
<path fill-rule="evenodd" d="M450.3,127.7h9.2v17.7h-9.2V127.7Z" class="g0_25"/>
<path fill-rule="evenodd" d="M459.5,127.7h27.6v17.7H459.5V127.7Z" class="g0_25"/>
<path fill-rule="evenodd" d="M487.1,127.7h9.2v17.7h-9.2V127.7Z" class="g0_25"/>
<path fill-rule="evenodd" d="M496.3,127.7H533v17.7H496.3V127.7Z" class="g0_25"/>
<path fill-rule="evenodd" d="M533,127.7h9.3v17.7H533V127.7Z" class="g0_25"/>
<path fill-rule="evenodd" d="M542.3,127.7h27.6v17.7H542.3V127.7Z" class="g0_25"/>
<path fill-rule="evenodd" d="M569.9,127.7H579v17.7h-9.1V127.7Z" class="g0_25"/>
<path fill-rule="evenodd" d="M579,127.7h64.4v17.7H579V127.7Z" class="g0_25"/>
<path fill-rule="evenodd" d="M643.4,127.7h9.3v17.7h-9.3V127.7Z" class="g0_25"/>
<path fill-rule="evenodd" d="M652.7,127.7h18.4v17.7H652.7V127.7Z" class="g0_25"/>
<path fill-rule="evenodd" d="M671.1,127.7h9.1v17.7h-9.1V127.7Z" class="g0_25"/>
<path fill-rule="evenodd" d="M110,145.5H825v17.7H110V145.5Z" class="g0_25"/>
<path fill-rule="evenodd" d="M110,145.5h9.2v17.7H110V145.5Z" class="g0_25"/>
<path fill-rule="evenodd" d="M119.2,145.5h9.1v17.7h-9.1V145.5Z" class="g0_25"/>
<path fill-rule="evenodd" d="M128.3,145.5h9.3v17.7h-9.3V145.5Z" class="g0_25"/>
<path fill-rule="evenodd" d="M137.6,145.5H156v17.7H137.6V145.5Z" class="g0_25"/>
<path fill-rule="evenodd" d="M156,145.5h9.2v17.7H156V145.5Z" class="g0_25"/>
<path fill-rule="evenodd" d="M165.2,145.5h18.4v17.7H165.2V145.5Z" class="g0_25"/>
<path fill-rule="evenodd" d="M183.6,145.5h9.1v17.7h-9.1V145.5Z" class="g0_25"/>
<path fill-rule="evenodd" d="M192.7,145.5h18.4v17.7H192.7V145.5Z" class="g0_25"/>
<path fill-rule="evenodd" d="M211.1,145.5h9.2v17.7h-9.2V145.5Z" class="g0_25"/>
<path fill-rule="evenodd" d="M220.3,145.5h73.6v17.7H220.3V145.5Z" class="g0_25"/>
<path fill-rule="evenodd" d="M110,163.3H825V181H110V163.3Z" class="g0_25"/>
<path fill-rule="evenodd" d="M110,163.3h9.2V181H110V163.3Z" class="g0_25"/>
<path fill-rule="evenodd" d="M119.2,163.3h18.4V181H119.2V163.3Z" class="g0_25"/>
<path fill-rule="evenodd" d="M110,181.1H825v17.7H110V181.1Z" class="g0_25"/>
<path fill-rule="evenodd" d="M110,181.1h46v17.7H110V181.1Z" class="g0_25"/>
<path fill-rule="evenodd" d="M165.2,181.1h55.1v17.7H165.2V181.1Z" class="g0_25"/>
<path fill-rule="evenodd" d="M220.3,181.1h9.2v17.7h-9.2V181.1Z" class="g0_25"/>
<path fill-rule="evenodd" d="M110,198.9H825v17.7H110V198.9Z" class="g0_25"/>
<path fill-rule="evenodd" d="M110,198.9h46v17.7H110V198.9Z" class="g0_25"/>
<path fill-rule="evenodd" d="M110,216.6H825v17.8H110V216.6Z" class="g0_25"/>
<path fill-rule="evenodd" d="M110,216.6h9.2v17.8H110V216.6Z" class="g0_25"/>
<path fill-rule="evenodd" d="M110,234.4H825v17.8H110V234.4Z" class="g0_25"/>
<path fill-rule="evenodd" d="M146.7,234.4H202v17.8H146.7V234.4Z" class="g0_25"/>
<path fill-rule="evenodd" d="M211.1,234.4h55.2v17.8H211.1V234.4Z" class="g0_25"/>
<path fill-rule="evenodd" d="M275.5,234.4h36.9v17.8H275.5V234.4Z" class="g0_25"/>
<path fill-rule="evenodd" d="M358.3,234.4h9.2v17.8h-9.2V234.4Z" class="g0_25"/>
<path fill-rule="evenodd" d="M367.5,234.4h55.2v17.8H367.5V234.4Z" class="g0_25"/>
<path fill-rule="evenodd" d="M422.7,234.4h18.4v17.8H422.7V234.4Z" class="g0_25"/>
<path fill-rule="evenodd" d="M487.1,234.4h9.2v17.8h-9.2V234.4Z" class="g0_25"/>
<path fill-rule="evenodd" d="M110,252.2H825V270H110V252.2Z" class="g0_25"/>
<path fill-rule="evenodd" d="M146.7,252.2H156V270h-9.3V252.2Z" class="g0_25"/>
<path fill-rule="evenodd" d="M110,270H825v17.8H110V270Z" class="g0_25"/>
<path fill-rule="evenodd" d="M248,270h9.1v17.8H248V270Z" class="g0_25"/>
<path fill-rule="evenodd" d="M257.1,270h82.8v17.8H257.1V270Z" class="g0_25"/>
<path fill-rule="evenodd" d="M339.9,270h9.2v17.8h-9.2V270Z" class="g0_25"/>
<path fill-rule="evenodd" d="M349.1,270h55.2v17.8H349.1V270Z" class="g0_25"/>
<path fill-rule="evenodd" d="M404.3,270h9.2v17.8h-9.2V270Z" class="g0_25"/>
<path fill-rule="evenodd" d="M413.5,270h9.2v17.8h-9.2V270Z" class="g0_25"/>
<path fill-rule="evenodd" d="M422.7,270h9.2v17.8h-9.2V270Z" class="g0_25"/>
<path fill-rule="evenodd" d="M431.9,270h64.4v17.8H431.9V270Z" class="g0_25"/>
<path fill-rule="evenodd" d="M496.3,270h9.2v17.8h-9.2V270Z" class="g0_25"/>
<path fill-rule="evenodd" d="M505.5,270h9.2v17.8h-9.2V270Z" class="g0_25"/>
<path fill-rule="evenodd" d="M514.7,270h9.2v17.8h-9.2V270Z" class="g0_25"/>
<path fill-rule="evenodd" d="M523.9,270H533v17.8h-9.1V270Z" class="g0_25"/>
<path fill-rule="evenodd" d="M110,287.8H825v17.8H110V287.8Z" class="g0_25"/>
<path fill-rule="evenodd" d="M183.6,287.8h27.5v17.8H183.6V287.8Z" class="g0_25"/>
<path fill-rule="evenodd" d="M284.7,287.8h9.2v17.8h-9.2V287.8Z" class="g0_25"/>
<path fill-rule="evenodd" d="M367.5,287.8h9.2v17.8h-9.2V287.8Z" class="g0_25"/>
<path fill-rule="evenodd" d="M376.7,287.8h64.4v17.8H376.7V287.8Z" class="g0_25"/>
<path fill-rule="evenodd" d="M441.1,287.8h9.2v17.8h-9.2V287.8Z" class="g0_25"/>
<path fill-rule="evenodd" d="M514.7,287.8h9.2v17.8h-9.2V287.8Z" class="g0_25"/>
<path fill-rule="evenodd" d="M523.9,287.8h73.5v17.8H523.9V287.8Z" class="g0_25"/>
<path fill-rule="evenodd" d="M597.4,287.8H625v17.8H597.4V287.8Z" class="g0_25"/>
<path fill-rule="evenodd" d="M625,287.8h9.3v17.8H625V287.8Z" class="g0_25"/>
<path fill-rule="evenodd" d="M110,305.6H825v17.7H110V305.6Z" class="g0_25"/>
<path fill-rule="evenodd" d="M183.6,305.6H202v17.7H183.6V305.6Z" class="g0_25"/>
<path fill-rule="evenodd" d="M211.1,305.6h9.2v17.7h-9.2V305.6Z" class="g0_25"/>
<path fill-rule="evenodd" d="M284.7,305.6h9.2v17.7h-9.2V305.6Z" class="g0_25"/>
<path fill-rule="evenodd" d="M303.1,305.6h9.3v17.7h-9.3V305.6Z" class="g0_25"/>
<path fill-rule="evenodd" d="M312.4,305.6h9.1v17.7h-9.1V305.6Z" class="g0_25"/>
<path fill-rule="evenodd" d="M110,323.4H825v17.7H110V323.4Z" class="g0_25"/>
<path fill-rule="evenodd" d="M183.6,323.4h9.1v17.7h-9.1V323.4Z" class="g0_25"/>
<path fill-rule="evenodd" d="M110,341.2H825v17.7H110V341.2Z" class="g0_25"/>
<path fill-rule="evenodd" d="M284.7,341.2h9.2v17.7h-9.2V341.2Z" class="g0_25"/>
<path fill-rule="evenodd" d="M293.9,341.2h82.8v17.7H293.9V341.2Z" class="g0_25"/>
<path fill-rule="evenodd" d="M376.7,341.2h9.2v17.7h-9.2V341.2Z" class="g0_25"/>
<path fill-rule="evenodd" d="M385.9,341.2h64.4v17.7H385.9V341.2Z" class="g0_25"/>
<path fill-rule="evenodd" d="M450.3,341.2h9.2v17.7h-9.2V341.2Z" class="g0_25"/>
<path fill-rule="evenodd" d="M459.5,341.2h18.4v17.7H459.5V341.2Z" class="g0_25"/>
<path fill-rule="evenodd" d="M477.9,341.2h9.2v17.7h-9.2V341.2Z" class="g0_25"/>
<path fill-rule="evenodd" d="M487.1,341.2h82.8v17.7H487.1V341.2Z" class="g0_25"/>
<path fill-rule="evenodd" d="M569.9,341.2H579v17.7h-9.1V341.2Z" class="g0_25"/>
<path fill-rule="evenodd" d="M579,341.2h9.3v17.7H579V341.2Z" class="g0_25"/>
<path fill-rule="evenodd" d="M110,359H825v17.7H110V359Z" class="g0_25"/>
<path fill-rule="evenodd" d="M183.6,359h9.1v17.7h-9.1V359Z" class="g0_25"/>
<path fill-rule="evenodd" d="M110,376.7H825v17.8H110V376.7Z" class="g0_25"/>
<path fill-rule="evenodd" d="M183.6,376.7h36.7v17.8H183.6V376.7Z" class="g0_25"/>
<path fill-rule="evenodd" d="M229.5,376.7H248v17.8H229.5V376.7Z" class="g0_25"/>
<path fill-rule="evenodd" d="M257.1,376.7h9.2v17.8h-9.2V376.7Z" class="g0_25"/>
<path fill-rule="evenodd" d="M330.7,376.7h18.4v17.8H330.7V376.7Z" class="g0_25"/>
<path fill-rule="evenodd" d="M358.3,376.7h9.2v17.8h-9.2V376.7Z" class="g0_25"/>
<path fill-rule="evenodd" d="M367.5,376.7h9.2v17.8h-9.2V376.7Z" class="g0_25"/>
<path fill-rule="evenodd" d="M110,394.5H825v17.8H110V394.5Z" class="g0_25"/>
<path fill-rule="evenodd" d="M183.6,394.5h9.1v17.8h-9.1V394.5Z" class="g0_25"/>
<path fill-rule="evenodd" d="M110,412.3H825V430H110V412.3Z" class="g0_25"/>
<path fill-rule="evenodd" d="M284.7,412.3h9.2V430h-9.2V412.3Z" class="g0_25"/>
<path fill-rule="evenodd" d="M293.9,412.3h82.8V430H293.9V412.3Z" class="g0_25"/>
<path fill-rule="evenodd" d="M376.7,412.3h9.2V430h-9.2V412.3Z" class="g0_25"/>
<path fill-rule="evenodd" d="M385.9,412.3h64.4V430H385.9V412.3Z" class="g0_25"/>
<path fill-rule="evenodd" d="M450.3,412.3h9.2V430h-9.2V412.3Z" class="g0_25"/>
<path fill-rule="evenodd" d="M459.5,412.3h18.4V430H459.5V412.3Z" class="g0_25"/>
<path fill-rule="evenodd" d="M477.9,412.3h9.2V430h-9.2V412.3Z" class="g0_25"/>
<path fill-rule="evenodd" d="M487.1,412.3h18.4V430H487.1V412.3Z" class="g0_25"/>
<path fill-rule="evenodd" d="M505.5,412.3h9.2V430h-9.2V412.3Z" class="g0_25"/>
<path fill-rule="evenodd" d="M514.7,412.3h9.2V430h-9.2V412.3Z" class="g0_25"/>
<path fill-rule="evenodd" d="M110,430.1H825v17.7H110V430.1Z" class="g0_25"/>
<path fill-rule="evenodd" d="M183.6,430.1h9.1v17.7h-9.1V430.1Z" class="g0_25"/>
<path fill-rule="evenodd" d="M110,447.9H825v17.7H110V447.9Z" class="g0_25"/>
<path fill-rule="evenodd" d="M183.6,447.9h36.7v17.7H183.6V447.9Z" class="g0_25"/>
<path fill-rule="evenodd" d="M110,465.7H825v17.7H110V465.7Z" class="g0_25"/>
<path fill-rule="evenodd" d="M183.6,465.7h9.1v17.7h-9.1V465.7Z" class="g0_25"/>
<path fill-rule="evenodd" d="M110,483.5H825v17.7H110V483.5Z" class="g0_25"/>
<path fill-rule="evenodd" d="M284.7,483.5h9.2v17.7h-9.2V483.5Z" class="g0_25"/>
<path fill-rule="evenodd" d="M293.9,483.5h82.8v17.7H293.9V483.5Z" class="g0_25"/>
<path fill-rule="evenodd" d="M376.7,483.5h9.2v17.7h-9.2V483.5Z" class="g0_25"/>
<path fill-rule="evenodd" d="M385.9,483.5h64.4v17.7H385.9V483.5Z" class="g0_25"/>
<path fill-rule="evenodd" d="M450.3,483.5h9.2v17.7h-9.2V483.5Z" class="g0_25"/>
<path fill-rule="evenodd" d="M459.5,483.5h18.4v17.7H459.5V483.5Z" class="g0_25"/>
<path fill-rule="evenodd" d="M477.9,483.5h9.2v17.7h-9.2V483.5Z" class="g0_25"/>
<path fill-rule="evenodd" d="M487.1,483.5h82.8v17.7H487.1V483.5Z" class="g0_25"/>
<path fill-rule="evenodd" d="M569.9,483.5H579v17.7h-9.1V483.5Z" class="g0_25"/>
<path fill-rule="evenodd" d="M579,483.5h9.3v17.7H579V483.5Z" class="g0_25"/>
<path fill-rule="evenodd" d="M110,501.2H825v17.7H110V501.2Z" class="g0_25"/>
<path fill-rule="evenodd" d="M183.6,501.2h9.1v17.7h-9.1V501.2Z" class="g0_25"/>
<path fill-rule="evenodd" d="M110,519H825v17.7H110V519Z" class="g0_25"/>
<path fill-rule="evenodd" d="M248,519h9.1v17.7H248V519Z" class="g0_25"/>
<path fill-rule="evenodd" d="M257.1,519h73.6v17.7H257.1V519Z" class="g0_25"/>
<path fill-rule="evenodd" d="M330.7,519h18.4v17.7H330.7V519Z" class="g0_25"/>
<path fill-rule="evenodd" d="M349.1,519h9.2v17.7h-9.2V519Z" class="g0_25"/>
<path fill-rule="evenodd" d="M110,536.8H825v17.7H110V536.8Z" class="g0_25"/>
<path fill-rule="evenodd" d="M146.7,536.8H156v17.7h-9.3V536.8Z" class="g0_25"/>
<path fill-rule="evenodd" d="M110,554.6H825v17.7H110V554.6Z" class="g0_25"/>
<path fill-rule="evenodd" d="M110,554.6h9.2v17.7H110V554.6Z" class="g0_25"/>
<path fill-rule="evenodd" d="M110,572.4H825v43.7H110V572.4Z" class="g1_25"/>
<path fill-rule="evenodd" d="M110,616.1H825v17.7H110V616.1Z" class="g0_25"/>
<path fill-rule="evenodd" d="M110,633.9H825v17.7H110V633.9Z" class="g0_25"/>
<path fill-rule="evenodd" d="M110,651.7H825v29.2H110V651.7Z" class="g0_25"/>
</svg>