<?xml version="1.0" encoding="UTF-8" standalone="no"?>
<!DOCTYPE svg PUBLIC "-//W3C//DTD SVG 1.1//EN"
"http://www.w3.org/Graphics/SVG/1.1/DTD/svg11.dtd">
<svg viewBox="0 0 935 1210" version="1.1" xmlns="http://www.w3.org/2000/svg" xmlns:xlink="http://www.w3.org/1999/xlink">
<defs>
<style type="text/css"><![CDATA[
.g0_19{
fill: #F4F4F4;
}
.g1_19{
fill: #FDFDFD;
}
]]></style>
</defs>
<path fill-rule="evenodd" d="M110,110H825v17.7H110V110Z" class="g0_19"/>
<path fill-rule="evenodd" d="M110,110h18.3v17.7H110V110Z" class="g0_19"/>
<path fill-rule="evenodd" d="M110,127.7H825v17.7H110V127.7Z" class="g0_19"/>
<path fill-rule="evenodd" d="M110,127.7h9.2v17.7H110V127.7Z" class="g0_19"/>
<path fill-rule="evenodd" d="M119.2,127.7h9.1v17.7h-9.1V127.7Z" class="g0_19"/>
<path fill-rule="evenodd" d="M128.3,127.7h9.3v17.7h-9.3V127.7Z" class="g0_19"/>
<path fill-rule="evenodd" d="M137.6,127.7H156v17.7H137.6V127.7Z" class="g0_19"/>
<path fill-rule="evenodd" d="M156,127.7h9.2v17.7H156V127.7Z" class="g0_19"/>
<path fill-rule="evenodd" d="M165.2,127.7h64.3v17.7H165.2V127.7Z" class="g0_19"/>
<path fill-rule="evenodd" d="M229.5,127.7h9.2v17.7h-9.2V127.7Z" class="g0_19"/>
<path fill-rule="evenodd" d="M238.7,127.7h18.4v17.7H238.7V127.7Z" class="g0_19"/>
<path fill-rule="evenodd" d="M257.1,127.7h9.2v17.7h-9.2V127.7Z" class="g0_19"/>
<path fill-rule="evenodd" d="M266.3,127.7h36.8v17.7H266.3V127.7Z" class="g0_19"/>
<path fill-rule="evenodd" d="M303.1,127.7h9.3v17.7h-9.3V127.7Z" class="g0_19"/>
<path fill-rule="evenodd" d="M312.4,127.7h9.1v17.7h-9.1V127.7Z" class="g0_19"/>
<path fill-rule="evenodd" d="M321.5,127.7h9.2v17.7h-9.2V127.7Z" class="g0_19"/>
<path fill-rule="evenodd" d="M330.7,127.7h46v17.7h-46V127.7Z" class="g0_19"/>
<path fill-rule="evenodd" d="M376.7,127.7h9.2v17.7h-9.2V127.7Z" class="g0_19"/>
<path fill-rule="evenodd" d="M385.9,127.7h9.2v17.7h-9.2V127.7Z" class="g0_19"/>
<path fill-rule="evenodd" d="M395.1,127.7h9.2v17.7h-9.2V127.7Z" class="g0_19"/>
<path fill-rule="evenodd" d="M404.3,127.7h64.3v17.7H404.3V127.7Z" class="g0_19"/>
<path fill-rule="evenodd" d="M468.6,127.7h9.3v17.7h-9.3V127.7Z" class="g0_19"/>
<path fill-rule="evenodd" d="M477.9,127.7h27.6v17.7H477.9V127.7Z" class="g0_19"/>
<path fill-rule="evenodd" d="M505.5,127.7h9.2v17.7h-9.2V127.7Z" class="g0_19"/>
<path fill-rule="evenodd" d="M514.7,127.7h92v17.7h-92V127.7Z" class="g0_19"/>
<path fill-rule="evenodd" d="M606.7,127.7h9.1v17.7h-9.1V127.7Z" class="g0_19"/>
<path fill-rule="evenodd" d="M615.8,127.7H717.1v17.7H615.8V127.7Z" class="g0_19"/>
<path fill-rule="evenodd" d="M110,145.5H825v17.7H110V145.5Z" class="g0_19"/>
<path fill-rule="evenodd" d="M110,145.5h9.2v17.7H110V145.5Z" class="g0_19"/>
<path fill-rule="evenodd" d="M119.2,145.5h18.4v17.7H119.2V145.5Z" class="g0_19"/>
<path fill-rule="evenodd" d="M110,163.3H825V181H110V163.3Z" class="g0_19"/>
<path fill-rule="evenodd" d="M110,163.3h46V181H110V163.3Z" class="g0_19"/>
<path fill-rule="evenodd" d="M165.2,163.3h55.1V181H165.2V163.3Z" class="g0_19"/>
<path fill-rule="evenodd" d="M220.3,163.3h9.2V181h-9.2V163.3Z" class="g0_19"/>
<path fill-rule="evenodd" d="M110,181.1H825v17.7H110V181.1Z" class="g0_19"/>
<path fill-rule="evenodd" d="M110,181.1h46v17.7H110V181.1Z" class="g0_19"/>
<path fill-rule="evenodd" d="M165.2,181.1H248v17.7H165.2V181.1Z" class="g0_19"/>
<path fill-rule="evenodd" d="M248,181.1h9.1v17.7H248V181.1Z" class="g0_19"/>
<path fill-rule="evenodd" d="M110,198.9H825v17.7H110V198.9Z" class="g0_19"/>
<path fill-rule="evenodd" d="M110,198.9h46v17.7H110V198.9Z" class="g0_19"/>
<path fill-rule="evenodd" d="M110,216.6H825v17.8H110V216.6Z" class="g0_19"/>
<path fill-rule="evenodd" d="M110,216.6h9.2v17.8H110V216.6Z" class="g0_19"/>
<path fill-rule="evenodd" d="M110,234.4H825v17.8H110V234.4Z" class="g0_19"/>
<path fill-rule="evenodd" d="M146.7,234.4H202v17.8H146.7V234.4Z" class="g0_19"/>
<path fill-rule="evenodd" d="M211.1,234.4h55.2v17.8H211.1V234.4Z" class="g0_19"/>
<path fill-rule="evenodd" d="M275.5,234.4h36.9v17.8H275.5V234.4Z" class="g0_19"/>
<path fill-rule="evenodd" d="M358.3,234.4h18.4v17.8H358.3V234.4Z" class="g0_19"/>
<path fill-rule="evenodd" d="M110,252.2H825V270H110V252.2Z" class="g0_19"/>
<path fill-rule="evenodd" d="M146.7,252.2H156V270h-9.3V252.2Z" class="g0_19"/>
<path fill-rule="evenodd" d="M110,270H825v17.8H110V270Z" class="g0_19"/>
<path fill-rule="evenodd" d="M183.6,270h36.7v17.8H183.6V270Z" class="g0_19"/>
<path fill-rule="evenodd" d="M275.5,270h9.2v17.8h-9.2V270Z" class="g0_19"/>
<path fill-rule="evenodd" d="M110,287.8H825v17.8H110V287.8Z" class="g0_19"/>
<path fill-rule="evenodd" d="M248,287.8h9.1v17.8H248V287.8Z" class="g0_19"/>
<path fill-rule="evenodd" d="M257.1,287.8h82.8v17.8H257.1V287.8Z" class="g0_19"/>
<path fill-rule="evenodd" d="M339.9,287.8h9.2v17.8h-9.2V287.8Z" class="g0_19"/>
<path fill-rule="evenodd" d="M349.1,287.8h55.2v17.8H349.1V287.8Z" class="g0_19"/>
<path fill-rule="evenodd" d="M404.3,287.8h9.2v17.8h-9.2V287.8Z" class="g0_19"/>
<path fill-rule="evenodd" d="M413.5,287.8h27.6v17.8H413.5V287.8Z" class="g0_19"/>
<path fill-rule="evenodd" d="M441.1,287.8h9.2v17.8h-9.2V287.8Z" class="g0_19"/>
<path fill-rule="evenodd" d="M450.3,287.8h46v17.8h-46V287.8Z" class="g0_19"/>
<path fill-rule="evenodd" d="M496.3,287.8h9.2v17.8h-9.2V287.8Z" class="g0_19"/>
<path fill-rule="evenodd" d="M505.5,287.8h18.4v17.8H505.5V287.8Z" class="g0_19"/>
<path fill-rule="evenodd" d="M523.9,287.8H533v17.8h-9.1V287.8Z" class="g0_19"/>
<path fill-rule="evenodd" d="M533,287.8h82.8v17.8H533V287.8Z" class="g0_19"/>
<path fill-rule="evenodd" d="M615.8,287.8H625v17.8h-9.2V287.8Z" class="g0_19"/>
<path fill-rule="evenodd" d="M625,287.8h18.4v17.8H625V287.8Z" class="g0_19"/>
<path fill-rule="evenodd" d="M643.4,287.8h9.3v17.8h-9.3V287.8Z" class="g0_19"/>
<path fill-rule="evenodd" d="M652.7,287.8h9.1v17.8h-9.1V287.8Z" class="g0_19"/>
<path fill-rule="evenodd" d="M661.8,287.8h9.3v17.8h-9.3V287.8Z" class="g0_19"/>
<path fill-rule="evenodd" d="M110,305.6H825v17.7H110V305.6Z" class="g0_19"/>
<path fill-rule="evenodd" d="M238.7,305.6H248v17.7h-9.3V305.6Z" class="g0_19"/>
<path fill-rule="evenodd" d="M321.5,305.6h9.2v17.7h-9.2V305.6Z" class="g0_19"/>
<path fill-rule="evenodd" d="M330.7,305.6h55.2v17.7H330.7V305.6Z" class="g0_19"/>
<path fill-rule="evenodd" d="M385.9,305.6h9.2v17.7h-9.2V305.6Z" class="g0_19"/>
<path fill-rule="evenodd" d="M459.5,305.6h9.1v17.7h-9.1V305.6Z" class="g0_19"/>
<path fill-rule="evenodd" d="M468.6,305.6h73.7v17.7H468.6V305.6Z" class="g0_19"/>
<path fill-rule="evenodd" d="M542.3,305.6h27.6v17.7H542.3V305.6Z" class="g0_19"/>
<path fill-rule="evenodd" d="M569.9,305.6H579v17.7h-9.1V305.6Z" class="g0_19"/>
<path fill-rule="evenodd" d="M110,323.4H825v17.7H110V323.4Z" class="g0_19"/>
<path fill-rule="evenodd" d="M183.6,323.4h55.1v17.7H183.6V323.4Z" class="g0_19"/>
<path fill-rule="evenodd" d="M248,323.4h9.1v17.7H248V323.4Z" class="g0_19"/>
<path fill-rule="evenodd" d="M303.1,323.4h9.3v17.7h-9.3V323.4Z" class="g0_19"/>
<path fill-rule="evenodd" d="M110,341.2H825v17.7H110V341.2Z" class="g0_19"/>
<path fill-rule="evenodd" d="M183.6,341.2h9.1v17.7h-9.1V341.2Z" class="g0_19"/>
<path fill-rule="evenodd" d="M110,359H825v17.7H110V359Z" class="g0_19"/>
<path fill-rule="evenodd" d="M183.6,359h36.7v17.7H183.6V359Z" class="g0_19"/>
<path fill-rule="evenodd" d="M229.5,359h27.6v17.7H229.5V359Z" class="g0_19"/>
<path fill-rule="evenodd" d="M257.1,359h9.2v17.7h-9.2V359Z" class="g0_19"/>
<path fill-rule="evenodd" d="M110,376.7H825v17.8H110V376.7Z" class="g0_19"/>
<path fill-rule="evenodd" d="M284.7,376.7h9.2v17.8h-9.2V376.7Z" class="g0_19"/>
<path fill-rule="evenodd" d="M293.9,376.7h82.8v17.8H293.9V376.7Z" class="g0_19"/>
<path fill-rule="evenodd" d="M376.7,376.7h9.2v17.8h-9.2V376.7Z" class="g0_19"/>
<path fill-rule="evenodd" d="M385.9,376.7h9.2v17.8h-9.2V376.7Z" class="g0_19"/>
<path fill-rule="evenodd" d="M395.1,376.7h9.2v17.8h-9.2V376.7Z" class="g0_19"/>
<path fill-rule="evenodd" d="M404.3,376.7h55.2v17.8H404.3V376.7Z" class="g0_19"/>
<path fill-rule="evenodd" d="M459.5,376.7h9.1v17.8h-9.1V376.7Z" class="g0_19"/>
<path fill-rule="evenodd" d="M468.6,376.7h9.3v17.8h-9.3V376.7Z" class="g0_19"/>
<path fill-rule="evenodd" d="M110,394.5H825v17.8H110V394.5Z" class="g0_19"/>
<path fill-rule="evenodd" d="M220.3,394.5h46v17.8h-46V394.5Z" class="g0_19"/>
<path fill-rule="evenodd" d="M266.3,394.5h9.2v17.8h-9.2V394.5Z" class="g0_19"/>
<path fill-rule="evenodd" d="M110,412.3H825V430H110V412.3Z" class="g0_19"/>
<path fill-rule="evenodd" d="M183.6,412.3h36.7V430H183.6V412.3Z" class="g0_19"/>
<path fill-rule="evenodd" d="M229.5,412.3h27.6V430H229.5V412.3Z" class="g0_19"/>
<path fill-rule="evenodd" d="M257.1,412.3h9.2V430h-9.2V412.3Z" class="g0_19"/>
<path fill-rule="evenodd" d="M110,430.1H825v17.7H110V430.1Z" class="g0_19"/>
<path fill-rule="evenodd" d="M284.7,430.1h9.2v17.7h-9.2V430.1Z" class="g0_19"/>
<path fill-rule="evenodd" d="M293.9,430.1h82.8v17.7H293.9V430.1Z" class="g0_19"/>
<path fill-rule="evenodd" d="M376.7,430.1h9.2v17.7h-9.2V430.1Z" class="g0_19"/>
<path fill-rule="evenodd" d="M385.9,430.1h9.2v17.7h-9.2V430.1Z" class="g0_19"/>
<path fill-rule="evenodd" d="M395.1,430.1h9.2v17.7h-9.2V430.1Z" class="g0_19"/>
<path fill-rule="evenodd" d="M404.3,430.1h36.8v17.7H404.3V430.1Z" class="g0_19"/>
<path fill-rule="evenodd" d="M441.1,430.1h9.2v17.7h-9.2V430.1Z" class="g0_19"/>
<path fill-rule="evenodd" d="M450.3,430.1h46v17.7h-46V430.1Z" class="g0_19"/>
<path fill-rule="evenodd" d="M496.3,430.1h9.2v17.7h-9.2V430.1Z" class="g0_19"/>
<path fill-rule="evenodd" d="M505.5,430.1h9.2v17.7h-9.2V430.1Z" class="g0_19"/>
<path fill-rule="evenodd" d="M110,447.9H825v17.7H110V447.9Z" class="g0_19"/>
<path fill-rule="evenodd" d="M220.3,447.9h46v17.7h-46V447.9Z" class="g0_19"/>
<path fill-rule="evenodd" d="M266.3,447.9h9.2v17.7h-9.2V447.9Z" class="g0_19"/>
<path fill-rule="evenodd" d="M110,465.7H825v17.7H110V465.7Z" class="g0_19"/>
<path fill-rule="evenodd" d="M183.6,465.7h36.7v17.7H183.6V465.7Z" class="g0_19"/>
<path fill-rule="evenodd" d="M229.5,465.7h27.6v17.7H229.5V465.7Z" class="g0_19"/>
<path fill-rule="evenodd" d="M257.1,465.7h9.2v17.7h-9.2V465.7Z" class="g0_19"/>
<path fill-rule="evenodd" d="M110,483.5H825v17.7H110V483.5Z" class="g0_19"/>
<path fill-rule="evenodd" d="M284.7,483.5h9.2v17.7h-9.2V483.5Z" class="g0_19"/>
<path fill-rule="evenodd" d="M293.9,483.5h82.8v17.7H293.9V483.5Z" class="g0_19"/>
<path fill-rule="evenodd" d="M376.7,483.5h9.2v17.7h-9.2V483.5Z" class="g0_19"/>
<path fill-rule="evenodd" d="M385.9,483.5h9.2v17.7h-9.2V483.5Z" class="g0_19"/>
<path fill-rule="evenodd" d="M395.1,483.5h9.2v17.7h-9.2V483.5Z" class="g0_19"/>
<path fill-rule="evenodd" d="M404.3,483.5h46v17.7h-46V483.5Z" class="g0_19"/>
<path fill-rule="evenodd" d="M450.3,483.5h9.2v17.7h-9.2V483.5Z" class="g0_19"/>
<path fill-rule="evenodd" d="M459.5,483.5h9.1v17.7h-9.1V483.5Z" class="g0_19"/>
<path fill-rule="evenodd" d="M110,501.2H825v17.7H110V501.2Z" class="g0_19"/>
<path fill-rule="evenodd" d="M220.3,501.2h46v17.7h-46V501.2Z" class="g0_19"/>
<path fill-rule="evenodd" d="M266.3,501.2h9.2v17.7h-9.2V501.2Z" class="g0_19"/>
<path fill-rule="evenodd" d="M110,519H825v17.7H110V519Z" class="g0_19"/>
<path fill-rule="evenodd" d="M183.6,519h36.7v17.7H183.6V519Z" class="g0_19"/>
<path fill-rule="evenodd" d="M229.5,519h27.6v17.7H229.5V519Z" class="g0_19"/>
<path fill-rule="evenodd" d="M257.1,519h9.2v17.7h-9.2V519Z" class="g0_19"/>
<path fill-rule="evenodd" d="M110,536.8H825v17.7H110V536.8Z" class="g0_19"/>
<path fill-rule="evenodd" d="M284.7,536.8h9.2v17.7h-9.2V536.8Z" class="g0_19"/>
<path fill-rule="evenodd" d="M293.9,536.8h82.8v17.7H293.9V536.8Z" class="g0_19"/>
<path fill-rule="evenodd" d="M376.7,536.8h9.2v17.7h-9.2V536.8Z" class="g0_19"/>
<path fill-rule="evenodd" d="M385.9,536.8h9.2v17.7h-9.2V536.8Z" class="g0_19"/>
<path fill-rule="evenodd" d="M395.1,536.8h9.2v17.7h-9.2V536.8Z" class="g0_19"/>
<path fill-rule="evenodd" d="M404.3,536.8h64.3v17.7H404.3V536.8Z" class="g0_19"/>
<path fill-rule="evenodd" d="M468.6,536.8h9.3v17.7h-9.3V536.8Z" class="g0_19"/>
<path fill-rule="evenodd" d="M477.9,536.8h9.2v17.7h-9.2V536.8Z" class="g0_19"/>
<path fill-rule="evenodd" d="M110,554.6H825v17.7H110V554.6Z" class="g0_19"/>
<path fill-rule="evenodd" d="M220.3,554.6h46v17.7h-46V554.6Z" class="g0_19"/>
<path fill-rule="evenodd" d="M266.3,554.6h9.2v17.7h-9.2V554.6Z" class="g0_19"/>
<path fill-rule="evenodd" d="M110,572.4H825v17.7H110V572.4Z" class="g0_19"/>
<path fill-rule="evenodd" d="M183.6,572.4h36.7v17.7H183.6V572.4Z" class="g0_19"/>
<path fill-rule="evenodd" d="M229.5,572.4h27.6v17.7H229.5V572.4Z" class="g0_19"/>
<path fill-rule="evenodd" d="M257.1,572.4h9.2v17.7h-9.2V572.4Z" class="g0_19"/>
<path fill-rule="evenodd" d="M110,590.1H825v17.7H110V590.1Z" class="g0_19"/>
<path fill-rule="evenodd" d="M284.7,590.1h9.2v17.7h-9.2V590.1Z" class="g0_19"/>
<path fill-rule="evenodd" d="M293.9,590.1h82.8v17.7H293.9V590.1Z" class="g0_19"/>
<path fill-rule="evenodd" d="M376.7,590.1h9.2v17.7h-9.2V590.1Z" class="g0_19"/>
<path fill-rule="evenodd" d="M385.9,590.1h9.2v17.7h-9.2V590.1Z" class="g0_19"/>
<path fill-rule="evenodd" d="M395.1,590.1h9.2v17.7h-9.2V590.1Z" class="g0_19"/>
<path fill-rule="evenodd" d="M404.3,590.1h46v17.7h-46V590.1Z" class="g0_19"/>
<path fill-rule="evenodd" d="M450.3,590.1h9.2v17.7h-9.2V590.1Z" class="g0_19"/>
<path fill-rule="evenodd" d="M459.5,590.1h9.1v17.7h-9.1V590.1Z" class="g0_19"/>
<path fill-rule="evenodd" d="M110,607.9H825v17.7H110V607.9Z" class="g0_19"/>
<path fill-rule="evenodd" d="M220.3,607.9h46v17.7h-46V607.9Z" class="g0_19"/>
<path fill-rule="evenodd" d="M266.3,607.9h9.2v17.7h-9.2V607.9Z" class="g0_19"/>
<path fill-rule="evenodd" d="M110,625.7H825v17.7H110V625.7Z" class="g0_19"/>
<path fill-rule="evenodd" d="M183.6,625.7H248v17.7H183.6V625.7Z" class="g0_19"/>
<path fill-rule="evenodd" d="M248,625.7h9.1v17.7H248V625.7Z" class="g0_19"/>
<path fill-rule="evenodd" d="M110,643.5H825v17.7H110V643.5Z" class="g0_19"/>
<path fill-rule="evenodd" d="M284.7,643.5h9.2v17.7h-9.2V643.5Z" class="g0_19"/>
<path fill-rule="evenodd" d="M293.9,643.5h82.8v17.7H293.9V643.5Z" class="g0_19"/>
<path fill-rule="evenodd" d="M376.7,643.5h9.2v17.7h-9.2V643.5Z" class="g0_19"/>
<path fill-rule="evenodd" d="M385.9,643.5h55.2v17.7H385.9V643.5Z" class="g0_19"/>
<path fill-rule="evenodd" d="M441.1,643.5h9.2v17.7h-9.2V643.5Z" class="g0_19"/>
<path fill-rule="evenodd" d="M450.3,643.5h18.3v17.7H450.3V643.5Z" class="g0_19"/>
<path fill-rule="evenodd" d="M468.6,643.5h9.3v17.7h-9.3V643.5Z" class="g0_19"/>
<path fill-rule="evenodd" d="M477.9,643.5h46v17.7h-46V643.5Z" class="g0_19"/>
<path fill-rule="evenodd" d="M523.9,643.5H533v17.7h-9.1V643.5Z" class="g0_19"/>
<path fill-rule="evenodd" d="M533,643.5h18.5v17.7H533V643.5Z" class="g0_19"/>
<path fill-rule="evenodd" d="M551.5,643.5h9.2v17.7h-9.2V643.5Z" class="g0_19"/>
<path fill-rule="evenodd" d="M560.7,643.5h9.2v17.7h-9.2V643.5Z" class="g0_19"/>
<path fill-rule="evenodd" d="M569.9,643.5H579v17.7h-9.1V643.5Z" class="g0_19"/>
<path fill-rule="evenodd" d="M110,661.3H825V679H110V661.3Z" class="g0_19"/>
<path fill-rule="evenodd" d="M220.3,661.3h46V679h-46V661.3Z" class="g0_19"/>
<path fill-rule="evenodd" d="M266.3,661.3h9.2V679h-9.2V661.3Z" class="g0_19"/>
<path fill-rule="evenodd" d="M110,679.1H825v17.7H110V679.1Z" class="g0_19"/>
<path fill-rule="evenodd" d="M284.7,679.1h9.2v17.7h-9.2V679.1Z" class="g0_19"/>
<path fill-rule="evenodd" d="M293.9,679.1h73.6v17.7H293.9V679.1Z" class="g0_19"/>
<path fill-rule="evenodd" d="M367.5,679.1h18.4v17.7H367.5V679.1Z" class="g0_19"/>
<path fill-rule="evenodd" d="M385.9,679.1h9.2v17.7h-9.2V679.1Z" class="g0_19"/>
<path fill-rule="evenodd" d="M110,696.8H825v17.7H110V696.8Z" class="g0_19"/>
<path fill-rule="evenodd" d="M183.6,696.8h9.1v17.7h-9.1V696.8Z" class="g0_19"/>
<path fill-rule="evenodd" d="M110,714.6H825v17.7H110V714.6Z" class="g0_19"/>
<path fill-rule="evenodd" d="M146.7,714.6H156v17.7h-9.3V714.6Z" class="g0_19"/>
<path fill-rule="evenodd" d="M110,732.4H825v17.7H110V732.4Z" class="g0_19"/>
<path fill-rule="evenodd" d="M110,732.4h9.2v17.7H110V732.4Z" class="g0_19"/>
<path fill-rule="evenodd" d="M110,750.2H825v43.7H110V750.2Z" class="g1_19"/>
<path fill-rule="evenodd" d="M110,793.9H825v17.7H110V793.9Z" class="g0_19"/>
<path fill-rule="evenodd" d="M110,811.7H825v17.7H110V811.7Z" class="g0_19"/>
<path fill-rule="evenodd" d="M110,829.5H825v17.7H110V829.5Z" class="g0_19"/>
<path fill-rule="evenodd" d="M110,847.3H825v29.2H110V847.3Z" class="g0_19"/>
</svg>