<?xml version="1.0" encoding="UTF-8" standalone="no"?>
<!DOCTYPE svg PUBLIC "-//W3C//DTD SVG 1.1//EN"
"http://www.w3.org/Graphics/SVG/1.1/DTD/svg11.dtd">
<svg viewBox="0 0 935 1210" version="1.1" xmlns="http://www.w3.org/2000/svg" xmlns:xlink="http://www.w3.org/1999/xlink">
<defs>
<style type="text/css"><![CDATA[
.g0_27{
fill: #F4F4F4;
}
.g1_27{
fill: #FDFDFD;
}
]]></style>
</defs>
<path fill-rule="evenodd" d="M110,110H825v17.7H110V110Z" class="g0_27"/>
<path fill-rule="evenodd" d="M110,110h18.3v17.7H110V110Z" class="g0_27"/>
<path fill-rule="evenodd" d="M110,127.7H825v17.7H110V127.7Z" class="g0_27"/>
<path fill-rule="evenodd" d="M110,127.7h9.2v17.7H110V127.7Z" class="g0_27"/>
<path fill-rule="evenodd" d="M119.2,127.7h9.1v17.7h-9.1V127.7Z" class="g0_27"/>
<path fill-rule="evenodd" d="M128.3,127.7h9.3v17.7h-9.3V127.7Z" class="g0_27"/>
<path fill-rule="evenodd" d="M137.6,127.7H156v17.7H137.6V127.7Z" class="g0_27"/>
<path fill-rule="evenodd" d="M156,127.7h9.2v17.7H156V127.7Z" class="g0_27"/>
<path fill-rule="evenodd" d="M165.2,127.7h64.3v17.7H165.2V127.7Z" class="g0_27"/>
<path fill-rule="evenodd" d="M229.5,127.7h9.2v17.7h-9.2V127.7Z" class="g0_27"/>
<path fill-rule="evenodd" d="M238.7,127.7h18.4v17.7H238.7V127.7Z" class="g0_27"/>
<path fill-rule="evenodd" d="M257.1,127.7h9.2v17.7h-9.2V127.7Z" class="g0_27"/>
<path fill-rule="evenodd" d="M266.3,127.7h64.4v17.7H266.3V127.7Z" class="g0_27"/>
<path fill-rule="evenodd" d="M330.7,127.7h9.2v17.7h-9.2V127.7Z" class="g0_27"/>
<path fill-rule="evenodd" d="M339.9,127.7h64.4v17.7H339.9V127.7Z" class="g0_27"/>
<path fill-rule="evenodd" d="M404.3,127.7h9.2v17.7h-9.2V127.7Z" class="g0_27"/>
<path fill-rule="evenodd" d="M413.5,127.7h27.6v17.7H413.5V127.7Z" class="g0_27"/>
<path fill-rule="evenodd" d="M441.1,127.7h9.2v17.7h-9.2V127.7Z" class="g0_27"/>
<path fill-rule="evenodd" d="M450.3,127.7h27.6v17.7H450.3V127.7Z" class="g0_27"/>
<path fill-rule="evenodd" d="M477.9,127.7h9.2v17.7h-9.2V127.7Z" class="g0_27"/>
<path fill-rule="evenodd" d="M487.1,127.7h27.6v17.7H487.1V127.7Z" class="g0_27"/>
<path fill-rule="evenodd" d="M514.7,127.7h9.2v17.7h-9.2V127.7Z" class="g0_27"/>
<path fill-rule="evenodd" d="M523.9,127.7h18.4v17.7H523.9V127.7Z" class="g0_27"/>
<path fill-rule="evenodd" d="M542.3,127.7h9.2v17.7h-9.2V127.7Z" class="g0_27"/>
<path fill-rule="evenodd" d="M551.5,127.7h55.2v17.7H551.5V127.7Z" class="g0_27"/>
<path fill-rule="evenodd" d="M110,145.5H825v17.7H110V145.5Z" class="g0_27"/>
<path fill-rule="evenodd" d="M110,145.5h9.2v17.7H110V145.5Z" class="g0_27"/>
<path fill-rule="evenodd" d="M119.2,145.5h18.4v17.7H119.2V145.5Z" class="g0_27"/>
<path fill-rule="evenodd" d="M110,163.3H825V181H110V163.3Z" class="g0_27"/>
<path fill-rule="evenodd" d="M110,163.3h46V181H110V163.3Z" class="g0_27"/>
<path fill-rule="evenodd" d="M165.2,163.3h55.1V181H165.2V163.3Z" class="g0_27"/>
<path fill-rule="evenodd" d="M220.3,163.3h9.2V181h-9.2V163.3Z" class="g0_27"/>
<path fill-rule="evenodd" d="M110,181.1H825v17.7H110V181.1Z" class="g0_27"/>
<path fill-rule="evenodd" d="M110,181.1h46v17.7H110V181.1Z" class="g0_27"/>
<path fill-rule="evenodd" d="M110,198.9H825v17.7H110V198.9Z" class="g0_27"/>
<path fill-rule="evenodd" d="M110,198.9h9.2v17.7H110V198.9Z" class="g0_27"/>
<path fill-rule="evenodd" d="M110,216.6H825v17.8H110V216.6Z" class="g0_27"/>
<path fill-rule="evenodd" d="M146.7,216.6H202v17.8H146.7V216.6Z" class="g0_27"/>
<path fill-rule="evenodd" d="M211.1,216.6h55.2v17.8H211.1V216.6Z" class="g0_27"/>
<path fill-rule="evenodd" d="M275.5,216.6h36.9v17.8H275.5V216.6Z" class="g0_27"/>
<path fill-rule="evenodd" d="M358.3,216.6h18.4v17.8H358.3V216.6Z" class="g0_27"/>
<path fill-rule="evenodd" d="M110,234.4H825v17.8H110V234.4Z" class="g0_27"/>
<path fill-rule="evenodd" d="M146.7,234.4H156v17.8h-9.3V234.4Z" class="g0_27"/>
<path fill-rule="evenodd" d="M110,252.2H825V270H110V252.2Z" class="g0_27"/>
<path fill-rule="evenodd" d="M183.6,252.2h27.5V270H183.6V252.2Z" class="g0_27"/>
<path fill-rule="evenodd" d="M312.4,252.2h9.1V270h-9.1V252.2Z" class="g0_27"/>
<path fill-rule="evenodd" d="M330.7,252.2h9.2V270h-9.2V252.2Z" class="g0_27"/>
<path fill-rule="evenodd" d="M395.1,252.2h9.2V270h-9.2V252.2Z" class="g0_27"/>
<path fill-rule="evenodd" d="M413.5,252.2h9.2V270h-9.2V252.2Z" class="g0_27"/>
<path fill-rule="evenodd" d="M422.7,252.2h9.2V270h-9.2V252.2Z" class="g0_27"/>
<path fill-rule="evenodd" d="M110,270H825v17.8H110V270Z" class="g0_27"/>
<path fill-rule="evenodd" d="M248,270h9.1v17.8H248V270Z" class="g0_27"/>
<path fill-rule="evenodd" d="M257.1,270h82.8v17.8H257.1V270Z" class="g0_27"/>
<path fill-rule="evenodd" d="M339.9,270h9.2v17.8h-9.2V270Z" class="g0_27"/>
<path fill-rule="evenodd" d="M349.1,270h55.2v17.8H349.1V270Z" class="g0_27"/>
<path fill-rule="evenodd" d="M404.3,270h9.2v17.8h-9.2V270Z" class="g0_27"/>
<path fill-rule="evenodd" d="M413.5,270h27.6v17.8H413.5V270Z" class="g0_27"/>
<path fill-rule="evenodd" d="M441.1,270h9.2v17.8h-9.2V270Z" class="g0_27"/>
<path fill-rule="evenodd" d="M450.3,270h55.2v17.8H450.3V270Z" class="g0_27"/>
<path fill-rule="evenodd" d="M505.5,270h9.2v17.8h-9.2V270Z" class="g0_27"/>
<path fill-rule="evenodd" d="M514.7,270H533v17.8H514.7V270Z" class="g0_27"/>
<path fill-rule="evenodd" d="M533,270h9.3v17.8H533V270Z" class="g0_27"/>
<path fill-rule="evenodd" d="M542.3,270h46v17.8h-46V270Z" class="g0_27"/>
<path fill-rule="evenodd" d="M588.3,270h9.1v17.8h-9.1V270Z" class="g0_27"/>
<path fill-rule="evenodd" d="M597.4,270h18.4v17.8H597.4V270Z" class="g0_27"/>
<path fill-rule="evenodd" d="M615.8,270H625v17.8h-9.2V270Z" class="g0_27"/>
<path fill-rule="evenodd" d="M625,270h27.7v17.8H625V270Z" class="g0_27"/>
<path fill-rule="evenodd" d="M652.7,270h9.1v17.8h-9.1V270Z" class="g0_27"/>
<path fill-rule="evenodd" d="M661.8,270h46v17.8h-46V270Z" class="g0_27"/>
<path fill-rule="evenodd" d="M707.8,270h9.3v17.8h-9.3V270Z" class="g0_27"/>
<path fill-rule="evenodd" d="M717.1,270h9.1v17.8h-9.1V270Z" class="g0_27"/>
<path fill-rule="evenodd" d="M726.2,270h18.4v17.8H726.2V270Z" class="g0_27"/>
<path fill-rule="evenodd" d="M110,287.8H825v17.8H110V287.8Z" class="g0_27"/>
<path fill-rule="evenodd" d="M202,287.8h9.1v17.8H202V287.8Z" class="g0_27"/>
<path fill-rule="evenodd" d="M220.3,287.8H248v17.8H220.3V287.8Z" class="g0_27"/>
<path fill-rule="evenodd" d="M248,287.8h9.1v17.8H248V287.8Z" class="g0_27"/>
<path fill-rule="evenodd" d="M257.1,287.8h46v17.8h-46V287.8Z" class="g0_27"/>
<path fill-rule="evenodd" d="M303.1,287.8h9.3v17.8h-9.3V287.8Z" class="g0_27"/>
<path fill-rule="evenodd" d="M376.7,287.8h9.2v17.8h-9.2V287.8Z" class="g0_27"/>
<path fill-rule="evenodd" d="M385.9,287.8h73.6v17.8H385.9V287.8Z" class="g0_27"/>
<path fill-rule="evenodd" d="M459.5,287.8h36.8v17.8H459.5V287.8Z" class="g0_27"/>
<path fill-rule="evenodd" d="M110,305.6H825v17.7H110V305.6Z" class="g0_27"/>
<path fill-rule="evenodd" d="M183.6,305.6h27.5v17.7H183.6V305.6Z" class="g0_27"/>
<path fill-rule="evenodd" d="M211.1,305.6h18.4v17.7H211.1V305.6Z" class="g0_27"/>
<path fill-rule="evenodd" d="M257.1,305.6h9.2v17.7h-9.2V305.6Z" class="g0_27"/>
<path fill-rule="evenodd" d="M275.5,305.6h27.6v17.7H275.5V305.6Z" class="g0_27"/>
<path fill-rule="evenodd" d="M312.4,305.6h27.5v17.7H312.4V305.6Z" class="g0_27"/>
<path fill-rule="evenodd" d="M339.9,305.6h9.2v17.7h-9.2V305.6Z" class="g0_27"/>
<path fill-rule="evenodd" d="M358.3,305.6h18.4v17.7H358.3V305.6Z" class="g0_27"/>
<path fill-rule="evenodd" d="M110,323.4H825v17.7H110V323.4Z" class="g0_27"/>
<path fill-rule="evenodd" d="M248,323.4h9.1v17.7H248V323.4Z" class="g0_27"/>
<path fill-rule="evenodd" d="M257.1,323.4h82.8v17.7H257.1V323.4Z" class="g0_27"/>
<path fill-rule="evenodd" d="M339.9,323.4h9.2v17.7h-9.2V323.4Z" class="g0_27"/>
<path fill-rule="evenodd" d="M349.1,323.4h55.2v17.7H349.1V323.4Z" class="g0_27"/>
<path fill-rule="evenodd" d="M404.3,323.4h9.2v17.7h-9.2V323.4Z" class="g0_27"/>
<path fill-rule="evenodd" d="M413.5,323.4h27.6v17.7H413.5V323.4Z" class="g0_27"/>
<path fill-rule="evenodd" d="M441.1,323.4h9.2v17.7h-9.2V323.4Z" class="g0_27"/>
<path fill-rule="evenodd" d="M450.3,323.4h46v17.7h-46V323.4Z" class="g0_27"/>
<path fill-rule="evenodd" d="M496.3,323.4h9.2v17.7h-9.2V323.4Z" class="g0_27"/>
<path fill-rule="evenodd" d="M505.5,323.4H579v17.7H505.5V323.4Z" class="g0_27"/>
<path fill-rule="evenodd" d="M579,323.4h9.3v17.7H579V323.4Z" class="g0_27"/>
<path fill-rule="evenodd" d="M588.3,323.4h9.1v17.7h-9.1V323.4Z" class="g0_27"/>
<path fill-rule="evenodd" d="M597.4,323.4h18.4v17.7H597.4V323.4Z" class="g0_27"/>
<path fill-rule="evenodd" d="M110,341.2H825v17.7H110V341.2Z" class="g0_27"/>
<path fill-rule="evenodd" d="M183.6,341.2h27.5v17.7H183.6V341.2Z" class="g0_27"/>
<path fill-rule="evenodd" d="M220.3,341.2h9.2v17.7h-9.2V341.2Z" class="g0_27"/>
<path fill-rule="evenodd" d="M248,341.2h9.1v17.7H248V341.2Z" class="g0_27"/>
<path fill-rule="evenodd" d="M266.3,341.2h9.2v17.7h-9.2V341.2Z" class="g0_27"/>
<path fill-rule="evenodd" d="M275.5,341.2h9.2v17.7h-9.2V341.2Z" class="g0_27"/>
<path fill-rule="evenodd" d="M312.4,341.2h9.1v17.7h-9.1V341.2Z" class="g0_27"/>
<path fill-rule="evenodd" d="M339.9,341.2h9.2v17.7h-9.2V341.2Z" class="g0_27"/>
<path fill-rule="evenodd" d="M367.5,341.2h27.6v17.7H367.5V341.2Z" class="g0_27"/>
<path fill-rule="evenodd" d="M110,359H825v17.7H110V359Z" class="g0_27"/>
<path fill-rule="evenodd" d="M183.6,359h9.1v17.7h-9.1V359Z" class="g0_27"/>
<path fill-rule="evenodd" d="M110,376.7H825v17.8H110V376.7Z" class="g0_27"/>
<path fill-rule="evenodd" d="M229.5,376.7h9.2v17.8h-9.2V376.7Z" class="g0_27"/>
<path fill-rule="evenodd" d="M248,376.7h9.1v17.8H248V376.7Z" class="g0_27"/>
<path fill-rule="evenodd" d="M266.3,376.7h9.2v17.8h-9.2V376.7Z" class="g0_27"/>
<path fill-rule="evenodd" d="M284.7,376.7h27.7v17.8H284.7V376.7Z" class="g0_27"/>
<path fill-rule="evenodd" d="M312.4,376.7h9.1v17.8h-9.1V376.7Z" class="g0_27"/>
<path fill-rule="evenodd" d="M321.5,376.7h46v17.8h-46V376.7Z" class="g0_27"/>
<path fill-rule="evenodd" d="M367.5,376.7h9.2v17.8h-9.2V376.7Z" class="g0_27"/>
<path fill-rule="evenodd" d="M441.1,376.7h9.2v17.8h-9.2V376.7Z" class="g0_27"/>
<path fill-rule="evenodd" d="M450.3,376.7h73.6v17.8H450.3V376.7Z" class="g0_27"/>
<path fill-rule="evenodd" d="M523.9,376.7h36.8v17.8H523.9V376.7Z" class="g0_27"/>
<path fill-rule="evenodd" d="M110,394.5H825v17.8H110V394.5Z" class="g0_27"/>
<path fill-rule="evenodd" d="M183.6,394.5h9.1v17.8h-9.1V394.5Z" class="g0_27"/>
<path fill-rule="evenodd" d="M110,412.3H825V430H110V412.3Z" class="g0_27"/>
<path fill-rule="evenodd" d="M183.6,412.3h27.5V430H183.6V412.3Z" class="g0_27"/>
<path fill-rule="evenodd" d="M220.3,412.3h9.2V430h-9.2V412.3Z" class="g0_27"/>
<path fill-rule="evenodd" d="M248,412.3h9.1V430H248V412.3Z" class="g0_27"/>
<path fill-rule="evenodd" d="M266.3,412.3h9.2V430h-9.2V412.3Z" class="g0_27"/>
<path fill-rule="evenodd" d="M275.5,412.3h9.2V430h-9.2V412.3Z" class="g0_27"/>
<path fill-rule="evenodd" d="M312.4,412.3h9.1V430h-9.1V412.3Z" class="g0_27"/>
<path fill-rule="evenodd" d="M339.9,412.3h9.2V430h-9.2V412.3Z" class="g0_27"/>
<path fill-rule="evenodd" d="M367.5,412.3h27.6V430H367.5V412.3Z" class="g0_27"/>
<path fill-rule="evenodd" d="M110,430.1H825v17.7H110V430.1Z" class="g0_27"/>
<path fill-rule="evenodd" d="M183.6,430.1h9.1v17.7h-9.1V430.1Z" class="g0_27"/>
<path fill-rule="evenodd" d="M110,447.9H825v17.7H110V447.9Z" class="g0_27"/>
<path fill-rule="evenodd" d="M257.1,447.9h18.4v17.7H257.1V447.9Z" class="g0_27"/>
<path fill-rule="evenodd" d="M293.9,447.9h9.2v17.7h-9.2V447.9Z" class="g0_27"/>
<path fill-rule="evenodd" d="M312.4,447.9h18.3v17.7H312.4V447.9Z" class="g0_27"/>
<path fill-rule="evenodd" d="M110,465.7H825v17.7H110V465.7Z" class="g0_27"/>
<path fill-rule="evenodd" d="M183.6,465.7h9.1v17.7h-9.1V465.7Z" class="g0_27"/>
<path fill-rule="evenodd" d="M110,483.5H825v17.7H110V483.5Z" class="g0_27"/>
<path fill-rule="evenodd" d="M220.3,483.5h9.2v17.7h-9.2V483.5Z" class="g0_27"/>
<path fill-rule="evenodd" d="M275.5,483.5h9.2v17.7h-9.2V483.5Z" class="g0_27"/>
<path fill-rule="evenodd" d="M303.1,483.5h9.3v17.7h-9.3V483.5Z" class="g0_27"/>
<path fill-rule="evenodd" d="M110,501.2H825v17.7H110V501.2Z" class="g0_27"/>
<path fill-rule="evenodd" d="M248,501.2h9.1v17.7H248V501.2Z" class="g0_27"/>
<path fill-rule="evenodd" d="M257.1,501.2h82.8v17.7H257.1V501.2Z" class="g0_27"/>
<path fill-rule="evenodd" d="M339.9,501.2h9.2v17.7h-9.2V501.2Z" class="g0_27"/>
<path fill-rule="evenodd" d="M349.1,501.2h73.6v17.7H349.1V501.2Z" class="g0_27"/>
<path fill-rule="evenodd" d="M422.7,501.2h9.2v17.7h-9.2V501.2Z" class="g0_27"/>
<path fill-rule="evenodd" d="M431.9,501.2h18.4v17.7H431.9V501.2Z" class="g0_27"/>
<path fill-rule="evenodd" d="M450.3,501.2h9.2v17.7h-9.2V501.2Z" class="g0_27"/>
<path fill-rule="evenodd" d="M459.5,501.2h36.8v17.7H459.5V501.2Z" class="g0_27"/>
<path fill-rule="evenodd" d="M542.3,501.2h18.4v17.7H542.3V501.2Z" class="g0_27"/>
<path fill-rule="evenodd" d="M110,519H825v17.7H110V519Z" class="g0_27"/>
<path fill-rule="evenodd" d="M248,519h9.1v17.7H248V519Z" class="g0_27"/>
<path fill-rule="evenodd" d="M257.1,519h73.6v17.7H257.1V519Z" class="g0_27"/>
<path fill-rule="evenodd" d="M330.7,519h27.6v17.7H330.7V519Z" class="g0_27"/>
<path fill-rule="evenodd" d="M110,536.8H825v17.7H110V536.8Z" class="g0_27"/>
<path fill-rule="evenodd" d="M146.7,536.8H156v17.7h-9.3V536.8Z" class="g0_27"/>
<path fill-rule="evenodd" d="M110,554.6H825v29.2H110V554.6Z" class="g0_27"/>
<path fill-rule="evenodd" d="M110,554.6h9.2v17.7H110V554.6Z" class="g0_27"/>
<path fill-rule="evenodd" d="M110,583.8H825v43.7H110V583.8Z" class="g1_27"/>
<path fill-rule="evenodd" d="M110,627.5H825V655H110V627.5Z" class="g1_27"/>
<path fill-rule="evenodd" d="M110,655H825v27.5H110V655Z" class="g1_27"/>
<path fill-rule="evenodd" d="M110,682.5H825v39H110v-39Z" class="g1_27"/>
<path fill-rule="evenodd" d="M110,721.5H825v43.7H110V721.5Z" class="g1_27"/>
<path fill-rule="evenodd" d="M110,765.3H825V783H110V765.3Z" class="g0_27"/>
<path fill-rule="evenodd" d="M110,783H825v17.7H110V783Z" class="g0_27"/>
<path fill-rule="evenodd" d="M110,800.8H825v17.7H110V800.8Z" class="g0_27"/>
<path fill-rule="evenodd" d="M110,818.6H825v17.7H110V818.6Z" class="g0_27"/>
<path fill-rule="evenodd" d="M110,836.4H825v17.7H110V836.4Z" class="g0_27"/>
<path fill-rule="evenodd" d="M110,854.2H825v17.7H110V854.2Z" class="g0_27"/>
<path fill-rule="evenodd" d="M110,872H825v17.7H110V872Z" class="g0_27"/>
<path fill-rule="evenodd" d="M110,889.7H825v29.2H110V889.7Z" class="g0_27"/>
</svg>