<?xml version="1.0" encoding="UTF-8" standalone="no"?>
<!DOCTYPE svg PUBLIC "-//W3C//DTD SVG 1.1//EN"
"http://www.w3.org/Graphics/SVG/1.1/DTD/svg11.dtd">
<svg viewBox="0 0 935 1210" version="1.1" xmlns="http://www.w3.org/2000/svg" xmlns:xlink="http://www.w3.org/1999/xlink">
<defs>
<style type="text/css"><![CDATA[
.g0_33{
fill: #F4F4F4;
}
.g1_33{
fill: #FDFDFD;
}
]]></style>
</defs>
<path fill-rule="evenodd" d="M110,110H825v17.7H110V110Z" class="g0_33"/>
<path fill-rule="evenodd" d="M110,110h18.3v17.7H110V110Z" class="g0_33"/>
<path fill-rule="evenodd" d="M110,127.7H825v17.7H110V127.7Z" class="g0_33"/>
<path fill-rule="evenodd" d="M110,127.7h9.2v17.7H110V127.7Z" class="g0_33"/>
<path fill-rule="evenodd" d="M119.2,127.7h9.1v17.7h-9.1V127.7Z" class="g0_33"/>
<path fill-rule="evenodd" d="M128.3,127.7h9.3v17.7h-9.3V127.7Z" class="g0_33"/>
<path fill-rule="evenodd" d="M137.6,127.7h9.1v17.7h-9.1V127.7Z" class="g0_33"/>
<path fill-rule="evenodd" d="M146.7,127.7h18.5v17.7H146.7V127.7Z" class="g0_33"/>
<path fill-rule="evenodd" d="M165.2,127.7h9.1v17.7h-9.1V127.7Z" class="g0_33"/>
<path fill-rule="evenodd" d="M174.3,127.7h64.4v17.7H174.3V127.7Z" class="g0_33"/>
<path fill-rule="evenodd" d="M238.7,127.7H248v17.7h-9.3V127.7Z" class="g0_33"/>
<path fill-rule="evenodd" d="M248,127.7h18.3v17.7H248V127.7Z" class="g0_33"/>
<path fill-rule="evenodd" d="M266.3,127.7h9.2v17.7h-9.2V127.7Z" class="g0_33"/>
<path fill-rule="evenodd" d="M275.5,127.7h64.4v17.7H275.5V127.7Z" class="g0_33"/>
<path fill-rule="evenodd" d="M339.9,127.7h9.2v17.7h-9.2V127.7Z" class="g0_33"/>
<path fill-rule="evenodd" d="M349.1,127.7h73.6v17.7H349.1V127.7Z" class="g0_33"/>
<path fill-rule="evenodd" d="M422.7,127.7h9.2v17.7h-9.2V127.7Z" class="g0_33"/>
<path fill-rule="evenodd" d="M431.9,127.7h18.4v17.7H431.9V127.7Z" class="g0_33"/>
<path fill-rule="evenodd" d="M450.3,127.7h9.2v17.7h-9.2V127.7Z" class="g0_33"/>
<path fill-rule="evenodd" d="M459.5,127.7h82.8v17.7H459.5V127.7Z" class="g0_33"/>
<path fill-rule="evenodd" d="M542.3,127.7h9.2v17.7h-9.2V127.7Z" class="g0_33"/>
<path fill-rule="evenodd" d="M551.5,127.7h18.4v17.7H551.5V127.7Z" class="g0_33"/>
<path fill-rule="evenodd" d="M569.9,127.7H579v17.7h-9.1V127.7Z" class="g0_33"/>
<path fill-rule="evenodd" d="M579,127.7h36.8v17.7H579V127.7Z" class="g0_33"/>
<path fill-rule="evenodd" d="M615.8,127.7H625v17.7h-9.2V127.7Z" class="g0_33"/>
<path fill-rule="evenodd" d="M625,127.7h36.8v17.7H625V127.7Z" class="g0_33"/>
<path fill-rule="evenodd" d="M110,145.5H825v17.7H110V145.5Z" class="g0_33"/>
<path fill-rule="evenodd" d="M110,145.5h9.2v17.7H110V145.5Z" class="g0_33"/>
<path fill-rule="evenodd" d="M119.2,145.5h18.4v17.7H119.2V145.5Z" class="g0_33"/>
<path fill-rule="evenodd" d="M110,163.3H825V181H110V163.3Z" class="g0_33"/>
<path fill-rule="evenodd" d="M110,163.3h46V181H110V163.3Z" class="g0_33"/>
<path fill-rule="evenodd" d="M165.2,163.3h55.1V181H165.2V163.3Z" class="g0_33"/>
<path fill-rule="evenodd" d="M220.3,163.3h9.2V181h-9.2V163.3Z" class="g0_33"/>
<path fill-rule="evenodd" d="M110,181.1H825v17.7H110V181.1Z" class="g0_33"/>
<path fill-rule="evenodd" d="M110,181.1h46v17.7H110V181.1Z" class="g0_33"/>
<path fill-rule="evenodd" d="M110,198.9H825v17.7H110V198.9Z" class="g0_33"/>
<path fill-rule="evenodd" d="M110,198.9h9.2v17.7H110V198.9Z" class="g0_33"/>
<path fill-rule="evenodd" d="M110,216.6H825v17.8H110V216.6Z" class="g0_33"/>
<path fill-rule="evenodd" d="M146.7,216.6H202v17.8H146.7V216.6Z" class="g0_33"/>
<path fill-rule="evenodd" d="M211.1,216.6H248v17.8H211.1V216.6Z" class="g0_33"/>
<path fill-rule="evenodd" d="M293.9,216.6h18.5v17.8H293.9V216.6Z" class="g0_33"/>
<path fill-rule="evenodd" d="M110,234.4H825v17.8H110V234.4Z" class="g0_33"/>
<path fill-rule="evenodd" d="M146.7,234.4H156v17.8h-9.3V234.4Z" class="g0_33"/>
<path fill-rule="evenodd" d="M110,252.2H825V270H110V252.2Z" class="g0_33"/>
<path fill-rule="evenodd" d="M248,252.2h9.1V270H248V252.2Z" class="g0_33"/>
<path fill-rule="evenodd" d="M257.1,252.2h82.8V270H257.1V252.2Z" class="g0_33"/>
<path fill-rule="evenodd" d="M339.9,252.2h9.2V270h-9.2V252.2Z" class="g0_33"/>
<path fill-rule="evenodd" d="M349.1,252.2h55.2V270H349.1V252.2Z" class="g0_33"/>
<path fill-rule="evenodd" d="M404.3,252.2h9.2V270h-9.2V252.2Z" class="g0_33"/>
<path fill-rule="evenodd" d="M413.5,252.2h27.6V270H413.5V252.2Z" class="g0_33"/>
<path fill-rule="evenodd" d="M441.1,252.2h9.2V270h-9.2V252.2Z" class="g0_33"/>
<path fill-rule="evenodd" d="M450.3,252.2h36.8V270H450.3V252.2Z" class="g0_33"/>
<path fill-rule="evenodd" d="M487.1,252.2h9.2V270h-9.2V252.2Z" class="g0_33"/>
<path fill-rule="evenodd" d="M496.3,252.2h9.2V270h-9.2V252.2Z" class="g0_33"/>
<path fill-rule="evenodd" d="M505.5,252.2h9.2V270h-9.2V252.2Z" class="g0_33"/>
<path fill-rule="evenodd" d="M514.7,252.2h9.2V270h-9.2V252.2Z" class="g0_33"/>
<path fill-rule="evenodd" d="M523.9,252.2h18.4V270H523.9V252.2Z" class="g0_33"/>
<path fill-rule="evenodd" d="M110,270H825v17.8H110V270Z" class="g0_33"/>
<path fill-rule="evenodd" d="M183.6,270h55.1v17.8H183.6V270Z" class="g0_33"/>
<path fill-rule="evenodd" d="M284.7,270h9.2v17.8h-9.2V270Z" class="g0_33"/>
<path fill-rule="evenodd" d="M303.1,270h55.2v17.8H303.1V270Z" class="g0_33"/>
<path fill-rule="evenodd" d="M358.3,270h9.2v17.8h-9.2V270Z" class="g0_33"/>
<path fill-rule="evenodd" d="M367.5,270h46v17.8h-46V270Z" class="g0_33"/>
<path fill-rule="evenodd" d="M413.5,270h9.2v17.8h-9.2V270Z" class="g0_33"/>
<path fill-rule="evenodd" d="M487.1,270h9.2v17.8h-9.2V270Z" class="g0_33"/>
<path fill-rule="evenodd" d="M496.3,270h73.6v17.8H496.3V270Z" class="g0_33"/>
<path fill-rule="evenodd" d="M569.9,270h36.8v17.8H569.9V270Z" class="g0_33"/>
<path fill-rule="evenodd" d="M110,287.8H825v17.8H110V287.8Z" class="g0_33"/>
<path fill-rule="evenodd" d="M248,287.8h9.1v17.8H248V287.8Z" class="g0_33"/>
<path fill-rule="evenodd" d="M257.1,287.8h82.8v17.8H257.1V287.8Z" class="g0_33"/>
<path fill-rule="evenodd" d="M339.9,287.8h9.2v17.8h-9.2V287.8Z" class="g0_33"/>
<path fill-rule="evenodd" d="M349.1,287.8h55.2v17.8H349.1V287.8Z" class="g0_33"/>
<path fill-rule="evenodd" d="M404.3,287.8h9.2v17.8h-9.2V287.8Z" class="g0_33"/>
<path fill-rule="evenodd" d="M413.5,287.8h27.6v17.8H413.5V287.8Z" class="g0_33"/>
<path fill-rule="evenodd" d="M441.1,287.8h9.2v17.8h-9.2V287.8Z" class="g0_33"/>
<path fill-rule="evenodd" d="M450.3,287.8h46v17.8h-46V287.8Z" class="g0_33"/>
<path fill-rule="evenodd" d="M496.3,287.8h9.2v17.8h-9.2V287.8Z" class="g0_33"/>
<path fill-rule="evenodd" d="M505.5,287.8H579v17.8H505.5V287.8Z" class="g0_33"/>
<path fill-rule="evenodd" d="M579,287.8h9.3v17.8H579V287.8Z" class="g0_33"/>
<path fill-rule="evenodd" d="M588.3,287.8h18.4v17.8H588.3V287.8Z" class="g0_33"/>
<path fill-rule="evenodd" d="M606.7,287.8H625v17.8H606.7V287.8Z" class="g0_33"/>
<path fill-rule="evenodd" d="M110,305.6H825v17.7H110V305.6Z" class="g0_33"/>
<path fill-rule="evenodd" d="M183.6,305.6h55.1v17.7H183.6V305.6Z" class="g0_33"/>
<path fill-rule="evenodd" d="M293.9,305.6h9.2v17.7h-9.2V305.6Z" class="g0_33"/>
<path fill-rule="evenodd" d="M312.4,305.6h55.1v17.7H312.4V305.6Z" class="g0_33"/>
<path fill-rule="evenodd" d="M367.5,305.6h9.2v17.7h-9.2V305.6Z" class="g0_33"/>
<path fill-rule="evenodd" d="M376.7,305.6h46v17.7h-46V305.6Z" class="g0_33"/>
<path fill-rule="evenodd" d="M422.7,305.6h9.2v17.7h-9.2V305.6Z" class="g0_33"/>
<path fill-rule="evenodd" d="M496.3,305.6h9.2v17.7h-9.2V305.6Z" class="g0_33"/>
<path fill-rule="evenodd" d="M505.5,305.6H579v17.7H505.5V305.6Z" class="g0_33"/>
<path fill-rule="evenodd" d="M579,305.6h36.8v17.7H579V305.6Z" class="g0_33"/>
<path fill-rule="evenodd" d="M110,323.4H825v17.7H110V323.4Z" class="g0_33"/>
<path fill-rule="evenodd" d="M248,323.4h9.1v17.7H248V323.4Z" class="g0_33"/>
<path fill-rule="evenodd" d="M257.1,323.4h82.8v17.7H257.1V323.4Z" class="g0_33"/>
<path fill-rule="evenodd" d="M339.9,323.4h9.2v17.7h-9.2V323.4Z" class="g0_33"/>
<path fill-rule="evenodd" d="M349.1,323.4h55.2v17.7H349.1V323.4Z" class="g0_33"/>
<path fill-rule="evenodd" d="M404.3,323.4h9.2v17.7h-9.2V323.4Z" class="g0_33"/>
<path fill-rule="evenodd" d="M413.5,323.4h27.6v17.7H413.5V323.4Z" class="g0_33"/>
<path fill-rule="evenodd" d="M441.1,323.4h9.2v17.7h-9.2V323.4Z" class="g0_33"/>
<path fill-rule="evenodd" d="M450.3,323.4h55.2v17.7H450.3V323.4Z" class="g0_33"/>
<path fill-rule="evenodd" d="M505.5,323.4h9.2v17.7h-9.2V323.4Z" class="g0_33"/>
<path fill-rule="evenodd" d="M514.7,323.4h73.6v17.7H514.7V323.4Z" class="g0_33"/>
<path fill-rule="evenodd" d="M588.3,323.4h9.1v17.7h-9.1V323.4Z" class="g0_33"/>
<path fill-rule="evenodd" d="M597.4,323.4h18.4v17.7H597.4V323.4Z" class="g0_33"/>
<path fill-rule="evenodd" d="M615.8,323.4h18.5v17.7H615.8V323.4Z" class="g0_33"/>
<path fill-rule="evenodd" d="M110,341.2H825v17.7H110V341.2Z" class="g0_33"/>
<path fill-rule="evenodd" d="M183.6,341.2h55.1v17.7H183.6V341.2Z" class="g0_33"/>
<path fill-rule="evenodd" d="M293.9,341.2h9.2v17.7h-9.2V341.2Z" class="g0_33"/>
<path fill-rule="evenodd" d="M312.4,341.2h55.1v17.7H312.4V341.2Z" class="g0_33"/>
<path fill-rule="evenodd" d="M367.5,341.2h9.2v17.7h-9.2V341.2Z" class="g0_33"/>
<path fill-rule="evenodd" d="M376.7,341.2h46v17.7h-46V341.2Z" class="g0_33"/>
<path fill-rule="evenodd" d="M422.7,341.2h9.2v17.7h-9.2V341.2Z" class="g0_33"/>
<path fill-rule="evenodd" d="M496.3,341.2h9.2v17.7h-9.2V341.2Z" class="g0_33"/>
<path fill-rule="evenodd" d="M505.5,341.2H579v17.7H505.5V341.2Z" class="g0_33"/>
<path fill-rule="evenodd" d="M579,341.2h36.8v17.7H579V341.2Z" class="g0_33"/>
<path fill-rule="evenodd" d="M110,359H825v17.7H110V359Z" class="g0_33"/>
<path fill-rule="evenodd" d="M183.6,359h55.1v17.7H183.6V359Z" class="g0_33"/>
<path fill-rule="evenodd" d="M275.5,359h9.2v17.7h-9.2V359Z" class="g0_33"/>
<path fill-rule="evenodd" d="M110,376.7H825v17.8H110V376.7Z" class="g0_33"/>
<path fill-rule="evenodd" d="M220.3,376.7h9.2v17.8h-9.2V376.7Z" class="g0_33"/>
<path fill-rule="evenodd" d="M284.7,376.7h9.2v17.8h-9.2V376.7Z" class="g0_33"/>
<path fill-rule="evenodd" d="M339.9,376.7h9.2v17.8h-9.2V376.7Z" class="g0_33"/>
<path fill-rule="evenodd" d="M110,394.5H825v17.8H110V394.5Z" class="g0_33"/>
<path fill-rule="evenodd" d="M248,394.5h9.1v17.8H248V394.5Z" class="g0_33"/>
<path fill-rule="evenodd" d="M257.1,394.5h82.8v17.8H257.1V394.5Z" class="g0_33"/>
<path fill-rule="evenodd" d="M339.9,394.5h9.2v17.8h-9.2V394.5Z" class="g0_33"/>
<path fill-rule="evenodd" d="M349.1,394.5h64.4v17.8H349.1V394.5Z" class="g0_33"/>
<path fill-rule="evenodd" d="M413.5,394.5h9.2v17.8h-9.2V394.5Z" class="g0_33"/>
<path fill-rule="evenodd" d="M422.7,394.5h18.4v17.8H422.7V394.5Z" class="g0_33"/>
<path fill-rule="evenodd" d="M441.1,394.5h9.2v17.8h-9.2V394.5Z" class="g0_33"/>
<path fill-rule="evenodd" d="M450.3,394.5h9.2v17.8h-9.2V394.5Z" class="g0_33"/>
<path fill-rule="evenodd" d="M459.5,394.5h9.1v17.8h-9.1V394.5Z" class="g0_33"/>
<path fill-rule="evenodd" d="M468.6,394.5H533v17.8H468.6V394.5Z" class="g0_33"/>
<path fill-rule="evenodd" d="M533,394.5h9.3v17.8H533V394.5Z" class="g0_33"/>
<path fill-rule="evenodd" d="M542.3,394.5h9.2v17.8h-9.2V394.5Z" class="g0_33"/>
<path fill-rule="evenodd" d="M551.5,394.5h9.2v17.8h-9.2V394.5Z" class="g0_33"/>
<path fill-rule="evenodd" d="M560.7,394.5h36.7v17.8H560.7V394.5Z" class="g0_33"/>
<path fill-rule="evenodd" d="M744.6,394.5h9.2v17.8h-9.2V394.5Z" class="g0_33"/>
<path fill-rule="evenodd" d="M753.8,394.5h27.6v17.8H753.8V394.5Z" class="g0_33"/>
<path fill-rule="evenodd" d="M781.4,394.5h9.2v17.8h-9.2V394.5Z" class="g0_33"/>
<path fill-rule="evenodd" d="M110,412.3H825V430H110V412.3Z" class="g0_33"/>
<path fill-rule="evenodd" d="M146.7,412.3h27.6V430H146.7V412.3Z" class="g0_33"/>
<path fill-rule="evenodd" d="M110,430.1H825v17.7H110V430.1Z" class="g0_33"/>
<path fill-rule="evenodd" d="M248,430.1h9.1v17.7H248V430.1Z" class="g0_33"/>
<path fill-rule="evenodd" d="M257.1,430.1h73.6v17.7H257.1V430.1Z" class="g0_33"/>
<path fill-rule="evenodd" d="M330.7,430.1h27.6v17.7H330.7V430.1Z" class="g0_33"/>
<path fill-rule="evenodd" d="M110,447.9H825v17.7H110V447.9Z" class="g0_33"/>
<path fill-rule="evenodd" d="M146.7,447.9H156v17.7h-9.3V447.9Z" class="g0_33"/>
<path fill-rule="evenodd" d="M110,465.7H825v29.1H110V465.7Z" class="g0_33"/>
<path fill-rule="evenodd" d="M110,465.7h9.2v17.7H110V465.7Z" class="g0_33"/>
<path fill-rule="evenodd" d="M110,494.9H825v43.7H110V494.9Z" class="g1_33"/>
<path fill-rule="evenodd" d="M110,538.6H825v27.5H110V538.6Z" class="g1_33"/>
<path fill-rule="evenodd" d="M110,566.1H825v27.5H110V566.1Z" class="g1_33"/>
<path fill-rule="evenodd" d="M110,593.6H825v27.5H110V593.6Z" class="g1_33"/>
<path fill-rule="evenodd" d="M110,621.1H825v39H110v-39Z" class="g1_33"/>
<path fill-rule="evenodd" d="M110,660.1H825v43.7H110V660.1Z" class="g1_33"/>
<path fill-rule="evenodd" d="M110,703.8H825v17.8H110V703.8Z" class="g0_33"/>
<path fill-rule="evenodd" d="M110,721.6H825v17.7H110V721.6Z" class="g0_33"/>
<path fill-rule="evenodd" d="M110,739.4H825v17.7H110V739.4Z" class="g0_33"/>
<path fill-rule="evenodd" d="M110,757.2H825v17.7H110V757.2Z" class="g0_33"/>
<path fill-rule="evenodd" d="M110,775H825v17.7H110V775Z" class="g0_33"/>
<path fill-rule="evenodd" d="M110,792.8H825v17.7H110V792.8Z" class="g0_33"/>
<path fill-rule="evenodd" d="M110,810.5H825v17.7H110V810.5Z" class="g0_33"/>
<path fill-rule="evenodd" d="M110,828.3H825v29.2H110V828.3Z" class="g0_33"/>
</svg>