<?xml version="1.0" encoding="UTF-8" standalone="no"?>
<!DOCTYPE svg PUBLIC "-//W3C//DTD SVG 1.1//EN"
"http://www.w3.org/Graphics/SVG/1.1/DTD/svg11.dtd">
<svg viewBox="0 0 935 1210" version="1.1" xmlns="http://www.w3.org/2000/svg" xmlns:xlink="http://www.w3.org/1999/xlink">
<defs>
<style type="text/css"><![CDATA[
.g0_7{
fill: #F4F4F4;
}
.g1_7{
fill: #FDFDFD;
}
]]></style>
</defs>
<path fill-rule="evenodd" d="M110,110H825v16H110V110Z" class="g0_7"/>
<path fill-rule="evenodd" d="M110,110h16.5v16H110V110Z" class="g0_7"/>
<path fill-rule="evenodd" d="M110,126H825v15.9H110V126Z" class="g0_7"/>
<path fill-rule="evenodd" d="M110,126h8.3v15.9H110V126Z" class="g0_7"/>
<path fill-rule="evenodd" d="M118.3,126h8.2v15.9h-8.2V126Z" class="g0_7"/>
<path fill-rule="evenodd" d="M126.5,126h8.3v15.9h-8.3V126Z" class="g0_7"/>
<path fill-rule="evenodd" d="M134.8,126h16.5v15.9H134.8V126Z" class="g0_7"/>
<path fill-rule="evenodd" d="M151.3,126h8.4v15.9h-8.4V126Z" class="g0_7"/>
<path fill-rule="evenodd" d="M159.7,126h57.9v15.9H159.7V126Z" class="g0_7"/>
<path fill-rule="evenodd" d="M217.6,126h8.3v15.9h-8.3V126Z" class="g0_7"/>
<path fill-rule="evenodd" d="M225.9,126h16.5v15.9H225.9V126Z" class="g0_7"/>
<path fill-rule="evenodd" d="M242.4,126h8.3v15.9h-8.3V126Z" class="g0_7"/>
<path fill-rule="evenodd" d="M250.7,126h41.4v15.9H250.7V126Z" class="g0_7"/>
<path fill-rule="evenodd" d="M292.1,126h8.3v15.9h-8.3V126Z" class="g0_7"/>
<path fill-rule="evenodd" d="M300.4,126h57.9v15.9H300.4V126Z" class="g0_7"/>
<path fill-rule="evenodd" d="M358.3,126h8.3v15.9h-8.3V126Z" class="g0_7"/>
<path fill-rule="evenodd" d="M366.6,126h24.8v15.9H366.6V126Z" class="g0_7"/>
<path fill-rule="evenodd" d="M391.4,126h8.3v15.9h-8.3V126Z" class="g0_7"/>
<path fill-rule="evenodd" d="M399.7,126h57.9v15.9H399.7V126Z" class="g0_7"/>
<path fill-rule="evenodd" d="M457.6,126h8.3v15.9h-8.3V126Z" class="g0_7"/>
<path fill-rule="evenodd" d="M465.9,126H499v15.9H465.9V126Z" class="g0_7"/>
<path fill-rule="evenodd" d="M499,126h8.3v15.9H499V126Z" class="g0_7"/>
<path fill-rule="evenodd" d="M507.3,126h16.6v15.9H507.3V126Z" class="g0_7"/>
<path fill-rule="evenodd" d="M523.9,126h8.2v15.9h-8.2V126Z" class="g0_7"/>
<path fill-rule="evenodd" d="M532.1,126h8.4v15.9h-8.4V126Z" class="g0_7"/>
<path fill-rule="evenodd" d="M540.5,126h8.2v15.9h-8.2V126Z" class="g0_7"/>
<path fill-rule="evenodd" d="M548.7,126h33.2v15.9H548.7V126Z" class="g0_7"/>
<path fill-rule="evenodd" d="M581.9,126h8.2v15.9h-8.2V126Z" class="g0_7"/>
<path fill-rule="evenodd" d="M590.1,126h33.1v15.9H590.1V126Z" class="g0_7"/>
<path fill-rule="evenodd" d="M623.2,126h8.3v15.9h-8.3V126Z" class="g0_7"/>
<path fill-rule="evenodd" d="M631.5,126H648v15.9H631.5V126Z" class="g0_7"/>
<path fill-rule="evenodd" d="M648,126h8.3v15.9H648V126Z" class="g0_7"/>
<path fill-rule="evenodd" d="M656.3,126h24.9v15.9H656.3V126Z" class="g0_7"/>
<path fill-rule="evenodd" d="M110,142H825v16H110V142Z" class="g0_7"/>
<path fill-rule="evenodd" d="M110,142h8.3v16H110V142Z" class="g0_7"/>
<path fill-rule="evenodd" d="M118.3,142h16.5v16H118.3V142Z" class="g0_7"/>
<path fill-rule="evenodd" d="M110,158H825v15.9H110V158Z" class="g0_7"/>
<path fill-rule="evenodd" d="M110,158h41.3v15.9H110V158Z" class="g0_7"/>
<path fill-rule="evenodd" d="M159.7,158h49.6v15.9H159.7V158Z" class="g0_7"/>
<path fill-rule="evenodd" d="M209.3,158h8.3v15.9h-8.3V158Z" class="g0_7"/>
<path fill-rule="evenodd" d="M110,174H825v16H110V174Z" class="g0_7"/>
<path fill-rule="evenodd" d="M110,174h41.3v16H110V174Z" class="g0_7"/>
<path fill-rule="evenodd" d="M159.7,174H374.8v16H159.7V174Z" class="g0_7"/>
<path fill-rule="evenodd" d="M374.8,174h8.4v16h-8.4V174Z" class="g0_7"/>
<path fill-rule="evenodd" d="M110,190H825v15.9H110V190Z" class="g0_7"/>
<path fill-rule="evenodd" d="M110,190h41.3v15.9H110V190Z" class="g0_7"/>
<path fill-rule="evenodd" d="M159.7,190h91v15.9h-91V190Z" class="g0_7"/>
<path fill-rule="evenodd" d="M250.7,190H259v15.9h-8.3V190Z" class="g0_7"/>
<path fill-rule="evenodd" d="M110,206H825v16H110V206Z" class="g0_7"/>
<path fill-rule="evenodd" d="M110,206h41.3v16H110V206Z" class="g0_7"/>
<path fill-rule="evenodd" d="M159.7,206h91v16h-91V206Z" class="g0_7"/>
<path fill-rule="evenodd" d="M250.7,206H259v16h-8.3V206Z" class="g0_7"/>
<path fill-rule="evenodd" d="M110,222H825v16H110V222Z" class="g0_7"/>
<path fill-rule="evenodd" d="M110,238H825v16H110V238Z" class="g0_7"/>
<path fill-rule="evenodd" d="M110,238h74.5v16H110V238Z" class="g0_7"/>
<path fill-rule="evenodd" d="M110,254H825v16H110V254Z" class="g0_7"/>
<path fill-rule="evenodd" d="M110,254h8.3v16H110V254Z" class="g0_7"/>
<path fill-rule="evenodd" d="M110,270H825v16H110V270Z" class="g0_7"/>
<path fill-rule="evenodd" d="M143.1,270h41.4v16H143.1V270Z" class="g0_7"/>
<path fill-rule="evenodd" d="M110,286H825v16H110V286Z" class="g0_7"/>
<path fill-rule="evenodd" d="M143.1,286h8.2v16h-8.2V286Z" class="g0_7"/>
<path fill-rule="evenodd" d="M110,302H825v16H110V302Z" class="g0_7"/>
<path fill-rule="evenodd" d="M176.2,302h49.7v16H176.2V302Z" class="g0_7"/>
<path fill-rule="evenodd" d="M234.1,302h33.2v16H234.1V302Z" class="g0_7"/>
<path fill-rule="evenodd" d="M308.6,302h8.3v16h-8.3V302Z" class="g0_7"/>
<path fill-rule="evenodd" d="M316.9,302h49.7v16H316.9V302Z" class="g0_7"/>
<path fill-rule="evenodd" d="M366.6,302h16.6v16H366.6V302Z" class="g0_7"/>
<path fill-rule="evenodd" d="M424.6,302h8.2v16h-8.2V302Z" class="g0_7"/>
<path fill-rule="evenodd" d="M110,318H825v16H110V318Z" class="g0_7"/>
<path fill-rule="evenodd" d="M176.2,318h8.3v16h-8.3V318Z" class="g0_7"/>
<path fill-rule="evenodd" d="M110,334H825v16H110V334Z" class="g0_7"/>
<path fill-rule="evenodd" d="M316.9,334h8.3v16h-8.3V334Z" class="g0_7"/>
<path fill-rule="evenodd" d="M333.4,334h24.9v16H333.4V334Z" class="g0_7"/>
<path fill-rule="evenodd" d="M432.8,334h24.8v16H432.8V334Z" class="g0_7"/>
<path fill-rule="evenodd" d="M110,350H825v16H110V350Z" class="g0_7"/>
<path fill-rule="evenodd" d="M234.1,350h8.3v16h-8.3V350Z" class="g0_7"/>
<path fill-rule="evenodd" d="M242.4,350h66.2v16H242.4V350Z" class="g0_7"/>
<path fill-rule="evenodd" d="M308.6,350h24.8v16H308.6V350Z" class="g0_7"/>
<path fill-rule="evenodd" d="M110,366.1H825V382H110V366.1Z" class="g0_7"/>
<path fill-rule="evenodd" d="M234.1,366.1h8.3V382h-8.3V366.1Z" class="g0_7"/>
<path fill-rule="evenodd" d="M242.4,366.1h33.1V382H242.4V366.1Z" class="g0_7"/>
<path fill-rule="evenodd" d="M275.5,366.1h24.9V382H275.5V366.1Z" class="g0_7"/>
<path fill-rule="evenodd" d="M110,382.1H825v16H110v-16Z" class="g0_7"/>
<path fill-rule="evenodd" d="M176.2,382.1h8.3v16h-8.3v-16Z" class="g0_7"/>
<path fill-rule="evenodd" d="M110,398.1H825V414H110V398.1Z" class="g0_7"/>
<path fill-rule="evenodd" d="M176.2,398.1h24.9V414H176.2V398.1Z" class="g0_7"/>
<path fill-rule="evenodd" d="M217.6,398.1h8.3V414h-8.3V398.1Z" class="g0_7"/>
<path fill-rule="evenodd" d="M110,414.1H825v16H110v-16Z" class="g0_7"/>
<path fill-rule="evenodd" d="M176.2,414.1h49.7v16H176.2v-16Z" class="g0_7"/>
<path fill-rule="evenodd" d="M234.1,414.1h33.2v16H234.1v-16Z" class="g0_7"/>
<path fill-rule="evenodd" d="M341.8,414.1h16.5v16H341.8v-16Z" class="g0_7"/>
<path fill-rule="evenodd" d="M110,430.1H825V446H110V430.1Z" class="g0_7"/>
<path fill-rule="evenodd" d="M176.2,430.1h8.3V446h-8.3V430.1Z" class="g0_7"/>
<path fill-rule="evenodd" d="M110,446.1H825v16H110v-16Z" class="g0_7"/>
<path fill-rule="evenodd" d="M267.3,446.1h8.2v16h-8.2v-16Z" class="g0_7"/>
<path fill-rule="evenodd" d="M275.5,446.1H350v16H275.5v-16Z" class="g0_7"/>
<path fill-rule="evenodd" d="M350,446.1h8.3v16H350v-16Z" class="g0_7"/>
<path fill-rule="evenodd" d="M358.3,446.1H408v16H358.3v-16Z" class="g0_7"/>
<path fill-rule="evenodd" d="M408,446.1h8.2v16H408v-16Z" class="g0_7"/>
<path fill-rule="evenodd" d="M416.2,446.1h24.9v16H416.2v-16Z" class="g0_7"/>
<path fill-rule="evenodd" d="M441.1,446.1h8.3v16h-8.3v-16Z" class="g0_7"/>
<path fill-rule="evenodd" d="M449.4,446.1h33.1v16H449.4v-16Z" class="g0_7"/>
<path fill-rule="evenodd" d="M482.5,446.1h8.2v16h-8.2v-16Z" class="g0_7"/>
<path fill-rule="evenodd" d="M490.7,446.1h16.6v16H490.7v-16Z" class="g0_7"/>
<path fill-rule="evenodd" d="M507.3,446.1h8.3v16h-8.3v-16Z" class="g0_7"/>
<path fill-rule="evenodd" d="M515.6,446.1h33.1v16H515.6v-16Z" class="g0_7"/>
<path fill-rule="evenodd" d="M548.7,446.1H557v16h-8.3v-16Z" class="g0_7"/>
<path fill-rule="evenodd" d="M557,446.1h49.7v16H557v-16Z" class="g0_7"/>
<path fill-rule="evenodd" d="M606.7,446.1h8.2v16h-8.2v-16Z" class="g0_7"/>
<path fill-rule="evenodd" d="M614.9,446.1h8.3v16h-8.3v-16Z" class="g0_7"/>
<path fill-rule="evenodd" d="M623.2,446.1h8.3v16h-8.3v-16Z" class="g0_7"/>
<path fill-rule="evenodd" d="M631.5,446.1h8.3v16h-8.3v-16Z" class="g0_7"/>
<path fill-rule="evenodd" d="M639.8,446.1h16.5v16H639.8v-16Z" class="g0_7"/>
<path fill-rule="evenodd" d="M110,462.1H825V478H110V462.1Z" class="g0_7"/>
<path fill-rule="evenodd" d="M225.9,462.1h8.2V478h-8.2V462.1Z" class="g0_7"/>
<path fill-rule="evenodd" d="M300.4,462.1h8.2V478h-8.2V462.1Z" class="g0_7"/>
<path fill-rule="evenodd" d="M308.6,462.1h58V478h-58V462.1Z" class="g0_7"/>
<path fill-rule="evenodd" d="M366.6,462.1h8.2V478h-8.2V462.1Z" class="g0_7"/>
<path fill-rule="evenodd" d="M432.8,462.1h8.3V478h-8.3V462.1Z" class="g0_7"/>
<path fill-rule="evenodd" d="M441.1,462.1h66.2V478H441.1V462.1Z" class="g0_7"/>
<path fill-rule="evenodd" d="M507.3,462.1h33.2V478H507.3V462.1Z" class="g0_7"/>
<path fill-rule="evenodd" d="M110,478.1H825v16H110v-16Z" class="g0_7"/>
<path fill-rule="evenodd" d="M176.2,478.1h8.3v16h-8.3v-16Z" class="g0_7"/>
<path fill-rule="evenodd" d="M110,494.1H825V510H110V494.1Z" class="g0_7"/>
<path fill-rule="evenodd" d="M176.2,494.1h49.7V510H176.2V494.1Z" class="g0_7"/>
<path fill-rule="evenodd" d="M234.1,494.1h33.2V510H234.1V494.1Z" class="g0_7"/>
<path fill-rule="evenodd" d="M308.6,494.1h16.6V510H308.6V494.1Z" class="g0_7"/>
<path fill-rule="evenodd" d="M110,510.1H825v16H110v-16Z" class="g0_7"/>
<path fill-rule="evenodd" d="M176.2,510.1h8.3v16h-8.3v-16Z" class="g0_7"/>
<path fill-rule="evenodd" d="M110,526.1H825v16H110v-16Z" class="g0_7"/>
<path fill-rule="evenodd" d="M209.3,526.1h16.6v16H209.3v-16Z" class="g0_7"/>
<path fill-rule="evenodd" d="M234.1,526.1h16.6v16H234.1v-16Z" class="g0_7"/>
<path fill-rule="evenodd" d="M267.3,526.1h8.2v16h-8.2v-16Z" class="g0_7"/>
<path fill-rule="evenodd" d="M283.8,526.1h8.3v16h-8.3v-16Z" class="g0_7"/>
<path fill-rule="evenodd" d="M300.4,526.1h16.5v16H300.4v-16Z" class="g0_7"/>
<path fill-rule="evenodd" d="M325.2,526.1h8.2v16h-8.2v-16Z" class="g0_7"/>
<path fill-rule="evenodd" d="M341.8,526.1h16.5v16H341.8v-16Z" class="g0_7"/>
<path fill-rule="evenodd" d="M383.2,526.1h8.2v16h-8.2v-16Z" class="g0_7"/>
<path fill-rule="evenodd" d="M399.7,526.1h24.9v16H399.7v-16Z" class="g0_7"/>
<path fill-rule="evenodd" d="M432.8,526.1h16.6v16H432.8v-16Z" class="g0_7"/>
<path fill-rule="evenodd" d="M457.6,526.1h8.3v16h-8.3v-16Z" class="g0_7"/>
<path fill-rule="evenodd" d="M465.9,526.1h8.3v16h-8.3v-16Z" class="g0_7"/>
<path fill-rule="evenodd" d="M482.5,526.1H499v16H482.5v-16Z" class="g0_7"/>
<path fill-rule="evenodd" d="M507.3,526.1h8.3v16h-8.3v-16Z" class="g0_7"/>
<path fill-rule="evenodd" d="M532.1,526.1h8.4v16h-8.4v-16Z" class="g0_7"/>
<path fill-rule="evenodd" d="M548.7,526.1h24.8v16H548.7v-16Z" class="g0_7"/>
<path fill-rule="evenodd" d="M581.9,526.1h16.5v16H581.9v-16Z" class="g0_7"/>
<path fill-rule="evenodd" d="M606.7,526.1h8.2v16h-8.2v-16Z" class="g0_7"/>
<path fill-rule="evenodd" d="M614.9,526.1h16.6v16H614.9v-16Z" class="g0_7"/>
<path fill-rule="evenodd" d="M110,542.1H825v16H110v-16Z" class="g0_7"/>
<path fill-rule="evenodd" d="M209.3,542.1h8.3v16h-8.3v-16Z" class="g0_7"/>
<path fill-rule="evenodd" d="M110,558.1H825v16H110v-16Z" class="g0_7"/>
<path fill-rule="evenodd" d="M300.4,558.1h8.2v16h-8.2v-16Z" class="g0_7"/>
<path fill-rule="evenodd" d="M308.6,558.1h74.6v16H308.6v-16Z" class="g0_7"/>
<path fill-rule="evenodd" d="M383.2,558.1h8.2v16h-8.2v-16Z" class="g0_7"/>
<path fill-rule="evenodd" d="M391.4,558.1h33.2v16H391.4v-16Z" class="g0_7"/>
<path fill-rule="evenodd" d="M424.6,558.1h8.2v16h-8.2v-16Z" class="g0_7"/>
<path fill-rule="evenodd" d="M432.8,558.1h16.6v16H432.8v-16Z" class="g0_7"/>
<path fill-rule="evenodd" d="M449.4,558.1h8.2v16h-8.2v-16Z" class="g0_7"/>
<path fill-rule="evenodd" d="M457.6,558.1h8.3v16h-8.3v-16Z" class="g0_7"/>
<path fill-rule="evenodd" d="M465.9,558.1h8.3v16h-8.3v-16Z" class="g0_7"/>
<path fill-rule="evenodd" d="M474.2,558.1h33.1v16H474.2v-16Z" class="g0_7"/>
<path fill-rule="evenodd" d="M507.3,558.1h8.3v16h-8.3v-16Z" class="g0_7"/>
<path fill-rule="evenodd" d="M515.6,558.1H557v16H515.6v-16Z" class="g0_7"/>
<path fill-rule="evenodd" d="M581.9,558.1h16.5v16H581.9v-16Z" class="g0_7"/>
<path fill-rule="evenodd" d="M110,574.1H825v16H110v-16Z" class="g0_7"/>
<path fill-rule="evenodd" d="M209.3,574.1h8.3v16h-8.3v-16Z" class="g0_7"/>
<path fill-rule="evenodd" d="M110,590.1H825v16H110v-16Z" class="g0_7"/>
<path fill-rule="evenodd" d="M209.3,590.1h33.1v16H209.3v-16Z" class="g0_7"/>
<path fill-rule="evenodd" d="M110,606.1H825v16H110v-16Z" class="g0_7"/>
<path fill-rule="evenodd" d="M209.3,606.1h8.3v16h-8.3v-16Z" class="g0_7"/>
<path fill-rule="evenodd" d="M110,622.2H825v16H110v-16Z" class="g0_7"/>
<path fill-rule="evenodd" d="M300.4,622.2h8.2v16h-8.2v-16Z" class="g0_7"/>
<path fill-rule="evenodd" d="M308.6,622.2h74.6v16H308.6v-16Z" class="g0_7"/>
<path fill-rule="evenodd" d="M383.2,622.2h8.2v16h-8.2v-16Z" class="g0_7"/>
<path fill-rule="evenodd" d="M391.4,622.2h33.2v16H391.4v-16Z" class="g0_7"/>
<path fill-rule="evenodd" d="M424.6,622.2h8.2v16h-8.2v-16Z" class="g0_7"/>
<path fill-rule="evenodd" d="M432.8,622.2h16.6v16H432.8v-16Z" class="g0_7"/>
<path fill-rule="evenodd" d="M449.4,622.2h8.2v16h-8.2v-16Z" class="g0_7"/>
<path fill-rule="evenodd" d="M457.6,622.2h24.9v16H457.6v-16Z" class="g0_7"/>
<path fill-rule="evenodd" d="M482.5,622.2h8.2v16h-8.2v-16Z" class="g0_7"/>
<path fill-rule="evenodd" d="M490.7,622.2H499v16h-8.3v-16Z" class="g0_7"/>
<path fill-rule="evenodd" d="M499,622.2h8.3v16H499v-16Z" class="g0_7"/>
<path fill-rule="evenodd" d="M507.3,622.2h33.2v16H507.3v-16Z" class="g0_7"/>
<path fill-rule="evenodd" d="M540.5,622.2h8.2v16h-8.2v-16Z" class="g0_7"/>
<path fill-rule="evenodd" d="M548.7,622.2h41.4v16H548.7v-16Z" class="g0_7"/>
<path fill-rule="evenodd" d="M614.9,622.2h16.6v16H614.9v-16Z" class="g0_7"/>
<path fill-rule="evenodd" d="M110,638.2H825v15.9H110V638.2Z" class="g0_7"/>
<path fill-rule="evenodd" d="M209.3,638.2h8.3v15.9h-8.3V638.2Z" class="g0_7"/>
<path fill-rule="evenodd" d="M110,654.2H825v16H110v-16Z" class="g0_7"/>
<path fill-rule="evenodd" d="M267.3,654.2h8.2v16h-8.2v-16Z" class="g0_7"/>
<path fill-rule="evenodd" d="M275.5,654.2h66.3v16H275.5v-16Z" class="g0_7"/>
<path fill-rule="evenodd" d="M341.8,654.2h24.8v16H341.8v-16Z" class="g0_7"/>
<path fill-rule="evenodd" d="M110,670.2H825v15.9H110V670.2Z" class="g0_7"/>
<path fill-rule="evenodd" d="M176.2,670.2h8.3v15.9h-8.3V670.2Z" class="g0_7"/>
<path fill-rule="evenodd" d="M110,686.2H825v16H110v-16Z" class="g0_7"/>
<path fill-rule="evenodd" d="M143.1,686.2h8.2v16h-8.2v-16Z" class="g0_7"/>
<path fill-rule="evenodd" d="M110,702.2H825v27.4H110V702.2Z" class="g0_7"/>
<path fill-rule="evenodd" d="M110,702.2h8.3v15.9H110V702.2Z" class="g0_7"/>
<path fill-rule="evenodd" d="M110,729.7H825v28.5H110V729.7Z" class="g1_7"/>
<path fill-rule="evenodd" d="M110,758.2H825v27.5H110V758.2Z" class="g1_7"/>
<path fill-rule="evenodd" d="M110,785.7H825v39H110v-39Z" class="g1_7"/>
<path fill-rule="evenodd" d="M110,824.7H825v27.5H110V824.7Z" class="g1_7"/>
<path fill-rule="evenodd" d="M110,852.2H825v27.5H110V852.2Z" class="g1_7"/>
<path fill-rule="evenodd" d="M110,879.7H825v39H110v-39Z" class="g1_7"/>
<path fill-rule="evenodd" d="M110,918.7H825v27.5H110V918.7Z" class="g1_7"/>
<path fill-rule="evenodd" d="M110,946.2H825v27.5H110V946.2Z" class="g1_7"/>
<path fill-rule="evenodd" d="M110,973.7H825v38.9H110V973.7Z" class="g1_7"/>
<path fill-rule="evenodd" d="M110,1012.6H825v28.6H110v-28.6Z" class="g1_7"/>
<path fill-rule="evenodd" d="M110,1041.3H825v13.2H110v-13.2Z" class="g0_7"/>
<path fill-rule="evenodd" d="M110,1054.6H825v13.3H110v-13.3Z" class="g0_7"/>
<path fill-rule="evenodd" d="M110,1067.9H825v24.8H110v-24.8Z" class="g0_7"/>
</svg>