<?xml version="1.0" encoding="UTF-8" standalone="no"?>
<!DOCTYPE svg PUBLIC "-//W3C//DTD SVG 1.1//EN"
"http://www.w3.org/Graphics/SVG/1.1/DTD/svg11.dtd">
<svg viewBox="0 0 935 1210" version="1.1" xmlns="http://www.w3.org/2000/svg" xmlns:xlink="http://www.w3.org/1999/xlink">
<defs>
<style type="text/css"><![CDATA[
.g0_1{
fill: #F4F4F4;
}
.g1_1{
fill: #FDFDFD;
}
]]></style>
</defs>
<path fill-rule="evenodd" d="M110,110H825v17.7H110V110Z" class="g0_1"/>
<path fill-rule="evenodd" d="M110,110h18.3v17.7H110V110Z" class="g0_1"/>
<path fill-rule="evenodd" d="M110,127.7H825v17.7H110V127.7Z" class="g0_1"/>
<path fill-rule="evenodd" d="M110,127.7h9.2v17.7H110V127.7Z" class="g0_1"/>
<path fill-rule="evenodd" d="M119.2,127.7h9.1v17.7h-9.1V127.7Z" class="g0_1"/>
<path fill-rule="evenodd" d="M128.3,127.7h9.3v17.7h-9.3V127.7Z" class="g0_1"/>
<path fill-rule="evenodd" d="M137.6,127.7H156v17.7H137.6V127.7Z" class="g0_1"/>
<path fill-rule="evenodd" d="M156,127.7h9.2v17.7H156V127.7Z" class="g0_1"/>
<path fill-rule="evenodd" d="M165.2,127.7h64.3v17.7H165.2V127.7Z" class="g0_1"/>
<path fill-rule="evenodd" d="M229.5,127.7h9.2v17.7h-9.2V127.7Z" class="g0_1"/>
<path fill-rule="evenodd" d="M238.7,127.7h18.4v17.7H238.7V127.7Z" class="g0_1"/>
<path fill-rule="evenodd" d="M257.1,127.7h9.2v17.7h-9.2V127.7Z" class="g0_1"/>
<path fill-rule="evenodd" d="M266.3,127.7h46.1v17.7H266.3V127.7Z" class="g0_1"/>
<path fill-rule="evenodd" d="M312.4,127.7h9.1v17.7h-9.1V127.7Z" class="g0_1"/>
<path fill-rule="evenodd" d="M321.5,127.7h64.4v17.7H321.5V127.7Z" class="g0_1"/>
<path fill-rule="evenodd" d="M385.9,127.7h9.2v17.7h-9.2V127.7Z" class="g0_1"/>
<path fill-rule="evenodd" d="M395.1,127.7h27.6v17.7H395.1V127.7Z" class="g0_1"/>
<path fill-rule="evenodd" d="M422.7,127.7h9.2v17.7h-9.2V127.7Z" class="g0_1"/>
<path fill-rule="evenodd" d="M431.9,127.7h64.4v17.7H431.9V127.7Z" class="g0_1"/>
<path fill-rule="evenodd" d="M496.3,127.7h9.2v17.7h-9.2V127.7Z" class="g0_1"/>
<path fill-rule="evenodd" d="M505.5,127.7h55.2v17.7H505.5V127.7Z" class="g0_1"/>
<path fill-rule="evenodd" d="M560.7,127.7h9.2v17.7h-9.2V127.7Z" class="g0_1"/>
<path fill-rule="evenodd" d="M569.9,127.7h18.4v17.7H569.9V127.7Z" class="g0_1"/>
<path fill-rule="evenodd" d="M588.3,127.7h9.1v17.7h-9.1V127.7Z" class="g0_1"/>
<path fill-rule="evenodd" d="M597.4,127.7h36.9v17.7H597.4V127.7Z" class="g0_1"/>
<path fill-rule="evenodd" d="M634.3,127.7h9.1v17.7h-9.1V127.7Z" class="g0_1"/>
<path fill-rule="evenodd" d="M643.4,127.7h18.4v17.7H643.4V127.7Z" class="g0_1"/>
<path fill-rule="evenodd" d="M661.8,127.7h9.3v17.7h-9.3V127.7Z" class="g0_1"/>
<path fill-rule="evenodd" d="M671.1,127.7h27.6v17.7H671.1V127.7Z" class="g0_1"/>
<path fill-rule="evenodd" d="M110,145.5H825v17.7H110V145.5Z" class="g0_1"/>
<path fill-rule="evenodd" d="M110,145.5h9.2v17.7H110V145.5Z" class="g0_1"/>
<path fill-rule="evenodd" d="M119.2,145.5h18.4v17.7H119.2V145.5Z" class="g0_1"/>
<path fill-rule="evenodd" d="M110,163.3H825V181H110V163.3Z" class="g0_1"/>
<path fill-rule="evenodd" d="M110,163.3h46V181H110V163.3Z" class="g0_1"/>
<path fill-rule="evenodd" d="M165.2,163.3h55.1V181H165.2V163.3Z" class="g0_1"/>
<path fill-rule="evenodd" d="M220.3,163.3h9.2V181h-9.2V163.3Z" class="g0_1"/>
<path fill-rule="evenodd" d="M110,181.1H825v17.7H110V181.1Z" class="g0_1"/>
<path fill-rule="evenodd" d="M110,181.1h46v17.7H110V181.1Z" class="g0_1"/>
<path fill-rule="evenodd" d="M165.2,181.1H404.3v17.7H165.2V181.1Z" class="g0_1"/>
<path fill-rule="evenodd" d="M404.3,181.1h9.2v17.7h-9.2V181.1Z" class="g0_1"/>
<path fill-rule="evenodd" d="M110,198.9H825v17.7H110V198.9Z" class="g0_1"/>
<path fill-rule="evenodd" d="M110,198.9h46v17.7H110V198.9Z" class="g0_1"/>
<path fill-rule="evenodd" d="M165.2,198.9H266.3v17.7H165.2V198.9Z" class="g0_1"/>
<path fill-rule="evenodd" d="M266.3,198.9h9.2v17.7h-9.2V198.9Z" class="g0_1"/>
<path fill-rule="evenodd" d="M110,216.6H825v17.8H110V216.6Z" class="g0_1"/>
<path fill-rule="evenodd" d="M110,216.6h46v17.8H110V216.6Z" class="g0_1"/>
<path fill-rule="evenodd" d="M165.2,216.6H266.3v17.8H165.2V216.6Z" class="g0_1"/>
<path fill-rule="evenodd" d="M266.3,216.6h9.2v17.8h-9.2V216.6Z" class="g0_1"/>
<path fill-rule="evenodd" d="M110,234.4H825v17.8H110V234.4Z" class="g0_1"/>
<path fill-rule="evenodd" d="M110,252.2H825V270H110V252.2Z" class="g0_1"/>
<path fill-rule="evenodd" d="M110,252.2h82.7V270H110V252.2Z" class="g0_1"/>
<path fill-rule="evenodd" d="M110,270H825v17.8H110V270Z" class="g0_1"/>
<path fill-rule="evenodd" d="M110,270h9.2v17.8H110V270Z" class="g0_1"/>
<path fill-rule="evenodd" d="M110,287.8H825v17.8H110V287.8Z" class="g0_1"/>
<path fill-rule="evenodd" d="M146.7,287.8h46v17.8h-46V287.8Z" class="g0_1"/>
<path fill-rule="evenodd" d="M110,305.6H825v17.7H110V305.6Z" class="g0_1"/>
<path fill-rule="evenodd" d="M146.7,305.6H156v17.7h-9.3V305.6Z" class="g0_1"/>
<path fill-rule="evenodd" d="M110,323.4H825v17.7H110V323.4Z" class="g0_1"/>
<path fill-rule="evenodd" d="M183.6,323.4h55.1v17.7H183.6V323.4Z" class="g0_1"/>
<path fill-rule="evenodd" d="M248,323.4h36.7v17.7H248V323.4Z" class="g0_1"/>
<path fill-rule="evenodd" d="M330.7,323.4h9.2v17.7h-9.2V323.4Z" class="g0_1"/>
<path fill-rule="evenodd" d="M339.9,323.4h55.2v17.7H339.9V323.4Z" class="g0_1"/>
<path fill-rule="evenodd" d="M395.1,323.4h18.4v17.7H395.1V323.4Z" class="g0_1"/>
<path fill-rule="evenodd" d="M459.5,323.4h9.1v17.7h-9.1V323.4Z" class="g0_1"/>
<path fill-rule="evenodd" d="M110,341.2H825v17.7H110V341.2Z" class="g0_1"/>
<path fill-rule="evenodd" d="M183.6,341.2h9.1v17.7h-9.1V341.2Z" class="g0_1"/>
<path fill-rule="evenodd" d="M110,359H825v17.7H110V359Z" class="g0_1"/>
<path fill-rule="evenodd" d="M220.3,359H248v17.7H220.3V359Z" class="g0_1"/>
<path fill-rule="evenodd" d="M266.3,359h9.2v17.7h-9.2V359Z" class="g0_1"/>
<path fill-rule="evenodd" d="M110,376.7H825v17.8H110V376.7Z" class="g0_1"/>
<path fill-rule="evenodd" d="M284.7,376.7h9.2v17.8h-9.2V376.7Z" class="g0_1"/>
<path fill-rule="evenodd" d="M293.9,376.7h46v17.8h-46V376.7Z" class="g0_1"/>
<path fill-rule="evenodd" d="M339.9,376.7h9.2v17.8h-9.2V376.7Z" class="g0_1"/>
<path fill-rule="evenodd" d="M349.1,376.7h55.2v17.8H349.1V376.7Z" class="g0_1"/>
<path fill-rule="evenodd" d="M404.3,376.7h9.2v17.8h-9.2V376.7Z" class="g0_1"/>
<path fill-rule="evenodd" d="M413.5,376.7h9.2v17.8h-9.2V376.7Z" class="g0_1"/>
<path fill-rule="evenodd" d="M422.7,376.7h9.2v17.8h-9.2V376.7Z" class="g0_1"/>
<path fill-rule="evenodd" d="M431.9,376.7h55.2v17.8H431.9V376.7Z" class="g0_1"/>
<path fill-rule="evenodd" d="M487.1,376.7h9.2v17.8h-9.2V376.7Z" class="g0_1"/>
<path fill-rule="evenodd" d="M496.3,376.7h9.2v17.8h-9.2V376.7Z" class="g0_1"/>
<path fill-rule="evenodd" d="M505.5,376.7h9.2v17.8h-9.2V376.7Z" class="g0_1"/>
<path fill-rule="evenodd" d="M514.7,376.7h9.2v17.8h-9.2V376.7Z" class="g0_1"/>
<path fill-rule="evenodd" d="M523.9,376.7h18.4v17.8H523.9V376.7Z" class="g0_1"/>
<path fill-rule="evenodd" d="M110,394.5H825v17.8H110V394.5Z" class="g0_1"/>
<path fill-rule="evenodd" d="M238.7,394.5H248v17.8h-9.3V394.5Z" class="g0_1"/>
<path fill-rule="evenodd" d="M257.1,394.5h27.6v17.8H257.1V394.5Z" class="g0_1"/>
<path fill-rule="evenodd" d="M284.7,394.5h9.2v17.8h-9.2V394.5Z" class="g0_1"/>
<path fill-rule="evenodd" d="M293.9,394.5h46v17.8h-46V394.5Z" class="g0_1"/>
<path fill-rule="evenodd" d="M339.9,394.5h9.2v17.8h-9.2V394.5Z" class="g0_1"/>
<path fill-rule="evenodd" d="M413.5,394.5h9.2v17.8h-9.2V394.5Z" class="g0_1"/>
<path fill-rule="evenodd" d="M422.7,394.5h73.6v17.8H422.7V394.5Z" class="g0_1"/>
<path fill-rule="evenodd" d="M496.3,394.5H533v17.8H496.3V394.5Z" class="g0_1"/>
<path fill-rule="evenodd" d="M110,412.3H825V430H110V412.3Z" class="g0_1"/>
<path fill-rule="evenodd" d="M220.3,412.3h18.4V430H220.3V412.3Z" class="g0_1"/>
<path fill-rule="evenodd" d="M248,412.3h9.1V430H248V412.3Z" class="g0_1"/>
<path fill-rule="evenodd" d="M275.5,412.3h9.2V430h-9.2V412.3Z" class="g0_1"/>
<path fill-rule="evenodd" d="M293.9,412.3h9.2V430h-9.2V412.3Z" class="g0_1"/>
<path fill-rule="evenodd" d="M312.4,412.3h18.3V430H312.4V412.3Z" class="g0_1"/>
<path fill-rule="evenodd" d="M339.9,412.3h9.2V430h-9.2V412.3Z" class="g0_1"/>
<path fill-rule="evenodd" d="M349.1,412.3h9.2V430h-9.2V412.3Z" class="g0_1"/>
<path fill-rule="evenodd" d="M110,430.1H825v17.7H110V430.1Z" class="g0_1"/>
<path fill-rule="evenodd" d="M220.3,430.1h9.2v17.7h-9.2V430.1Z" class="g0_1"/>
<path fill-rule="evenodd" d="M110,447.9H825v17.7H110V447.9Z" class="g0_1"/>
<path fill-rule="evenodd" d="M321.5,447.9h9.2v17.7h-9.2V447.9Z" class="g0_1"/>
<path fill-rule="evenodd" d="M330.7,447.9h46v17.7h-46V447.9Z" class="g0_1"/>
<path fill-rule="evenodd" d="M376.7,447.9h9.2v17.7h-9.2V447.9Z" class="g0_1"/>
<path fill-rule="evenodd" d="M385.9,447.9h73.6v17.7H385.9V447.9Z" class="g0_1"/>
<path fill-rule="evenodd" d="M459.5,447.9h9.1v17.7h-9.1V447.9Z" class="g0_1"/>
<path fill-rule="evenodd" d="M468.6,447.9h55.3v17.7H468.6V447.9Z" class="g0_1"/>
<path fill-rule="evenodd" d="M523.9,447.9H533v17.7h-9.1V447.9Z" class="g0_1"/>
<path fill-rule="evenodd" d="M533,447.9h18.5v17.7H533V447.9Z" class="g0_1"/>
<path fill-rule="evenodd" d="M551.5,447.9h9.2v17.7h-9.2V447.9Z" class="g0_1"/>
<path fill-rule="evenodd" d="M560.7,447.9H579v17.7H560.7V447.9Z" class="g0_1"/>
<path fill-rule="evenodd" d="M579,447.9h9.3v17.7H579V447.9Z" class="g0_1"/>
<path fill-rule="evenodd" d="M588.3,447.9H625v17.7H588.3V447.9Z" class="g0_1"/>
<path fill-rule="evenodd" d="M625,447.9h9.3v17.7H625V447.9Z" class="g0_1"/>
<path fill-rule="evenodd" d="M634.3,447.9h64.4v17.7H634.3V447.9Z" class="g0_1"/>
<path fill-rule="evenodd" d="M698.7,447.9h18.4v17.7H698.7V447.9Z" class="g0_1"/>
<path fill-rule="evenodd" d="M110,465.7H825v17.7H110V465.7Z" class="g0_1"/>
<path fill-rule="evenodd" d="M321.5,465.7h9.2v17.7h-9.2V465.7Z" class="g0_1"/>
<path fill-rule="evenodd" d="M330.7,465.7h36.8v17.7H330.7V465.7Z" class="g0_1"/>
<path fill-rule="evenodd" d="M367.5,465.7h27.6v17.7H367.5V465.7Z" class="g0_1"/>
<path fill-rule="evenodd" d="M110,483.5H825v17.7H110V483.5Z" class="g0_1"/>
<path fill-rule="evenodd" d="M220.3,483.5h9.2v17.7h-9.2V483.5Z" class="g0_1"/>
<path fill-rule="evenodd" d="M110,501.2H825v17.7H110V501.2Z" class="g0_1"/>
<path fill-rule="evenodd" d="M220.3,501.2h36.8v17.7H220.3V501.2Z" class="g0_1"/>
<path fill-rule="evenodd" d="M110,519H825v17.7H110V519Z" class="g0_1"/>
<path fill-rule="evenodd" d="M220.3,519h9.2v17.7h-9.2V519Z" class="g0_1"/>
<path fill-rule="evenodd" d="M110,536.8H825v17.7H110V536.8Z" class="g0_1"/>
<path fill-rule="evenodd" d="M321.5,536.8h9.2v17.7h-9.2V536.8Z" class="g0_1"/>
<path fill-rule="evenodd" d="M330.7,536.8h46v17.7h-46V536.8Z" class="g0_1"/>
<path fill-rule="evenodd" d="M376.7,536.8h9.2v17.7h-9.2V536.8Z" class="g0_1"/>
<path fill-rule="evenodd" d="M385.9,536.8h73.6v17.7H385.9V536.8Z" class="g0_1"/>
<path fill-rule="evenodd" d="M459.5,536.8h9.1v17.7h-9.1V536.8Z" class="g0_1"/>
<path fill-rule="evenodd" d="M468.6,536.8h55.3v17.7H468.6V536.8Z" class="g0_1"/>
<path fill-rule="evenodd" d="M523.9,536.8H533v17.7h-9.1V536.8Z" class="g0_1"/>
<path fill-rule="evenodd" d="M533,536.8h18.5v17.7H533V536.8Z" class="g0_1"/>
<path fill-rule="evenodd" d="M551.5,536.8h9.2v17.7h-9.2V536.8Z" class="g0_1"/>
<path fill-rule="evenodd" d="M560.7,536.8H579v17.7H560.7V536.8Z" class="g0_1"/>
<path fill-rule="evenodd" d="M579,536.8h9.3v17.7H579V536.8Z" class="g0_1"/>
<path fill-rule="evenodd" d="M588.3,536.8h27.5v17.7H588.3V536.8Z" class="g0_1"/>
<path fill-rule="evenodd" d="M615.8,536.8H625v17.7h-9.2V536.8Z" class="g0_1"/>
<path fill-rule="evenodd" d="M625,536.8h64.4v17.7H625V536.8Z" class="g0_1"/>
<path fill-rule="evenodd" d="M689.4,536.8h18.4v17.7H689.4V536.8Z" class="g0_1"/>
<path fill-rule="evenodd" d="M110,554.6H825v17.7H110V554.6Z" class="g0_1"/>
<path fill-rule="evenodd" d="M321.5,554.6h9.2v17.7h-9.2V554.6Z" class="g0_1"/>
<path fill-rule="evenodd" d="M330.7,554.6h36.8v17.7H330.7V554.6Z" class="g0_1"/>
<path fill-rule="evenodd" d="M367.5,554.6h27.6v17.7H367.5V554.6Z" class="g0_1"/>
<path fill-rule="evenodd" d="M110,572.4H825v17.7H110V572.4Z" class="g0_1"/>
<path fill-rule="evenodd" d="M220.3,572.4h9.2v17.7h-9.2V572.4Z" class="g0_1"/>
<path fill-rule="evenodd" d="M110,590.1H825v17.7H110V590.1Z" class="g0_1"/>
<path fill-rule="evenodd" d="M183.6,590.1h9.1v17.7h-9.1V590.1Z" class="g0_1"/>
<path fill-rule="evenodd" d="M110,607.9H825v17.7H110V607.9Z" class="g0_1"/>
<path fill-rule="evenodd" d="M146.7,607.9H156v17.7h-9.3V607.9Z" class="g0_1"/>
<path fill-rule="evenodd" d="M110,625.7H825v29.2H110V625.7Z" class="g0_1"/>
<path fill-rule="evenodd" d="M110,625.7h9.2v17.7H110V625.7Z" class="g0_1"/>
<path fill-rule="evenodd" d="M110,655H825v43.7H110V655Z" class="g1_1"/>
<path fill-rule="evenodd" d="M110,698.7H825v27.5H110V698.7Z" class="g1_1"/>
<path fill-rule="evenodd" d="M110,726.2H825v27.5H110V726.2Z" class="g1_1"/>
<path fill-rule="evenodd" d="M110,753.7H825v27.5H110V753.7Z" class="g1_1"/>
<path fill-rule="evenodd" d="M110,781.2H825v38.9H110V781.2Z" class="g1_1"/>
<path fill-rule="evenodd" d="M110,820.1H825v27.5H110V820.1Z" class="g1_1"/>
<path fill-rule="evenodd" d="M110,847.6H825v27.5H110V847.6Z" class="g1_1"/>
<path fill-rule="evenodd" d="M110,875.1H825v39H110v-39Z" class="g1_1"/>
<path fill-rule="evenodd" d="M110,914.1H825v43.7H110V914.1Z" class="g1_1"/>
<path fill-rule="evenodd" d="M110,957.8H825v17.8H110V957.8Z" class="g0_1"/>
<path fill-rule="evenodd" d="M110,975.6H825v17.8H110V975.6Z" class="g0_1"/>
<path fill-rule="evenodd" d="M110,993.4H825v29.2H110V993.4Z" class="g0_1"/>
</svg>